<?xml version="1.0" encoding="UTF-8" standalone="no"?><!-- Generator: Gravit.io --><svg
  xmlns="http://www.w3.org/2000/svg"
  xmlns:xlink="http://www.w3.org/1999/xlink"
  style="isolation: isolate"
  viewBox="0 0 800 1000"
  width="800pt"
  height="1000pt"
>
  <defs>
    <clipPath id="_clipPath_WQOO1pzVNBVWg840CI5gTa2T8hvER7nu">
      <rect width="800" height="1000" />
    </clipPath>
  </defs>
  <g clip-path="url(#_clipPath_WQOO1pzVNBVWg840CI5gTa2T8hvER7nu)">
    <g style="isolation: isolate" class="maps_outer">
      <path
        d=" M 20 740 L 20 940 L 420 940 L 420 900 L 600 900 L 600 940 L 710 940 L 710 910 L 720 910"
        fill="none"
        vector-effect="non-scaling-stroke"
        stroke-width="2"
        stroke="rgb(0,0,0)"
        stroke-linejoin="miter"
        stroke-linecap="square"
        stroke-miterlimit="3"
      />
      <path
        d=" M 720 910 C 725 918.5 740.125 920.375 750 920 C 780.25 919.75 790.172 890.297 790 840 C 790 810.125 784.667 781.667 770 770 L 770 740 L 790 740 L 790 110 L 760 110 L 760 80 L 650 80 L 650 740 C 638.624 740 621.999 740 600.125 740 C 600.094 740.109 600.047 750.234 600 750 C 600 750.141 484.918 750 417 750 C 416.977 749.988 417.012 740.004 417 740 Q 273.68 740 20 740"
        fill="none"
        vector-effect="non-scaling-stroke"
        stroke-width="2"
        stroke="rgb(0,0,0)"
        stroke-linejoin="miter"
        stroke-linecap="square"
        stroke-miterlimit="3"
      />
      <path
        d=" M 770 770 L 710 770 L 710 910"
        fill="none"
        vector-effect="non-scaling-stroke"
        stroke-width="2"
        stroke="rgb(0,0,0)"
        stroke-linejoin="miter"
        stroke-linecap="square"
        stroke-miterlimit="3"
      />
    </g>
    <g style="isolation: isolate" class="maps_booth">
      <path
        d=" M 20 740 L 90 740 L 90 830 L 20 830 L 20 740 Z "
        fill="rgb(139,139,139)"
        vector-effect="non-scaling-stroke"
        stroke-width="2"
        stroke="rgb(0,0,0)"
        stroke-linejoin="miter"
        stroke-linecap="square"
        stroke-miterlimit="3"
        id="maps_H2A"
      />
      <path
        d=" M 90 740 L 152 740 L 152 830 L 90 830 L 90 740 Z "
        fill="rgb(139,139,139)"
        vector-effect="non-scaling-stroke"
        stroke-width="2"
        stroke="rgb(0,0,0)"
        stroke-linejoin="miter"
        stroke-linecap="square"
        stroke-miterlimit="3"
        id="maps_H2B"
      />
      <path
        d=" M 152 740 L 218 740 L 218 830 L 152 830 L 152 740 Z "
        fill="rgb(139,139,139)"
        vector-effect="non-scaling-stroke"
        stroke-width="2"
        stroke="rgb(0,0,0)"
        stroke-linejoin="miter"
        stroke-linecap="square"
        stroke-miterlimit="3"
        id="maps_H2C"
      />
      <path
        d=" M 218 740 L 283 740 L 283 830 L 218 830 L 218 740 Z "
        fill="rgb(139,139,139)"
        vector-effect="non-scaling-stroke"
        stroke-width="2"
        stroke="rgb(0,0,0)"
        stroke-linejoin="miter"
        stroke-linecap="square"
        stroke-miterlimit="3"
        id="maps_H2D"
      />
      <path
        d=" M 283 740 L 347 740 L 347 830 L 283 830 L 283 740 Z "
        fill="rgb(139,139,139)"
        vector-effect="non-scaling-stroke"
        stroke-width="2"
        stroke="rgb(0,0,0)"
        stroke-linejoin="miter"
        stroke-linecap="square"
        stroke-miterlimit="3"
        id="maps_H2E"
      />
      <path
        d=" M 730 675 L 730 606 L 650 606 L 650 675 L 730 675 Z "
        fill="rgb(139,139,139)"
        vector-effect="non-scaling-stroke"
        stroke-width="2"
        stroke="rgb(0,0,0)"
        stroke-linejoin="miter"
        stroke-linecap="square"
        stroke-miterlimit="3"
        id="maps_M2D"
      />
      <path
        d=" M 650 540 L 650 472 L 730 472 L 730 540 L 650 540 Z "
        fill="rgb(139,139,139)"
        vector-effect="non-scaling-stroke"
        stroke-width="2"
        stroke="rgb(0,0,0)"
        stroke-linejoin="miter"
        stroke-linecap="square"
        stroke-miterlimit="3"
        id="maps_M2B"
      />
      <path
        d=" M 650 606 L 650 540 L 730 540 L 730 606 L 650 606 Z "
        fill="rgb(139,139,139)"
        vector-effect="non-scaling-stroke"
        stroke-width="2"
        stroke="rgb(0,0,0)"
        stroke-linejoin="miter"
        stroke-linecap="square"
        stroke-miterlimit="3"
        id="maps_M2C"
      />
      <path
        d=" M 650 472 L 650 407 L 730 407 L 730 472 L 650 472 Z "
        fill="rgb(139,139,139)"
        vector-effect="non-scaling-stroke"
        stroke-width="2"
        stroke="rgb(0,0,0)"
        stroke-linejoin="miter"
        stroke-linecap="square"
        stroke-miterlimit="3"
        id="maps_M2A"
      />
      <path
        d=" M 650 377 L 650 273 L 730 273 L 730 377 L 650 377 Z "
        fill="rgb(139,139,139)"
        vector-effect="non-scaling-stroke"
        stroke-width="2"
        stroke="rgb(0,0,0)"
        stroke-linejoin="miter"
        stroke-linecap="square"
        stroke-miterlimit="3"
        id="maps_ScienceLab"
      />
      <path
        d=" M 650 176 L 650 80 L 730 80 L 730 176 L 650 176 Z "
        fill="rgb(139,139,139)"
        vector-effect="non-scaling-stroke"
        stroke-width="2"
        stroke="rgb(0,0,0)"
        stroke-linejoin="miter"
        stroke-linecap="square"
        stroke-miterlimit="3"
        id="maps_BiologyLab"
      />
      <path
        d=" M 152 860 L 250.5 860 L 250.5 940 L 152 940 L 152 860 Z "
        fill="rgb(139,139,139)"
        vector-effect="non-scaling-stroke"
        stroke-width="2"
        stroke="rgb(0,0,0)"
        stroke-linejoin="miter"
        stroke-linecap="square"
        stroke-miterlimit="3"
        id="maps_SRNo3"
      />
      <path
        d=" M 250 860 L 318 860 L 318 940 L 250 940 L 250 860 Z "
        fill="rgb(139,139,139)"
        vector-effect="non-scaling-stroke"
        stroke-width="2"
        stroke="rgb(0,0,0)"
        stroke-linejoin="miter"
        stroke-linecap="square"
        stroke-miterlimit="3"
        id="maps_SRNo4"
      />
    </g>
    <g style="isolation: isolate" class="maps_blank">
      <path
        d=" M 704 740 L 704 752 L 730 752 L 730 740 L 704 740 Z "
        fill="none"
        vector-effect="non-scaling-stroke"
        stroke-width="2"
        stroke="rgb(0,0,0)"
        stroke-linejoin="miter"
        stroke-linecap="square"
        stroke-miterlimit="3"
      />
      <path
        d=" M 380 807.5 L 380 785 L 380 740 L 417 740 L 417 830 L 380 830 L 380 807.5 Z "
        fill="none"
        vector-effect="non-scaling-stroke"
        stroke-width="2"
        stroke="rgb(0,0,0)"
        stroke-linejoin="miter"
        stroke-linecap="square"
        stroke-miterlimit="3"
      />
      <path
        d=" M 347 740 L 380 740 L 380 830 L 347 830 L 347 740 Z "
        fill="none"
        vector-effect="non-scaling-stroke"
        stroke-width="2"
        stroke="rgb(0,0,0)"
        stroke-linejoin="miter"
        stroke-linecap="square"
        stroke-miterlimit="3"
      />
      <path
        d=" M 750 311 L 750 347 L 790 347 L 790 311 L 750 311 Z "
        fill="none"
        vector-effect="non-scaling-stroke"
        stroke-width="2"
        stroke="rgb(0,0,0)"
        stroke-linejoin="miter"
        stroke-linecap="square"
        stroke-miterlimit="3"
      />
      <path
        d=" M 750 275 L 750 311 L 790 311 L 790 275 L 750 275 Z "
        fill="none"
        vector-effect="non-scaling-stroke"
        stroke-width="2"
        stroke="rgb(0,0,0)"
        stroke-linejoin="miter"
        stroke-linecap="square"
        stroke-miterlimit="3"
      />
      <path
        d=" M 750 177 L 750 275 L 790 275 L 790 177 L 750 177 Z "
        fill="none"
        vector-effect="non-scaling-stroke"
        stroke-width="2"
        stroke="rgb(0,0,0)"
        stroke-linejoin="miter"
        stroke-linecap="square"
        stroke-miterlimit="3"
      />
      <path
        d=" M 750 110 L 750 176 L 790 176 L 790 110 L 750 110 Z "
        fill="none"
        vector-effect="non-scaling-stroke"
        stroke-width="2"
        stroke="rgb(0,0,0)"
        stroke-linejoin="miter"
        stroke-linecap="square"
        stroke-miterlimit="3"
      />
      <path
        d=" M 750 347 L 750 377 L 790 377 L 790 347 L 750 347 Z "
        fill="none"
        vector-effect="non-scaling-stroke"
        stroke-width="2"
        stroke="rgb(0,0,0)"
        stroke-linejoin="miter"
        stroke-linecap="square"
        stroke-miterlimit="3"
      />
      <path
        d=" M 750 740 L 750 675 L 790 675 L 790 740 L 750 740 Z "
        fill="none"
        vector-effect="non-scaling-stroke"
        stroke-width="2"
        stroke="rgb(0,0,0)"
        stroke-linejoin="miter"
        stroke-linecap="square"
        stroke-miterlimit="3"
      />
      <path
        d=" M 750 675 L 750 606 L 790 606 L 790 675 L 750 675 Z "
        fill="none"
        vector-effect="non-scaling-stroke"
        stroke-width="2"
        stroke="rgb(0,0,0)"
        stroke-linejoin="miter"
        stroke-linecap="square"
        stroke-miterlimit="3"
      />
      <path
        d=" M 20 860 L 20 940 L 55 940 L 55 860 L 20 860 Z "
        fill="none"
        vector-effect="non-scaling-stroke"
        stroke-width="2"
        stroke="rgb(0,0,0)"
        stroke-linejoin="miter"
        stroke-linecap="square"
        stroke-miterlimit="3"
      />
      <path
        d=" M 89.871 860 L 91 940 L 56 940 L 56 860 L 89.871 860 Z "
        fill="none"
        vector-effect="non-scaling-stroke"
        stroke-width="2"
        stroke="rgb(0,0,0)"
        stroke-linejoin="miter"
        stroke-linecap="square"
        stroke-miterlimit="3"
      />
      <path
        d=" M 650 820 L 660 820 L 660 740 L 600 740 L 600 766.667 L 600 820 L 650 820 Z "
        fill="none"
        vector-effect="non-scaling-stroke"
        stroke-width="2"
        stroke="rgb(0,0,0)"
        stroke-linejoin="miter"
        stroke-linecap="square"
        stroke-miterlimit="3"
      />
      <path
        d=" M 650 225 L 650 176 L 730 176 L 730 225 L 650 225 Z "
        fill="none"
        vector-effect="non-scaling-stroke"
        stroke-width="2"
        stroke="rgb(0,0,0)"
        stroke-linejoin="miter"
        stroke-linecap="square"
        stroke-miterlimit="3"
      />
      <path
        d=" M 703.5 407 L 687.375 407 L 650 407 L 650 377 L 730 377 L 730 407 L 703.5 407 Z "
        fill="none"
        vector-effect="non-scaling-stroke"
        stroke-width="2"
        stroke="rgb(0,0,0)"
        stroke-linejoin="miter"
        stroke-linecap="square"
        stroke-miterlimit="3"
      />
      <path
        d=" M 750 110 L 750 80 L 760 80 L 760 110 L 750 110 Z "
        fill="none"
        vector-effect="non-scaling-stroke"
        stroke-width="2"
        stroke="rgb(0,0,0)"
        stroke-linejoin="miter"
        stroke-linecap="square"
        stroke-miterlimit="3"
      />
      <path
        d=" M 91 860 L 121 860 L 121 940 L 91.909 940 L 91 860 Z "
        fill="none"
        vector-effect="non-scaling-stroke"
        stroke-width="2"
        stroke="rgb(0,0,0)"
        stroke-linejoin="miter"
        stroke-linecap="square"
        stroke-miterlimit="3"
      />
      <path
        d=" M 121 860 L 152 860 L 152 940 L 121.939 940 L 121 860 Z "
        fill="none"
        vector-effect="non-scaling-stroke"
        stroke-width="2"
        stroke="rgb(0,0,0)"
        stroke-linejoin="miter"
        stroke-linecap="square"
        stroke-miterlimit="3"
      />
      <path
        d=" M 600 900 L 660 900 L 660 940 L 600 940 L 600 900 Z "
        fill="none"
        vector-effect="non-scaling-stroke"
        stroke-width="2"
        stroke="rgb(0,0,0)"
        stroke-linejoin="miter"
        stroke-linecap="square"
        stroke-miterlimit="3"
      />
      <path
        d=" M 710 940 L 660 940 L 660 860 L 660 940 L 710 940 L 710 860 L 710 940 Z "
        fill-rule="evenodd"
        fill="none"
        vector-effect="non-scaling-stroke"
        stroke-width="2"
        stroke="rgb(0,0,0)"
        stroke-linejoin="miter"
        stroke-linecap="square"
        stroke-miterlimit="3"
      />
      <path
        d=" M 650 740 L 717.5 740 L 730 740 L 730 675 L 650 675 L 650 740 Z "
        fill="none"
        vector-effect="non-scaling-stroke"
        stroke-width="2"
        stroke="rgb(0,0,0)"
        stroke-linejoin="miter"
        stroke-linecap="square"
        stroke-miterlimit="3"
      />
      <path
        d=" M 650 274 L 650 226 L 730 226 L 730 235.273 L 730 274 L 650 274 Z "
        fill="none"
        vector-effect="non-scaling-stroke"
        stroke-width="2"
        stroke="rgb(0,0,0)"
        stroke-linejoin="miter"
        stroke-linecap="square"
        stroke-miterlimit="3"
      />
    </g>
    <g style="isolation: isolate" class="maps_special">
      <path
        d=" M 750 407 L 790 407 L 790 480 L 750 480 L 750 407 Z "
        fill="rgb(255,0,0)"
        vector-effect="non-scaling-stroke"
        stroke-width="2"
        stroke="rgb(0,0,0)"
        stroke-linejoin="miter"
        stroke-linecap="square"
        stroke-miterlimit="3"
      />
      <path
        d=" M 350 860 L 350 940 L 318 940 L 318 860 L 350 860 Z "
        fill="rgb(255,0,0)"
        vector-effect="non-scaling-stroke"
        stroke-width="2"
        stroke="rgb(0,0,0)"
        stroke-linejoin="miter"
        stroke-linecap="square"
        stroke-miterlimit="3"
      />
      <path
        d=" M 710 770 L 710 910 L 720 910 Q 726.281 920.453 750 920 C 773.719 919.547 790.109 899.844 790 850 C 789.891 800.156 782 782 770 770 C 769.744 769.744 712.75 770.25 710 770 Z "
        fill="rgb(139,139,139)"
        vector-effect="non-scaling-stroke"
        stroke-width="2"
        stroke="rgb(0,0,0)"
        stroke-linejoin="miter"
        stroke-linecap="square"
        stroke-miterlimit="3"
      />
      <path
        d=" M 750 520 L 750 480 L 790 480 L 790 520"
        fill="none"
        vector-effect="non-scaling-stroke"
        stroke-width="2"
        stroke="rgb(0,0,0)"
        stroke-linejoin="miter"
        stroke-linecap="square"
        stroke-miterlimit="3"
      />
      <path
        d=" M 420 890 L 420 940 L 350 940 L 350 890"
        fill="none"
        vector-effect="non-scaling-stroke"
        stroke-width="2"
        stroke="rgb(0,0,0)"
        stroke-linejoin="miter"
        stroke-linecap="square"
        stroke-miterlimit="3"
      />
      <path
        d=" M 417 750 L 417 850 L 600 850 L 600 750 L 417 750 Z "
        fill="none"
        vector-effect="non-scaling-stroke"
        stroke-width="2"
        stroke="rgb(0,0,0)"
        stroke-linejoin="miter"
        stroke-linecap="square"
        stroke-miterlimit="3"
      />
    </g>
    <g style="isolation: isolate" class="maps_decorations">
      <g style="isolation: isolate">
        <path
          d=" M 790 490.5 L 776.109 490.5 L 750 490.5 M 750 505 L 770 505 M 750 495 L 770 495 M 750 510 L 770 510 M 750 500 L 770 500 M 750 516 L 770 516 M 770 520 Q 770 502.318 770 491"
          fill-rule="evenodd"
          fill="none"
          vector-effect="non-scaling-stroke"
          stroke-width="1"
          stroke="rgb(0,0,0)"
          stroke-linejoin="miter"
          stroke-linecap="square"
          stroke-miterlimit="3"
        />
        <path
          d=" M 790 495 L 770 495 L 770 500 L 790 500 L 790 505 L 770 505 L 770 510 L 790 510 L 790 516 L 770 516"
          fill="none"
          vector-effect="non-scaling-stroke"
          stroke-width="1"
          stroke="rgb(0,0,0)"
          stroke-linejoin="miter"
          stroke-linecap="square"
          stroke-miterlimit="3"
        />
      </g>
      <g style="isolation: isolate">
        <path
          d=" M 685 920 L 660 920 L 660 915 L 685 915 L 685 910 L 660 910 L 660 905 L 685 905 L 685 900 L 660 900 L 660 895 L 685 895 L 685 890 L 660 890 L 660 885 L 685 885 L 685 880 L 660 880"
          fill="none"
          vector-effect="non-scaling-stroke"
          stroke-width="1"
          stroke="rgb(0,0,0)"
          stroke-linejoin="miter"
          stroke-linecap="square"
          stroke-miterlimit="3"
        />
        <path
          d=" M 685 924 L 685 880 L 685 880 L 710 880 L 710 885 L 685 885 L 685 890 L 710 890 L 710 895 L 685 895 L 685 900 L 710 900 L 710 905 L 685 905 L 685 910 L 710 910 L 710 915 L 685 915 L 685 920 L 710 920"
          fill="none"
          vector-effect="non-scaling-stroke"
          stroke-width="1"
          stroke="rgb(0,0,0)"
          stroke-linejoin="miter"
          stroke-linecap="square"
          stroke-miterlimit="3"
        />
      </g>
      <g style="isolation: isolate">
        <line
          x1="420"
          y1="890"
          x2="375"
          y2="890"
          vector-effect="non-scaling-stroke"
          stroke-width="2"
          stroke="rgb(0,0,0)"
          stroke-linejoin="miter"
          stroke-linecap="square"
          stroke-miterlimit="3"
        />
        <line
          x1="400"
          y1="915"
          x2="366"
          y2="915"
          vector-effect="non-scaling-stroke"
          stroke-width="2"
          stroke="rgb(0,0,0)"
          stroke-linejoin="miter"
          stroke-linecap="square"
          stroke-miterlimit="3"
        />
        <path
          d=" M 367 916 L 367 940 L 371 940 L 371 915 L 375 915 L 375 940 L 379 940 L 379 915 L 383 915 L 383 940 L 387 940 L 387 915 L 391 915 L 391 940 L 395 940 L 395 915 L 399 915 L 399 940 L 420 940 L 420 892 L 419 890 L 397 890 L 397 915 L 393 915 L 393 890 L 389 890 L 389 915 L 385 915 L 385 890"
          fill="none"
          vector-effect="non-scaling-stroke"
          stroke-width="1"
          stroke="rgb(0,0,0)"
          stroke-linejoin="miter"
          stroke-linecap="square"
          stroke-miterlimit="3"
        />
      </g>
      <path
        d=" M 330 892 C 330 889.24 332.24 887 335 887 C 337.76 887 340 889.24 340 892 C 340 894.76 337.76 897 335 897 C 332.24 897 330 894.76 330 892 Z  M 335 899 L 330 912 L 340 912 L 335 899 Z "
        fill-rule="evenodd"
        fill="rgb(255,255,255)"
      />
      <path
        d=" M 765 435 C 765 432.24 767.24 430 770 430 C 772.76 430 775 432.24 775 435 C 775 437.76 772.76 440 770 440 C 767.24 440 765 437.76 765 435 Z  M 770 442 L 766 455 L 775 455 L 770 442 Z "
        fill-rule="evenodd"
        fill="rgb(255,255,255)"
      />
      <g style="isolation: isolate">
        <g clip-path="url(#_clipPath_2Hso1Hu7yHC8qmMgdedV62Nqw9mPnIux)">
          <text
            transform="matrix(1,0,0,1,30,801.755)"
            style="
              font-family: 'Oswald';
              font-weight: 400;
              font-size: 35px;
              font-style: normal;
              fill: #ffffff;
              stroke: none;
            "
          >
            H2A
          </text>
        </g>
        <defs>
          <clipPath id="_clipPath_2Hso1Hu7yHC8qmMgdedV62Nqw9mPnIux">
            <rect
              x="0"
              y="0"
              width="54"
              height="50"
              transform="matrix(1,0,0,1,30,760)"
            />
          </clipPath>
        </defs>
        <g clip-path="url(#_clipPath_5nnR9ug0kcBP4Eb8iPeZ1Pltk88Sl3U3)">
          <text
            transform="matrix(1,0,0,1,286,801.755)"
            style="
              font-family: 'Oswald';
              font-weight: 400;
              font-size: 35px;
              font-style: normal;
              fill: #ffffff;
              stroke: none;
            "
          >
            H2E
          </text>
        </g>
        <defs>
          <clipPath id="_clipPath_5nnR9ug0kcBP4Eb8iPeZ1Pltk88Sl3U3">
            <rect
              x="0"
              y="0"
              width="58"
              height="49.87"
              transform="matrix(1,0,0,1,286,760)"
            />
          </clipPath>
        </defs>
        <g clip-path="url(#_clipPath_ZrgjwWBdoqEuUB6qKp5iq6e8mSdjNWaU)">
          <text
            transform="matrix(1,0,0,1,257,916.755)"
            style="
              font-family: 'Noto Sans CJK JP';
              font-weight: 400;
              font-size: 35px;
              font-style: normal;
              fill: #ffffff;
              stroke: none;
            "
          >
            特4
          </text>
        </g>
        <defs>
          <clipPath id="_clipPath_ZrgjwWBdoqEuUB6qKp5iq6e8mSdjNWaU">
            <rect
              x="0"
              y="0"
              width="58"
              height="49.87"
              transform="matrix(1,0,0,1,257,875)"
            />
          </clipPath>
        </defs>
        <g clip-path="url(#_clipPath_BKGgY4hJ8XdPNLIyliU8RPWMTNY2KDnK)">
          <text
            transform="matrix(1,0,0,1,170,915.6)"
            style="
              font-family: 'Noto Sans CJK JP';
              font-weight: 400;
              font-size: 35px;
              font-style: normal;
              fill: #ffffff;
              stroke: none;
            "
          >
            特3
          </text>
        </g>
        <defs>
          <clipPath id="_clipPath_BKGgY4hJ8XdPNLIyliU8RPWMTNY2KDnK">
            <rect
              x="0"
              y="0"
              width="58"
              height="49.87"
              transform="matrix(1,0,0,1,170,875)"
            />
          </clipPath>
        </defs>
        <g clip-path="url(#_clipPath_tBqyiP1e5me41EzVsfnXTDOyvI4cvwno)">
          <text
            transform="matrix(1,0,0,1,222,801.885)"
            style="
              font-family: 'Oswald';
              font-weight: 400;
              font-size: 35px;
              font-style: normal;
              fill: #ffffff;
              stroke: none;
            "
          >
            H2D
          </text>
        </g>
        <defs>
          <clipPath id="_clipPath_tBqyiP1e5me41EzVsfnXTDOyvI4cvwno">
            <rect
              x="0"
              y="0"
              width="58"
              height="49.87"
              transform="matrix(1,0,0,1,222,760.13)"
            />
          </clipPath>
        </defs>
        <g clip-path="url(#_clipPath_MwBhse7MzxiCep6pzOMbik6Ow9xVbf76)">
          <text
            transform="matrix(1,0,0,1,157,801.885)"
            style="
              font-family: 'Oswald';
              font-weight: 400;
              font-size: 35px;
              font-style: normal;
              fill: #ffffff;
              stroke: none;
            "
          >
            H2C
          </text>
        </g>
        <defs>
          <clipPath id="_clipPath_MwBhse7MzxiCep6pzOMbik6Ow9xVbf76">
            <rect
              x="0"
              y="0"
              width="58"
              height="50"
              transform="matrix(1,0,0,1,157,760.13)"
            />
          </clipPath>
        </defs>
        <g clip-path="url(#_clipPath_TBVDbgznwIiJz7laqXybwLrs5AVwrZBs)">
          <text
            transform="matrix(1,0,0,1,95,801.885)"
            style="
              font-family: 'Oswald';
              font-weight: 400;
              font-size: 35px;
              font-style: normal;
              fill: #ffffff;
              stroke: none;
            "
          >
            H2B
          </text>
        </g>
        <defs>
          <clipPath id="_clipPath_TBVDbgznwIiJz7laqXybwLrs5AVwrZBs">
            <rect
              x="0"
              y="0"
              width="55"
              height="155.61"
              transform="matrix(1,0,0,1,95,760.13)"
            />
          </clipPath>
        </defs>
        <g clip-path="url(#_clipPath_MLZtylct4hibsOn3l5dCp2evoVsCwMca)">
          <text
            transform="matrix(1,0,0,1,450,812.9)"
            style="
              font-family: 'Noto Sans CJK JP';
              font-weight: 400;
              font-size: 40px;
              font-style: normal;
              letter-spacing: -1;
              fill: #000000;
              stroke: none;
            "
          >
            職員室
          </text>
        </g>
        <defs>
          <clipPath id="_clipPath_MLZtylct4hibsOn3l5dCp2evoVsCwMca">
            <rect
              x="0"
              y="0"
              width="128.25"
              height="91"
              transform="matrix(1,0,0,1,450,766.5)"
            />
          </clipPath>
        </defs>
        <g clip-path="url(#_clipPath_Qk81MF8Fn6YRCVWCPOOQlKPG7uGzMmgO)">
          <text
            transform="matrix(1,0,0,1,717,853.8)"
            style="
              font-family: 'Noto Sans CJK SC';
              font-weight: 400;
              font-size: 30px;
              font-style: normal;
              fill: #ffffff;
              stroke: none;
            "
          >
            聖堂
          </text>
        </g>
        <defs>
          <clipPath id="_clipPath_Qk81MF8Fn6YRCVWCPOOQlKPG7uGzMmgO">
            <rect
              x="0"
              y="0"
              width="100"
              height="70"
              transform="matrix(1,0,0,1,717,819)"
            />
          </clipPath>
        </defs>
        <g clip-path="url(#_clipPath_BmIHWsr1fjNEcuuWjBRVqmillYTOi2ZJ)">
          <text
            transform="matrix(1,0,0,1,663,651.755)"
            style="
              font-family: 'Oswald';
              font-weight: 400;
              font-size: 35px;
              font-style: normal;
              fill: #ffffff;
              stroke: none;
            "
          >
            M2D
          </text>
        </g>
        <defs>
          <clipPath id="_clipPath_BmIHWsr1fjNEcuuWjBRVqmillYTOi2ZJ">
            <rect
              x="0"
              y="0"
              width="57"
              height="51.87"
              transform="matrix(1,0,0,1,663,610)"
            />
          </clipPath>
        </defs>
        <g clip-path="url(#_clipPath_yfLbTvWUHkl7KLu8S6UEQmbnBkRox9lK)">
          <text
            transform="matrix(1,0,0,1,663,589.885)"
            style="
              font-family: 'Oswald';
              font-weight: 400;
              font-size: 35px;
              font-style: normal;
              fill: #ffffff;
              stroke: none;
            "
          >
            M2C
          </text>
        </g>
        <defs>
          <clipPath id="_clipPath_yfLbTvWUHkl7KLu8S6UEQmbnBkRox9lK">
            <rect
              x="0"
              y="0"
              width="60"
              height="51.87"
              transform="matrix(1,0,0,1,663,548.13)"
            />
          </clipPath>
        </defs>
        <g clip-path="url(#_clipPath_WJ9lkSnCpgf8V9UaPiXey71M34J7qBPr)">
          <text
            transform="matrix(1,0,0,1,663,521.755)"
            style="
              font-family: 'Oswald';
              font-weight: 400;
              font-size: 35px;
              font-style: normal;
              fill: #ffffff;
              stroke: none;
            "
          >
            M2B
          </text>
        </g>
        <defs>
          <clipPath id="_clipPath_WJ9lkSnCpgf8V9UaPiXey71M34J7qBPr">
            <rect
              x="0"
              y="0"
              width="61"
              height="51.87"
              transform="matrix(1,0,0,1,663,480)"
            />
          </clipPath>
        </defs>
        <g clip-path="url(#_clipPath_UsTpLR0AKkHqgrprCF1Xe8Sm0Vn3COcQ)">
          <text
            transform="matrix(1,0,0,1,663,453.625)"
            style="
              font-family: 'Oswald';
              font-weight: 400;
              font-size: 35px;
              font-style: normal;
              fill: #ffffff;
              stroke: none;
            "
          >
            M2A
          </text>
        </g>
        <defs>
          <clipPath id="_clipPath_UsTpLR0AKkHqgrprCF1Xe8Sm0Vn3COcQ">
            <rect
              x="0"
              y="0"
              width="57"
              height="51.87"
              transform="matrix(1,0,0,1,663,411.87)"
            />
          </clipPath>
        </defs>
        <g clip-path="url(#_clipPath_kN5n2Z6T1uQuj7o2dR45KS4PYSpO29HJ)">
          <text
            transform="matrix(1,0,0,1,654.5,327.84)"
            style="
              font-family: 'Noto Sans CJK JP';
              font-weight: 400;
              font-size: 24px;
              font-style: normal;
              fill: #ffffff;
              stroke: none;
            "
          >
            科学室
          </text>
        </g>
        <defs>
          <clipPath id="_clipPath_kN5n2Z6T1uQuj7o2dR45KS4PYSpO29HJ">
            <rect
              x="0"
              y="0"
              width="74"
              height="35.52"
              transform="matrix(1,0,0,1,654.5,300)"
            />
          </clipPath>
        </defs>
        <g clip-path="url(#_clipPath_yUJf8uYK0Fw5UqyBsOClFjR7Fh7Waq8o)">
          <text
            transform="matrix(1,0,0,1,652,137.84)"
            style="
              font-family: 'Noto Sans CJK JP';
              font-weight: 400;
              font-size: 24px;
              font-style: normal;
              fill: #ffffff;
              stroke: none;
            "
          >
            生物室
          </text>
        </g>
        <defs>
          <clipPath id="_clipPath_yUJf8uYK0Fw5UqyBsOClFjR7Fh7Waq8o">
            <rect
              x="0"
              y="0"
              width="77"
              height="35.52"
              transform="matrix(1,0,0,1,652,110)"
            />
          </clipPath>
        </defs>
      </g>
    </g>
  </g>
</svg>