<?xml version="1.0" encoding="UTF-8" standalone="no"?>
<!DOCTYPE svg PUBLIC "-//W3C//DTD SVG 1.1//EN" "http://www.w3.org/Graphics/SVG/1.1/DTD/svg11.dtd">
<svg xmlns="http://www.w3.org/2000/svg" version="1.1" viewBox="0.00 0.00 512.00 512.00">
<path fill="#FFFFFF" d="
  M 98.94 477.26
  C 58.56 456.86 35.85 419.94 31.41 375.47
  Q 30.74 368.79 30.73 355.51
  Q 30.68 270.82 30.72 177.74
  Q 30.73 164.49 31.48 157.78
  Q 33.81 137.05 40.27 120.26
  C 54.85 82.40 86.43 56.36 126.07 47.28
  Q 143.42 43.31 162.29 43.31
  Q 255.04 43.31 348.51 43.31
  Q 372.67 43.31 395.94 51.25
  Q 428.52 62.37 450.17 89.08
  Q 469.05 112.35 475.25 141.75
  Q 478.55 157.43 478.56 174.45
  Q 478.61 269.58 478.53 363.54
  Q 478.51 375.05 476.17 388.39
  C 471.31 416.08 458.78 440.84 438.28 459.02
  C 413.88 480.66 381.58 491.11 349.21 491.16
  Q 308.23 491.23 158.92 491.13
  C 139.42 491.12 117.10 486.43 98.94 477.26
  Z
  M 162.57 84.85
  C 124.90 84.84 91.40 100.58 78.20 137.93
  Q 72.27 154.70 72.26 172.02
  Q 72.20 264.77 72.28 360.68
  C 72.30 389.31 82.32 418.44 107.33 434.66
  C 123.46 445.12 142.39 449.64 161.46 449.65
  Q 256.16 449.69 347.74 449.66
  C 382.34 449.64 415.66 434.35 430.27 401.47
  Q 438.77 382.36 438.79 362.55
  Q 438.90 267.25 438.81 173.98
  C 438.79 150.66 431.24 127.21 415.39 110.34
  C 398.37 92.22 373.62 84.88 348.61 84.88
  Q 254.09 84.85 162.57 84.85
  Z"
/>
<circle fill="#FFFFFF" cx="374.74" cy="148.09" r="26.17"/>
<path fill="#FFFFFF" d="
  M 370.08 266.47
  A 115.53 115.53 0.0 0 1 254.55 382.00
  A 115.53 115.53 0.0 0 1 139.02 266.47
  A 115.53 115.53 0.0 0 1 254.55 150.94
  A 115.53 115.53 0.0 0 1 370.08 266.47
  Z
  M 328.60 266.38
  A 73.96 73.96 0.0 0 0 254.64 192.42
  A 73.96 73.96 0.0 0 0 180.68 266.38
  A 73.96 73.96 0.0 0 0 254.64 340.34
  A 73.96 73.96 0.0 0 0 328.60 266.38
  Z"
/>
</svg>
