<?xml version="1.0" encoding="UTF-8" standalone="no"?><!-- Generator: Gravit.io --><svg xmlns="http://www.w3.org/2000/svg" xmlns:xlink="http://www.w3.org/1999/xlink" style="isolation:isolate" viewBox="0 0 200 200" width="200pt" height="200pt"><defs><clipPath id="_clipPath_D0BasduYbqAfswOJibuGKEbOK19u0ese"><rect width="200" height="200"/></clipPath></defs><g clip-path="url(#_clipPath_D0BasduYbqAfswOJibuGKEbOK19u0ese)"><path d=" M 20 0 L 180 0 C 191.038 0 200 8.962 200 20 L 200 180 C 200 191.038 191.038 200 180 200 L 20 200 C 8.962 200 0 191.038 0 180 L 0 20 C 0 8.962 8.962 0 20 0 Z " fill="rgb(0,0,0)" fill-opacity="0.5"/><path d=" M 83.608 29 C 87.336 29 90.358 32.022 90.358 35.75 L 90.358 92 C 90.358 94.485 92.373 96.5 94.858 96.5 C 97.344 96.5 99.358 94.485 99.358 92 L 99.358 69.203 L 100.132 69.167 C 102.985 69.059 105.865 69.095 107.476 69.41 C 108.682 69.653 110.122 70.274 111.508 71.048 C 112.201 71.426 112.858 72.371 112.858 73.874 L 112.858 92 C 112.858 94.485 114.873 96.5 117.358 96.5 C 119.844 96.5 121.858 94.485 121.858 92 L 121.858 77.915 L 122.812 77.825 C 125.656 77.609 128.068 77.735 129.184 78.185 C 130.246 78.599 131.884 80.048 133.558 82.055 C 134.287 82.919 134.908 83.765 135.358 84.386 L 135.358 96.5 C 135.358 98.985 137.373 101 139.858 101 C 142.344 101 144.358 98.985 144.358 96.5 L 144.358 87.5 L 147.436 87.5 C 149.98 87.5 152.405 88.576 154.111 90.463 C 155.817 92.349 156.646 94.869 156.391 97.4 L 153.952 121.835 C 153.638 124.975 152.665 128.014 151.099 130.754 L 138.544 152.732 C 137.744 154.134 136.253 154.999 134.638 155 L 77.92 155 C 76.217 155 74.66 154.039 73.897 152.516 L 62.809 130.331 L 40.201 92.666 C 39 90.651 39.486 88.056 41.336 86.614 C 43.186 85.171 45.821 85.331 47.482 86.987 L 69.172 108.677 C 70.458 109.966 72.395 110.353 74.077 109.658 C 75.76 108.962 76.858 107.321 76.858 105.5 L 76.858 35.75 C 76.858 32.022 79.881 29 83.608 29 Z  M 99.358 60.194 L 99.358 35.75 C 99.358 27.052 92.307 20 83.608 20 C 74.91 20 67.858 27.052 67.858 35.75 L 67.858 94.637 L 53.845 80.624 C 48.967 75.773 41.242 75.309 35.818 79.542 C 30.394 83.774 28.968 91.381 32.488 97.292 L 54.907 134.669 L 65.842 156.539 C 68.13 161.113 72.806 164.002 77.92 164 L 134.638 164 C 139.482 163.998 143.954 161.402 146.356 157.196 L 158.911 135.227 C 161.106 131.387 162.468 127.127 162.907 122.726 L 165.346 98.291 C 165.852 93.231 164.194 88.193 160.782 84.422 C 157.37 80.651 152.522 78.5 147.436 78.5 L 142.207 78.5 C 141.646 77.738 141.06 76.994 140.452 76.268 C 138.733 74.207 135.862 71.156 132.532 69.824 C 129.256 68.51 124.918 68.636 122.11 68.852 L 120.922 68.96 C 119.964 66.507 118.182 64.464 115.882 63.182 C 113.812 61.988 111.573 61.114 109.24 60.59 C 106.45 60.032 102.589 60.068 99.79 60.176 L 99.358 60.194 Z " fill="rgb(255,255,255)"/><line x1="107" y1="20" x2="134" y2="20" vector-effect="non-scaling-stroke" stroke-width="5" stroke="rgb(255,255,255)" stroke-linejoin="miter" stroke-linecap="square" stroke-miterlimit="3"/><path d=" M 127 10 L 137 20 L 127 30" fill="none" vector-effect="non-scaling-stroke" stroke-width="5" stroke="rgb(255,255,255)" stroke-linejoin="miter" stroke-linecap="square" stroke-miterlimit="3"/><line x1="58" y1="20" x2="31" y2="20" vector-effect="non-scaling-stroke" stroke-width="5" stroke="rgb(255,255,255)" stroke-linejoin="miter" stroke-linecap="square" stroke-miterlimit="3"/><path d=" M 38 30 L 28 20 L 38 10" fill="none" vector-effect="non-scaling-stroke" stroke-width="5" stroke="rgb(255,255,255)" stroke-linejoin="miter" stroke-linecap="square" stroke-miterlimit="3"/><g clip-path="url(#_clipPath_MWuWrlTiN28mSzKdQuF6bPtdfZgj6XNv)"><text transform="matrix(1,0,0,1,31.5,188.1)" style="font-family:'Noto Sans CJK JP';font-weight:400;font-size:15px;font-style:normal;fill:#ffffff;stroke:none;">スクロールできます</text></g><defs><clipPath id="_clipPath_MWuWrlTiN28mSzKdQuF6bPtdfZgj6XNv"><rect x="0" y="0" width="200" height="35.6" transform="matrix(1,0,0,1,0,164)"/></clipPath></defs></g></svg>