<?xml version="1.0" encoding="UTF-8" standalone="no"?><!-- Generator: Gravit.io --><svg xmlns="http://www.w3.org/2000/svg" xmlns:xlink="http://www.w3.org/1999/xlink" style="isolation:isolate" viewBox="0 0 800 1000" width="800pt" height="1000pt"><g style="isolation:isolate" id="outer"><path d=" M 20 740 L 20 940 L 420 940 L 420 860 L 420 830 L 420 830 L 340 830 L 420 830 L 420 740 L 20 740" id="Path" fill="none" vector-effect="non-scaling-stroke" stroke-width="2" stroke="rgb(0,0,0)" stroke-linejoin="miter" stroke-linecap="square" stroke-miterlimit="3"/><path d=" M 710 910 L 720 910 C 725 918.5 740.125 920.375 750 920 C 780.25 919.75 790.172 890.297 790 840 C 790 810.125 784.667 781.667 770 770 L 790 770 L 790 740 L 790 110 L 760 110 L 760 80 L 650 80 L 650 740 C 638.624 740 621.999 740 600.125 740 C 600.094 740.109 600.047 940.234 600 940 Q 600 940.141 710 940 L 710 910.125" id="Path" fill="none" vector-effect="non-scaling-stroke" stroke-width="2" stroke="rgb(0,0,0)" stroke-linejoin="miter" stroke-linecap="square" stroke-miterlimit="3"/></g><g style="isolation:isolate" id="booth"><path d=" M 55 739.944 L 280 739.944 L 280 859.944 C 257.708 859.944 220.309 860.125 220 860 C 219.964 859.985 220.009 858.028 220 858 Q 220 858.008 127 858 C 127 858.001 127 860.016 127 860 C 100.094 860 72.428 859.944 55 859.944 L 55 739.944 Z " id="maps_dining" fill="rgb(139,139,139)" vector-effect="non-scaling-stroke" stroke-width="2" stroke="rgb(0,0,0)" stroke-linejoin="miter" stroke-linecap="square" stroke-miterlimit="3"/><path d=" M 650 150 L 750 150 L 750 280 L 790 280 L 790 405 L 750 405 L 750 435 L 705 435 L 705 405 L 650 405 L 650 150 Z " id="maps_tosyo" fill="rgb(139,139,139)" vector-effect="non-scaling-stroke" stroke-width="2" stroke="rgb(0,0,0)" stroke-linejoin="miter" stroke-linecap="square" stroke-miterlimit="3"/><path d=" M 705 500 L 705 606 L 700 606 L 690 606 L 680 606 L 666 606 L 655 606 L 650 606 L 650 500 L 705 500 Z " id="maps_hoken" fill="rgb(139,139,139)" vector-effect="non-scaling-stroke" stroke-width="2" stroke="rgb(0,0,0)" stroke-linejoin="miter" stroke-linecap="square" stroke-miterlimit="3"/></g><g style="isolation:isolate" id="blank"><path d=" M 750 220 L 750 280 L 790 280 L 790 220 L 750 220 Z " id="Path" fill="none" vector-effect="non-scaling-stroke" stroke-width="2" stroke="rgb(0,0,0)" stroke-linejoin="miter" stroke-linecap="square" stroke-miterlimit="3"/><path d=" M 750 176 L 750 220 L 790 220 L 790 176 L 750 176 Z " id="Path" fill="none" vector-effect="non-scaling-stroke" stroke-width="2" stroke="rgb(0,0,0)" stroke-linejoin="miter" stroke-linecap="square" stroke-miterlimit="3"/><path d=" M 750 110 L 750 176 L 790 176 L 790 110 L 750 110 Z " id="Path" fill="none" vector-effect="non-scaling-stroke" stroke-width="2" stroke="rgb(0,0,0)" stroke-linejoin="miter" stroke-linecap="square" stroke-miterlimit="3"/><path d=" M 730 740 L 730 675 L 790 675 L 790 740 L 730 740 Z " id="Path" fill="none" vector-effect="non-scaling-stroke" stroke-width="2" stroke="rgb(0,0,0)" stroke-linejoin="miter" stroke-linecap="square" stroke-miterlimit="3"/><path d=" M 20 860 L 20 940 L 55 940 L 55 860 L 20 860 Z " id="StairE" fill="none" vector-effect="non-scaling-stroke" stroke-width="2" stroke="rgb(0,0,0)" stroke-linejoin="miter" stroke-linecap="square" stroke-miterlimit="3"/><path d=" M 280 860 L 280 940 L 220 940 L 220 860 L 280 860 Z " id="Audiovisual_Preparation_Room" fill="none" vector-effect="non-scaling-stroke" stroke-width="2" stroke="rgb(0,0,0)" stroke-linejoin="miter" stroke-linecap="square" stroke-miterlimit="3"/><path d=" M 750 110 L 750 80 L 760 80 L 760 110 L 750 110 Z " id="Path" fill="none" vector-effect="non-scaling-stroke" stroke-width="2" stroke="rgb(0,0,0)" stroke-linejoin="miter" stroke-linecap="square" stroke-miterlimit="3"/><path d=" M 280 860 L 290.758 860 L 316 860 L 316 940 L 280 940 L 280 860 Z " id="H1_StaffRoom" fill="none" vector-effect="non-scaling-stroke" stroke-width="2" stroke="rgb(0,0,0)" stroke-linejoin="miter" stroke-linecap="square" stroke-miterlimit="3"/><path d=" M 600 847 L 660 847 L 660 940 C 650.875 940 630.875 940 600 940 L 600 847 Z " id="Interview_Room" fill="none" vector-effect="non-scaling-stroke" stroke-width="2" stroke="rgb(0,0,0)" stroke-linejoin="miter" stroke-linecap="square" stroke-miterlimit="3"/><path d=" M 685 860 L 685 940 L 710 940 L 685 940 L 685 860 L 685 860 Z " fill-rule="evenodd" id="StairC" fill="none" vector-effect="non-scaling-stroke" stroke-width="2" stroke="rgb(0,0,0)" stroke-linejoin="miter" stroke-linecap="square" stroke-miterlimit="3"/><path d=" M 55 860 L 55 940 L 127 940 L 127 860 L 55 860 Z " id="Path" fill="none" vector-effect="non-scaling-stroke" stroke-width="2" stroke="rgb(0,0,0)" stroke-linejoin="miter" stroke-linecap="square" stroke-miterlimit="3"/><path d=" M 127 940 L 127 858 L 220 858 L 220 940 L 127 940 Z " id="Path" fill="none" vector-effect="non-scaling-stroke" stroke-width="2" stroke="rgb(0,0,0)" stroke-linejoin="miter" stroke-linecap="square" stroke-miterlimit="3"/><path d=" M 650 150 L 650 80 L 750 80 L 750 150 L 650 150 Z " id="Path" fill="none" vector-effect="non-scaling-stroke" stroke-width="2" stroke="rgb(0,0,0)" stroke-linejoin="miter" stroke-linecap="square" stroke-miterlimit="3"/><path d=" M 660 885 L 685 885 L 685 940 L 660 940 L 660 885 Z " id="パス" fill="none" vector-effect="non-scaling-stroke" stroke-width="2" stroke="rgb(0,0,0)" stroke-linejoin="miter" stroke-linecap="square" stroke-miterlimit="3"/><path d=" M 750 405 L 790 405 L 790 435 L 750 435 L 750 405 Z " id="Path" fill="none" vector-effect="non-scaling-stroke" stroke-width="2" stroke="rgb(0,0,0)" stroke-linejoin="miter" stroke-linecap="square" stroke-miterlimit="3"/><path d=" M 650 405 L 705 405 L 705 435 L 650 435 L 650 405 Z " id="Path" fill="none" vector-effect="non-scaling-stroke" stroke-width="2" stroke="rgb(0,0,0)" stroke-linejoin="miter" stroke-linecap="square" stroke-miterlimit="3"/><path d=" M 650 435 L 705 435 L 705 500 L 650 500 L 650 435 Z " id="Path" fill="none" vector-effect="non-scaling-stroke" stroke-width="2" stroke="rgb(0,0,0)" stroke-linejoin="miter" stroke-linecap="square" stroke-miterlimit="3"/><line x1="710" y1="675" x2="710" y2="830" id="Path" vector-effect="non-scaling-stroke" stroke-width="2" stroke="rgb(0,0,0)" stroke-linejoin="miter" stroke-linecap="square" stroke-miterlimit="3"/><path d=" M 730 740 L 730 770 L 790 770 L 790 740 L 730 740 Z " id="Path" fill="none" vector-effect="non-scaling-stroke" stroke-width="2" stroke="rgb(0,0,0)" stroke-linejoin="miter" stroke-linecap="square" stroke-miterlimit="3"/><path d=" M 640 846 L 640 830 L 690 830" id="Path" fill="none" vector-effect="non-scaling-stroke" stroke-width="2" stroke="rgb(0,0,0)" stroke-linejoin="miter" stroke-linecap="square" stroke-miterlimit="3"/><path d=" M 770 770 L 730 770 L 730 815 L 788 815" id="Path" fill="none" vector-effect="non-scaling-stroke" stroke-width="2" stroke="rgb(0,0,0)" stroke-linejoin="miter" stroke-linecap="square" stroke-miterlimit="3"/><path d=" M 786 884 L 786 860 L 770 860 L 770 900 L 780 900" id="Path" fill="none" vector-effect="non-scaling-stroke" stroke-width="2" stroke="rgb(0,0,0)" stroke-linejoin="miter" stroke-linecap="square" stroke-miterlimit="3"/><path d=" M 730 815 L 730 860 L 789 860" id="Path" fill="none" vector-effect="non-scaling-stroke" stroke-width="2" stroke="rgb(0,0,0)" stroke-linejoin="miter" stroke-linecap="square" stroke-miterlimit="3"/><path d=" M 720 910 L 710 910 L 710 860 L 770 860 L 770 913" id="Path" fill="none" vector-effect="non-scaling-stroke" stroke-width="2" stroke="rgb(0,0,0)" stroke-linejoin="miter" stroke-linecap="square" stroke-miterlimit="3"/><path d=" M 20 740 L 55 740 L 55 860 L 20 860 L 20 740 Z " id="mapsAudiovisual_Room" fill="none" vector-effect="non-scaling-stroke" stroke-width="2" stroke="rgb(0,0,0)" stroke-linejoin="miter" stroke-linecap="square" stroke-miterlimit="3"/></g><g style="isolation:isolate" id="special"><path d=" M 348 860 L 348 940 L 316 940 L 316 860 L 348 860 Z " id="Toilet" fill="rgb(37,37,198)" vector-effect="non-scaling-stroke" stroke-width="2" stroke="rgb(0,0,0)" stroke-linejoin="miter" stroke-linecap="square" stroke-miterlimit="3"/><path d=" M 750 606 L 750 540 L 790 540 L 790 606" id="Path" fill="none" vector-effect="non-scaling-stroke" stroke-width="2" stroke="rgb(0,0,0)" stroke-linejoin="miter" stroke-linecap="square" stroke-miterlimit="3"/><path d=" M 376 890 L 376 940 L 348 940 L 348 890" id="Path" fill="none" vector-effect="non-scaling-stroke" stroke-width="2" stroke="rgb(0,0,0)" stroke-linejoin="miter" stroke-linecap="square" stroke-miterlimit="3"/><path d=" M 376 860 L 420 860 L 420 940 L 376 940 L 376 860 Z " id="S_F2_1" fill="rgb(0,150,136)" vector-effect="non-scaling-stroke" stroke-width="2" stroke="rgb(0,0,0)" stroke-linejoin="miter" stroke-linecap="square" stroke-miterlimit="3"/></g><g style="isolation:isolate" id="Decorations"><g style="isolation:isolate" id="stairB"><path d=" M 750 606 L 750 629 L 790 629 L 790 627 L 752 627 L 752 606 L 750 606 L 750 600 L 790 600 L 790 595 L 750 595 L 750 590 L 790 590 L 790 585 L 750 585 L 750 580 L 790 580 L 790 575 L 750 575 L 750 570 L 790 570 L 790 567 L 785 565 L 750 565 L 750 560 L 773 560 L 761 555 L 750 555 L 750 550 L 790 567" id="Path" fill="none" vector-effect="non-scaling-stroke" stroke-width="1" stroke="rgb(0,0,0)" stroke-linejoin="miter" stroke-linecap="square" stroke-miterlimit="3"/></g><g style="isolation:isolate" id="stairC"><path d=" M 685 924 L 685 880 L 685 880 L 710 880 L 710 885 L 685 885 L 685 890 L 710 890 L 710 895 L 685 895 L 685 900 L 710 900 L 710 905 L 685 905 L 685 910 L 710 910 L 710 915 L 685 915 L 685 920 L 710 920" id="Path" fill="none" vector-effect="non-scaling-stroke" stroke-width="1" stroke="rgb(0,0,0)" stroke-linejoin="miter" stroke-linecap="square" stroke-miterlimit="3"/></g><g style="isolation:isolate" id="stairD"><path d=" M 376 860 L 348 860 L 348 864 L 376 864 L 376 868 L 348 868 L 348 872 L 376 872 L 376 876 L 348 876 L 348 880 L 376 880 L 376 884 L 348 884 L 348 889 L 376 889 L 376 895 L 348 895 L 348 901 L 376 901 L 348 924 L 348 915 L 359 915 L 364 911 L 348 911 L 348 906 L 370 906" id="Path" fill="none" vector-effect="non-scaling-stroke" stroke-width="1" stroke="rgb(0,0,0)" stroke-linejoin="miter" stroke-linecap="square" stroke-miterlimit="3"/></g><path d=" M 328 890 C 328 887.24 330.24 885 333 885 C 335.76 885 338 887.24 338 890 C 338 892.76 335.76 895 333 895 C 330.24 895 328 892.76 328 890 Z  M 332.641 909.067 L 328.359 897.933 C 328.161 897.418 328.448 897 329 897 L 337 897 C 337.552 897 337.839 897.418 337.641 897.933 L 333.359 909.067 C 333.161 909.582 332.839 909.582 332.641 909.067 Z " fill-rule="evenodd" id="Compound Path" fill="rgb(255,255,255)"/><g style="isolation:isolate" id="Text"><g clip-path="url(#_clipPath_eZxTXcEbzRxYjbzrBragDJQDAiQi6h0g)"><text transform="matrix(1,0,0,1,128,810.6)" id="Text" style="font-family:'Noto Sans CJK JP';font-weight:400;font-size:35px;font-style:normal;fill:#ffffff;stroke:none;">食堂</text></g><defs><clipPath id="_clipPath_eZxTXcEbzRxYjbzrBragDJQDAiQi6h0g"><rect x="0" y="0" width="82" height="50" transform="matrix(1,0,0,1,128,770)"/></clipPath></defs><g clip-path="url(#_clipPath_EGcZeNQ30u4YOdxMPBp951huxTM2nDgi)"><text transform="matrix(1,0,0,1,650,559.72)" id="Text" style="font-family:'Noto Sans CJK JP';font-weight:400;font-size:17px;font-style:normal;fill:#ffffff;stroke:none;">保健室</text></g><defs><clipPath id="_clipPath_EGcZeNQ30u4YOdxMPBp951huxTM2nDgi"><rect x="0" y="0" width="53" height="25.16" transform="matrix(1,0,0,1,650,540)"/></clipPath></defs><g clip-path="url(#_clipPath_pFtOn0yijLIzM9bylHLEhcQJU7LPnExr)"><text transform="matrix(1,0,0,1,670,347.12)" id="Text" style="font-family:'Noto Sans CJK JP';font-weight:400;font-size:32px;font-style:normal;fill:#ffffff;stroke:none;">図書館</text></g><defs><clipPath id="_clipPath_pFtOn0yijLIzM9bylHLEhcQJU7LPnExr"><rect x="0" y="0" width="98" height="47.36" transform="matrix(1,0,0,1,670,310)"/></clipPath></defs></g></g><path d=" M 395.251 888.625 C 396.804 888.625 398.064 887.366 398.064 885.813 C 398.064 884.259 396.804 883 395.251 883 C 393.697 883 392.438 884.259 392.438 885.813 C 392.438 887.366 393.697 888.625 395.251 888.625 Z  M 391.061 897.484 C 391.788 897.209 392.157 896.4 391.881 895.674 C 391.606 894.947 390.797 894.578 390.071 894.854 C 386.526 896.189 384 899.611 384 903.625 C 384 908.805 388.196 913 393.376 913 C 396.962 913 400.073 910.99 401.65 908.037 C 402.013 907.352 401.755 906.502 401.07 906.133 C 400.384 905.764 399.534 906.027 399.165 906.713 C 398.064 908.781 395.884 910.188 393.376 910.188 C 389.748 910.188 386.813 907.252 386.813 903.625 C 386.813 900.818 388.577 898.422 391.061 897.484 Z  M 399.224 893.313 L 399.112 892.744 C 398.849 891.438 397.706 890.5 396.37 890.5 C 394.606 890.5 393.282 892.111 393.628 893.84 L 394.981 900.607 C 395.333 902.359 396.868 903.619 398.661 903.619 L 398.96 903.619 C 398.984 903.619 399.007 903.619 399.036 903.619 L 404.55 903.619 C 404.943 903.619 405.289 903.859 405.429 904.229 L 407.556 909.906 C 407.908 910.85 408.951 911.348 409.906 911.025 L 412.719 910.088 C 413.703 909.76 414.231 908.699 413.903 907.715 C 413.574 906.73 412.514 906.203 411.529 906.531 L 410.434 906.895 L 408.939 902.91 C 408.254 901.082 406.502 899.869 404.55 899.869 L 400.536 899.869 L 399.974 897.057 L 403.689 897.057 C 404.726 897.057 405.564 896.219 405.564 895.182 C 405.564 894.145 404.726 893.307 403.689 893.307 L 399.224 893.307 L 399.224 893.313 Z " id="wheelchair" fill="rgb(255,255,255)"/></svg>