<?xml version="1.0" encoding="UTF-8"?>
<svg id="_レイヤー_1" data-name="レイヤー_1" xmlns="http://www.w3.org/2000/svg" version="1.1" xmlns:xlink="http://www.w3.org/1999/xlink" viewBox="0 0 1000 800">
  <!-- Generator: Adobe Illustrator 29.0.0, SVG Export Plug-In . SVG Version: 2.1.0 Build 186)  -->
  <defs>
    <style>
      .st0 {
        fill: red;
      }

      .st0, .st1, .st2, .st3, .st4, .st5, .st6, .st7, .st8, .st9 {
        stroke: #000;
        stroke-linecap: square;
        stroke-miterlimit: 3;
      }

      .st0, .st3 {
        stroke-width: .9px;
      }

      .st10 {
        clip-path: url(#clippath-21);
      }

      .st11 {
        clip-path: url(#clippath-6);
      }

      .st12 {
        clip-path: url(#clippath-7);
      }

      .st13 {
        clip-path: url(#clippath-17);
      }

      .st14 {
        clip-path: url(#clippath-15);
      }

      .st15 {
        clip-path: url(#clippath-18);
      }

      .st16 {
        clip-path: url(#clippath-4);
      }

      .st17 {
        clip-path: url(#clippath-22);
      }

      .st18 {
        clip-path: url(#clippath-23);
      }

      .st19 {
        clip-path: url(#clippath-9);
      }

      .st20 {
        clip-path: url(#clippath-10);
      }

      .st21, .st22 {
        fill: #fff;
      }

      .st23 {
        clip-path: url(#clippath-25);
      }

      .st22, .st24 {
        fill-rule: evenodd;
      }

      .st25 {
        clip-path: url(#clippath-11);
      }

      .st26, .st1, .st5, .st7 {
        fill: none;
      }

      .st1 {
        stroke-width: 2.7px;
      }

      .st27 {
        clip-path: url(#clippath-1);
      }

      .st2 {
        fill: #b9b9b9;
      }

      .st2, .st7, .st8 {
        stroke-width: 1.5px;
      }

      .st28, .st29 {
        isolation: isolate;
      }

      .st30 {
        clip-path: url(#clippath-5);
      }

      .st31 {
        clip-path: url(#clippath-20);
      }

      .st32 {
        clip-path: url(#clippath-8);
      }

      .st3 {
        fill: blue;
      }

      .st4 {
        fill: #5d5d5d;
      }

      .st4, .st6 {
        stroke-width: .9px;
      }

      .st5 {
        stroke-width: .7px;
      }

      .st33 {
        clip-path: url(#clippath-3);
      }

      .st29 {
        font-family: YuGothicUI-Bold, 'Yu Gothic UI';
        font-size: 14px;
        font-weight: 700;
      }

      .st34 {
        clip-path: url(#clippath-12);
      }

      .st35 {
        clip-path: url(#clippath-14);
      }

      .st36 {
        clip-path: url(#clippath-19);
      }

      .st6, .st9 {
        fill: #d1d1d1;
      }

      .st37 {
        clip-path: url(#clippath-16);
      }

      .st8 {
        fill: #009688;
      }

      .st38 {
        clip-path: url(#clippath-2);
      }

      .st9 {
        stroke-width: .9px;
      }

      .st39 {
        clip-path: url(#clippath-13);
      }

      .st40 {
        clip-path: url(#clippath-24);
      }

      .st41 {
        clip-path: url(#clippath);
      }
    </style>
    <clipPath id="clippath">
      <rect class="st26" y="0" width="1000" height="800"/>
    </clipPath>
    <clipPath id="clippath-1">
      <rect class="st26" x="174.3" y="491.6" width="51.5" height="18.6"/>
    </clipPath>
    <clipPath id="clippath-2">
      <rect class="st26" x="182.3" y="470.6" width="51.5" height="18.6"/>
    </clipPath>
    <clipPath id="clippath-3">
      <rect class="st26" x="188.3" y="441.6" width="51.5" height="18.6"/>
    </clipPath>
    <clipPath id="clippath-4">
      <rect class="st26" x="194.3" y="425.6" width="51.5" height="18.6"/>
    </clipPath>
    <clipPath id="clippath-5">
      <rect class="st26" x="200.3" y="408.6" width="51.5" height="18.6"/>
    </clipPath>
    <clipPath id="clippath-6">
      <rect class="st26" x="206.3" y="381.6" width="51.5" height="18.6"/>
    </clipPath>
    <clipPath id="clippath-7">
      <rect class="st26" x="211.3" y="365.6" width="51.5" height="18.6"/>
    </clipPath>
    <clipPath id="clippath-8">
      <rect class="st26" x="215.3" y="348.6" width="51.5" height="18.6"/>
    </clipPath>
    <clipPath id="clippath-9">
      <rect class="st26" x="223.3" y="321.6" width="51.5" height="18.6"/>
    </clipPath>
    <clipPath id="clippath-10">
      <rect class="st26" x="228.3" y="304.6" width="51.5" height="18.6"/>
    </clipPath>
    <clipPath id="clippath-11">
      <rect class="st26" x="232.3" y="288.6" width="51.5" height="18.6"/>
    </clipPath>
    <clipPath id="clippath-12">
      <rect class="st26" x="240" y="258" width="51.5" height="18.6"/>
    </clipPath>
    <clipPath id="clippath-13">
      <rect class="st26" x="245" y="241" width="51.5" height="18.6"/>
    </clipPath>
    <clipPath id="clippath-14">
      <rect class="st26" x="249" y="225" width="51.5" height="18.6"/>
    </clipPath>
    <clipPath id="clippath-15">
      <rect class="st26" x="156.3" y="234.7" width="51.5" height="18.6"/>
    </clipPath>
    <clipPath id="clippath-16">
      <rect class="st26" x="704.3" y="101.4" width="51.5" height="18.6"/>
    </clipPath>
    <clipPath id="clippath-17">
      <rect class="st26" x="94.3" y="339.3" width="51.5" height="18.6"/>
    </clipPath>
    <clipPath id="clippath-18">
      <rect class="st26" x="256.5" y="196" width="51.5" height="18.6"/>
    </clipPath>
    <clipPath id="clippath-19">
      <rect class="st26" x="261.5" y="179" width="51.5" height="18.6"/>
    </clipPath>
    <clipPath id="clippath-20">
      <rect class="st26" x="428.6" y="167.7" width="76.9" height="18.6"/>
    </clipPath>
    <clipPath id="clippath-21">
      <rect class="st26" x="546.1" y="167.7" width="76.9" height="18.6"/>
    </clipPath>
    <clipPath id="clippath-22">
      <rect class="st26" x="638.1" y="167.7" width="76.9" height="18.6"/>
    </clipPath>
    <clipPath id="clippath-23">
      <rect class="st26" x="598.6" y="226.7" width="76.9" height="18.6"/>
    </clipPath>
    <clipPath id="clippath-24">
      <rect class="st26" x="670.6" y="453.7" width="76.9" height="18.6"/>
    </clipPath>
    <clipPath id="clippath-25">
      <rect class="st26" x="452.6" y="404.7" width="51.4" height="18.6"/>
    </clipPath>
  </defs>
  <g class="st41">
    <g>
      <g id="outer" class="st28">
        <g id="_グループ" data-name="グループ">
          <path id="_パス" data-name="パス" class="st7" d="M471.8,109h4l-2.9,11h400" vector-effect="non-scaling-stroke"/>
          <path id="_パス1" data-name="パス" class="st7" d="M872.8,120l29.5-110h-400l-11.8,44-4.4,16.5h80-80l-4.4,16.5h-4" vector-effect="non-scaling-stroke"/>
        </g>
        <g id="_グループ1" data-name="グループ">
          <path id="_パス2" data-name="パス" class="st7" d="M305.7,87h-4.1c13.8-51.4,20.7-77.1,20.7-77,0,0-36.7,0-110,0l-4.4,16.4" vector-effect="non-scaling-stroke"/>
          <path id="_パス3" data-name="パス" class="st7" d="M207.9,26.5h-10c-3.7-4.7-18.6-5.7-28.5-5.5-30.3.1-44.5,16.3-51.8,44-4.4,16.4-3.3,32.1,9.7,38.5h-20l-4.4,16.5L10,466.5h30l-4.4,16.5h110L242.8,120h49.9l3.1-11h4" vector-effect="non-scaling-stroke"/>
        </g>
      </g>
      <g id="booth" class="st28">
        <path id="maps_dining" class="st2" d="M838,119.5h-225l17.5-65.4c22.3,0,59.7,0,60,0,0,0-.3,1.1-.3,1.1,0,0,31,0,93,0,0,0,.3-1.1.3-1.1,26.9,0,54.6,0,72,0l-17.5,65.4Z" vector-effect="non-scaling-stroke"/>
        <path id="maps_tosyo" class="st2" d="M155.9,444.5H55.9l19.2-71.5h-40l18.4-68.8h40l4.4-16.5h45l-4.4,16.5h55l-37.6,140.2Z" vector-effect="non-scaling-stroke"/>
        <path id="maps_hoken" class="st2" d="M152.5,252l15.6-58.3h54l-15.6,58.3h-54Z" vector-effect="non-scaling-stroke"/>
        <g id="outside" class="st28">
          <path id="maps_G1" class="st6" d="M309.4,196.5h-50l4.4-16.5h50l-4.4,16.5Z" vector-effect="non-scaling-stroke"/>
          <path id="maps_G2" class="st6" d="M304.9,213h-50l4.4-16.5h50l-4.4,16.5Z" vector-effect="non-scaling-stroke"/>
          <path id="maps_G3" class="st6" d="M297.1,242.1h-50l4.4-16.5h50l-4.4,16.5Z" vector-effect="non-scaling-stroke"/>
          <path id="maps_G4" class="st6" d="M292.7,258.6h-50l4.4-16.5h50l-4.4,16.5Z" vector-effect="non-scaling-stroke"/>
          <path id="maps_G5" class="st6" d="M288.3,275.1h-50l4.4-16.5h50l-4.4,16.5Z" vector-effect="non-scaling-stroke"/>
          <path id="maps_G6" class="st6" d="M279.9,306.5h-50l4.4-16.5h50l-4.4,16.5Z" vector-effect="non-scaling-stroke"/>
          <path id="maps_G7" class="st6" d="M275.5,323h-50l4.4-16.5h50l-4.4,16.5Z" vector-effect="non-scaling-stroke"/>
          <path id="maps_G8" class="st6" d="M275.5,323h-50c-2.8,10.5-4.3,16-4.4,16.5h50l4.4-16.5Z" vector-effect="non-scaling-stroke"/>
          <path id="maps_G9" class="st6" d="M268.2,349.9h-50l-4.4,16.5h50l4.4-16.5Z" vector-effect="non-scaling-stroke"/>
          <path id="maps_G10" class="st6" d="M209.4,382.9h50l4.4-16.5h-50l-4.4,16.5Z" vector-effect="non-scaling-stroke"/>
          <path id="maps_G11" class="st6" d="M254.8,400h-50l4.4-16.5h50l-4.4,16.5Z" vector-effect="non-scaling-stroke"/>
          <path id="maps_G12" class="st6" d="M252.2,409.9h-50l-4.4,16.5h50l4.4-16.5Z" vector-effect="non-scaling-stroke"/>
          <path id="maps_G13" class="st6" d="M243.3,442.9h-50l4.4-16.5h50l-4.4,16.5Z" vector-effect="non-scaling-stroke"/>
          <path id="maps_G14" class="st9" d="M238.9,459.4h-50l4.4-16.5h50l-4.4,16.5Z" vector-effect="non-scaling-stroke"/>
          <path id="maps_G15" class="st6" d="M231,489.1h-50l4.4-16.5h50l-4.4,16.5Z" vector-effect="non-scaling-stroke"/>
          <path id="maps_G18" class="st6" d="M624.9,188.3h-80l10.3-38.5h80l-10.3,38.5Z" vector-effect="non-scaling-stroke"/>
          <path id="maps_G19" class="st6" d="M716.9,188.3h-80l10.3-38.5h80l-10.3,38.5Z" vector-effect="non-scaling-stroke"/>
          <path id="maps_G22" class="st6" d="M747.5,472h-80l26.5-99h80l-26.5,99Z" vector-effect="non-scaling-stroke"/>
          <path id="maps_G16" class="st6" d="M231,489.1h-50l-5.7,21.5h50l5.7-21.5Z" vector-effect="non-scaling-stroke"/>
          <path id="maps_G181" data-name="maps_G18" class="st6" d="M534.6,188.3h-80l10.3-38.5h80l-10.3,38.5Z" vector-effect="non-scaling-stroke"/>
        </g>
      </g>
      <g id="blank" class="st28">
        <path id="_パス4" data-name="パス" class="st4" d="M66.2,406l8.8-33h-40l-8.8,33h40Z" vector-effect="non-scaling-stroke"/>
        <path id="_パス5" data-name="パス" class="st4" d="M59.7,430.2l6.5-24.2H26.2l-6.5,24.2h40Z" vector-effect="non-scaling-stroke"/>
        <path id="_パス6" data-name="パス" class="st4" d="M50,466.5l9.7-36.3H19.7l-9.7,36.3h40Z" vector-effect="non-scaling-stroke"/>
        <path id="_パス7" data-name="パス" class="st4" d="M162.8,120l-9.6,35.8h-60l9.6-35.8h60Z" vector-effect="non-scaling-stroke"/>
        <path id="StairE" class="st4" d="M890.5,54l11.8-44h-35l-11.8,44h35Z" vector-effect="non-scaling-stroke"/>
        <path id="Audiovisual_Preparation_Room" class="st4" d="M630.5,54l11.8-44h60l-11.8,44h-60Z" vector-effect="non-scaling-stroke"/>
        <path id="_パス8" data-name="パス" class="st4" d="M50,466.5l-4.4,16.5h-10l4.4-16.5h10Z" vector-effect="non-scaling-stroke"/>
        <path id="H1_StaffRoom" class="st4" d="M630.5,54h-36l11.8-44h36l-11.8,44Z" vector-effect="non-scaling-stroke"/>
        <path id="Interview_Room" class="st4" d="M308.6,61.2h-60l13.7-51.1h60l-13.7,51.1Z" vector-effect="non-scaling-stroke"/>
        <path id="StairC" class="st7" d="M225.5,54l11.8-44h-25,25l-11.8,44h0Z" vector-effect="non-scaling-stroke"/>
        <path id="_パス9" data-name="パス" class="st4" d="M855.5,54l11.8-44h-72l-11.8,44h72Z" vector-effect="non-scaling-stroke"/>
        <path id="_パス10" data-name="パス" class="st4" d="M795.3,10l-12.1,45.1h-93l12.1-45.1h93Z" vector-effect="non-scaling-stroke"/>
        <path id="_パス11" data-name="パス" class="st4" d="M155.9,444.5l-10.3,38.5H45.6l10.3-38.5h100Z" vector-effect="non-scaling-stroke"/>
        <path id="_パス12" data-name="パス" class="st4" d="M254.2,40.3h-25l8.1-30.3h25l-8.1,30.3Z" vector-effect="non-scaling-stroke"/>
        <path id="_パス13" data-name="パス" class="st4" d="M93.5,304.3h-40l4.4-16.5h40l-4.4,16.5Z" vector-effect="non-scaling-stroke"/>
        <path id="_パス14" data-name="パス" class="st3" d="M197.5,304.3h-59l4.4-16.5h59l-4.4,16.5Z" vector-effect="non-scaling-stroke"/>
        <path id="_パス15" data-name="パス" class="st4" d="M197.9,287.8h-55l9.6-35.8h55l-9.6,35.8Z" vector-effect="non-scaling-stroke"/>
        <line id="_パス16" data-name="パス" class="st7" x1="173.3" y1="155.8" x2="196.1" y2="70.5" vector-effect="non-scaling-stroke"/>
        <path id="_パス17" data-name="パス" class="st4" d="M162.8,120l4.4-16.5h-60l-4.4,16.5h60Z" vector-effect="non-scaling-stroke"/>
        <path id="_パス18" data-name="パス" class="st7" d="M268.5,61.7l-2.4,8.8h-50" vector-effect="non-scaling-stroke"/>
        <path id="_パス19" data-name="パス" class="st4" d="M127.3,103.5h40l6.6-24.8h-58c-.6,8.9-1.7,11.7,11.4,24.8Z" vector-effect="non-scaling-stroke"/>
        <path id="_パス20" data-name="パス" class="st4" d="M128.1,40.8l-4.1,7.7-1.5,5.5h18l7.7-28.6-5.6,2.2-6.2,4.4" vector-effect="non-scaling-stroke"/>
        <path id="_パス21" data-name="パス" class="st4" d="M117,68l-1.1,10.8h58l6.6-24.8h-59l-4.5,14Z" vector-effect="non-scaling-stroke"/>
        <path id="_パス22" data-name="パス" class="st4" d="M197.9,26.5h10l-7.4,27.5h-79.5c6.4-14.3,15.5-24,27.3-29.2,1.5-2.3,36.5-7.5,49.6,1.6Z" vector-effect="non-scaling-stroke"/>
        <path id="mapsAudiovisual_Room" class="st4" d="M872.8,120h-35l17.7-66h35l-17.7,66Z" vector-effect="non-scaling-stroke"/>
        <path id="_複合シェイプ" data-name="複合シェイプ" class="st5" d="M211.7,299.9l.6-2.2h-6l.3-1.1-4.6,2.2,3.4,2.2.3-1.1h6ZM205.7,292.2l-.6,2.2h6l-.3,1.1,4.6-2.2-3.4-2.2-.3,1.1h-6Z" vector-effect="non-scaling-stroke"/>
      </g>
      <g id="special" class="st28">
        <path id="Toilet" class="st3" d="M562.5,54l11.8-44h32l-11.8,44h-32Z" vector-effect="non-scaling-stroke"/>
        <path id="_パス23" data-name="パス" class="st7" d="M123.1,193.7l-9.7,36.3h-40l9.7-36.3" vector-effect="non-scaling-stroke"/>
        <path id="_パス24" data-name="パス" class="st7" d="M539,37.5l7.4-27.5h28l-7.4,27.5" vector-effect="non-scaling-stroke"/>
        <path id="S_F2_1" class="st8" d="M534.5,54h-44l11.8-44h44l-11.8,44Z" vector-effect="non-scaling-stroke"/>
        <path id="toilet" class="st0" d="M113.4,230l-5,18.7h-40l5-18.7h40Z" vector-effect="non-scaling-stroke"/>
        <path id="_パス25" data-name="パス" class="st3" d="M97.9,287.8l6.6-24.8h-40l-6.6,24.8h40Z" vector-effect="non-scaling-stroke"/>
      </g>
      <g id="Decorations" class="st28">
        <g id="stairB" class="st28">
          <path id="_パス26" data-name="パス" class="st5" d="M123.1,193.7l3.4-12.6h-40l-.3,1.1h38l-3.1,11.6h2l-.9,3.3h-40l-.7,2.8h40l-.7,2.8h-40l-.7,2.8h40l-.7,2.8h-40l-.7,2.8h40l-.7,2.8h-40l-.4,1.6,4.7,1.1h35l-.7,2.8h-23l11.3,2.8h11l-.7,2.8-37.5-9.4" vector-effect="non-scaling-stroke"/>
        </g>
        <g id="stairC" class="st28">
          <path id="_パス27" data-name="パス" class="st5" d="M235,18.8l-6.5,24.2h-25l.7-2.8h25l.7-2.8h-25l.7-2.8h25l.7-2.8h-25l.7-2.8h25l.7-2.8h-25l.7-2.8h25l.7-2.8h-25" vector-effect="non-scaling-stroke"/>
        </g>
        <g id="stairD" class="st28">
          <path id="_パス28" data-name="パス" class="st5" d="M534.5,54h28l.6-2.2h-28l.6-2.2h28l.6-2.2h-28l.6-2.2h28l.6-2.2h-28l.6-2.2h28l.7-2.8h-28l.9-3.3h28l.9-3.3h-28l31.4-12.6-1.3,4.9h-11l-5.6,2.2h16l-.7,2.8h-22" vector-effect="non-scaling-stroke"/>
        </g>
        <path id="_複合パス" data-name="複合パス" class="st22" d="M577.7,29.6c.4-1.5,3-2.8,5.7-2.8s4.7,1.2,4.3,2.8c-.4,1.5-3,2.8-5.7,2.8s-4.7-1.2-4.3-2.8ZM579.4,40l-2.5-5.8c-.2-.4,0-.7.4-.7h8.5c.4,0,.5.2.2.5l-5.9,6.1c-.3.3-.6.2-.8-.1Z"/>
        <path id="_複合パス1" data-name="複合パス" class="st22" d="M163.2,292c.4-1.5,3-2.8,5.7-2.8s4.7,1.2,4.3,2.8c-.4,1.5-3,2.8-5.7,2.8s-4.7-1.2-4.3-2.8ZM164.9,302.3l-2.2-5.1c-.3-.8,0-1.4.9-1.4h7c.8,0,1,.5.5,1.1l-5.4,5.6c-.3.3-.6.2-.8-.1Z"/>
        <path id="_複合パス2" data-name="複合パス" class="st22" d="M75.8,271.1c.4-1.5,3-2.8,5.7-2.8s4.7,1.2,4.3,2.8c-.4,1.5-3,2.8-5.7,2.8s-4.7-1.2-4.3-2.8ZM77.5,281.4l-2.2-5.1c-.3-.8,0-1.4.9-1.4h7c.8,0,1,.5.5,1.1l-5.4,5.6c-.3.3-.6.2-.8-.1Z"/>
        <path id="_複合パス3" data-name="複合パス" class="st22" d="M86.1,236.1c.4-1.5,3-2.8,5.7-2.8s4.7,1.2,4.3,2.8c-.4,1.5-3,2.8-5.7,2.8s-4.7-1.2-4.3-2.8ZM89.5,240.5l-5.9,6.1c-.3.3-.2.5.2.5h8.5c.4,0,.6-.3.4-.7l-2.5-5.8c-.2-.4-.5-.4-.8-.1Z"/>
        <path id="_パス29" data-name="パス" class="st7" d="M510.8,422.5h50l22.1-82.5h-50l-22.1,82.5Z" vector-effect="non-scaling-stroke"/>
        <path id="_パス30" data-name="パス" class="st7" d="M477.2,510.5h-50l20.6-77h50l-20.6,77Z" vector-effect="non-scaling-stroke"/>
        <path id="_パス31" data-name="パス" class="st7" d="M507.8,433.5h50l-20.6,77h-50l20.6-77Z" vector-effect="non-scaling-stroke"/>
        <path id="_パス32" data-name="パス" class="st7" d="M500.8,422.5h-50l22.1-82.5h50l-22.1,82.5Z" vector-effect="non-scaling-stroke"/>
      </g>
      <path id="wheelchair" class="st21" d="M517.2,28c1.6,0,3-.7,3.2-1.5.2-.9-.8-1.5-2.4-1.5s-3,.7-3.2,1.5c-.2.9.8,1.5,2.4,1.5ZM511.7,32.9c.8-.2,1.3-.6,1.1-1-.2-.4-.9-.6-1.7-.5-3.7.7-6.8,2.6-7.4,4.8-.8,2.8,2.8,5.2,8,5.2s7-1.1,9-2.7c.5-.4.3-.8-.3-1-.6-.2-1.5,0-2,.3-1.4,1.1-3.8,1.9-6.3,1.9-3.6,0-6.1-1.6-5.6-3.6.4-1.5,2.5-2.9,5.2-3.4ZM520.5,30.6v-.3c0-.7-1.1-1.2-2.4-1.2s-3.3.9-3.2,1.8l.4,3.7c0,1,1.4,1.7,3.2,1.7h5.9c.4,0,.7.1.8.3l1.3,3.1c.2.5,1.2.8,2.2.6l3-.5c1-.2,1.7-.8,1.5-1.3-.2-.5-1.2-.8-2.2-.7l-1.1.2-.9-2.2c-.4-1-2-1.7-3.9-1.7h-4v-1.5c-.1,0,3.6,0,3.6,0,1,0,2-.5,2.2-1,.2-.6-.6-1-1.6-1h-4.5Z"/>
      <g class="st27">
        <text id="text_G16" class="st29" transform="translate(187.4 506.7)"><tspan x="0" y="0">G16</tspan></text>
      </g>
      <g class="st38">
        <text id="text_G15" class="st29" transform="translate(195.4 485.7)"><tspan x="0" y="0">G15</tspan></text>
      </g>
      <g class="st33">
        <text id="text_G14" class="st29" transform="translate(201.3 456.7)"><tspan x="0" y="0">G14</tspan></text>
      </g>
      <g class="st16">
        <text id="text_G13" class="st29" transform="translate(207.4 440.7)"><tspan x="0" y="0">G13</tspan></text>
      </g>
      <g class="st30">
        <text id="text_G12" class="st29" transform="translate(213.4 423.7)"><tspan x="0" y="0">G12</tspan></text>
      </g>
      <g class="st11">
        <text id="text_G11" class="st29" transform="translate(220.5 396.7)"><tspan x="0" y="0">G11</tspan></text>
      </g>
      <g class="st12">
        <text id="text_G10" class="st29" transform="translate(224.4 380.7)"><tspan x="0" y="0">G10</tspan></text>
      </g>
      <g class="st32">
        <text id="text_G9" class="st29" transform="translate(231.2 363.7)"><tspan x="0" y="0">G9</tspan></text>
      </g>
      <g class="st19">
        <text id="text_G8" class="st29" transform="translate(239.2 336.7)"><tspan x="0" y="0">G8</tspan></text>
      </g>
      <g class="st20">
        <text id="text_G7" class="st29" transform="translate(244.4 319.7)"><tspan x="0" y="0">G7</tspan></text>
      </g>
      <g class="st25">
        <text id="text_G6" class="st29" transform="translate(248.2 303.7)"><tspan x="0" y="0">G6</tspan></text>
      </g>
      <g class="st34">
        <text id="text_G5" class="st29" transform="translate(256 273.1)"><tspan x="0" y="0">G5</tspan></text>
      </g>
      <g class="st39">
        <text id="text_G4" class="st29" transform="translate(260.8 256.1)"><tspan x="0" y="0">G4</tspan></text>
      </g>
      <g class="st35">
        <text id="text_G3" class="st29" transform="translate(265 240.1)"><tspan x="0" y="0">G3</tspan></text>
      </g>
      <g class="st14">
        <text id="text_hoken" class="st29" transform="translate(160 249.8)"><tspan x="0" y="0">保健室</tspan></text>
      </g>
      <g class="st37">
        <text id="text_dining" class="st29" transform="translate(708 116.5)"><tspan x="0" y="0">図書室</tspan></text>
      </g>
      <g class="st13">
        <text id="text_tosyo" class="st29" transform="translate(98 354.4)"><tspan x="0" y="0">図書室</tspan></text>
      </g>
      <g class="st15">
        <text id="text_G2" class="st29" transform="translate(272.5 211.1)"><tspan x="0" y="0">G2</tspan></text>
      </g>
      <g class="st36">
        <text id="text_G1" class="st29" transform="translate(278.6 194.1)"><tspan x="0" y="0">G1</tspan></text>
      </g>
      <g class="st31">
        <g>
          <text id="text_G18" class="st29" transform="translate(479.9 182.8)"><tspan x="0" y="0">G17</tspan></text>
          <text/>
          <text/>
          <text/>
          <text/>
        </g>
      </g>
      <g class="st10">
        <text id="text_G19" class="st29" transform="translate(571.9 182.8)"><tspan x="0" y="0">G18</tspan></text>
      </g>
      <g class="st17">
        <text id="text_G20" class="st29" transform="translate(662.9 182.8)"><tspan x="0" y="0">G19</tspan></text>
      </g>
      <g class="st18">
        <text id="text_G21"/>
      </g>
      <g class="st40">
        <text id="text_G22" class="st29" transform="translate(695.3 468.8)"><tspan x="0" y="0">G20</tspan></text>
      </g>
      <g class="st23">
        <text id="text_G211" data-name="text_G21" class="st29" transform="translate(456.3 419.8)"><tspan x="0" y="0">休憩所</tspan></text>
      </g>
      <g id="_レイヤー_40" data-name="レイヤー_40" class="st28">
        <path id="_パス33" data-name="パス" class="st1" d="M113.1,59.7l-14.7-6,8.4-9-12-1.5,8.7-14.1-17.1,3.3,1.8-11.4-10.8,4.8-.3-15.6-12.3,12.3-5.7-9.6-6,9-10.2-12-1.8,16.5-11.1-5.4,2.4,11.7-15.9-3.9,8.4,13.8-12.3,3.9,8.1,9.3-13.8,5.4,14.1,5.1-8.4,9.3,12.3,1.2-8.4,14.4,15-3.9-1.5,11.4,10.5-4.8,1.2,16.2,10.8-12.3,5.4,9.9,6.9-10.2,11.1,11.7,1.5-15,9.6,5.1-.6-11.4,17.1,4.5-9.6-14.7,12.3-2.7-8.1-8.4,15-6.9Z" vector-effect="non-scaling-stroke"/>
        <path id="north-arrow-n-svgrepo-com" class="st24" d="M27.8,64.9h12.3v-2.3h-8l8-5v-2.5h-12.3v2.3h8.2l-8.2,5v2.4ZM44.2,61.5l43,15.8c1.4.5,2.6-1,1.8-2.3l-9.5-15,9.5-15c.8-1.2-.5-2.8-1.8-2.3l-43,15.8c-.7.3-1,.8-1,1.5,0,.7.5,1.2,1,1.4h0ZM53.3,61.5h23.6l7.1,11.3-30.7-11.3Z"/>
      </g>
      <text/>
      <text/>
      <text/>
    </g>
  </g>
</svg>