<?xml version="1.0" encoding="UTF-8" standalone="no"?><!-- Generator: Gravit.io --><svg xmlns="http://www.w3.org/2000/svg" xmlns:xlink="http://www.w3.org/1999/xlink" style="isolation:isolate" viewBox="0 0 1000 800" width="1000pt" height="800pt"><defs><clipPath id="_clipPath_z6g9apxZ7a980T88jJEZWhETMPeSH0Lw"><rect width="1000" height="800"/></clipPath></defs><g clip-path="url(#_clipPath_z6g9apxZ7a980T88jJEZWhETMPeSH0Lw)"><g style="isolation:isolate" id="outer"><g id="グループ"><path d=" M 471.792 109.039 L 475.792 109.039 L 472.844 120.039 L 872.844 120.039" id="パス" fill="none" vector-effect="non-scaling-stroke" stroke-width="1.483" stroke="rgb(0,0,0)" stroke-linejoin="miter" stroke-linecap="square" stroke-miterlimit="3"/><path d=" M 872.844 120.039 L 902.319 10.039 L 502.319 10.039 L 490.529 54.039 L 486.108 70.539 L 486.108 70.539 L 566.108 70.539 L 486.108 70.539 L 481.687 87.039 L 477.687 87.039" id="パス" fill="none" vector-effect="non-scaling-stroke" stroke-width="1.483" stroke="rgb(0,0,0)" stroke-linejoin="miter" stroke-linecap="square" stroke-miterlimit="3"/></g><g id="グループ"><path d=" M 305.687 87.039 L 301.607 87.039 Q 322.312 9.963 322.319 10.039 Q 322.34 9.961 212.319 10.039 L 207.916 26.47" id="パス" fill="none" vector-effect="non-scaling-stroke" stroke-width="1.483" stroke="rgb(0,0,0)" stroke-linejoin="miter" stroke-linecap="square" stroke-miterlimit="3"/><path d=" M 207.898 26.539 L 197.898 26.539 C 194.15 21.864 179.302 20.832 169.371 21.039 C 139.085 21.176 124.822 37.375 117.582 65.039 C 113.179 81.47 114.318 97.122 127.266 103.539 L 107.266 103.539 L 102.844 120.039 L 10 466.539 L 40 466.539 L 35.579 483.039 L 145.579 483.039 L 242.844 120.039 C 254.22 120.039 270.845 120.039 292.719 120.039 L 295.792 109.039 L 299.792 109.039" id="パス" fill="none" vector-effect="non-scaling-stroke" stroke-width="1.483" stroke="rgb(0,0,0)" stroke-linejoin="miter" stroke-linecap="square" stroke-miterlimit="3"/></g></g><g style="isolation:isolate" id="booth"><path d=" M 837.992 119.489 L 612.992 119.489 L 630.521 54.07 C 652.813 54.07 690.239 53.97 690.529 54.039 C 690.563 54.047 690.227 55.132 690.232 55.148 Q 690.233 55.143 783.232 55.148 C 783.232 55.147 783.531 54.03 783.529 54.039 C 810.435 54.039 838.093 54.07 855.521 54.07 L 837.992 119.489 Z " id="maps_dining" fill="rgb(185,185,185)" vector-effect="non-scaling-stroke" stroke-width="1.483" stroke="rgb(0,0,0)" stroke-linejoin="miter" stroke-linecap="square" stroke-miterlimit="3"/><path d=" M 155.895 444.539 L 55.895 444.539 L 75.053 373.039 L 35.053 373.039 L 53.475 304.289 L 93.475 304.289 L 97.896 287.789 L 142.896 287.789 L 138.475 304.289 L 193.475 304.289 L 155.895 444.539 Z " id="maps_tosyo" fill="rgb(185,185,185)" vector-effect="non-scaling-stroke" stroke-width="1.483" stroke="rgb(0,0,0)" stroke-linejoin="miter" stroke-linecap="square" stroke-miterlimit="3"/><path d=" M 152.475 252.039 L 168.097 193.739 L 173.191 193.739 L 183.38 193.739 L 193.568 193.739 L 207.832 193.739 L 219.04 193.739 L 222.097 193.739 L 206.475 252.039 L 152.475 252.039 Z " id="maps_hoken" fill="rgb(185,185,185)" vector-effect="non-scaling-stroke" stroke-width="1.483" stroke="rgb(0,0,0)" stroke-linejoin="miter" stroke-linecap="square" stroke-miterlimit="3"/><g style="isolation:isolate" id="outside"><path d=" M 309.36 196.489 L 259.36 196.489 L 263.781 179.989 L 313.781 179.989 L 309.36 196.489 Z " id="maps_G1" fill="rgb(209,209,209)" vector-effect="non-scaling-stroke" stroke-width="0.88" stroke="rgb(0,0,0)" stroke-linejoin="miter" stroke-linecap="square" stroke-miterlimit="3"/><path d=" M 304.939 212.989 L 254.939 212.989 L 259.36 196.489 L 309.36 196.489 L 304.939 212.989 Z " id="maps_G2" fill="rgb(209,209,209)" vector-effect="non-scaling-stroke" stroke-width="0.88" stroke="rgb(0,0,0)" stroke-linejoin="miter" stroke-linecap="square" stroke-miterlimit="3"/><path d=" M 297.128 242.139 L 247.128 242.139 L 251.549 225.639 L 301.549 225.639 L 297.128 242.139 Z " id="maps_G3" fill="rgb(209,209,209)" vector-effect="non-scaling-stroke" stroke-width="0.88" stroke="rgb(0,0,0)" stroke-linejoin="miter" stroke-linecap="square" stroke-miterlimit="3"/><path d=" M 292.707 258.639 L 242.707 258.639 L 247.128 242.139 L 297.128 242.139 L 292.707 258.639 Z " id="maps_G4" fill="rgb(209,209,209)" vector-effect="non-scaling-stroke" stroke-width="0.88" stroke="rgb(0,0,0)" stroke-linejoin="miter" stroke-linecap="square" stroke-miterlimit="3"/><path d=" M 288.285 275.139 L 238.285 275.139 L 242.707 258.639 L 292.707 258.639 L 288.285 275.139 Z " id="maps_G5" fill="rgb(209,209,209)" vector-effect="non-scaling-stroke" stroke-width="0.88" stroke="rgb(0,0,0)" stroke-linejoin="miter" stroke-linecap="square" stroke-miterlimit="3"/><path d=" M 279.885 306.489 L 229.885 306.489 L 234.306 289.989 L 284.306 289.989 L 279.885 306.489 Z " id="maps_G6" fill="rgb(209,209,209)" vector-effect="non-scaling-stroke" stroke-width="0.88" stroke="rgb(0,0,0)" stroke-linejoin="miter" stroke-linecap="square" stroke-miterlimit="3"/><path d=" M 275.464 322.989 L 225.464 322.989 L 229.885 306.489 L 279.885 306.489 L 275.464 322.989 Z " id="maps_G7" fill="rgb(209,209,209)" vector-effect="non-scaling-stroke" stroke-width="0.88" stroke="rgb(0,0,0)" stroke-linejoin="miter" stroke-linecap="square" stroke-miterlimit="3"/><path d=" M 275.464 322.989 L 225.464 322.989 C 222.646 333.507 221.172 339.007 221.043 339.489 L 271.043 339.489 L 275.464 322.989 Z " id="maps_G8" fill="rgb(209,209,209)" vector-effect="non-scaling-stroke" stroke-width="0.88" stroke="rgb(0,0,0)" stroke-linejoin="miter" stroke-linecap="square" stroke-miterlimit="3"/><path d=" M 268.243 349.939 L 218.243 349.939 L 213.822 366.439 L 263.822 366.439 L 268.243 349.939 Z " id="maps_G9" fill="rgb(209,209,209)" vector-effect="non-scaling-stroke" stroke-width="0.88" stroke="rgb(0,0,0)" stroke-linejoin="miter" stroke-linecap="square" stroke-miterlimit="3"/><path d=" M 209.401 382.939 L 259.401 382.939 L 263.822 366.439 L 213.822 366.439 L 209.401 382.939 Z " id="maps_G10" fill="rgb(209,209,209)" vector-effect="non-scaling-stroke" stroke-width="0.88" stroke="rgb(0,0,0)" stroke-linejoin="miter" stroke-linecap="square" stroke-miterlimit="3"/><path d=" M 254.832 399.989 L 204.832 399.989 L 209.253 383.489 L 259.253 383.489 L 254.832 399.989 Z " id="maps_G11" fill="rgb(209,209,209)" vector-effect="non-scaling-stroke" stroke-width="0.88" stroke="rgb(0,0,0)" stroke-linejoin="miter" stroke-linecap="square" stroke-miterlimit="3"/><path d=" M 252.179 409.889 L 202.179 409.889 L 197.758 426.389 L 247.758 426.389 L 252.179 409.889 Z " id="maps_G12" fill="rgb(209,209,209)" vector-effect="non-scaling-stroke" stroke-width="0.88" stroke="rgb(0,0,0)" stroke-linejoin="miter" stroke-linecap="square" stroke-miterlimit="3"/><path d=" M 243.337 442.889 L 193.337 442.889 L 197.758 426.389 L 247.758 426.389 L 243.337 442.889 Z " id="maps_G13" fill="rgb(209,209,209)" vector-effect="non-scaling-stroke" stroke-width="0.88" stroke="rgb(0,0,0)" stroke-linejoin="miter" stroke-linecap="square" stroke-miterlimit="3"/><path d=" M 238.916 459.389 L 188.916 459.389 L 193.337 442.889 L 243.337 442.889 L 238.916 459.389 Z " id="maps_G14" fill="rgb(209,209,209)" vector-effect="non-scaling-stroke" stroke-width="0.9" stroke="rgb(0,0,0)" stroke-linejoin="miter" stroke-linecap="square" stroke-miterlimit="3"/><path d=" M 230.958 489.089 L 180.958 489.089 L 185.379 472.589 L 235.379 472.589 L 230.958 489.089 Z " id="maps_G15" fill="rgb(209,209,209)" vector-effect="non-scaling-stroke" stroke-width="0.88" stroke="rgb(0,0,0)" stroke-linejoin="miter" stroke-linecap="square" stroke-miterlimit="3"/><path d=" M 379.581 169.539 L 279.581 169.539 L 284.002 153.039 L 384.002 153.039 L 379.581 169.539 Z " id="maps_G17" fill="rgb(209,209,209)" vector-effect="non-scaling-stroke" stroke-width="0.88" stroke="rgb(0,0,0)" stroke-linejoin="miter" stroke-linecap="square" stroke-miterlimit="3"/><path d=" M 505.16 186.039 L 425.16 186.039 L 435.476 147.539 L 515.476 147.539 L 505.16 186.039 Z " id="maps_G18" fill="rgb(209,209,209)" vector-effect="non-scaling-stroke" stroke-width="0.88" stroke="rgb(0,0,0)" stroke-linejoin="miter" stroke-linecap="square" stroke-miterlimit="3"/><path d=" M 597.16 186.039 L 517.16 186.039 L 527.476 147.539 L 607.476 147.539 L 597.16 186.039 Z " id="maps_G19" fill="rgb(209,209,209)" vector-effect="non-scaling-stroke" stroke-width="0.88" stroke="rgb(0,0,0)" stroke-linejoin="miter" stroke-linecap="square" stroke-miterlimit="3"/><path d=" M 691.16 186.039 L 611.16 186.039 L 621.476 147.539 L 701.476 147.539 L 691.16 186.039 Z " id="maps_G20" fill="rgb(209,209,209)" vector-effect="non-scaling-stroke" stroke-width="0.88" stroke="rgb(0,0,0)" stroke-linejoin="miter" stroke-linecap="square" stroke-miterlimit="3"/><path d=" M 675.244 245.439 L 595.244 245.439 L 605.56 206.939 L 685.56 206.939 L 675.244 245.439 Z " id="maps_G21" fill="rgb(209,209,209)" vector-effect="non-scaling-stroke" stroke-width="0.88" stroke="rgb(0,0,0)" stroke-linejoin="miter" stroke-linecap="square" stroke-miterlimit="3"/><path d=" M 747.526 472.039 L 667.526 472.039 L 694.053 373.039 L 774.053 373.039 L 747.526 472.039 Z " id="maps_G22" fill="rgb(209,209,209)" vector-effect="non-scaling-stroke" stroke-width="0.88" stroke="rgb(0,0,0)" stroke-linejoin="miter" stroke-linecap="square" stroke-miterlimit="3"/><path d=" M 230.958 489.089 L 180.958 489.089 L 175.21 510.539 L 225.21 510.539 L 230.958 489.089 Z " id="maps_G16" fill="rgb(209,209,209)" vector-effect="non-scaling-stroke" stroke-width="0.88" stroke="rgb(0,0,0)" stroke-linejoin="miter" stroke-linecap="square" stroke-miterlimit="3"/></g></g><g style="isolation:isolate" id="blank"><path d=" M 66.211 406.039 L 75.053 373.039 L 35.053 373.039 L 26.211 406.039 L 66.211 406.039 Z " id="パス" fill="rgb(93,93,93)" vector-effect="non-scaling-stroke" stroke-width="0.88" stroke="rgb(0,0,0)" stroke-linejoin="miter" stroke-linecap="square" stroke-miterlimit="3"/><path d=" M 59.727 430.239 L 66.211 406.039 L 26.211 406.039 L 19.727 430.239 L 59.727 430.239 Z " id="パス" fill="rgb(93,93,93)" vector-effect="non-scaling-stroke" stroke-width="0.88" stroke="rgb(0,0,0)" stroke-linejoin="miter" stroke-linecap="square" stroke-miterlimit="3"/><path d=" M 50 466.539 L 59.727 430.239 L 19.727 430.239 L 10 466.539 L 50 466.539 Z " id="パス" fill="rgb(93,93,93)" vector-effect="non-scaling-stroke" stroke-width="0.88" stroke="rgb(0,0,0)" stroke-linejoin="miter" stroke-linecap="square" stroke-miterlimit="3"/><path d=" M 162.844 120.039 L 153.265 155.789 L 93.265 155.789 L 102.844 120.039 L 162.844 120.039 Z " id="パス" fill="rgb(93,93,93)" vector-effect="non-scaling-stroke" stroke-width="0.88" stroke="rgb(0,0,0)" stroke-linejoin="miter" stroke-linecap="square" stroke-miterlimit="3"/><path d=" M 890.529 54.039 L 902.319 10.039 L 867.319 10.039 L 855.529 54.039 L 890.529 54.039 Z " id="StairE" fill="rgb(93,93,93)" vector-effect="non-scaling-stroke" stroke-width="0.88" stroke="rgb(0,0,0)" stroke-linejoin="miter" stroke-linecap="square" stroke-miterlimit="3"/><path d=" M 630.529 54.039 L 642.319 10.039 L 702.319 10.039 L 690.529 54.039 L 630.529 54.039 Z " id="Audiovisual_Preparation_Room" fill="rgb(93,93,93)" vector-effect="non-scaling-stroke" stroke-width="0.88" stroke="rgb(0,0,0)" stroke-linejoin="miter" stroke-linecap="square" stroke-miterlimit="3"/><path d=" M 50 466.539 L 45.579 483.039 L 35.579 483.039 L 40 466.539 L 50 466.539 Z " id="パス" fill="rgb(93,93,93)" vector-effect="non-scaling-stroke" stroke-width="0.88" stroke="rgb(0,0,0)" stroke-linejoin="miter" stroke-linecap="square" stroke-miterlimit="3"/><path d=" M 630.529 54.039 L 619.771 54.039 L 594.529 54.039 L 606.319 10.039 L 642.319 10.039 L 630.529 54.039 Z " id="H1_StaffRoom" fill="rgb(93,93,93)" vector-effect="non-scaling-stroke" stroke-width="0.88" stroke="rgb(0,0,0)" stroke-linejoin="miter" stroke-linecap="square" stroke-miterlimit="3"/><path d=" M 308.613 61.189 L 248.613 61.189 L 262.319 10.039 C 271.444 10.039 291.444 10.039 322.319 10.039 L 308.613 61.189 Z " id="Interview_Room" fill="rgb(93,93,93)" vector-effect="non-scaling-stroke" stroke-width="0.88" stroke="rgb(0,0,0)" stroke-linejoin="miter" stroke-linecap="square" stroke-miterlimit="3"/><path d=" M 225.529 54.039 L 237.319 10.039 L 212.319 10.039 L 237.319 10.039 L 225.529 54.039 L 225.529 54.039 Z " fill-rule="evenodd" id="StairC" fill="none" vector-effect="non-scaling-stroke" stroke-width="1.483" stroke="rgb(0,0,0)" stroke-linejoin="miter" stroke-linecap="square" stroke-miterlimit="3"/><path d=" M 855.529 54.039 L 867.319 10.039 L 795.319 10.039 L 783.529 54.039 L 855.529 54.039 Z " id="パス" fill="rgb(93,93,93)" vector-effect="non-scaling-stroke" stroke-width="0.88" stroke="rgb(0,0,0)" stroke-linejoin="miter" stroke-linecap="square" stroke-miterlimit="3"/><path d=" M 795.319 10.039 L 783.234 55.139 L 690.234 55.139 L 702.319 10.039 L 795.319 10.039 Z " id="パス" fill="rgb(93,93,93)" vector-effect="non-scaling-stroke" stroke-width="0.88" stroke="rgb(0,0,0)" stroke-linejoin="miter" stroke-linecap="square" stroke-miterlimit="3"/><path d=" M 155.895 444.539 L 145.579 483.039 L 45.579 483.039 L 55.895 444.539 L 155.895 444.539 Z " id="パス" fill="rgb(93,93,93)" vector-effect="non-scaling-stroke" stroke-width="0.88" stroke="rgb(0,0,0)" stroke-linejoin="miter" stroke-linecap="square" stroke-miterlimit="3"/><path d=" M 254.213 40.289 L 229.213 40.289 L 237.319 10.039 L 262.319 10.039 L 254.213 40.289 Z " id="パス" fill="rgb(93,93,93)" vector-effect="non-scaling-stroke" stroke-width="0.88" stroke="rgb(0,0,0)" stroke-linejoin="miter" stroke-linecap="square" stroke-miterlimit="3"/><path d=" M 93.475 304.289 L 53.475 304.289 L 57.896 287.789 L 97.896 287.789 L 93.475 304.289 Z " id="パス" fill="rgb(93,93,93)" vector-effect="non-scaling-stroke" stroke-width="0.88" stroke="rgb(0,0,0)" stroke-linejoin="miter" stroke-linecap="square" stroke-miterlimit="3"/><path d=" M 197.475 304.289 L 138.475 304.289 L 142.896 287.789 L 201.896 287.789 L 197.475 304.289 Z " id="パス" fill="rgb(0,0,255)" vector-effect="non-scaling-stroke" stroke-width="0.89" stroke="rgb(0,0,0)" stroke-linejoin="miter" stroke-linecap="square" stroke-miterlimit="3"/><path d=" M 197.896 287.789 L 142.896 287.789 L 152.475 252.039 L 207.475 252.039 L 197.896 287.789 Z " id="パス" fill="rgb(93,93,93)" vector-effect="non-scaling-stroke" stroke-width="0.88" stroke="rgb(0,0,0)" stroke-linejoin="miter" stroke-linecap="square" stroke-miterlimit="3"/><line x1="173.265" y1="155.789" x2="196.108" y2="70.539" id="パス" vector-effect="non-scaling-stroke" stroke-width="1.483" stroke="rgb(0,0,0)" stroke-linejoin="miter" stroke-linecap="square" stroke-miterlimit="3"/><path d=" M 162.844 120.039 L 167.266 103.539 L 107.266 103.539 L 102.844 120.039 L 162.844 120.039 Z " id="パス" fill="rgb(93,93,93)" vector-effect="non-scaling-stroke" stroke-width="0.88" stroke="rgb(0,0,0)" stroke-linejoin="miter" stroke-linecap="square" stroke-miterlimit="3"/><path d=" M 268.466 61.739 L 266.108 70.539 L 216.108 70.539" id="パス" fill="none" vector-effect="non-scaling-stroke" stroke-width="1.483" stroke="rgb(0,0,0)" stroke-linejoin="miter" stroke-linecap="square" stroke-miterlimit="3"/><path d=" M 127.266 103.539 Q 142.876 103.539 167.266 103.539 L 173.897 78.789 Q 138.533 78.789 115.897 78.789 C 115.315 87.726 114.194 90.511 127.266 103.539 Z " id="パス" fill="rgb(93,93,93)" vector-effect="non-scaling-stroke" stroke-width="0.88" stroke="rgb(0,0,0)" stroke-linejoin="miter" stroke-linecap="square" stroke-miterlimit="3"/><path d=" M 128.066 40.839 L 124.003 48.539 L 122.529 54.039 L 140.529 54.039 L 148.192 25.439 L 142.603 27.639 L 136.424 32.039" id="パス" fill="rgb(93,93,93)" vector-effect="non-scaling-stroke" stroke-width="0.88" stroke="rgb(0,0,0)" stroke-linejoin="miter" stroke-linecap="square" stroke-miterlimit="3"/><path d=" M 115.897 78.789 L 173.897 78.789 L 180.529 54.039 L 121.529 54.039 L 115.897 78.789 Z " id="パス" fill="rgb(93,93,93)" vector-effect="non-scaling-stroke" stroke-width="0.88" stroke="rgb(0,0,0)" stroke-linejoin="miter" stroke-linecap="square" stroke-miterlimit="3"/><path d=" M 197.898 26.539 Q 201.8 26.539 207.898 26.539 L 200.529 54.039 L 140.529 54.039 Q 130.541 32.566 148.34 24.889 C 149.823 22.62 184.848 17.395 197.898 26.539 Z " id="パス" fill="rgb(93,93,93)" vector-effect="non-scaling-stroke" stroke-width="0.88" stroke="rgb(0,0,0)" stroke-linejoin="miter" stroke-linecap="square" stroke-miterlimit="3"/><path d=" M 872.844 120.039 L 837.844 120.039 L 855.529 54.039 L 890.529 54.039 L 872.844 120.039 Z " id="mapsAudiovisual_Room" fill="rgb(93,93,93)" vector-effect="non-scaling-stroke" stroke-width="0.88" stroke="rgb(0,0,0)" stroke-linejoin="miter" stroke-linecap="square" stroke-miterlimit="3"/><path d=" M 211.654 299.889 L 212.243 297.689 L 206.243 297.689 L 206.538 296.589 L 201.948 298.789 L 205.359 300.989 L 205.654 299.889 L 211.654 299.889 Z  M 205.717 292.189 L 205.127 294.389 L 211.127 294.389 L 210.833 295.489 L 215.422 293.289 L 212.012 291.089 L 211.717 292.189 L 205.717 292.189 Z " fill-rule="evenodd" id="複合シェイプ" fill="none" vector-effect="non-scaling-stroke" stroke-width="0.742" stroke="rgb(0,0,0)" stroke-linejoin="miter" stroke-linecap="square" stroke-miterlimit="3"/></g><g style="isolation:isolate" id="special"><path d=" M 562.529 54.039 L 574.319 10.039 L 606.319 10.039 L 594.529 54.039 L 562.529 54.039 Z " id="Toilet" fill="rgb(0,0,255)" vector-effect="non-scaling-stroke" stroke-width="0.89" stroke="rgb(0,0,0)" stroke-linejoin="miter" stroke-linecap="square" stroke-miterlimit="3"/><path d=" M 123.097 193.739 L 113.37 230.039 L 73.37 230.039 L 83.097 193.739" id="パス" fill="none" vector-effect="non-scaling-stroke" stroke-width="1.483" stroke="rgb(0,0,0)" stroke-linejoin="miter" stroke-linecap="square" stroke-miterlimit="3"/><path d=" M 538.95 37.539 L 546.319 10.039 L 574.319 10.039 L 566.95 37.539" id="パス" fill="none" vector-effect="non-scaling-stroke" stroke-width="1.483" stroke="rgb(0,0,0)" stroke-linejoin="miter" stroke-linecap="square" stroke-miterlimit="3"/><path d=" M 534.529 54.039 L 490.529 54.039 L 502.319 10.039 L 546.319 10.039 L 534.529 54.039 Z " id="S_F2_1" fill="rgb(0,150,136)" vector-effect="non-scaling-stroke" stroke-width="1.483" stroke="rgb(0,0,0)" stroke-linejoin="miter" stroke-linecap="square" stroke-miterlimit="3"/><g style="isolation:isolate" id="rest"/><path d=" M 113.37 230.039 L 108.359 248.739 L 68.359 248.739 L 73.37 230.039 L 113.37 230.039 Z " id="toilet" fill="rgb(255,0,0)" vector-effect="non-scaling-stroke" stroke-width="0.89" stroke="rgb(0,0,0)" stroke-linejoin="miter" stroke-linecap="square" stroke-miterlimit="3"/><path d=" M 97.896 287.789 L 104.528 263.039 L 64.528 263.039 L 57.896 287.789 L 97.896 287.789 Z " id="パス" fill="rgb(0,0,255)" vector-effect="non-scaling-stroke" stroke-width="0.89" stroke="rgb(0,0,0)" stroke-linejoin="miter" stroke-linecap="square" stroke-miterlimit="3"/></g><g style="isolation:isolate" id="Decorations"><g style="isolation:isolate" id="stairB"><path d=" M 123.097 193.739 L 126.486 181.089 L 86.486 181.089 L 86.191 182.189 L 124.191 182.189 L 121.097 193.739 L 123.097 193.739 L 122.212 197.039 L 82.212 197.039 L 81.475 199.789 L 121.475 199.789 L 120.739 202.539 L 80.739 202.539 L 80.002 205.289 L 120.002 205.289 L 119.265 208.039 L 79.265 208.039 L 78.528 210.789 L 118.528 210.789 L 117.791 213.539 L 77.791 213.539 L 77.349 215.189 L 82.054 216.289 L 117.054 216.289 L 116.317 219.039 L 93.317 219.039 L 104.581 221.789 L 115.581 221.789 L 114.844 224.539 L 77.349 215.189" id="パス" fill="none" vector-effect="non-scaling-stroke" stroke-width="0.742" stroke="rgb(0,0,0)" stroke-linejoin="miter" stroke-linecap="square" stroke-miterlimit="3"/></g><g style="isolation:isolate" id="stairC"><path d=" M 234.961 18.839 L 228.476 43.039 L 228.476 43.039 L 203.476 43.039 L 204.213 40.289 L 229.213 40.289 L 229.95 37.539 L 204.95 37.539 L 205.687 34.789 L 230.687 34.789 L 231.424 32.039 L 206.424 32.039 L 207.161 29.289 L 232.161 29.289 L 232.898 26.539 L 207.898 26.539 L 208.635 23.789 L 233.635 23.789 L 234.371 21.039 L 209.371 21.039" id="パス" fill="none" vector-effect="non-scaling-stroke" stroke-width="0.742" stroke="rgb(0,0,0)" stroke-linejoin="miter" stroke-linecap="square" stroke-miterlimit="3"/></g><g style="isolation:isolate" id="stairD"><path d=" M 534.529 54.039 L 562.529 54.039 L 563.119 51.839 L 535.119 51.839 L 535.708 49.639 L 563.708 49.639 L 564.298 47.439 L 536.298 47.439 L 536.887 45.239 L 564.887 45.239 L 565.476 43.039 L 537.476 43.039 L 538.066 40.839 L 566.066 40.839 L 566.803 38.089 L 538.803 38.089 L 539.687 34.789 L 567.687 34.789 L 568.571 31.489 L 540.571 31.489 L 571.961 18.839 L 570.635 23.789 L 559.634 23.789 L 554.045 25.989 L 570.045 25.989 L 569.308 28.739 L 547.308 28.739" id="パス" fill="none" vector-effect="non-scaling-stroke" stroke-width="0.742" stroke="rgb(0,0,0)" stroke-linejoin="miter" stroke-linecap="square" stroke-miterlimit="3"/></g><path d=" M 577.69 29.638 C 578.096 28.12 580.667 26.888 583.427 26.888 C 586.186 26.888 588.096 28.12 587.69 29.638 C 587.283 31.156 584.712 32.388 581.953 32.388 C 579.193 32.388 577.283 31.156 577.69 29.638 Z  M 579.448 39.957 L 576.952 34.169 C 576.79 33.793 576.99 33.488 577.4 33.488 L 585.916 33.488 C 586.326 33.488 586.427 33.727 586.142 34.021 L 580.258 40.105 C 579.973 40.399 579.611 40.333 579.448 39.957 Z " fill-rule="evenodd" id="複合パス" fill="rgb(255,255,255)"/><path d=" M 163.156 291.988 C 163.562 290.47 166.133 289.238 168.893 289.238 C 171.652 289.238 173.562 290.47 173.156 291.988 C 172.749 293.506 170.178 294.738 167.419 294.738 C 164.659 294.738 162.749 293.506 163.156 291.988 Z  M 164.914 302.307 L 162.712 297.2 C 162.387 296.448 162.789 295.838 163.607 295.838 L 170.641 295.838 C 171.459 295.838 171.662 296.316 171.093 296.904 L 165.724 302.455 C 165.439 302.749 165.077 302.683 164.914 302.307 Z " fill-rule="evenodd" id="複合パス" fill="rgb(255,255,255)"/><path d=" M 75.756 271.088 C 76.162 269.57 78.733 268.338 81.493 268.338 C 84.252 268.338 86.162 269.57 85.756 271.088 C 85.349 272.606 82.779 273.838 80.019 273.838 C 77.259 273.838 75.349 272.606 75.756 271.088 Z  M 77.515 281.407 L 75.312 276.3 C 74.987 275.548 75.389 274.938 76.207 274.938 L 83.241 274.938 C 84.06 274.938 84.262 275.416 83.693 276.004 L 78.324 281.555 C 78.039 281.849 77.677 281.783 77.515 281.407 Z " fill-rule="evenodd" id="複合パス" fill="rgb(255,255,255)"/><path d=" M 86.077 236.089 C 86.484 234.571 89.054 233.339 91.814 233.339 C 94.574 233.339 96.484 234.571 96.077 236.089 C 95.67 237.606 93.1 238.839 90.34 238.839 C 87.581 238.839 85.67 237.606 86.077 236.089 Z  M 89.53 240.472 L 83.645 246.556 C 83.361 246.85 83.462 247.089 83.871 247.089 L 92.388 247.089 C 92.797 247.089 92.998 246.784 92.836 246.408 L 90.339 240.62 C 90.177 240.244 89.814 240.178 89.53 240.472 Z " fill-rule="evenodd" id="複合パス" fill="rgb(255,255,255)"/><g style="isolation:isolate" id="Text"><g style="isolation:isolate" id="レイヤー 46"/></g><path d=" M 510.79 422.539 L 560.79 422.539 L 582.896 340.039 L 532.896 340.039 L 510.79 422.539 Z " id="パス" fill="none" vector-effect="non-scaling-stroke" stroke-width="1.483" stroke="rgb(0,0,0)" stroke-linejoin="miter" stroke-linecap="square" stroke-miterlimit="3"/><path d=" M 477.21 510.539 L 427.21 510.539 L 447.842 433.539 L 497.842 433.539 L 477.21 510.539 Z " id="パス" fill="none" vector-effect="non-scaling-stroke" stroke-width="1.483" stroke="rgb(0,0,0)" stroke-linejoin="miter" stroke-linecap="square" stroke-miterlimit="3"/><path d=" M 507.842 433.539 L 557.842 433.539 L 537.21 510.539 L 487.21 510.539 L 507.842 433.539 Z " id="パス" fill="none" vector-effect="non-scaling-stroke" stroke-width="1.483" stroke="rgb(0,0,0)" stroke-linejoin="miter" stroke-linecap="square" stroke-miterlimit="3"/><path d=" M 500.79 422.539 L 450.79 422.539 L 472.896 340.039 L 522.896 340.039 L 500.79 422.539 Z " id="パス" fill="none" vector-effect="non-scaling-stroke" stroke-width="1.483" stroke="rgb(0,0,0)" stroke-linejoin="miter" stroke-linecap="square" stroke-miterlimit="3"/></g><path d=" M 517.193 27.982 C 518.746 27.982 520.191 27.29 520.42 26.436 C 520.649 25.581 519.575 24.889 518.022 24.889 C 516.468 24.889 515.023 25.581 514.794 26.436 C 514.566 27.29 515.639 27.982 517.193 27.982 Z  M 511.697 32.855 C 512.464 32.704 512.953 32.259 512.784 31.859 C 512.616 31.46 511.862 31.257 511.095 31.408 C 507.353 32.143 504.323 34.025 503.731 36.232 C 502.968 39.081 506.545 41.389 511.725 41.389 C 515.312 41.389 518.719 40.283 520.731 38.659 C 521.195 38.282 521.062 37.815 520.431 37.612 C 519.8 37.409 518.912 37.554 518.441 37.931 C 517.035 39.068 514.648 39.842 512.14 39.842 C 508.513 39.842 506.009 38.227 506.544 36.232 C 506.958 34.689 509.075 33.371 511.697 32.855 Z  M 520.475 30.561 L 520.447 30.248 C 520.376 29.529 519.372 29.014 518.036 29.014 C 516.272 29.014 514.71 29.9 514.801 30.851 L 515.157 34.573 C 515.251 35.536 516.6 36.229 518.393 36.229 L 518.692 36.229 C 518.716 36.229 518.739 36.229 518.768 36.229 L 524.282 36.229 C 524.675 36.229 524.985 36.361 525.072 36.564 L 526.362 39.687 C 526.575 40.206 527.544 40.48 528.547 40.303 L 531.498 39.787 C 532.531 39.607 533.214 39.023 533.031 38.482 C 532.848 37.94 531.865 37.65 530.832 37.831 L 529.683 38.031 L 528.776 35.839 C 528.36 34.834 526.786 34.167 524.835 34.167 L 520.821 34.167 L 520.673 32.62 L 524.388 32.62 C 525.425 32.62 526.387 32.159 526.54 31.589 C 526.693 31.018 525.978 30.557 524.941 30.557 L 520.476 30.557 L 520.475 30.561 Z " id="wheelchair" fill="rgb(255,255,255)"/><g clip-path="url(#_clipPath_Ahli7UtV2wB1nsrqukQZqQT7f0kxHGSX)"><text transform="matrix(1,0,0,1,187.396,506.747)" id="text_G16" style="font-family:'Yu Gothic UI';font-weight:700;font-size:14px;font-style:normal;fill:#000000;stroke:none;">G16</text></g><defs><clipPath id="_clipPath_Ahli7UtV2wB1nsrqukQZqQT7f0kxHGSX"><rect x="0" y="0" width="51.496" height="18.621" transform="matrix(1,0,0,1,174.252,491.64)"/></clipPath></defs><g clip-path="url(#_clipPath_vYU8ncH5ZwDAIbDVK7lip4VnIclpK6oU)"><text transform="matrix(1,0,0,1,195.417,485.747)" id="text_G15" style="font-family:'Yu Gothic UI';font-weight:700;font-size:14px;font-style:normal;fill:#000000;stroke:none;">G15</text></g><defs><clipPath id="_clipPath_vYU8ncH5ZwDAIbDVK7lip4VnIclpK6oU"><rect x="0" y="0" width="51.496" height="18.621" transform="matrix(1,0,0,1,182.252,470.64)"/></clipPath></defs><g clip-path="url(#_clipPath_OkJ0oeQEiYwfSK3rTk0wyFi9rVmXrD9U)"><text transform="matrix(1,0,0,1,201.27,456.747)" id="text_G14" style="font-family:'Yu Gothic UI';font-weight:700;font-size:14px;font-style:normal;fill:#000000;stroke:none;">G14</text></g><defs><clipPath id="_clipPath_OkJ0oeQEiYwfSK3rTk0wyFi9rVmXrD9U"><rect x="0" y="0" width="51.496" height="18.621" transform="matrix(1,0,0,1,188.252,441.64)"/></clipPath></defs><g clip-path="url(#_clipPath_gPjZsWtop3XygaoVvwadq8dGqLwtFIRn)"><text transform="matrix(1,0,0,1,207.417,440.747)" id="text_G13" style="font-family:'Yu Gothic UI';font-weight:700;font-size:14px;font-style:normal;fill:#000000;stroke:none;">G13</text></g><defs><clipPath id="_clipPath_gPjZsWtop3XygaoVvwadq8dGqLwtFIRn"><rect x="0" y="0" width="51.496" height="18.621" transform="matrix(1,0,0,1,194.252,425.64)"/></clipPath></defs><g clip-path="url(#_clipPath_B08cXoGZinFB4lwPNjTIYmq5Goi1IR7L)"><text transform="matrix(1,0,0,1,213.417,423.747)" id="text_G12" style="font-family:'Yu Gothic UI';font-weight:700;font-size:14px;font-style:normal;fill:#000000;stroke:none;">G12</text></g><defs><clipPath id="_clipPath_B08cXoGZinFB4lwPNjTIYmq5Goi1IR7L"><rect x="0" y="0" width="51.496" height="18.621" transform="matrix(1,0,0,1,200.252,408.64)"/></clipPath></defs><g clip-path="url(#_clipPath_JHSlFgzeVLiNlReCykeNNJ20ZYRslFsa)"><text transform="matrix(1,0,0,1,220.486,396.747)" id="text_G11" style="font-family:'Yu Gothic UI';font-weight:700;font-size:14px;font-style:normal;fill:#000000;stroke:none;">G11</text></g><defs><clipPath id="_clipPath_JHSlFgzeVLiNlReCykeNNJ20ZYRslFsa"><rect x="0" y="0" width="51.496" height="18.621" transform="matrix(1,0,0,1,206.252,381.64)"/></clipPath></defs><g clip-path="url(#_clipPath_vk2Scwsz4FoftiZOeQwxVd8LgpBEDk2I)"><text transform="matrix(1,0,0,1,224.417,380.747)" id="text_G10" style="font-family:'Yu Gothic UI';font-weight:700;font-size:14px;font-style:normal;fill:#000000;stroke:none;">G10</text></g><defs><clipPath id="_clipPath_vk2Scwsz4FoftiZOeQwxVd8LgpBEDk2I"><rect x="0" y="0" width="51.496" height="18.621" transform="matrix(1,0,0,1,211.252,365.64)"/></clipPath></defs><g clip-path="url(#_clipPath_zWMCZ8lGguWEbauKjOzg23oi4ZoM5RrS)"><text transform="matrix(1,0,0,1,231.212,363.747)" id="text_G9" style="font-family:'Yu Gothic UI';font-weight:700;font-size:14px;font-style:normal;fill:#000000;stroke:none;">G9</text></g><defs><clipPath id="_clipPath_zWMCZ8lGguWEbauKjOzg23oi4ZoM5RrS"><rect x="0" y="0" width="51.496" height="18.621" transform="matrix(1,0,0,1,215.252,348.64)"/></clipPath></defs><g clip-path="url(#_clipPath_0tB9DHsNLn7wbaFGMEcpi9kkPDj5Rz0M)"><text transform="matrix(1,0,0,1,239.233,336.747)" id="text_G8" style="font-family:'Yu Gothic UI';font-weight:700;font-size:14px;font-style:normal;fill:#000000;stroke:none;">G8</text></g><defs><clipPath id="_clipPath_0tB9DHsNLn7wbaFGMEcpi9kkPDj5Rz0M"><rect x="0" y="0" width="51.496" height="18.621" transform="matrix(1,0,0,1,223.252,321.64)"/></clipPath></defs><g clip-path="url(#_clipPath_Y40vwzkNrBJNduwTdMYdLaEEGd6SHJ4g)"><text transform="matrix(1,0,0,1,244.366,319.747)" id="text_G7" style="font-family:'Yu Gothic UI';font-weight:700;font-size:14px;font-style:normal;fill:#000000;stroke:none;">G7</text></g><defs><clipPath id="_clipPath_Y40vwzkNrBJNduwTdMYdLaEEGd6SHJ4g"><rect x="0" y="0" width="51.496" height="18.621" transform="matrix(1,0,0,1,228.252,304.64)"/></clipPath></defs><g clip-path="url(#_clipPath_vSDCHHCWJhD6cPWQUvSSvBsqa9HHDTIq)"><text transform="matrix(1,0,0,1,248.212,303.747)" id="text_G6" style="font-family:'Yu Gothic UI';font-weight:700;font-size:14px;font-style:normal;fill:#000000;stroke:none;">G6</text></g><defs><clipPath id="_clipPath_vSDCHHCWJhD6cPWQUvSSvBsqa9HHDTIq"><rect x="0" y="0" width="51.496" height="18.621" transform="matrix(1,0,0,1,232.252,288.64)"/></clipPath></defs><g clip-path="url(#_clipPath_woT6vlFKY9Ky2Yaom6M9Xv6oQpLrBVWx)"><text transform="matrix(1,0,0,1,255.981,273.107)" id="text_G5" style="font-family:'Yu Gothic UI';font-weight:700;font-size:14px;font-style:normal;fill:#000000;stroke:none;">G5</text></g><defs><clipPath id="_clipPath_woT6vlFKY9Ky2Yaom6M9Xv6oQpLrBVWx"><rect x="0" y="0" width="51.496" height="18.621" transform="matrix(1,0,0,1,240,258)"/></clipPath></defs><g clip-path="url(#_clipPath_GMAG0d2zddAEJxZHDoGyJF0B1JOzCg1P)"><text transform="matrix(1,0,0,1,260.834,256.107)" id="text_G4" style="font-family:'Yu Gothic UI';font-weight:700;font-size:14px;font-style:normal;fill:#000000;stroke:none;">G4</text></g><defs><clipPath id="_clipPath_GMAG0d2zddAEJxZHDoGyJF0B1JOzCg1P"><rect x="0" y="0" width="51.496" height="18.621" transform="matrix(1,0,0,1,245,241)"/></clipPath></defs><g clip-path="url(#_clipPath_sTiuJsvMsWmuNDAT88YHdpHJ7H7WI4pV)"><text transform="matrix(1,0,0,1,264.981,240.107)" id="text_G3" style="font-family:'Yu Gothic UI';font-weight:700;font-size:14px;font-style:normal;fill:#000000;stroke:none;">G3</text></g><defs><clipPath id="_clipPath_sTiuJsvMsWmuNDAT88YHdpHJ7H7WI4pV"><rect x="0" y="0" width="51.496" height="18.621" transform="matrix(1,0,0,1,249,225)"/></clipPath></defs><g clip-path="url(#_clipPath_KVix2vtUcJwPgYCvob5Myf6K7vADdjdK)"><text transform="matrix(1,0,0,1,160,249.797)" id="text_hoken" style="font-family:'Yu Gothic UI';font-weight:700;font-size:14px;font-style:normal;fill:#000000;stroke:none;">保健室</text></g><defs><clipPath id="_clipPath_KVix2vtUcJwPgYCvob5Myf6K7vADdjdK"><rect x="0" y="0" width="51.496" height="18.621" transform="matrix(1,0,0,1,156.252,234.689)"/></clipPath></defs><g clip-path="url(#_clipPath_QBIHblAyBU3NDai9s7d4fHMR1do3sOoN)"><text transform="matrix(1,0,0,1,708,116.486)" id="text_dining" style="font-family:'Yu Gothic UI';font-weight:700;font-size:14px;font-style:normal;fill:#000000;stroke:none;">図書室</text></g><defs><clipPath id="_clipPath_QBIHblAyBU3NDai9s7d4fHMR1do3sOoN"><rect x="0" y="0" width="51.496" height="18.621" transform="matrix(1,0,0,1,704.252,101.379)"/></clipPath></defs><g clip-path="url(#_clipPath_L229iN8dPWjUnLm3cATRRoIoMVR9UVNM)"><text transform="matrix(1,0,0,1,98,354.437)" id="text_tosyo" style="font-family:'Yu Gothic UI';font-weight:700;font-size:14px;font-style:normal;fill:#000000;stroke:none;">図書室</text></g><defs><clipPath id="_clipPath_L229iN8dPWjUnLm3cATRRoIoMVR9UVNM"><rect x="0" y="0" width="51.496" height="18.621" transform="matrix(1,0,0,1,94.252,339.329)"/></clipPath></defs><g clip-path="url(#_clipPath_Q2ZgUBMBxOIVqrqUTYVqEORCVMw221oV)"><text transform="matrix(1,0,0,1,272.485,211.107)" id="text_G2" style="font-family:'Yu Gothic UI';font-weight:700;font-size:14px;font-style:normal;fill:#000000;stroke:none;">G2</text></g><defs><clipPath id="_clipPath_Q2ZgUBMBxOIVqrqUTYVqEORCVMw221oV"><rect x="0" y="0" width="51.496" height="18.621" transform="matrix(1,0,0,1,256.504,196)"/></clipPath></defs><g clip-path="url(#_clipPath_ous5AnVS7nAOA4m9uVP7ai6Y2ygouZy9)"><text transform="matrix(1,0,0,1,278.555,194.107)" id="text_G1" style="font-family:'Yu Gothic UI';font-weight:700;font-size:14px;font-style:normal;fill:#000000;stroke:none;">G1</text></g><defs><clipPath id="_clipPath_ous5AnVS7nAOA4m9uVP7ai6Y2ygouZy9"><rect x="0" y="0" width="51.496" height="18.621" transform="matrix(1,0,0,1,261.504,179)"/></clipPath></defs><g clip-path="url(#_clipPath_vQlfnvagR6fb2lUcVfTBRmuWuT09dVMd)"><text transform="matrix(1,0,0,1,317.676,165.797)" id="text_G17" style="font-family:'Yu Gothic UI';font-weight:700;font-size:14px;font-style:normal;fill:#000000;stroke:none;">G17</text></g><defs><clipPath id="_clipPath_vQlfnvagR6fb2lUcVfTBRmuWuT09dVMd"><rect x="0" y="0" width="99.748" height="18.621" transform="matrix(1,0,0,1,280.252,150.689)"/></clipPath></defs><g clip-path="url(#_clipPath_UtCmHBaN5D2lPDkCt0Ptve2liYgU1WRy)"><text transform="matrix(1,0,0,1,454.417,182.797)" id="text_G18" style="font-family:'Yu Gothic UI';font-weight:700;font-size:14px;font-style:normal;fill:#000000;stroke:none;">G18</text></g><defs><clipPath id="_clipPath_UtCmHBaN5D2lPDkCt0Ptve2liYgU1WRy"><rect x="0" y="0" width="76.874" height="18.621" transform="matrix(1,0,0,1,428.563,167.689)"/></clipPath></defs><g clip-path="url(#_clipPath_iECFL596J4ESDcyXO0GElQDM5VEPXO8K)"><text transform="matrix(1,0,0,1,546.396,182.797)" id="text_G19" style="font-family:'Yu Gothic UI';font-weight:700;font-size:14px;font-style:normal;fill:#000000;stroke:none;">G19</text></g><defs><clipPath id="_clipPath_iECFL596J4ESDcyXO0GElQDM5VEPXO8K"><rect x="0" y="0" width="76.874" height="18.621" transform="matrix(1,0,0,1,520.563,167.689)"/></clipPath></defs><g clip-path="url(#_clipPath_GiTfQK3ZPMBYwCX6vbhJL6xszBwjmIfy)"><text transform="matrix(1,0,0,1,637.347,182.797)" id="text_G20" style="font-family:'Yu Gothic UI';font-weight:700;font-size:14px;font-style:normal;fill:#000000;stroke:none;">G20</text></g><defs><clipPath id="_clipPath_GiTfQK3ZPMBYwCX6vbhJL6xszBwjmIfy"><rect x="0" y="0" width="76.874" height="18.621" transform="matrix(1,0,0,1,612.563,167.689)"/></clipPath></defs><g clip-path="url(#_clipPath_2GfiIYmmHveeKHmYKccwYnOSSYo4nZD3)"><text transform="matrix(1,0,0,1,624.417,241.797)" id="text_G21" style="font-family:'Yu Gothic UI';font-weight:700;font-size:14px;font-style:normal;fill:#000000;stroke:none;">G21</text></g><defs><clipPath id="_clipPath_2GfiIYmmHveeKHmYKccwYnOSSYo4nZD3"><rect x="0" y="0" width="76.874" height="18.621" transform="matrix(1,0,0,1,598.563,226.689)"/></clipPath></defs><g clip-path="url(#_clipPath_sqaWvh9sOvxwEylM5yXvDXyGXnmmpvdb)"><text transform="matrix(1,0,0,1,695.347,468.797)" id="text_G22" style="font-family:'Yu Gothic UI';font-weight:700;font-size:14px;font-style:normal;fill:#000000;stroke:none;">G22</text></g><defs><clipPath id="_clipPath_sqaWvh9sOvxwEylM5yXvDXyGXnmmpvdb"><rect x="0" y="0" width="76.874" height="18.621" transform="matrix(1,0,0,1,670.563,453.689)"/></clipPath></defs><g clip-path="url(#_clipPath_Z2bzWpBJE5JCT8m26Itsq3p4Rp3iR545)"><text transform="matrix(1,0,0,1,456.281,419.797)" id="text_G21" style="font-family:'Yu Gothic UI';font-weight:700;font-size:14px;font-style:normal;fill:#000000;stroke:none;">休憩所</text></g><defs><clipPath id="_clipPath_Z2bzWpBJE5JCT8m26Itsq3p4Rp3iR545"><rect x="0" y="0" width="51.437" height="18.621" transform="matrix(1,0,0,1,452.563,404.689)"/></clipPath></defs></g></svg>