<?xml version="1.0" encoding="UTF-8" standalone="no"?><!-- Generator: Gravit.io --><svg xmlns="http://www.w3.org/2000/svg" xmlns:xlink="http://www.w3.org/1999/xlink" style="isolation:isolate" viewBox="0 0 800 1000" width="800pt" height="1000pt"><defs><clipPath id="_clipPath_xv8dCsvBPpcRYzz4D7KGYQRGd7gP60Et"><rect width="800" height="1000"/></clipPath></defs><g clip-path="url(#_clipPath_xv8dCsvBPpcRYzz4D7KGYQRGd7gP60Et)"><g style="isolation:isolate" id="outer"><g id="グループ"><path d=" M 424 760 L 420 760 L 420 740 L 20 740" id="パス" fill="none" vector-effect="non-scaling-stroke" stroke-width="2" stroke="rgb(0,0,0)" stroke-linejoin="miter" stroke-linecap="square" stroke-miterlimit="3"/><path d=" M 20 740 L 20 940 L 420 940 L 420 860 L 420 830 L 420 830 L 340 830 L 420 830 L 420 800 L 424 800" id="パス" fill="none" vector-effect="non-scaling-stroke" stroke-width="2" stroke="rgb(0,0,0)" stroke-linejoin="miter" stroke-linecap="square" stroke-miterlimit="3"/></g><g id="グループ"><path d=" M 596 800 L 600.08 800 Q 600.028 940.138 600 940 Q 600 940.141 710 940 L 710 910.125" id="パス" fill="none" vector-effect="non-scaling-stroke" stroke-width="2" stroke="rgb(0,0,0)" stroke-linejoin="miter" stroke-linecap="square" stroke-miterlimit="3"/><path d=" M 710 910 L 720 910 C 725 918.5 740.125 920.375 750 920 C 780.25 919.75 790.172 890.297 790 840 C 790 810.125 784.667 781.667 770 770 L 790 770 L 790 740 L 790 110 L 760 110 L 760 80 L 650 80 L 650 740 C 638.624 740 621.999 740 600.125 740 L 600 760 L 596 760" id="パス" fill="none" vector-effect="non-scaling-stroke" stroke-width="2" stroke="rgb(0,0,0)" stroke-linejoin="miter" stroke-linecap="square" stroke-miterlimit="3"/></g></g><g style="isolation:isolate" id="booth"><path d=" M 55 741 L 280 741 L 280 859.944 C 257.708 859.944 220.309 860.126 220 860 C 219.964 859.985 220.009 858.012 220 857.984 Q 220 857.992 127 857.984 C 127 857.985 127 860.015 127 860 C 100.094 860 72.428 859.944 55 859.944 L 55 741 Z " id="maps_dining" fill="rgb(139,139,139)" vector-effect="non-scaling-stroke" stroke-width="2" stroke="rgb(0,0,0)" stroke-linejoin="miter" stroke-linecap="square" stroke-miterlimit="3"/><path d=" M 650 150 L 750 150 L 750 280 L 790 280 L 790 405 L 750 405 L 750 435 L 705 435 L 705 405 L 650 405 L 650 150 Z " id="maps_tosyo" fill="rgb(139,139,139)" vector-effect="non-scaling-stroke" stroke-width="2" stroke="rgb(0,0,0)" stroke-linejoin="miter" stroke-linecap="square" stroke-miterlimit="3"/><path d=" M 705 500 L 705 606 L 699.906 606 L 689.717 606 L 679.528 606 L 665.264 606 L 654.057 606 L 651 606 L 651 500 L 705 500 Z " id="maps_hoken" fill="rgb(139,139,139)" vector-effect="non-scaling-stroke" stroke-width="2" stroke="rgb(0,0,0)" stroke-linejoin="miter" stroke-linecap="square" stroke-miterlimit="3"/><g style="isolation:isolate" id="outside"><path d=" M 563 601 L 613 601 L 613 631 L 563 631 L 563 601 Z " id="maps_G1" fill="rgb(139,139,139)" vector-effect="non-scaling-stroke" stroke-width="2" stroke="rgb(0,0,0)" stroke-linejoin="miter" stroke-linecap="square" stroke-miterlimit="3"/><path d=" M 563 571 L 613 571 L 613 601 L 563 601 L 563 571 Z " id="maps_G2" fill="rgb(139,139,139)" vector-effect="non-scaling-stroke" stroke-width="2" stroke="rgb(0,0,0)" stroke-linejoin="miter" stroke-linecap="square" stroke-miterlimit="3"/><path d=" M 563 540 L 613 540 L 613 570 L 563 570 L 563 540 Z " id="maps_G3" fill="rgb(139,139,139)" vector-effect="non-scaling-stroke" stroke-width="2" stroke="rgb(0,0,0)" stroke-linejoin="miter" stroke-linecap="square" stroke-miterlimit="3"/><path d=" M 563 488 L 613 488 L 613 518 L 563 518 L 563 488 Z " id="maps_G4" fill="rgb(139,139,139)" vector-effect="non-scaling-stroke" stroke-width="2" stroke="rgb(0,0,0)" stroke-linejoin="miter" stroke-linecap="square" stroke-miterlimit="3"/><path d=" M 563 458 L 613 458 L 613 488 L 563 488 L 563 458 Z " id="maps_G5" fill="rgb(139,139,139)" vector-effect="non-scaling-stroke" stroke-width="2" stroke="rgb(0,0,0)" stroke-linejoin="miter" stroke-linecap="square" stroke-miterlimit="3"/><path d=" M 563 428 L 613 428 L 613 458 L 563 458 L 563 428 Z " id="maps_G6" fill="rgb(139,139,139)" vector-effect="non-scaling-stroke" stroke-width="2" stroke="rgb(0,0,0)" stroke-linejoin="miter" stroke-linecap="square" stroke-miterlimit="3"/><path d=" M 563 371 L 613 371 L 613 401 L 563 401 L 563 371 Z " id="maps_G7" fill="rgb(139,139,139)" vector-effect="non-scaling-stroke" stroke-width="2" stroke="rgb(0,0,0)" stroke-linejoin="miter" stroke-linecap="square" stroke-miterlimit="3"/><path d=" M 563 371 L 613 371 C 613 351.875 613 341.875 613 341 L 563 341 L 563 371 Z " id="maps_G8" fill="rgb(139,139,139)" vector-effect="non-scaling-stroke" stroke-width="2" stroke="rgb(0,0,0)" stroke-linejoin="miter" stroke-linecap="square" stroke-miterlimit="3"/><path d=" M 563 341 L 613 341 L 613 311 L 563 311 L 563 341 Z " id="maps_G9" fill="rgb(139,139,139)" vector-effect="non-scaling-stroke" stroke-width="2" stroke="rgb(0,0,0)" stroke-linejoin="miter" stroke-linecap="square" stroke-miterlimit="3"/><path d=" M 613 262 L 563 262 L 563 292 L 613 292 L 613 262 Z " id="maps_G10" fill="rgb(139,139,139)" vector-effect="non-scaling-stroke" stroke-width="2" stroke="rgb(0,0,0)" stroke-linejoin="miter" stroke-linecap="square" stroke-miterlimit="3"/><path d=" M 563 231 L 613 231 L 613 261 L 563 261 L 563 231 Z " id="maps_G11" fill="rgb(139,139,139)" vector-effect="non-scaling-stroke" stroke-width="2" stroke="rgb(0,0,0)" stroke-linejoin="miter" stroke-linecap="square" stroke-miterlimit="3"/><path d=" M 563 231 L 613 231 L 613 201 L 563 201 L 563 231 Z " id="maps_G12" fill="rgb(139,139,139)" vector-effect="non-scaling-stroke" stroke-width="2" stroke="rgb(0,0,0)" stroke-linejoin="miter" stroke-linecap="square" stroke-miterlimit="3"/><path d=" M 563 153 L 613 153 L 613 183 L 563 183 L 563 153 Z " id="maps_G13" fill="rgb(139,139,139)" vector-effect="non-scaling-stroke" stroke-width="2" stroke="rgb(0,0,0)" stroke-linejoin="miter" stroke-linecap="square" stroke-miterlimit="3"/><path d=" M 563 123 L 613 123 L 613 153 L 563 153 L 563 123 Z " id="maps_G14" fill="rgb(139,139,139)" vector-effect="non-scaling-stroke" stroke-width="2" stroke="rgb(0,0,0)" stroke-linejoin="miter" stroke-linecap="square" stroke-miterlimit="3"/><path d=" M 563 93 L 613 93 L 613 123 L 563 123 L 563 93 Z " id="maps_G15" fill="rgb(139,139,139)" vector-effect="non-scaling-stroke" stroke-width="2" stroke="rgb(0,0,0)" stroke-linejoin="miter" stroke-linecap="square" stroke-miterlimit="3"/><path d=" M 500 650 L 600 650 L 600 680 L 500 680 L 500 650 Z " id="maps_G20" fill="rgb(139,139,139)" vector-effect="non-scaling-stroke" stroke-width="2" stroke="rgb(0,0,0)" stroke-linejoin="miter" stroke-linecap="square" stroke-miterlimit="3"/><path d=" M 370 620 L 450 620 L 450 690 L 370 690 L 370 620 Z " id="maps_G21" fill="rgb(139,139,139)" vector-effect="non-scaling-stroke" stroke-width="2" stroke="rgb(0,0,0)" stroke-linejoin="miter" stroke-linecap="square" stroke-miterlimit="3"/><path d=" M 278 620 L 358 620 L 358 690 L 278 690 L 278 620 Z " id="maps_G22" fill="rgb(139,139,139)" vector-effect="non-scaling-stroke" stroke-width="2" stroke="rgb(0,0,0)" stroke-linejoin="miter" stroke-linecap="square" stroke-miterlimit="3"/><path d=" M 184 620 L 264 620 L 264 690 L 184 690 L 184 620 Z " id="maps_G23" fill="rgb(139,139,139)" vector-effect="non-scaling-stroke" stroke-width="2" stroke="rgb(0,0,0)" stroke-linejoin="miter" stroke-linecap="square" stroke-miterlimit="3"/><path d=" M 184 512 L 264 512 L 264 582 L 184 582 L 184 512 Z " id="maps_G24" fill="rgb(139,139,139)" vector-effect="non-scaling-stroke" stroke-width="2" stroke="rgb(0,0,0)" stroke-linejoin="miter" stroke-linecap="square" stroke-miterlimit="3"/><path d=" M 50 80 L 130 80 L 130 260 L 50 260 L 50 80 Z " id="maps_G25" fill="rgb(139,139,139)" vector-effect="non-scaling-stroke" stroke-width="2" stroke="rgb(0,0,0)" stroke-linejoin="miter" stroke-linecap="square" stroke-miterlimit="3"/><g clip-path="url(#_clipPath_Ez1L3gG5ojWPxjd3IeDschuBfKVwLKk0)"><text transform="matrix(1,0,0,1,510,670.797)" id="text_G20" style="font-family:'Yu Gothic UI';font-weight:700;font-size:14px;font-style:normal;fill:#ffffff;stroke:none;">ボランティア部</text></g><defs><clipPath id="_clipPath_Ez1L3gG5ojWPxjd3IeDschuBfKVwLKk0"><rect x="0" y="0" width="100" height="30" transform="matrix(1,0,0,1,500,650)"/></clipPath></defs><path d=" M 563 69 L 613 69 L 613 30 L 563 30 L 563 69 Z " id="maps_G16" fill="rgb(139,139,139)" vector-effect="non-scaling-stroke" stroke-width="2" stroke="rgb(0,0,0)" stroke-linejoin="miter" stroke-linecap="square" stroke-miterlimit="3"/><g clip-path="url(#_clipPath_ljZvEwfp7z8edI66LZvF0ClRhhZNxO5B)"><text transform="matrix(1,0,0,1,564,54.469)" id="text_G17" style="font-family:'Yu Gothic UI';font-weight:700;font-size:12px;font-style:normal;fill:#ffffff;stroke:none;">親父の会</text></g><defs><clipPath id="_clipPath_ljZvEwfp7z8edI66LZvF0ClRhhZNxO5B"><rect x="0" y="0" width="50" height="39" transform="matrix(1,0,0,1,563,30)"/></clipPath></defs></g></g><g style="isolation:isolate" id="blank"><path d=" M 750 220 L 750 280 L 790 280 L 790 220 L 750 220 Z " id="パス" fill="rgb(0,0,0)" vector-effect="non-scaling-stroke" stroke-width="2" stroke="rgb(0,0,0)" stroke-linejoin="miter" stroke-linecap="square" stroke-miterlimit="3"/><path d=" M 750 176 L 750 220 L 790 220 L 790 176 L 750 176 Z " id="パス" fill="rgb(0,0,0)" vector-effect="non-scaling-stroke" stroke-width="2" stroke="rgb(0,0,0)" stroke-linejoin="miter" stroke-linecap="square" stroke-miterlimit="3"/><path d=" M 750 110 L 750 176 L 790 176 L 790 110 L 750 110 Z " id="パス" fill="rgb(0,0,0)" vector-effect="non-scaling-stroke" stroke-width="2" stroke="rgb(0,0,0)" stroke-linejoin="miter" stroke-linecap="square" stroke-miterlimit="3"/><path d=" M 730 740 L 730 675 L 790 675 L 790 740 L 730 740 Z " id="パス" fill="rgb(0,0,0)" vector-effect="non-scaling-stroke" stroke-width="2" stroke="rgb(0,0,0)" stroke-linejoin="miter" stroke-linecap="square" stroke-miterlimit="3"/><path d=" M 20 860 L 20 940 L 55 940 L 55 860 L 20 860 Z " id="StairE" fill="rgb(0,0,0)" vector-effect="non-scaling-stroke" stroke-width="2" stroke="rgb(0,0,0)" stroke-linejoin="miter" stroke-linecap="square" stroke-miterlimit="3"/><path d=" M 280 860 L 280 940 L 220 940 L 220 860 L 280 860 Z " id="Audiovisual_Preparation_Room" fill="rgb(0,0,0)" vector-effect="non-scaling-stroke" stroke-width="2" stroke="rgb(0,0,0)" stroke-linejoin="miter" stroke-linecap="square" stroke-miterlimit="3"/><path d=" M 750 110 L 750 80 L 760 80 L 760 110 L 750 110 Z " id="パス" fill="rgb(0,0,0)" vector-effect="non-scaling-stroke" stroke-width="2" stroke="rgb(0,0,0)" stroke-linejoin="miter" stroke-linecap="square" stroke-miterlimit="3"/><path d=" M 280 860 L 290.758 860 L 316 860 L 316 940 L 280 940 L 280 860 Z " id="H1_StaffRoom" fill="rgb(0,0,0)" vector-effect="non-scaling-stroke" stroke-width="2" stroke="rgb(0,0,0)" stroke-linejoin="miter" stroke-linecap="square" stroke-miterlimit="3"/><path d=" M 600 847 L 660 847 L 660 940 C 650.875 940 630.875 940 600 940 L 600 847 Z " id="Interview_Room" fill="rgb(0,0,0)" vector-effect="non-scaling-stroke" stroke-width="2" stroke="rgb(0,0,0)" stroke-linejoin="miter" stroke-linecap="square" stroke-miterlimit="3"/><path d=" M 685 860 L 685 940 L 710 940 L 685 940 L 685 860 L 685 860 Z " fill-rule="evenodd" id="StairC" fill="none" vector-effect="non-scaling-stroke" stroke-width="2" stroke="rgb(0,0,0)" stroke-linejoin="miter" stroke-linecap="square" stroke-miterlimit="3"/><path d=" M 55 860 L 55 940 L 127 940 L 127 860 L 55 860 Z " id="パス" fill="rgb(0,0,0)" vector-effect="non-scaling-stroke" stroke-width="2" stroke="rgb(0,0,0)" stroke-linejoin="miter" stroke-linecap="square" stroke-miterlimit="3"/><path d=" M 127 940 L 127 858 L 220 858 L 220 940 L 127 940 Z " id="パス" fill="rgb(0,0,0)" vector-effect="non-scaling-stroke" stroke-width="2" stroke="rgb(0,0,0)" stroke-linejoin="miter" stroke-linecap="square" stroke-miterlimit="3"/><path d=" M 650 150 L 650 80 L 750 80 L 750 150 L 650 150 Z " id="パス" fill="rgb(0,0,0)" vector-effect="non-scaling-stroke" stroke-width="2" stroke="rgb(0,0,0)" stroke-linejoin="miter" stroke-linecap="square" stroke-miterlimit="3"/><path d=" M 660 885 L 685 885 L 685 940 L 660 940 L 660 885 Z " id="パス" fill="rgb(0,0,0)" vector-effect="non-scaling-stroke" stroke-width="2" stroke="rgb(0,0,0)" stroke-linejoin="miter" stroke-linecap="square" stroke-miterlimit="3"/><path d=" M 750 405 L 790 405 L 790 435 L 750 435 L 750 405 Z " id="パス" fill="rgb(0,0,0)" vector-effect="non-scaling-stroke" stroke-width="2" stroke="rgb(0,0,0)" stroke-linejoin="miter" stroke-linecap="square" stroke-miterlimit="3"/><path d=" M 646 405 L 705 405 L 705 435 L 646 435 L 646 405 Z " id="パス" fill="rgb(0,0,255)" vector-effect="non-scaling-stroke" stroke-width="2" stroke="rgb(0,0,0)" stroke-linejoin="miter" stroke-linecap="square" stroke-miterlimit="3"/><path d=" M 650 435 L 705 435 L 705 500 L 650 500 L 650 435 Z " id="パス" fill="rgb(0,0,0)" vector-effect="non-scaling-stroke" stroke-width="2" stroke="rgb(0,0,0)" stroke-linejoin="miter" stroke-linecap="square" stroke-miterlimit="3"/><line x1="710" y1="675" x2="710" y2="830" id="パス" vector-effect="non-scaling-stroke" stroke-width="2" stroke="rgb(0,0,0)" stroke-linejoin="miter" stroke-linecap="square" stroke-miterlimit="3"/><path d=" M 730 740 L 730 770 L 790 770 L 790 740 L 730 740 Z " id="パス" fill="rgb(0,0,0)" vector-effect="non-scaling-stroke" stroke-width="2" stroke="rgb(0,0,0)" stroke-linejoin="miter" stroke-linecap="square" stroke-miterlimit="3"/><path d=" M 640 846 L 640 830 L 690 830" id="パス" fill="none" vector-effect="non-scaling-stroke" stroke-width="2" stroke="rgb(0,0,0)" stroke-linejoin="miter" stroke-linecap="square" stroke-miterlimit="3"/><path d=" M 770 770 Q 754.389 770 730 770 L 730 815 Q 765.365 815 788 815 C 786.188 798.75 786.563 793.688 770 770 Z " id="パス" fill="rgb(0,0,0)" vector-effect="non-scaling-stroke" stroke-width="2" stroke="rgb(0,0,0)" stroke-linejoin="miter" stroke-linecap="square" stroke-miterlimit="3"/><path d=" M 786 884 L 788 870 L 788 860 L 770 860 L 770 912 L 775 908 L 780 900" id="パス" fill="rgb(0,0,0)" vector-effect="non-scaling-stroke" stroke-width="2" stroke="rgb(0,0,0)" stroke-linejoin="miter" stroke-linecap="square" stroke-miterlimit="3"/><path d=" M 788 815 L 730 815 L 730 860 L 789 860 L 788 815 Z " id="パス" fill="rgb(0,0,0)" vector-effect="non-scaling-stroke" stroke-width="2" stroke="rgb(0,0,0)" stroke-linejoin="miter" stroke-linecap="square" stroke-miterlimit="3"/><path d=" M 720 910 Q 716.097 910 710 910 L 710 860 L 770 860 Q 785.742 899.04 770 913 C 769.125 917.125 735.5 926.625 720 910 Z " id="パス" fill="rgb(0,0,0)" vector-effect="non-scaling-stroke" stroke-width="2" stroke="rgb(0,0,0)" stroke-linejoin="miter" stroke-linecap="square" stroke-miterlimit="3"/><path d=" M 20 740 L 55 740 L 55 860 L 20 860 L 20 740 Z " id="mapsAudiovisual_Room" fill="rgb(0,0,0)" vector-effect="non-scaling-stroke" stroke-width="2" stroke="rgb(0,0,0)" stroke-linejoin="miter" stroke-linecap="square" stroke-miterlimit="3"/><path d=" M 633 413 L 633 417 L 639 417 L 639 419 L 643 415 L 639 411 L 639 413 L 633 413 Z  M 641 427 L 641 423 L 635 423 L 635 421 L 631 425 L 635 429 L 635 427 L 641 427 Z " fill-rule="evenodd" id="複合シェイプ" fill="none" vector-effect="non-scaling-stroke" stroke-width="1" stroke="rgb(0,0,0)" stroke-linejoin="miter" stroke-linecap="square" stroke-miterlimit="3"/></g><g style="isolation:isolate" id="special"><path d=" M 348 860 L 348 940 L 316 940 L 316 860 L 348 860 Z " id="Toilet" fill="rgb(0,0,255)" vector-effect="non-scaling-stroke" stroke-width="2" stroke="rgb(0,0,0)" stroke-linejoin="miter" stroke-linecap="square" stroke-miterlimit="3"/><path d=" M 750 606 L 750 540 L 790 540 L 790 606" id="パス" fill="none" vector-effect="non-scaling-stroke" stroke-width="2" stroke="rgb(0,0,0)" stroke-linejoin="miter" stroke-linecap="square" stroke-miterlimit="3"/><path d=" M 376 890 L 376 940 L 348 940 L 348 890" id="パス" fill="none" vector-effect="non-scaling-stroke" stroke-width="2" stroke="rgb(0,0,0)" stroke-linejoin="miter" stroke-linecap="square" stroke-miterlimit="3"/><path d=" M 376 860 L 420 860 L 420 940 L 376 940 L 376 860 Z " id="S_F2_1" fill="rgb(0,150,136)" vector-effect="non-scaling-stroke" stroke-width="2" stroke="rgb(0,0,0)" stroke-linejoin="miter" stroke-linecap="square" stroke-miterlimit="3"/><g style="isolation:isolate" id="rest"/><path d=" M 750 540 L 750 506 L 790 506 L 790 540 L 750 540 Z " id="toilet" fill="rgb(255,0,0)" vector-effect="non-scaling-stroke" stroke-width="2" stroke="rgb(0,0,0)" stroke-linejoin="miter" stroke-linecap="square" stroke-miterlimit="3"/><path d=" M 750 435 L 750 480 L 790 480 L 790 435 L 750 435 Z " id="パス" fill="rgb(0,0,255)" vector-effect="non-scaling-stroke" stroke-width="2" stroke="rgb(0,0,0)" stroke-linejoin="miter" stroke-linecap="square" stroke-miterlimit="3"/></g><g style="isolation:isolate" id="Decorations"><g style="isolation:isolate" id="stairB"><path d=" M 750 606 L 750 629 L 790 629 L 790 627 L 752 627 L 752 606 L 750 606 L 750 600 L 790 600 L 790 595 L 750 595 L 750 590 L 790 590 L 790 585 L 750 585 L 750 580 L 790 580 L 790 575 L 750 575 L 750 570 L 790 570 L 790 567 L 785 565 L 750 565 L 750 560 L 773 560 L 761 555 L 750 555 L 750 550 L 790 567" id="パス" fill="none" vector-effect="non-scaling-stroke" stroke-width="1" stroke="rgb(0,0,0)" stroke-linejoin="miter" stroke-linecap="square" stroke-miterlimit="3"/></g><g style="isolation:isolate" id="stairC"><path d=" M 685 924 L 685 880 L 685 880 L 710 880 L 710 885 L 685 885 L 685 890 L 710 890 L 710 895 L 685 895 L 685 900 L 710 900 L 710 905 L 685 905 L 685 910 L 710 910 L 710 915 L 685 915 L 685 920 L 710 920" id="パス" fill="none" vector-effect="non-scaling-stroke" stroke-width="1" stroke="rgb(0,0,0)" stroke-linejoin="miter" stroke-linecap="square" stroke-miterlimit="3"/></g><g style="isolation:isolate" id="stairD"><path d=" M 376 860 L 348 860 L 348 864 L 376 864 L 376 868 L 348 868 L 348 872 L 376 872 L 376 876 L 348 876 L 348 880 L 376 880 L 376 884 L 348 884 L 348 889 L 376 889 L 376 895 L 348 895 L 348 901 L 376 901 L 348 924 L 348 915 L 359 915 L 364 911 L 348 911 L 348 906 L 370 906" id="パス" fill="none" vector-effect="non-scaling-stroke" stroke-width="1" stroke="rgb(0,0,0)" stroke-linejoin="miter" stroke-linecap="square" stroke-miterlimit="3"/></g><path d=" M 328 890 C 328 887.24 330.24 885 333 885 C 335.76 885 338 887.24 338 890 C 338 892.76 335.76 895 333 895 C 330.24 895 328 892.76 328 890 Z  M 332.641 909.067 L 328.359 897.933 C 328.161 897.418 328.448 897 329 897 L 337 897 C 337.552 897 337.839 897.418 337.641 897.933 L 333.359 909.067 C 333.161 909.582 332.839 909.582 332.641 909.067 Z " fill-rule="evenodd" id="複合パス" fill="rgb(255,255,255)"/><path d=" M 672 413 C 672 410.24 674.24 408 677 408 C 679.76 408 682 410.24 682 413 C 682 415.76 679.76 418 677 418 C 674.24 418 672 415.76 672 413 Z  M 676.641 432.067 L 672.718 421.867 C 672.322 420.836 672.896 420 674 420 L 680 420 C 681.104 420 681.678 420.836 681.282 421.867 L 677.359 432.067 C 677.161 432.582 676.839 432.582 676.641 432.067 Z " fill-rule="evenodd" id="複合パス" fill="rgb(255,255,255)"/><path d=" M 766 451 C 766 448.24 768.24 446 771 446 C 773.76 446 776 448.24 776 451 C 776 453.76 773.76 456 771 456 C 768.24 456 766 453.76 766 451 Z  M 770.641 470.067 L 766.718 459.867 C 766.322 458.836 766.896 458 768 458 L 774 458 C 775.104 458 775.678 458.836 775.282 459.867 L 771.359 470.067 C 771.161 470.582 770.839 470.582 770.641 470.067 Z " fill-rule="evenodd" id="複合パス" fill="rgb(255,255,255)"/><path d=" M 766 514 C 766 511.24 768.24 509 771 509 C 773.76 509 776 511.24 776 514 C 776 516.76 773.76 519 771 519 C 768.24 519 766 516.76 766 514 Z  M 770.641 521.933 L 766.359 533.067 C 766.161 533.582 766.448 534 767 534 L 775 534 C 775.552 534 775.839 533.582 775.641 533.067 L 771.359 521.933 C 771.161 521.418 770.839 521.418 770.641 521.933 Z " fill-rule="evenodd" id="複合パス" fill="rgb(255,255,255)"/><g style="isolation:isolate" id="Text"><g clip-path="url(#_clipPath_LOWjKf7dtLtAG4LBbtEYhvPkN7QS8B73)"><text transform="matrix(1,0,0,1,128,813.164)" id="text_dining" style="font-family:'Yu Gothic UI';font-weight:700;font-size:40px;font-style:normal;fill:#ffffff;stroke:none;">食堂</text></g><defs><clipPath id="_clipPath_LOWjKf7dtLtAG4LBbtEYhvPkN7QS8B73"><rect x="0" y="0" width="82" height="50" transform="matrix(1,0,0,1,128,770)"/></clipPath></defs><g clip-path="url(#_clipPath_cZBhgey6hLkjMjprS4z3qMlLeORqO6NX)"><text transform="matrix(1,0,0,1,652,560.039)" id="テキスト" style="font-family:'Yu Gothic UI';font-weight:700;font-size:17px;font-style:normal;fill:#ffffff;stroke:none;">保健室</text></g><defs><clipPath id="_clipPath_cZBhgey6hLkjMjprS4z3qMlLeORqO6NX"><rect x="0" y="0" width="53" height="106" transform="matrix(1,0,0,1,652,500)"/></clipPath></defs><g clip-path="url(#_clipPath_rhA2QAeKYxONrsuzwGiMzAHF8dShIp74)"><text transform="matrix(1,0,0,1,688,343.582)" id="text_tosyo" style="font-family:'Yu Gothic UI';font-weight:700;font-size:20px;font-style:normal;fill:#ffffff;stroke:none;">図書館</text></g><defs><clipPath id="_clipPath_rhA2QAeKYxONrsuzwGiMzAHF8dShIp74"><rect x="0" y="0" width="62" height="26.602" transform="matrix(1,0,0,1,688,322)"/></clipPath></defs><g clip-path="url(#_clipPath_KXoQWGdHXpaM9Mm3VrYxBohv8gPOgVgh)"><text transform="matrix(1,0,0,1,259.333,53.12)" id="テキスト" style="font-family:'Yu Gothic UI';font-weight:700;font-size:30px;font-style:normal;fill:#000000;stroke:none;">休</text><text transform="matrix(1,0,0,1,259.333,93.022)" id="テキスト" style="font-family:'Yu Gothic UI';font-weight:700;font-size:30px;font-style:normal;fill:#000000;stroke:none;">憩</text><text transform="matrix(1,0,0,1,259.333,132.924)" id="テキスト" style="font-family:'Yu Gothic UI';font-weight:700;font-size:30px;font-style:normal;fill:#000000;stroke:none;">所</text></g><defs><clipPath id="_clipPath_KXoQWGdHXpaM9Mm3VrYxBohv8gPOgVgh"><rect x="0" y="0" width="48.667" height="138.8" transform="matrix(1,0,0,1,251,11.2)"/></clipPath></defs><g clip-path="url(#_clipPath_ICaRZHLYL0uZu5qUuQUyf3omeFMb0NHU)"><text transform="matrix(1,0,0,1,319.333,53.12)" id="テキスト" style="font-family:'Yu Gothic UI';font-weight:700;font-size:30px;font-style:normal;fill:#000000;stroke:none;">休</text><text transform="matrix(1,0,0,1,319.333,93.022)" id="テキスト" style="font-family:'Yu Gothic UI';font-weight:700;font-size:30px;font-style:normal;fill:#000000;stroke:none;">憩</text><text transform="matrix(1,0,0,1,319.333,132.924)" id="テキスト" style="font-family:'Yu Gothic UI';font-weight:700;font-size:30px;font-style:normal;fill:#000000;stroke:none;">所</text></g><defs><clipPath id="_clipPath_ICaRZHLYL0uZu5qUuQUyf3omeFMb0NHU"><rect x="0" y="0" width="48.667" height="138.8" transform="matrix(1,0,0,1,311,11.2)"/></clipPath></defs><g clip-path="url(#_clipPath_vUyXrlIbgztBraYrMAkmXhmxhtwZWuem)"><text transform="matrix(1,0,0,1,259.333,217.12)" id="テキスト" style="font-family:'Yu Gothic UI';font-weight:700;font-size:30px;font-style:normal;fill:#000000;stroke:none;">休</text><text transform="matrix(1,0,0,1,259.333,257.022)" id="テキスト" style="font-family:'Yu Gothic UI';font-weight:700;font-size:30px;font-style:normal;fill:#000000;stroke:none;">憩</text><text transform="matrix(1,0,0,1,259.333,296.924)" id="テキスト" style="font-family:'Yu Gothic UI';font-weight:700;font-size:30px;font-style:normal;fill:#000000;stroke:none;">所</text></g><defs><clipPath id="_clipPath_vUyXrlIbgztBraYrMAkmXhmxhtwZWuem"><rect x="0" y="0" width="48.667" height="138.8" transform="matrix(1,0,0,1,251,175.2)"/></clipPath></defs><g clip-path="url(#_clipPath_JT3DFMtOQDApEOXEehER7CgvqlTA4sAr)"><text transform="matrix(1,0,0,1,319.333,217.12)" id="テキスト" style="font-family:'Yu Gothic UI';font-weight:700;font-size:30px;font-style:normal;fill:#000000;stroke:none;">休</text><text transform="matrix(1,0,0,1,319.333,257.022)" id="テキスト" style="font-family:'Yu Gothic UI';font-weight:700;font-size:30px;font-style:normal;fill:#000000;stroke:none;">憩</text><text transform="matrix(1,0,0,1,319.333,296.924)" id="テキスト" style="font-family:'Yu Gothic UI';font-weight:700;font-size:30px;font-style:normal;fill:#000000;stroke:none;">所</text></g><defs><clipPath id="_clipPath_JT3DFMtOQDApEOXEehER7CgvqlTA4sAr"><rect x="0" y="0" width="48.667" height="138.8" transform="matrix(1,0,0,1,311,175.2)"/></clipPath></defs><g style="isolation:isolate" id="レイヤー 46"><g clip-path="url(#_clipPath_nnXQHLt5iNu6y7jUmejE1pbgD7SdRskV)"><text transform="matrix(1,0,0,1,290.5,649.98)" id="text_G22" style="font-family:'Yu Gothic UI';font-weight:700;font-size:20px;font-style:normal;fill:#ffffff;stroke:none;">赤おに</text><text transform="matrix(1,0,0,1,290.5,676.582)" id="text_G22" style="font-family:'Yu Gothic UI';font-weight:700;font-size:20px;font-style:normal;fill:#ffffff;stroke:none;">青おに</text></g><defs><clipPath id="_clipPath_nnXQHLt5iNu6y7jUmejE1pbgD7SdRskV"><rect x="0" y="0" width="80" height="70" transform="matrix(1,0,0,1,278,620)"/></clipPath></defs><g clip-path="url(#_clipPath_O5lA7dU54GlkerZD1K3Dhp7AUvDi3MSo)"><text transform="matrix(1,0,0,1,194.5,650.231)" id="text_G23" style="font-family:'Yu Gothic UI';font-weight:700;font-size:19px;font-style:normal;fill:#ffffff;stroke:none;">キャップ</text><text transform="matrix(1,0,0,1,202.5,675.503)" id="text_G23" style="font-family:'Yu Gothic UI';font-weight:700;font-size:19px;font-style:normal;fill:#ffffff;stroke:none;">アート</text></g><defs><clipPath id="_clipPath_O5lA7dU54GlkerZD1K3Dhp7AUvDi3MSo"><rect x="0" y="0" width="80" height="70" transform="matrix(1,0,0,1,184,620)"/></clipPath></defs><g clip-path="url(#_clipPath_65orZZySiO4jvyqUIMKwICezv7pSMc9i)"><text transform="matrix(1,0,0,1,196,541.98)" id="text_G24" style="font-family:'Yu Gothic UI';font-weight:700;font-size:20px;font-style:normal;fill:#ffffff;stroke:none;">車いす</text><text transform="matrix(1,0,0,1,203,568.582)" id="text_G24" style="font-family:'Yu Gothic UI';font-weight:700;font-size:20px;font-style:normal;fill:#ffffff;stroke:none;">体験</text></g><defs><clipPath id="_clipPath_65orZZySiO4jvyqUIMKwICezv7pSMc9i"><rect x="0" y="0" width="80" height="70" transform="matrix(1,0,0,1,184,512)"/></clipPath></defs><g clip-path="url(#_clipPath_Tqasq7BhMi9kTVGrMCtean4ygdb8TDvj)"><text transform="matrix(1,0,0,1,53.5,177.867)" id="text_G25" style="font-family:'Yu Gothic UI';font-weight:700;font-size:19px;font-style:normal;letter-spacing:-1;fill:#ffffff;stroke:none;">サッカー部</text></g><defs><clipPath id="_clipPath_Tqasq7BhMi9kTVGrMCtean4ygdb8TDvj"><rect x="0" y="0" width="80" height="180" transform="matrix(1,0,0,1,50,80)"/></clipPath></defs><g clip-path="url(#_clipPath_ux4Zr7rUUL8X6qlaJs2JPrB2DlhCBOC0)"><text transform="matrix(1,0,0,1,379,663.281)" id="text_G21" style="font-family:'Yu Gothic UI';font-weight:700;font-size:20px;font-style:normal;fill:#ffffff;stroke:none;">弓道部</text></g><defs><clipPath id="_clipPath_ux4Zr7rUUL8X6qlaJs2JPrB2DlhCBOC0"><rect x="0" y="0" width="80" height="70" transform="matrix(1,0,0,1,370,620)"/></clipPath></defs><g clip-path="url(#_clipPath_A2fFC1hVu4j3eCQ1kHx7Mq9OHFXosTA3)"><text transform="matrix(1,0,0,1,566,621.797)" id="text_G1" style="font-family:'Yu Gothic UI';font-weight:700;font-size:14px;font-style:normal;fill:#ffffff;stroke:none;">野球部</text></g><defs><clipPath id="_clipPath_A2fFC1hVu4j3eCQ1kHx7Mq9OHFXosTA3"><rect x="0" y="0" width="50" height="30" transform="matrix(1,0,0,1,563,601)"/></clipPath></defs><g clip-path="url(#_clipPath_Bq6pebh3ibh0DmnjZZuPU8LWqmlTd3CV)"><text transform="matrix(1,0,0,1,567.5,590.969)" id="text_G2" style="font-family:'Yu Gothic UI';font-weight:700;font-size:12px;font-style:normal;fill:#ffffff;stroke:none;">バレー部</text></g><defs><clipPath id="_clipPath_Bq6pebh3ibh0DmnjZZuPU8LWqmlTd3CV"><rect x="0" y="0" width="50" height="30" transform="matrix(1,0,0,1,563,571)"/></clipPath></defs><g clip-path="url(#_clipPath_5JSqgKbCZj6MejD0jgaSzcyvEm6ZLrgX)"><text transform="matrix(1,0,0,1,569,560.797)" id="text_G3" style="font-family:'Yu Gothic UI';font-weight:700;font-size:14px;font-style:normal;fill:#ffffff;stroke:none;">高一B</text></g><defs><clipPath id="_clipPath_5JSqgKbCZj6MejD0jgaSzcyvEm6ZLrgX"><rect x="0" y="0" width="50" height="30" transform="matrix(1,0,0,1,563,540)"/></clipPath></defs><g clip-path="url(#_clipPath_y2WISjfYiGuVM3XMPptwiK1AaI0akBtq)"><text transform="matrix(1,0,0,1,569.5,507.969)" id="text_G4" style="font-family:'Yu Gothic UI';font-weight:700;font-size:12px;font-style:normal;fill:#ffffff;stroke:none;">ホッケー</text></g><defs><clipPath id="_clipPath_y2WISjfYiGuVM3XMPptwiK1AaI0akBtq"><rect x="0" y="0" width="50" height="30" transform="matrix(1,0,0,1,563,488)"/></clipPath></defs><g clip-path="url(#_clipPath_8dttcvIDLOiieWsEePGplxT2XzphKNZJ)"><text transform="matrix(1,0,0,1,568.5,478.797)" id="text_G5" style="font-family:'Yu Gothic UI';font-weight:700;font-size:14px;font-style:normal;fill:#ffffff;stroke:none;">高一C</text></g><defs><clipPath id="_clipPath_8dttcvIDLOiieWsEePGplxT2XzphKNZJ"><rect x="0" y="0" width="50" height="30" transform="matrix(1,0,0,1,563,458)"/></clipPath></defs><g clip-path="url(#_clipPath_bsJIz088REvcJweyfcLwHRqrBBOiVpY9)"><text transform="matrix(1,0,0,1,568.5,447.969)" id="text_G6" style="font-family:'Yu Gothic UI';font-weight:700;font-size:12px;font-style:normal;letter-spacing:-1;fill:#ffffff;stroke:none;">バスケ部</text></g><defs><clipPath id="_clipPath_bsJIz088REvcJweyfcLwHRqrBBOiVpY9"><rect x="0" y="0" width="50" height="30" transform="matrix(1,0,0,1,563,428)"/></clipPath></defs><g clip-path="url(#_clipPath_IzN1Wf3jN8KA8hwNEb0LQXStmWq9EAMw)"><text transform="matrix(1,0,0,1,569,390.969)" id="text_G7" style="font-family:'Yu Gothic UI';font-weight:700;font-size:12px;font-style:normal;letter-spacing:-1;fill:#ffffff;stroke:none;">テニス部</text></g><defs><clipPath id="_clipPath_IzN1Wf3jN8KA8hwNEb0LQXStmWq9EAMw"><rect x="0" y="0" width="50" height="30" transform="matrix(1,0,0,1,563,371)"/></clipPath></defs><g clip-path="url(#_clipPath_YhkPHzuenKZN7NNckA62Iq10e9pHaSQS)"><text transform="matrix(1,0,0,1,568,361.797)" id="text_G8" style="font-family:'Yu Gothic UI';font-weight:700;font-size:14px;font-style:normal;fill:#ffffff;stroke:none;">高一D</text></g><defs><clipPath id="_clipPath_YhkPHzuenKZN7NNckA62Iq10e9pHaSQS"><rect x="0" y="0" width="50" height="30" transform="matrix(1,0,0,1,563,341)"/></clipPath></defs><g clip-path="url(#_clipPath_HulNarItrSFU4NQGoglC4Iqw05gB1EG8)"><text transform="matrix(1,0,0,1,569,331.797)" id="text_G9" style="font-family:'Yu Gothic UI';font-weight:700;font-size:14px;font-style:normal;fill:#ffffff;stroke:none;">高二B</text></g><defs><clipPath id="_clipPath_HulNarItrSFU4NQGoglC4Iqw05gB1EG8"><rect x="0" y="0" width="50" height="30" transform="matrix(1,0,0,1,563,311)"/></clipPath></defs><g clip-path="url(#_clipPath_cOaBld1nCJYu93TtDubv9Oorzy5Rxu1A)"><text transform="matrix(1,0,0,1,569.5,282.797)" id="text_G10" style="font-family:'Yu Gothic UI';font-weight:700;font-size:14px;font-style:normal;fill:#ffffff;stroke:none;">高二E</text></g><defs><clipPath id="_clipPath_cOaBld1nCJYu93TtDubv9Oorzy5Rxu1A"><rect x="0" y="0" width="50" height="30" transform="matrix(1,0,0,1,563,262)"/></clipPath></defs><g clip-path="url(#_clipPath_aKs0sNuoD4qbblZhDpgHD9YTAUpSJwu8)"><text transform="matrix(1,0,0,1,568,252.797)" id="tex_G11" style="font-family:'Yu Gothic UI';font-weight:700;font-size:14px;font-style:normal;fill:#ffffff;stroke:none;">高二D</text></g><defs><clipPath id="_clipPath_aKs0sNuoD4qbblZhDpgHD9YTAUpSJwu8"><rect x="0" y="0" width="50" height="30" transform="matrix(1,0,0,1,563,232)"/></clipPath></defs><g clip-path="url(#_clipPath_OLGZZqK9gO4VYR6bULghYHqADwh8ELc8)"><text transform="matrix(1,0,0,1,568.5,221.797)" id="text_G12" style="font-family:'Yu Gothic UI';font-weight:700;font-size:14px;font-style:normal;fill:#ffffff;stroke:none;">高二A</text></g><defs><clipPath id="_clipPath_OLGZZqK9gO4VYR6bULghYHqADwh8ELc8"><rect x="0" y="0" width="50" height="30" transform="matrix(1,0,0,1,563,201)"/></clipPath></defs><g clip-path="url(#_clipPath_TZC9py3yXuPKHe6jnROvuDdZtCXacQC2)"><text transform="matrix(1,0,0,1,566,173.797)" id="text_G13" style="font-family:'Yu Gothic UI';font-weight:700;font-size:14px;font-style:normal;fill:#ffffff;stroke:none;">剣道部</text></g><defs><clipPath id="_clipPath_TZC9py3yXuPKHe6jnROvuDdZtCXacQC2"><rect x="0" y="0" width="50" height="30" transform="matrix(1,0,0,1,563,153)"/></clipPath></defs><g clip-path="url(#_clipPath_2IIql4gi1K92s6IClMgQpSQQD6ehqYAu)"><text transform="matrix(1,0,0,1,566,143.797)" id="text_G14" style="font-family:'Yu Gothic UI';font-weight:700;font-size:14px;font-style:normal;fill:#ffffff;stroke:none;">陸上部</text></g><defs><clipPath id="_clipPath_2IIql4gi1K92s6IClMgQpSQQD6ehqYAu"><rect x="0" y="0" width="50" height="30" transform="matrix(1,0,0,1,563,123)"/></clipPath></defs><g clip-path="url(#_clipPath_J24jvU9Oa12c1ytgYnDqhfiFZbIrh9b6)"><text transform="matrix(1,0,0,1,566,113.797)" id="text_G15" style="font-family:'Yu Gothic UI';font-weight:700;font-size:14px;font-style:normal;fill:#ffffff;stroke:none;">卓球部</text></g><defs><clipPath id="_clipPath_J24jvU9Oa12c1ytgYnDqhfiFZbIrh9b6"><rect x="0" y="0" width="50" height="30" transform="matrix(1,0,0,1,563,93)"/></clipPath></defs></g></g><path d=" M 300 170 L 250 170 L 250 320 L 300 320 L 300 170 Z " id="パス" fill="none" vector-effect="non-scaling-stroke" stroke-width="2" stroke="rgb(0,0,0)" stroke-linejoin="miter" stroke-linecap="square" stroke-miterlimit="3"/><path d=" M 310 10 L 360 10 L 360 150 L 310 150 L 310 10 Z " id="パス" fill="none" vector-effect="non-scaling-stroke" stroke-width="2" stroke="rgb(0,0,0)" stroke-linejoin="miter" stroke-linecap="square" stroke-miterlimit="3"/><path d=" M 300 150 L 250 150 L 250 10 L 300 10 L 300 150 Z " id="パス" fill="none" vector-effect="non-scaling-stroke" stroke-width="2" stroke="rgb(0,0,0)" stroke-linejoin="miter" stroke-linecap="square" stroke-miterlimit="3"/><path d=" M 310 170 L 360 170 L 360 320 L 310 320 L 310 170 Z " id="パス" fill="none" vector-effect="non-scaling-stroke" stroke-width="2" stroke="rgb(0,0,0)" stroke-linejoin="miter" stroke-linecap="square" stroke-miterlimit="3"/></g><path d=" M 395.251 888.625 C 396.804 888.625 398.064 887.366 398.064 885.813 C 398.064 884.259 396.804 883 395.251 883 C 393.697 883 392.438 884.259 392.438 885.813 C 392.438 887.366 393.697 888.625 395.251 888.625 Z  M 391.061 897.484 C 391.788 897.209 392.157 896.4 391.881 895.674 C 391.606 894.947 390.797 894.578 390.071 894.854 C 386.526 896.189 384 899.611 384 903.625 C 384 908.805 388.196 913 393.376 913 C 396.962 913 400.073 910.99 401.65 908.037 C 402.013 907.352 401.755 906.502 401.07 906.133 C 400.384 905.764 399.534 906.027 399.165 906.713 C 398.064 908.781 395.884 910.188 393.376 910.188 C 389.748 910.188 386.813 907.252 386.813 903.625 C 386.813 900.818 388.577 898.422 391.061 897.484 Z  M 399.224 893.313 L 399.112 892.744 C 398.849 891.438 397.706 890.5 396.37 890.5 C 394.606 890.5 393.282 892.111 393.628 893.84 L 394.981 900.607 C 395.333 902.359 396.868 903.619 398.661 903.619 L 398.96 903.619 C 398.984 903.619 399.007 903.619 399.036 903.619 L 404.55 903.619 C 404.943 903.619 405.289 903.859 405.429 904.229 L 407.556 909.906 C 407.908 910.85 408.951 911.348 409.906 911.025 L 412.719 910.088 C 413.703 909.76 414.231 908.699 413.903 907.715 C 413.574 906.73 412.514 906.203 411.529 906.531 L 410.434 906.895 L 408.939 902.91 C 408.254 901.082 406.502 899.869 404.55 899.869 L 400.536 899.869 L 399.974 897.057 L 403.689 897.057 C 404.726 897.057 405.564 896.219 405.564 895.182 C 405.564 894.145 404.726 893.307 403.689 893.307 L 399.224 893.307 L 399.224 893.313 Z " id="wheelchair" fill="rgb(255,255,255)"/></g></svg>