<?xml version="1.0" encoding="UTF-8" standalone="no"?><!-- Generator: Gravit.io --><svg xmlns="http://www.w3.org/2000/svg" xmlns:xlink="http://www.w3.org/1999/xlink" style="isolation:isolate" viewBox="0 0 1000 800" width="1000pt" height="800pt"><defs><clipPath id="_clipPath_DnfOAJKUrsqUO7ZbQ5DP3OzKjzWA8ydq"><rect width="1000" height="800"/></clipPath></defs><g clip-path="url(#_clipPath_DnfOAJKUrsqUO7ZbQ5DP3OzKjzWA8ydq)"><g style="isolation:isolate" id="outer"><g id="グループ"><path d=" M 471.792 109.039 L 475.792 109.039 L 472.844 120.039 L 872.844 120.039" id="パス" fill="none" vector-effect="non-scaling-stroke" stroke-width="1.483" stroke="rgb(0,0,0)" stroke-linejoin="miter" stroke-linecap="square" stroke-miterlimit="3"/><path d=" M 872.844 120.039 L 902.319 10.039 L 502.319 10.039 L 490.529 54.039 L 486.108 70.539 L 486.108 70.539 L 566.108 70.539 L 486.108 70.539 L 481.687 87.039 L 477.687 87.039" id="パス" fill="none" vector-effect="non-scaling-stroke" stroke-width="1.483" stroke="rgb(0,0,0)" stroke-linejoin="miter" stroke-linecap="square" stroke-miterlimit="3"/></g><g id="グループ"><path d=" M 305.687 87.039 L 301.607 87.039 Q 322.312 9.963 322.319 10.039 Q 322.34 9.961 212.319 10.039 L 207.916 26.47" id="パス" fill="none" vector-effect="non-scaling-stroke" stroke-width="1.483" stroke="rgb(0,0,0)" stroke-linejoin="miter" stroke-linecap="square" stroke-miterlimit="3"/><path d=" M 207.898 26.539 L 197.898 26.539 C 194.15 21.864 179.302 20.832 169.371 21.039 C 139.085 21.176 124.822 37.375 117.582 65.039 C 113.179 81.47 114.318 97.122 127.266 103.539 L 107.266 103.539 L 102.844 120.039 L 10 466.539 L 40 466.539 L 35.579 483.039 L 145.579 483.039 L 242.844 120.039 C 254.22 120.039 270.845 120.039 292.719 120.039 L 295.792 109.039 L 299.792 109.039" id="パス" fill="none" vector-effect="non-scaling-stroke" stroke-width="1.483" stroke="rgb(0,0,0)" stroke-linejoin="miter" stroke-linecap="square" stroke-miterlimit="3"/></g></g><g style="isolation:isolate" id="booth"><path d=" M 837.992 119.489 L 612.992 119.489 L 630.521 54.07 C 652.813 54.07 690.239 53.97 690.529 54.039 C 690.563 54.047 690.227 55.132 690.232 55.148 Q 690.233 55.143 783.232 55.148 C 783.232 55.147 783.531 54.03 783.529 54.039 C 810.435 54.039 838.093 54.07 855.521 54.07 L 837.992 119.489 Z " id="maps_dining" fill="rgb(185,185,185)" vector-effect="non-scaling-stroke" stroke-width="1.483" stroke="rgb(0,0,0)" stroke-linejoin="miter" stroke-linecap="square" stroke-miterlimit="3"/><path d=" M 155.895 444.539 L 55.895 444.539 L 75.053 373.039 L 35.053 373.039 L 53.475 304.289 L 93.475 304.289 L 97.896 287.789 L 142.896 287.789 L 138.475 304.289 L 193.475 304.289 L 155.895 444.539 Z " id="maps_tosyo" fill="rgb(185,185,185)" vector-effect="non-scaling-stroke" stroke-width="1.483" stroke="rgb(0,0,0)" stroke-linejoin="miter" stroke-linecap="square" stroke-miterlimit="3"/><path d=" M 152.475 252.039 L 168.097 193.739 L 173.191 193.739 L 183.38 193.739 L 193.568 193.739 L 207.832 193.739 L 219.04 193.739 L 222.097 193.739 L 206.475 252.039 L 152.475 252.039 Z " id="maps_hoken" fill="rgb(185,185,185)" vector-effect="non-scaling-stroke" stroke-width="1.483" stroke="rgb(0,0,0)" stroke-linejoin="miter" stroke-linecap="square" stroke-miterlimit="3"/><g style="isolation:isolate" id="outside"><path d=" M 309.36 196.489 L 259.36 196.489 L 263.781 179.989 L 313.781 179.989 L 309.36 196.489 Z " id="maps_G1" fill="rgb(209,209,209)" vector-effect="non-scaling-stroke" stroke-width="0.88" stroke="rgb(0,0,0)" stroke-linejoin="miter" stroke-linecap="square" stroke-miterlimit="3"/><path d=" M 304.939 212.989 L 254.939 212.989 L 259.36 196.489 L 309.36 196.489 L 304.939 212.989 Z " id="maps_G2" fill="rgb(209,209,209)" vector-effect="non-scaling-stroke" stroke-width="0.88" stroke="rgb(0,0,0)" stroke-linejoin="miter" stroke-linecap="square" stroke-miterlimit="3"/><path d=" M 297.128 242.139 L 247.128 242.139 L 251.549 225.639 L 301.549 225.639 L 297.128 242.139 Z " id="maps_G3" fill="rgb(209,209,209)" vector-effect="non-scaling-stroke" stroke-width="0.88" stroke="rgb(0,0,0)" stroke-linejoin="miter" stroke-linecap="square" stroke-miterlimit="3"/><path d=" M 292.707 258.639 L 242.707 258.639 L 247.128 242.139 L 297.128 242.139 L 292.707 258.639 Z " id="maps_G4" fill="rgb(209,209,209)" vector-effect="non-scaling-stroke" stroke-width="0.88" stroke="rgb(0,0,0)" stroke-linejoin="miter" stroke-linecap="square" stroke-miterlimit="3"/><path d=" M 288.285 275.139 L 238.285 275.139 L 242.707 258.639 L 292.707 258.639 L 288.285 275.139 Z " id="maps_G5" fill="rgb(209,209,209)" vector-effect="non-scaling-stroke" stroke-width="0.88" stroke="rgb(0,0,0)" stroke-linejoin="miter" stroke-linecap="square" stroke-miterlimit="3"/><path d=" M 279.885 306.489 L 229.885 306.489 L 234.306 289.989 L 284.306 289.989 L 279.885 306.489 Z " id="maps_G6" fill="rgb(209,209,209)" vector-effect="non-scaling-stroke" stroke-width="0.88" stroke="rgb(0,0,0)" stroke-linejoin="miter" stroke-linecap="square" stroke-miterlimit="3"/><path d=" M 275.464 322.989 L 225.464 322.989 L 229.885 306.489 L 279.885 306.489 L 275.464 322.989 Z " id="maps_G7" fill="rgb(209,209,209)" vector-effect="non-scaling-stroke" stroke-width="0.88" stroke="rgb(0,0,0)" stroke-linejoin="miter" stroke-linecap="square" stroke-miterlimit="3"/><path d=" M 275.464 322.989 L 225.464 322.989 C 222.646 333.507 221.172 339.007 221.043 339.489 L 271.043 339.489 L 275.464 322.989 Z " id="maps_G8" fill="rgb(209,209,209)" vector-effect="non-scaling-stroke" stroke-width="0.88" stroke="rgb(0,0,0)" stroke-linejoin="miter" stroke-linecap="square" stroke-miterlimit="3"/><path d=" M 268.243 349.939 L 218.243 349.939 L 213.822 366.439 L 263.822 366.439 L 268.243 349.939 Z " id="maps_G9" fill="rgb(209,209,209)" vector-effect="non-scaling-stroke" stroke-width="0.88" stroke="rgb(0,0,0)" stroke-linejoin="miter" stroke-linecap="square" stroke-miterlimit="3"/><path d=" M 209.401 382.939 L 259.401 382.939 L 263.822 366.439 L 213.822 366.439 L 209.401 382.939 Z " id="maps_G10" fill="rgb(209,209,209)" vector-effect="non-scaling-stroke" stroke-width="0.88" stroke="rgb(0,0,0)" stroke-linejoin="miter" stroke-linecap="square" stroke-miterlimit="3"/><path d=" M 254.832 399.989 L 204.832 399.989 L 209.253 383.489 L 259.253 383.489 L 254.832 399.989 Z " id="maps_G11" fill="rgb(209,209,209)" vector-effect="non-scaling-stroke" stroke-width="0.88" stroke="rgb(0,0,0)" stroke-linejoin="miter" stroke-linecap="square" stroke-miterlimit="3"/><path d=" M 252.179 409.889 L 202.179 409.889 L 197.758 426.389 L 247.758 426.389 L 252.179 409.889 Z " id="maps_G12" fill="rgb(209,209,209)" vector-effect="non-scaling-stroke" stroke-width="0.88" stroke="rgb(0,0,0)" stroke-linejoin="miter" stroke-linecap="square" stroke-miterlimit="3"/><path d=" M 243.337 442.889 L 193.337 442.889 L 197.758 426.389 L 247.758 426.389 L 243.337 442.889 Z " id="maps_G13" fill="rgb(209,209,209)" vector-effect="non-scaling-stroke" stroke-width="0.88" stroke="rgb(0,0,0)" stroke-linejoin="miter" stroke-linecap="square" stroke-miterlimit="3"/><path d=" M 238.916 459.389 L 188.916 459.389 L 193.337 442.889 L 243.337 442.889 L 238.916 459.389 Z " id="maps_G14" fill="rgb(209,209,209)" vector-effect="non-scaling-stroke" stroke-width="0.9" stroke="rgb(0,0,0)" stroke-linejoin="miter" stroke-linecap="square" stroke-miterlimit="3"/><path d=" M 230.958 489.089 L 180.958 489.089 L 185.379 472.589 L 235.379 472.589 L 230.958 489.089 Z " id="maps_G15" fill="rgb(209,209,209)" vector-effect="non-scaling-stroke" stroke-width="0.88" stroke="rgb(0,0,0)" stroke-linejoin="miter" stroke-linecap="square" stroke-miterlimit="3"/><path d=" M 379.581 169.539 L 279.581 169.539 L 284.002 153.039 L 384.002 153.039 L 379.581 169.539 Z " id="maps_G17" fill="rgb(209,209,209)" vector-effect="non-scaling-stroke" stroke-width="0.88" stroke="rgb(0,0,0)" stroke-linejoin="miter" stroke-linecap="square" stroke-miterlimit="3"/><path d=" M 505.16 186.039 L 425.16 186.039 L 435.476 147.539 L 515.476 147.539 L 505.16 186.039 Z " id="maps_G18" fill="rgb(209,209,209)" vector-effect="non-scaling-stroke" stroke-width="0.88" stroke="rgb(0,0,0)" stroke-linejoin="miter" stroke-linecap="square" stroke-miterlimit="3"/><path d=" M 597.16 186.039 L 517.16 186.039 L 527.476 147.539 L 607.476 147.539 L 597.16 186.039 Z " id="maps_G19" fill="rgb(209,209,209)" vector-effect="non-scaling-stroke" stroke-width="0.88" stroke="rgb(0,0,0)" stroke-linejoin="miter" stroke-linecap="square" stroke-miterlimit="3"/><path d=" M 691.16 186.039 L 611.16 186.039 L 621.476 147.539 L 701.476 147.539 L 691.16 186.039 Z " id="maps_G20" fill="rgb(209,209,209)" vector-effect="non-scaling-stroke" stroke-width="0.88" stroke="rgb(0,0,0)" stroke-linejoin="miter" stroke-linecap="square" stroke-miterlimit="3"/><path d=" M 675.244 245.439 L 595.244 245.439 L 605.56 206.939 L 685.56 206.939 L 675.244 245.439 Z " id="maps_G21" fill="rgb(209,209,209)" vector-effect="non-scaling-stroke" stroke-width="0.88" stroke="rgb(0,0,0)" stroke-linejoin="miter" stroke-linecap="square" stroke-miterlimit="3"/><path d=" M 747.526 472.039 L 667.526 472.039 L 694.053 373.039 L 774.053 373.039 L 747.526 472.039 Z " id="maps_G22" fill="rgb(209,209,209)" vector-effect="non-scaling-stroke" stroke-width="0.88" stroke="rgb(0,0,0)" stroke-linejoin="miter" stroke-linecap="square" stroke-miterlimit="3"/><path d=" M 230.958 489.089 L 180.958 489.089 L 175.21 510.539 L 225.21 510.539 L 230.958 489.089 Z " id="maps_G16" fill="rgb(209,209,209)" vector-effect="non-scaling-stroke" stroke-width="0.88" stroke="rgb(0,0,0)" stroke-linejoin="miter" stroke-linecap="square" stroke-miterlimit="3"/></g></g><g style="isolation:isolate" id="blank"><path d=" M 66.211 406.039 L 75.053 373.039 L 35.053 373.039 L 26.211 406.039 L 66.211 406.039 Z " id="パス" fill="rgb(93,93,93)" vector-effect="non-scaling-stroke" stroke-width="0.88" stroke="rgb(0,0,0)" stroke-linejoin="miter" stroke-linecap="square" stroke-miterlimit="3"/><path d=" M 59.727 430.239 L 66.211 406.039 L 26.211 406.039 L 19.727 430.239 L 59.727 430.239 Z " id="パス" fill="rgb(93,93,93)" vector-effect="non-scaling-stroke" stroke-width="0.88" stroke="rgb(0,0,0)" stroke-linejoin="miter" stroke-linecap="square" stroke-miterlimit="3"/><path d=" M 50 466.539 L 59.727 430.239 L 19.727 430.239 L 10 466.539 L 50 466.539 Z " id="パス" fill="rgb(93,93,93)" vector-effect="non-scaling-stroke" stroke-width="0.88" stroke="rgb(0,0,0)" stroke-linejoin="miter" stroke-linecap="square" stroke-miterlimit="3"/><path d=" M 162.844 120.039 L 153.265 155.789 L 93.265 155.789 L 102.844 120.039 L 162.844 120.039 Z " id="パス" fill="rgb(93,93,93)" vector-effect="non-scaling-stroke" stroke-width="0.88" stroke="rgb(0,0,0)" stroke-linejoin="miter" stroke-linecap="square" stroke-miterlimit="3"/><path d=" M 890.529 54.039 L 902.319 10.039 L 867.319 10.039 L 855.529 54.039 L 890.529 54.039 Z " id="StairE" fill="rgb(93,93,93)" vector-effect="non-scaling-stroke" stroke-width="0.88" stroke="rgb(0,0,0)" stroke-linejoin="miter" stroke-linecap="square" stroke-miterlimit="3"/><path d=" M 630.529 54.039 L 642.319 10.039 L 702.319 10.039 L 690.529 54.039 L 630.529 54.039 Z " id="Audiovisual_Preparation_Room" fill="rgb(93,93,93)" vector-effect="non-scaling-stroke" stroke-width="0.88" stroke="rgb(0,0,0)" stroke-linejoin="miter" stroke-linecap="square" stroke-miterlimit="3"/><path d=" M 50 466.539 L 45.579 483.039 L 35.579 483.039 L 40 466.539 L 50 466.539 Z " id="パス" fill="rgb(93,93,93)" vector-effect="non-scaling-stroke" stroke-width="0.88" stroke="rgb(0,0,0)" stroke-linejoin="miter" stroke-linecap="square" stroke-miterlimit="3"/><path d=" M 630.529 54.039 L 619.771 54.039 L 594.529 54.039 L 606.319 10.039 L 642.319 10.039 L 630.529 54.039 Z " id="H1_StaffRoom" fill="rgb(93,93,93)" vector-effect="non-scaling-stroke" stroke-width="0.88" stroke="rgb(0,0,0)" stroke-linejoin="miter" stroke-linecap="square" stroke-miterlimit="3"/><path d=" M 308.613 61.189 L 248.613 61.189 L 262.319 10.039 C 271.444 10.039 291.444 10.039 322.319 10.039 L 308.613 61.189 Z " id="Interview_Room" fill="rgb(93,93,93)" vector-effect="non-scaling-stroke" stroke-width="0.88" stroke="rgb(0,0,0)" stroke-linejoin="miter" stroke-linecap="square" stroke-miterlimit="3"/><path d=" M 225.529 54.039 L 237.319 10.039 L 212.319 10.039 L 237.319 10.039 L 225.529 54.039 L 225.529 54.039 Z " fill-rule="evenodd" id="StairC" fill="none" vector-effect="non-scaling-stroke" stroke-width="1.483" stroke="rgb(0,0,0)" stroke-linejoin="miter" stroke-linecap="square" stroke-miterlimit="3"/><path d=" M 855.529 54.039 L 867.319 10.039 L 795.319 10.039 L 783.529 54.039 L 855.529 54.039 Z " id="パス" fill="rgb(93,93,93)" vector-effect="non-scaling-stroke" stroke-width="0.88" stroke="rgb(0,0,0)" stroke-linejoin="miter" stroke-linecap="square" stroke-miterlimit="3"/><path d=" M 795.319 10.039 L 783.234 55.139 L 690.234 55.139 L 702.319 10.039 L 795.319 10.039 Z " id="パス" fill="rgb(93,93,93)" vector-effect="non-scaling-stroke" stroke-width="0.88" stroke="rgb(0,0,0)" stroke-linejoin="miter" stroke-linecap="square" stroke-miterlimit="3"/><path d=" M 155.895 444.539 L 145.579 483.039 L 45.579 483.039 L 55.895 444.539 L 155.895 444.539 Z " id="パス" fill="rgb(93,93,93)" vector-effect="non-scaling-stroke" stroke-width="0.88" stroke="rgb(0,0,0)" stroke-linejoin="miter" stroke-linecap="square" stroke-miterlimit="3"/><path d=" M 254.213 40.289 L 229.213 40.289 L 237.319 10.039 L 262.319 10.039 L 254.213 40.289 Z " id="パス" fill="rgb(93,93,93)" vector-effect="non-scaling-stroke" stroke-width="0.88" stroke="rgb(0,0,0)" stroke-linejoin="miter" stroke-linecap="square" stroke-miterlimit="3"/><path d=" M 93.475 304.289 L 53.475 304.289 L 57.896 287.789 L 97.896 287.789 L 93.475 304.289 Z " id="パス" fill="rgb(93,93,93)" vector-effect="non-scaling-stroke" stroke-width="0.88" stroke="rgb(0,0,0)" stroke-linejoin="miter" stroke-linecap="square" stroke-miterlimit="3"/><path d=" M 197.475 304.289 L 138.475 304.289 L 142.896 287.789 L 201.896 287.789 L 197.475 304.289 Z " id="パス" fill="rgb(0,0,255)" vector-effect="non-scaling-stroke" stroke-width="0.89" stroke="rgb(0,0,0)" stroke-linejoin="miter" stroke-linecap="square" stroke-miterlimit="3"/><path d=" M 197.896 287.789 L 142.896 287.789 L 152.475 252.039 L 207.475 252.039 L 197.896 287.789 Z " id="パス" fill="rgb(93,93,93)" vector-effect="non-scaling-stroke" stroke-width="0.88" stroke="rgb(0,0,0)" stroke-linejoin="miter" stroke-linecap="square" stroke-miterlimit="3"/><line x1="173.265" y1="155.789" x2="196.108" y2="70.539" id="パス" vector-effect="non-scaling-stroke" stroke-width="1.483" stroke="rgb(0,0,0)" stroke-linejoin="miter" stroke-linecap="square" stroke-miterlimit="3"/><path d=" M 162.844 120.039 L 167.266 103.539 L 107.266 103.539 L 102.844 120.039 L 162.844 120.039 Z " id="パス" fill="rgb(93,93,93)" vector-effect="non-scaling-stroke" stroke-width="0.88" stroke="rgb(0,0,0)" stroke-linejoin="miter" stroke-linecap="square" stroke-miterlimit="3"/><path d=" M 268.466 61.739 L 266.108 70.539 L 216.108 70.539" id="パス" fill="none" vector-effect="non-scaling-stroke" stroke-width="1.483" stroke="rgb(0,0,0)" stroke-linejoin="miter" stroke-linecap="square" stroke-miterlimit="3"/><path d=" M 127.266 103.539 Q 142.876 103.539 167.266 103.539 L 173.897 78.789 Q 138.533 78.789 115.897 78.789 C 115.315 87.726 114.194 90.511 127.266 103.539 Z " id="パス" fill="rgb(93,93,93)" vector-effect="non-scaling-stroke" stroke-width="0.88" stroke="rgb(0,0,0)" stroke-linejoin="miter" stroke-linecap="square" stroke-miterlimit="3"/><path d=" M 128.066 40.839 L 124.003 48.539 L 122.529 54.039 L 140.529 54.039 L 148.192 25.439 L 142.603 27.639 L 136.424 32.039" id="パス" fill="rgb(93,93,93)" vector-effect="non-scaling-stroke" stroke-width="0.88" stroke="rgb(0,0,0)" stroke-linejoin="miter" stroke-linecap="square" stroke-miterlimit="3"/><path d=" M 115.897 78.789 L 173.897 78.789 L 180.529 54.039 L 121.529 54.039 L 115.897 78.789 Z " id="パス" fill="rgb(93,93,93)" vector-effect="non-scaling-stroke" stroke-width="0.88" stroke="rgb(0,0,0)" stroke-linejoin="miter" stroke-linecap="square" stroke-miterlimit="3"/><path d=" M 197.898 26.539 Q 201.8 26.539 207.898 26.539 L 200.529 54.039 L 140.529 54.039 Q 130.541 32.566 148.34 24.889 C 149.823 22.62 184.848 17.395 197.898 26.539 Z " id="パス" fill="rgb(93,93,93)" vector-effect="non-scaling-stroke" stroke-width="0.88" stroke="rgb(0,0,0)" stroke-linejoin="miter" stroke-linecap="square" stroke-miterlimit="3"/><path d=" M 872.844 120.039 L 837.844 120.039 L 855.529 54.039 L 890.529 54.039 L 872.844 120.039 Z " id="mapsAudiovisual_Room" fill="rgb(93,93,93)" vector-effect="non-scaling-stroke" stroke-width="0.88" stroke="rgb(0,0,0)" stroke-linejoin="miter" stroke-linecap="square" stroke-miterlimit="3"/><path d=" M 211.654 299.889 L 212.243 297.689 L 206.243 297.689 L 206.538 296.589 L 201.948 298.789 L 205.359 300.989 L 205.654 299.889 L 211.654 299.889 Z  M 205.717 292.189 L 205.127 294.389 L 211.127 294.389 L 210.833 295.489 L 215.422 293.289 L 212.012 291.089 L 211.717 292.189 L 205.717 292.189 Z " fill-rule="evenodd" id="複合シェイプ" fill="none" vector-effect="non-scaling-stroke" stroke-width="0.742" stroke="rgb(0,0,0)" stroke-linejoin="miter" stroke-linecap="square" stroke-miterlimit="3"/></g><g style="isolation:isolate" id="special"><path d=" M 562.529 54.039 L 574.319 10.039 L 606.319 10.039 L 594.529 54.039 L 562.529 54.039 Z " id="Toilet" fill="rgb(0,0,255)" vector-effect="non-scaling-stroke" stroke-width="0.89" stroke="rgb(0,0,0)" stroke-linejoin="miter" stroke-linecap="square" stroke-miterlimit="3"/><path d=" M 123.097 193.739 L 113.37 230.039 L 73.37 230.039 L 83.097 193.739" id="パス" fill="none" vector-effect="non-scaling-stroke" stroke-width="1.483" stroke="rgb(0,0,0)" stroke-linejoin="miter" stroke-linecap="square" stroke-miterlimit="3"/><path d=" M 538.95 37.539 L 546.319 10.039 L 574.319 10.039 L 566.95 37.539" id="パス" fill="none" vector-effect="non-scaling-stroke" stroke-width="1.483" stroke="rgb(0,0,0)" stroke-linejoin="miter" stroke-linecap="square" stroke-miterlimit="3"/><path d=" M 534.529 54.039 L 490.529 54.039 L 502.319 10.039 L 546.319 10.039 L 534.529 54.039 Z " id="S_F2_1" fill="rgb(0,150,136)" vector-effect="non-scaling-stroke" stroke-width="1.483" stroke="rgb(0,0,0)" stroke-linejoin="miter" stroke-linecap="square" stroke-miterlimit="3"/><g style="isolation:isolate" id="rest"/><path d=" M 113.37 230.039 L 108.359 248.739 L 68.359 248.739 L 73.37 230.039 L 113.37 230.039 Z " id="toilet" fill="rgb(255,0,0)" vector-effect="non-scaling-stroke" stroke-width="0.89" stroke="rgb(0,0,0)" stroke-linejoin="miter" stroke-linecap="square" stroke-miterlimit="3"/><path d=" M 97.896 287.789 L 104.528 263.039 L 64.528 263.039 L 57.896 287.789 L 97.896 287.789 Z " id="パス" fill="rgb(0,0,255)" vector-effect="non-scaling-stroke" stroke-width="0.89" stroke="rgb(0,0,0)" stroke-linejoin="miter" stroke-linecap="square" stroke-miterlimit="3"/></g><g style="isolation:isolate" id="Decorations"><g style="isolation:isolate" id="stairB"><path d=" M 123.097 193.739 L 126.486 181.089 L 86.486 181.089 L 86.191 182.189 L 124.191 182.189 L 121.097 193.739 L 123.097 193.739 L 122.212 197.039 L 82.212 197.039 L 81.475 199.789 L 121.475 199.789 L 120.739 202.539 L 80.739 202.539 L 80.002 205.289 L 120.002 205.289 L 119.265 208.039 L 79.265 208.039 L 78.528 210.789 L 118.528 210.789 L 117.791 213.539 L 77.791 213.539 L 77.349 215.189 L 82.054 216.289 L 117.054 216.289 L 116.317 219.039 L 93.317 219.039 L 104.581 221.789 L 115.581 221.789 L 114.844 224.539 L 77.349 215.189" id="パス" fill="none" vector-effect="non-scaling-stroke" stroke-width="0.742" stroke="rgb(0,0,0)" stroke-linejoin="miter" stroke-linecap="square" stroke-miterlimit="3"/></g><g style="isolation:isolate" id="stairC"><path d=" M 234.961 18.839 L 228.476 43.039 L 228.476 43.039 L 203.476 43.039 L 204.213 40.289 L 229.213 40.289 L 229.95 37.539 L 204.95 37.539 L 205.687 34.789 L 230.687 34.789 L 231.424 32.039 L 206.424 32.039 L 207.161 29.289 L 232.161 29.289 L 232.898 26.539 L 207.898 26.539 L 208.635 23.789 L 233.635 23.789 L 234.371 21.039 L 209.371 21.039" id="パス" fill="none" vector-effect="non-scaling-stroke" stroke-width="0.742" stroke="rgb(0,0,0)" stroke-linejoin="miter" stroke-linecap="square" stroke-miterlimit="3"/></g><g style="isolation:isolate" id="stairD"><path d=" M 534.529 54.039 L 562.529 54.039 L 563.119 51.839 L 535.119 51.839 L 535.708 49.639 L 563.708 49.639 L 564.298 47.439 L 536.298 47.439 L 536.887 45.239 L 564.887 45.239 L 565.476 43.039 L 537.476 43.039 L 538.066 40.839 L 566.066 40.839 L 566.803 38.089 L 538.803 38.089 L 539.687 34.789 L 567.687 34.789 L 568.571 31.489 L 540.571 31.489 L 571.961 18.839 L 570.635 23.789 L 559.634 23.789 L 554.045 25.989 L 570.045 25.989 L 569.308 28.739 L 547.308 28.739" id="パス" fill="none" vector-effect="non-scaling-stroke" stroke-width="0.742" stroke="rgb(0,0,0)" stroke-linejoin="miter" stroke-linecap="square" stroke-miterlimit="3"/></g><path d=" M 586.95 37.539 C 586.544 39.056 583.973 40.289 581.213 40.289 C 578.454 40.289 576.544 39.056 576.95 37.539 C 577.357 36.021 579.927 34.789 582.687 34.789 C 585.447 34.789 587.357 36.021 586.95 37.539 Z  M 585.191 27.22 L 587.688 33.008 C 587.85 33.384 587.649 33.689 587.24 33.689 L 578.723 33.689 C 578.314 33.689 578.213 33.45 578.497 33.156 L 584.382 27.072 C 584.667 26.778 585.029 26.844 585.191 27.22 Z " fill-rule="evenodd" id="複合パス" fill="rgb(255,255,255)"/><path d=" M 163.156 291.988 C 163.562 290.47 166.133 289.238 168.893 289.238 C 171.652 289.238 173.562 290.47 173.156 291.988 C 172.749 293.506 170.178 294.738 167.419 294.738 C 164.659 294.738 162.749 293.506 163.156 291.988 Z  M 164.914 302.307 L 162.712 297.2 C 162.387 296.448 162.789 295.838 163.607 295.838 L 170.641 295.838 C 171.459 295.838 171.662 296.316 171.093 296.904 L 165.724 302.455 C 165.439 302.749 165.077 302.683 164.914 302.307 Z " fill-rule="evenodd" id="複合パス" fill="rgb(255,255,255)"/><path d=" M 75.756 271.088 C 76.162 269.57 78.733 268.338 81.493 268.338 C 84.252 268.338 86.162 269.57 85.756 271.088 C 85.349 272.606 82.779 273.838 80.019 273.838 C 77.259 273.838 75.349 272.606 75.756 271.088 Z  M 77.515 281.407 L 75.312 276.3 C 74.987 275.548 75.389 274.938 76.207 274.938 L 83.241 274.938 C 84.06 274.938 84.262 275.416 83.693 276.004 L 78.324 281.555 C 78.039 281.849 77.677 281.783 77.515 281.407 Z " fill-rule="evenodd" id="複合パス" fill="rgb(255,255,255)"/><path d=" M 86.077 236.089 C 86.484 234.571 89.054 233.339 91.814 233.339 C 94.574 233.339 96.484 234.571 96.077 236.089 C 95.67 237.606 93.1 238.839 90.34 238.839 C 87.581 238.839 85.67 237.606 86.077 236.089 Z  M 89.53 240.472 L 83.645 246.556 C 83.361 246.85 83.462 247.089 83.871 247.089 L 92.388 247.089 C 92.797 247.089 92.998 246.784 92.836 246.408 L 90.339 240.62 C 90.177 240.244 89.814 240.178 89.53 240.472 Z " fill-rule="evenodd" id="複合パス" fill="rgb(255,255,255)"/><g style="isolation:isolate" id="Text"><g style="isolation:isolate" id="レイヤー 46"/></g><path d=" M 510.79 422.539 L 560.79 422.539 L 582.896 340.039 L 532.896 340.039 L 510.79 422.539 Z " id="パス" fill="none" vector-effect="non-scaling-stroke" stroke-width="1.483" stroke="rgb(0,0,0)" stroke-linejoin="miter" stroke-linecap="square" stroke-miterlimit="3"/><path d=" M 477.21 510.539 L 427.21 510.539 L 447.842 433.539 L 497.842 433.539 L 477.21 510.539 Z " id="パス" fill="none" vector-effect="non-scaling-stroke" stroke-width="1.483" stroke="rgb(0,0,0)" stroke-linejoin="miter" stroke-linecap="square" stroke-miterlimit="3"/><path d=" M 507.842 433.539 L 557.842 433.539 L 537.21 510.539 L 487.21 510.539 L 507.842 433.539 Z " id="パス" fill="none" vector-effect="non-scaling-stroke" stroke-width="1.483" stroke="rgb(0,0,0)" stroke-linejoin="miter" stroke-linecap="square" stroke-miterlimit="3"/><path d=" M 500.79 422.539 L 450.79 422.539 L 472.896 340.039 L 522.896 340.039 L 500.79 422.539 Z " id="パス" fill="none" vector-effect="non-scaling-stroke" stroke-width="1.483" stroke="rgb(0,0,0)" stroke-linejoin="miter" stroke-linecap="square" stroke-miterlimit="3"/></g><path d=" M 519.497 38.295 C 517.943 38.295 516.498 38.987 516.27 39.842 C 516.041 40.696 517.114 41.389 518.668 41.389 C 520.221 41.389 521.666 40.696 521.895 39.842 C 522.124 38.987 521.05 38.295 519.497 38.295 Z  M 524.992 33.422 C 524.225 33.574 523.737 34.018 523.905 34.418 C 524.073 34.818 524.828 35.021 525.595 34.869 C 529.337 34.134 532.367 32.252 532.958 30.045 C 533.721 27.196 530.144 24.889 524.964 24.889 C 521.378 24.889 517.97 25.994 515.959 27.618 C 515.494 27.995 515.627 28.463 516.258 28.666 C 516.889 28.869 517.778 28.724 518.248 28.347 C 519.655 27.209 522.042 26.436 524.55 26.436 C 528.177 26.436 530.68 28.05 530.145 30.045 C 529.732 31.589 527.615 32.907 524.992 33.422 Z  M 516.215 35.717 L 516.242 36.029 C 516.313 36.748 517.318 37.264 518.654 37.264 C 520.418 37.264 521.979 36.377 521.888 35.427 L 521.532 31.705 C 521.439 30.741 520.089 30.048 518.296 30.048 L 517.997 30.048 C 517.974 30.048 517.95 30.048 517.921 30.048 L 512.407 30.048 C 512.014 30.048 511.704 29.916 511.618 29.713 L 510.327 26.59 C 510.115 26.071 509.145 25.797 508.143 25.975 L 505.192 26.49 C 504.159 26.671 503.475 27.254 503.658 27.796 C 503.841 28.337 504.824 28.627 505.857 28.446 L 507.006 28.247 L 507.913 30.438 C 508.33 31.444 509.903 32.111 511.854 32.111 L 515.868 32.111 L 516.016 33.658 L 512.301 33.658 C 511.264 33.658 510.303 34.118 510.15 34.689 C 509.997 35.259 510.711 35.72 511.749 35.72 L 516.214 35.72 L 516.215 35.717 Z " id="wheelchair" fill="rgb(255,255,255)"/><g clip-path="url(#_clipPath_Hh4VZgpTeLUcIkaDiaXzI2TIk2OcTzGY)"><text transform="matrix(1,0,0,1,187.396,506.747)" id="text_G16" style="font-family:'Yu Gothic UI';font-weight:700;font-size:14px;font-style:normal;fill:#000000;stroke:none;">G16</text></g><defs><clipPath id="_clipPath_Hh4VZgpTeLUcIkaDiaXzI2TIk2OcTzGY"><rect x="0" y="0" width="51.496" height="18.621" transform="matrix(1,0,0,1,174.252,491.64)"/></clipPath></defs><g clip-path="url(#_clipPath_w07gOEFT4mkG4sdCeLJ1O2uA7PIArzof)"><text transform="matrix(1,0,0,1,195.417,485.747)" id="text_G15" style="font-family:'Yu Gothic UI';font-weight:700;font-size:14px;font-style:normal;fill:#000000;stroke:none;">G15</text></g><defs><clipPath id="_clipPath_w07gOEFT4mkG4sdCeLJ1O2uA7PIArzof"><rect x="0" y="0" width="51.496" height="18.621" transform="matrix(1,0,0,1,182.252,470.64)"/></clipPath></defs><g clip-path="url(#_clipPath_wjROPOPN2IIkaRbIjbx6JTT61ROuM0FB)"><text transform="matrix(1,0,0,1,201.27,456.747)" id="text_G14" style="font-family:'Yu Gothic UI';font-weight:700;font-size:14px;font-style:normal;fill:#000000;stroke:none;">G14</text></g><defs><clipPath id="_clipPath_wjROPOPN2IIkaRbIjbx6JTT61ROuM0FB"><rect x="0" y="0" width="51.496" height="18.621" transform="matrix(1,0,0,1,188.252,441.64)"/></clipPath></defs><g clip-path="url(#_clipPath_j1kLWt0Solcq1qqkyqsQEbiKcT2sfHf4)"><text transform="matrix(1,0,0,1,207.417,440.747)" id="text_G13" style="font-family:'Yu Gothic UI';font-weight:700;font-size:14px;font-style:normal;fill:#000000;stroke:none;">G13</text></g><defs><clipPath id="_clipPath_j1kLWt0Solcq1qqkyqsQEbiKcT2sfHf4"><rect x="0" y="0" width="51.496" height="18.621" transform="matrix(1,0,0,1,194.252,425.64)"/></clipPath></defs><g clip-path="url(#_clipPath_0Wq7sJb1gJjICWV4HQTdHkrRHbG06Ipd)"><text transform="matrix(1,0,0,1,213.417,423.747)" id="text_G12" style="font-family:'Yu Gothic UI';font-weight:700;font-size:14px;font-style:normal;fill:#000000;stroke:none;">G12</text></g><defs><clipPath id="_clipPath_0Wq7sJb1gJjICWV4HQTdHkrRHbG06Ipd"><rect x="0" y="0" width="51.496" height="18.621" transform="matrix(1,0,0,1,200.252,408.64)"/></clipPath></defs><g clip-path="url(#_clipPath_pAnT1kAisuUa9aUZQHnn7OlSpNFIyQi2)"><text transform="matrix(1,0,0,1,220.486,396.747)" id="text_G11" style="font-family:'Yu Gothic UI';font-weight:700;font-size:14px;font-style:normal;fill:#000000;stroke:none;">G11</text></g><defs><clipPath id="_clipPath_pAnT1kAisuUa9aUZQHnn7OlSpNFIyQi2"><rect x="0" y="0" width="51.496" height="18.621" transform="matrix(1,0,0,1,206.252,381.64)"/></clipPath></defs><g clip-path="url(#_clipPath_kVAujtQIX5tGkMFKeh3OJ9lwyBreknX5)"><text transform="matrix(1,0,0,1,224.417,380.747)" id="text_G10" style="font-family:'Yu Gothic UI';font-weight:700;font-size:14px;font-style:normal;fill:#000000;stroke:none;">G10</text></g><defs><clipPath id="_clipPath_kVAujtQIX5tGkMFKeh3OJ9lwyBreknX5"><rect x="0" y="0" width="51.496" height="18.621" transform="matrix(1,0,0,1,211.252,365.64)"/></clipPath></defs><g clip-path="url(#_clipPath_n2f3n11ffIsMOBXpr09TUJVErtpsU9nt)"><text transform="matrix(1,0,0,1,231.212,363.747)" id="text_G9" style="font-family:'Yu Gothic UI';font-weight:700;font-size:14px;font-style:normal;fill:#000000;stroke:none;">G9</text></g><defs><clipPath id="_clipPath_n2f3n11ffIsMOBXpr09TUJVErtpsU9nt"><rect x="0" y="0" width="51.496" height="18.621" transform="matrix(1,0,0,1,215.252,348.64)"/></clipPath></defs><g clip-path="url(#_clipPath_0lHJWYbssTqIaxx4MDxqrVjxupTgrDYv)"><text transform="matrix(1,0,0,1,239.233,336.747)" id="text_G8" style="font-family:'Yu Gothic UI';font-weight:700;font-size:14px;font-style:normal;fill:#000000;stroke:none;">G8</text></g><defs><clipPath id="_clipPath_0lHJWYbssTqIaxx4MDxqrVjxupTgrDYv"><rect x="0" y="0" width="51.496" height="18.621" transform="matrix(1,0,0,1,223.252,321.64)"/></clipPath></defs><g clip-path="url(#_clipPath_yMr2NZL6E9UdxvjoamVX2T8VSUaOJhwK)"><text transform="matrix(1,0,0,1,244.366,319.747)" id="text_G7" style="font-family:'Yu Gothic UI';font-weight:700;font-size:14px;font-style:normal;fill:#000000;stroke:none;">G7</text></g><defs><clipPath id="_clipPath_yMr2NZL6E9UdxvjoamVX2T8VSUaOJhwK"><rect x="0" y="0" width="51.496" height="18.621" transform="matrix(1,0,0,1,228.252,304.64)"/></clipPath></defs><g clip-path="url(#_clipPath_khYTkiZ2iBvX4d1KyWpPOPOO565H5GSI)"><text transform="matrix(1,0,0,1,248.212,303.747)" id="text_G6" style="font-family:'Yu Gothic UI';font-weight:700;font-size:14px;font-style:normal;fill:#000000;stroke:none;">G6</text></g><defs><clipPath id="_clipPath_khYTkiZ2iBvX4d1KyWpPOPOO565H5GSI"><rect x="0" y="0" width="51.496" height="18.621" transform="matrix(1,0,0,1,232.252,288.64)"/></clipPath></defs><g clip-path="url(#_clipPath_UURKU4ZT3xzSqvztjC2ERkiefCmMfy3D)"><text transform="matrix(1,0,0,1,255.981,273.107)" id="text_G5" style="font-family:'Yu Gothic UI';font-weight:700;font-size:14px;font-style:normal;fill:#000000;stroke:none;">G5</text></g><defs><clipPath id="_clipPath_UURKU4ZT3xzSqvztjC2ERkiefCmMfy3D"><rect x="0" y="0" width="51.496" height="18.621" transform="matrix(1,0,0,1,240,258)"/></clipPath></defs><g clip-path="url(#_clipPath_Wkp60pc2eVSyeEWsr7u0RwLlKyvCLWGK)"><text transform="matrix(1,0,0,1,260.834,256.107)" id="text_G4" style="font-family:'Yu Gothic UI';font-weight:700;font-size:14px;font-style:normal;fill:#000000;stroke:none;">G4</text></g><defs><clipPath id="_clipPath_Wkp60pc2eVSyeEWsr7u0RwLlKyvCLWGK"><rect x="0" y="0" width="51.496" height="18.621" transform="matrix(1,0,0,1,245,241)"/></clipPath></defs><g clip-path="url(#_clipPath_Zk16nH7dsEZiKS7jXlZhMx5pEl10F3Hq)"><text transform="matrix(1,0,0,1,264.981,240.107)" id="text_G3" style="font-family:'Yu Gothic UI';font-weight:700;font-size:14px;font-style:normal;fill:#000000;stroke:none;">G3</text></g><defs><clipPath id="_clipPath_Zk16nH7dsEZiKS7jXlZhMx5pEl10F3Hq"><rect x="0" y="0" width="51.496" height="18.621" transform="matrix(1,0,0,1,249,225)"/></clipPath></defs><g clip-path="url(#_clipPath_tWP8lqHRWa46CrkbwsJTAe6BCADMBaYR)"><text transform="matrix(1,0,0,1,160,249.797)" id="text_hoken" style="font-family:'Yu Gothic UI';font-weight:700;font-size:14px;font-style:normal;fill:#000000;stroke:none;">保健室</text></g><defs><clipPath id="_clipPath_tWP8lqHRWa46CrkbwsJTAe6BCADMBaYR"><rect x="0" y="0" width="51.496" height="18.621" transform="matrix(1,0,0,1,156.252,234.689)"/></clipPath></defs><g clip-path="url(#_clipPath_x3gAWObR5lS8Vu8MUhi3kmRH41mkwmw8)"><text transform="matrix(1,0,0,1,708,116.486)" id="text_dining" style="font-family:'Yu Gothic UI';font-weight:700;font-size:14px;font-style:normal;fill:#000000;stroke:none;">図書室</text></g><defs><clipPath id="_clipPath_x3gAWObR5lS8Vu8MUhi3kmRH41mkwmw8"><rect x="0" y="0" width="51.496" height="18.621" transform="matrix(1,0,0,1,704.252,101.379)"/></clipPath></defs><g clip-path="url(#_clipPath_zBmPvzFcv0Ft6uUrhOjAqEcxCRxRDSsr)"><text transform="matrix(1,0,0,1,98,354.437)" id="text_tosyo" style="font-family:'Yu Gothic UI';font-weight:700;font-size:14px;font-style:normal;fill:#000000;stroke:none;">図書室</text></g><defs><clipPath id="_clipPath_zBmPvzFcv0Ft6uUrhOjAqEcxCRxRDSsr"><rect x="0" y="0" width="51.496" height="18.621" transform="matrix(1,0,0,1,94.252,339.329)"/></clipPath></defs><g clip-path="url(#_clipPath_4MF8QA0XHCy2tOEjGqaerCGvooi3l3XH)"><text transform="matrix(1,0,0,1,272.485,211.107)" id="text_G2" style="font-family:'Yu Gothic UI';font-weight:700;font-size:14px;font-style:normal;fill:#000000;stroke:none;">G2</text></g><defs><clipPath id="_clipPath_4MF8QA0XHCy2tOEjGqaerCGvooi3l3XH"><rect x="0" y="0" width="51.496" height="18.621" transform="matrix(1,0,0,1,256.504,196)"/></clipPath></defs><g clip-path="url(#_clipPath_ScCYNSA4AuyLteHO4kWVpiQX6RKb1rO6)"><text transform="matrix(1,0,0,1,278.555,194.107)" id="text_G1" style="font-family:'Yu Gothic UI';font-weight:700;font-size:14px;font-style:normal;fill:#000000;stroke:none;">G1</text></g><defs><clipPath id="_clipPath_ScCYNSA4AuyLteHO4kWVpiQX6RKb1rO6"><rect x="0" y="0" width="51.496" height="18.621" transform="matrix(1,0,0,1,261.504,179)"/></clipPath></defs><g clip-path="url(#_clipPath_7HQetpPQJxmHP4aseTNXSCtRdWlZxWd6)"><text transform="matrix(1,0,0,1,317.676,165.797)" id="text_G17" style="font-family:'Yu Gothic UI';font-weight:700;font-size:14px;font-style:normal;fill:#000000;stroke:none;">G17</text></g><defs><clipPath id="_clipPath_7HQetpPQJxmHP4aseTNXSCtRdWlZxWd6"><rect x="0" y="0" width="99.748" height="18.621" transform="matrix(1,0,0,1,280.252,150.689)"/></clipPath></defs><g clip-path="url(#_clipPath_Kb1BHjr2Oqe5RB8TROFlV9PDusUfZeN8)"><text transform="matrix(1,0,0,1,454.417,182.797)" id="text_G18" style="font-family:'Yu Gothic UI';font-weight:700;font-size:14px;font-style:normal;fill:#000000;stroke:none;">G18</text></g><defs><clipPath id="_clipPath_Kb1BHjr2Oqe5RB8TROFlV9PDusUfZeN8"><rect x="0" y="0" width="76.874" height="18.621" transform="matrix(1,0,0,1,428.563,167.689)"/></clipPath></defs><g clip-path="url(#_clipPath_y7sf3etegI20aOJJk2Snd99wYH5oiDuz)"><text transform="matrix(1,0,0,1,546.396,182.797)" id="text_G19" style="font-family:'Yu Gothic UI';font-weight:700;font-size:14px;font-style:normal;fill:#000000;stroke:none;">G19</text></g><defs><clipPath id="_clipPath_y7sf3etegI20aOJJk2Snd99wYH5oiDuz"><rect x="0" y="0" width="76.874" height="18.621" transform="matrix(1,0,0,1,520.563,167.689)"/></clipPath></defs><g clip-path="url(#_clipPath_p0KpeKdjbxVO64JG54IXjnCokXZEIqA8)"><text transform="matrix(1,0,0,1,637.347,182.797)" id="text_G20" style="font-family:'Yu Gothic UI';font-weight:700;font-size:14px;font-style:normal;fill:#000000;stroke:none;">G20</text></g><defs><clipPath id="_clipPath_p0KpeKdjbxVO64JG54IXjnCokXZEIqA8"><rect x="0" y="0" width="76.874" height="18.621" transform="matrix(1,0,0,1,612.563,167.689)"/></clipPath></defs><g clip-path="url(#_clipPath_i68srDPRbumgB8AdPIjvaMaocW38UWjL)"><text transform="matrix(1,0,0,1,624.417,241.797)" id="text_G21" style="font-family:'Yu Gothic UI';font-weight:700;font-size:14px;font-style:normal;fill:#000000;stroke:none;">G21</text></g><defs><clipPath id="_clipPath_i68srDPRbumgB8AdPIjvaMaocW38UWjL"><rect x="0" y="0" width="76.874" height="18.621" transform="matrix(1,0,0,1,598.563,226.689)"/></clipPath></defs><g clip-path="url(#_clipPath_wiBDQDQpOa41SxnPx6utSoHXry01Hib4)"><text transform="matrix(1,0,0,1,695.347,468.797)" id="text_G22" style="font-family:'Yu Gothic UI';font-weight:700;font-size:14px;font-style:normal;fill:#000000;stroke:none;">G22</text></g><defs><clipPath id="_clipPath_wiBDQDQpOa41SxnPx6utSoHXry01Hib4"><rect x="0" y="0" width="76.874" height="18.621" transform="matrix(1,0,0,1,670.563,453.689)"/></clipPath></defs><g clip-path="url(#_clipPath_YVv5NRky7xTCNhpMXVHydn99CoDPn0mp)"><text transform="matrix(1,0,0,1,456.281,419.797)" id="text_G21" style="font-family:'Yu Gothic UI';font-weight:700;font-size:14px;font-style:normal;fill:#000000;stroke:none;">休憩所</text></g><defs><clipPath id="_clipPath_YVv5NRky7xTCNhpMXVHydn99CoDPn0mp"><rect x="0" y="0" width="51.437" height="18.621" transform="matrix(1,0,0,1,452.563,404.689)"/></clipPath></defs></g></svg>