<?xml version="1.0" encoding="UTF-8" standalone="no"?><!-- Generator: Gravit.io --><svg xmlns="http://www.w3.org/2000/svg" xmlns:xlink="http://www.w3.org/1999/xlink" style="isolation:isolate" viewBox="0 0 800 1000" width="800pt" height="1000pt"><g style="isolation:isolate" id="outer"><path d=" M 20 740 L 20 940 L 420 940 L 420 860 L 600 860 L 600 940 L 710 940 L 710 910 L 720 910" id="パス" fill="none" vector-effect="non-scaling-stroke" stroke-width="2" stroke="rgb(0,0,0)" stroke-linejoin="miter" stroke-linecap="square" stroke-miterlimit="3"/><path d=" M 720 910 C 725 918.5 740.125 920.375 750 920 C 780.25 919.75 790.172 890.297 790 840 C 790 810.125 784.667 781.667 770 770 L 770 740 L 790 740 L 790 110 L 760 110 L 760 80 L 650 80 L 650 740 C 638.624 740 621.999 740 600.125 740 C 600.094 740.109 600.047 830.234 600 830 C 600 830.141 483.918 830 416 830 C 415.977 829.988 416.012 740.004 416 740 Q 272.68 740 20 740" id="パス" fill="none" vector-effect="non-scaling-stroke" stroke-width="2" stroke="rgb(0,0,0)" stroke-linejoin="miter" stroke-linecap="square" stroke-miterlimit="3"/><path d=" M 770 770 L 710 770 L 710 910" id="パス" fill="none" vector-effect="non-scaling-stroke" stroke-width="2" stroke="rgb(0,0,0)" stroke-linejoin="miter" stroke-linecap="square" stroke-miterlimit="3"/></g><g style="isolation:isolate" id="booth"><path d=" M 20 740 L 91 740 L 91 830 L 20 830 L 20 740 Z " id="maps_H1A" fill="rgb(139,139,139)" vector-effect="non-scaling-stroke" stroke-width="2" stroke="rgb(0,0,0)" stroke-linejoin="miter" stroke-linecap="square" stroke-miterlimit="3"/><path d=" M 91 740 L 152 740 L 152 830 L 91 830 L 91 740 Z " id="maps_H1B" fill="rgb(0,0,0)" vector-effect="non-scaling-stroke" stroke-width="2" stroke="rgb(0,0,0)" stroke-linejoin="miter" stroke-linecap="square" stroke-miterlimit="3"/><path d=" M 152 740 L 218 740 L 218 830 L 152 830 L 152 740 Z " id="maps_H1C" fill="rgb(139,139,139)" vector-effect="non-scaling-stroke" stroke-width="2" stroke="rgb(0,0,0)" stroke-linejoin="miter" stroke-linecap="square" stroke-miterlimit="3"/><path d=" M 218 740 L 283 740 L 283 830 L 218 830 L 218 740 Z " id="maps_H1D" fill="rgb(139,139,139)" vector-effect="non-scaling-stroke" stroke-width="2" stroke="rgb(0,0,0)" stroke-linejoin="miter" stroke-linecap="square" stroke-miterlimit="3"/><path d=" M 283 740 L 347 740 L 347 830 L 283 830 L 283 740 Z " id="maps_H1E" fill="rgb(139,139,139)" vector-effect="non-scaling-stroke" stroke-width="2" stroke="rgb(0,0,0)" stroke-linejoin="miter" stroke-linecap="square" stroke-miterlimit="3"/><path d=" M 730 675 L 730 606 L 650 606 L 650 675 L 730 675 Z " id="maps_M1E" fill="rgb(139,139,139)" vector-effect="non-scaling-stroke" stroke-width="2" stroke="rgb(0,0,0)" stroke-linejoin="miter" stroke-linecap="square" stroke-miterlimit="3"/><path d=" M 650 675 L 650 540 L 730 540 L 730 675 L 650 675 Z " id="maps_M1D" fill="rgb(139,139,139)" vector-effect="non-scaling-stroke" stroke-width="2" stroke="rgb(0,0,0)" stroke-linejoin="miter" stroke-linecap="square" stroke-miterlimit="3"/><path d=" M 650 540 L 650 407 L 730 407 L 730 540 L 650 540 Z " id="maps_M1B" fill="rgb(139,139,139)" vector-effect="non-scaling-stroke" stroke-width="2" stroke="rgb(0,0,0)" stroke-linejoin="miter" stroke-linecap="square" stroke-miterlimit="3"/><path d=" M 650 407 L 650 340 L 730 340 L 730 407 L 650 407 Z " id="maps_M1A" fill="rgb(139,139,139)" vector-effect="non-scaling-stroke" stroke-width="2" stroke="rgb(0,0,0)" stroke-linejoin="miter" stroke-linecap="square" stroke-miterlimit="3"/><path d=" M 650 176 L 650 80 L 730 80 L 730 176 L 650 176 Z " id="maps_TechRoom" fill="rgb(139,139,139)" vector-effect="non-scaling-stroke" stroke-width="2" stroke="rgb(0,0,0)" stroke-linejoin="miter" stroke-linecap="square" stroke-miterlimit="3"/><path d=" M 650 740 L 717.5 740 L 730 740 L 730 675 L 650 675 L 650 740 Z " id="maps_catho" fill="rgb(139,139,139)" vector-effect="non-scaling-stroke" stroke-width="2" stroke="rgb(0,0,0)" stroke-linejoin="miter" stroke-linecap="square" stroke-miterlimit="3"/><path d=" M 55 860 L 155 860 L 155 940 L 55 940 L 55 860 Z " id="maps_AVRoom" fill="rgb(139,139,139)" vector-effect="non-scaling-stroke" stroke-width="2" stroke="rgb(0,0,0)" stroke-linejoin="miter" stroke-linecap="square" stroke-miterlimit="3"/></g><g style="isolation:isolate" id="blank"><path d=" M 650 310 L 650 206 L 730 206 L 730 310 L 650 310 Z " id="maps_ArtRoom" fill="rgb(0,0,0)" vector-effect="non-scaling-stroke" stroke-width="2" stroke="rgb(0,0,0)" stroke-linejoin="miter" stroke-linecap="square" stroke-miterlimit="3"/><path d=" M 380 796.25 L 380 777.5 L 380 740 L 416 740 L 416 815 L 380 815 L 380 796.25 Z " id="Broadcasting_Room" fill="rgb(0,0,0)" vector-effect="non-scaling-stroke" stroke-width="2" stroke="rgb(0,0,0)" stroke-linejoin="miter" stroke-linecap="square" stroke-miterlimit="3"/><path d=" M 347 740 L 380 740 L 380 815 L 347 815 L 347 740 Z " id="Labo_English" fill="rgb(0,0,0)" vector-effect="non-scaling-stroke" stroke-width="2" stroke="rgb(0,0,0)" stroke-linejoin="miter" stroke-linecap="square" stroke-miterlimit="3"/><path d=" M 750 280 L 750 310 L 790 310 L 790 280 L 750 280 Z " id="パス" fill="rgb(0,0,0)" vector-effect="non-scaling-stroke" stroke-width="2" stroke="rgb(0,0,0)" stroke-linejoin="miter" stroke-linecap="square" stroke-miterlimit="3"/><path d=" M 750 220 L 750 250 L 790 250 L 790 220 L 750 220 Z " id="パス" fill="rgb(0,0,0)" vector-effect="non-scaling-stroke" stroke-width="2" stroke="rgb(0,0,0)" stroke-linejoin="miter" stroke-linecap="square" stroke-miterlimit="3"/><path d=" M 750 250 L 750 280 L 790 280 L 790 250 L 750 250 Z " id="パス" fill="rgb(0,0,0)" vector-effect="non-scaling-stroke" stroke-width="2" stroke="rgb(0,0,0)" stroke-linejoin="miter" stroke-linecap="square" stroke-miterlimit="3"/><path d=" M 750 176 L 750 220 L 790 220 L 790 176 L 750 176 Z " id="パス" fill="rgb(0,0,0)" vector-effect="non-scaling-stroke" stroke-width="2" stroke="rgb(0,0,0)" stroke-linejoin="miter" stroke-linecap="square" stroke-miterlimit="3"/><path d=" M 750 110 L 750 176 L 790 176 L 790 110 L 750 110 Z " id="パス" fill="rgb(0,0,0)" vector-effect="non-scaling-stroke" stroke-width="2" stroke="rgb(0,0,0)" stroke-linejoin="miter" stroke-linecap="square" stroke-miterlimit="3"/><path d=" M 750 310 L 750 340 L 790 340 L 790 310 L 750 310 Z " id="パス" fill="rgb(0,0,0)" vector-effect="non-scaling-stroke" stroke-width="2" stroke="rgb(0,0,0)" stroke-linejoin="miter" stroke-linecap="square" stroke-miterlimit="3"/><path d=" M 750 740 L 750 675 L 790 675 L 790 740 L 750 740 Z " id="パス" fill="rgb(0,0,0)" vector-effect="non-scaling-stroke" stroke-width="2" stroke="rgb(0,0,0)" stroke-linejoin="miter" stroke-linecap="square" stroke-miterlimit="3"/><path d=" M 750 675 L 750 606 L 790 606 L 790 675 L 750 675 Z " id="Counseling_Room" fill="rgb(0,0,0)" vector-effect="non-scaling-stroke" stroke-width="2" stroke="rgb(0,0,0)" stroke-linejoin="miter" stroke-linecap="square" stroke-miterlimit="3"/><path d=" M 600 830 L 650 830 L 650 770 L 600 770 L 600 830 Z " id="maps_info" fill="rgb(139,139,139)" vector-effect="non-scaling-stroke" stroke-width="2" stroke="rgb(0,0,0)" stroke-linejoin="miter" stroke-linecap="square" stroke-miterlimit="3"/><path d=" M 20 860 L 20 940 L 55 940 L 55 860 L 20 860 Z " id="StairE" fill="rgb(0,0,0)" vector-effect="non-scaling-stroke" stroke-width="2" stroke="rgb(0,0,0)" stroke-linejoin="miter" stroke-linecap="square" stroke-miterlimit="3"/><path d=" M 185 860 L 186 940 L 155 940 L 155 860 L 185 860 Z " id="Audiovisual_Preparation_Room" fill="rgb(0,0,0)" vector-effect="non-scaling-stroke" stroke-width="2" stroke="rgb(0,0,0)" stroke-linejoin="miter" stroke-linecap="square" stroke-miterlimit="3"/><path d=" M 650 830 L 660 830 L 660 740 L 600 740 L 600 770 L 650 770 L 650 830 Z " id="Student_Guidance_Office" fill="rgb(0,0,0)" vector-effect="non-scaling-stroke" stroke-width="2" stroke="rgb(0,0,0)" stroke-linejoin="miter" stroke-linecap="square" stroke-miterlimit="3"/><path d=" M 650 206 L 650 176 L 730 176 L 730 206 L 650 206 Z " id="パス" fill="rgb(0,0,0)" vector-effect="non-scaling-stroke" stroke-width="2" stroke="rgb(0,0,0)" stroke-linejoin="miter" stroke-linecap="square" stroke-miterlimit="3"/><path d=" M 650 340 L 650 310 L 730 310 L 730 340 L 650 340 Z " id="パス" fill="rgb(0,0,0)" vector-effect="non-scaling-stroke" stroke-width="2" stroke="rgb(0,0,0)" stroke-linejoin="miter" stroke-linecap="square" stroke-miterlimit="3"/><path d=" M 750 110 L 750 80 L 760 80 L 760 110 L 750 110 Z " id="パス" fill="rgb(0,0,0)" vector-effect="non-scaling-stroke" stroke-width="2" stroke="rgb(0,0,0)" stroke-linejoin="miter" stroke-linecap="square" stroke-miterlimit="3"/><path d=" M 218 860 L 318 860 L 318 940 L 218 940 L 218 860 Z " id="PC_Room" fill="rgb(0,0,0)" vector-effect="non-scaling-stroke" stroke-width="2" stroke="rgb(0,0,0)" stroke-linejoin="miter" stroke-linecap="square" stroke-miterlimit="3"/><path d=" M 185 860 L 218 860 L 218 940 L 186 940 L 185 860 Z " id="H1_StaffRoom" fill="rgb(0,0,0)" vector-effect="non-scaling-stroke" stroke-width="2" stroke="rgb(0,0,0)" stroke-linejoin="miter" stroke-linecap="square" stroke-miterlimit="3"/><path d=" M 600 860 L 660 860 L 660 940 L 600 940 L 600 860 Z " id="Interview_Room" fill="rgb(0,0,0)" vector-effect="non-scaling-stroke" stroke-width="2" stroke="rgb(0,0,0)" stroke-linejoin="miter" stroke-linecap="square" stroke-miterlimit="3"/><path d=" M 710 940 L 660 940 L 660 860 L 660 940 L 710 940 L 710 860 L 710 940 Z " fill-rule="evenodd" id="StairC" fill="none" vector-effect="non-scaling-stroke" stroke-width="2" stroke="rgb(0,0,0)" stroke-linejoin="miter" stroke-linecap="square" stroke-miterlimit="3"/><path d=" M 347 815 L 416 815 L 416 842 L 347 842 L 347 815 Z " id="maps_sp1" fill="rgb(139,139,139)" vector-effect="non-scaling-stroke" stroke-width="2" stroke="rgb(0,0,0)" stroke-linejoin="miter" stroke-linecap="square" stroke-miterlimit="3"/></g><g style="isolation:isolate" id="special"><path d=" M 750 407 L 790 407 L 790 480 L 750 480 L 750 407 Z " id="パス" fill="rgb(37,37,198)" vector-effect="non-scaling-stroke" stroke-width="2" stroke="rgb(0,0,0)" stroke-linejoin="miter" stroke-linecap="square" stroke-miterlimit="3"/><path d=" M 350 860 L 350 940 L 318 940 L 318 860 L 350 860 Z " id="Toilet" fill="rgb(37,37,198)" vector-effect="non-scaling-stroke" stroke-width="2" stroke="rgb(0,0,0)" stroke-linejoin="miter" stroke-linecap="square" stroke-miterlimit="3"/><path d=" M 710 770 L 710 910 L 720 910 Q 726.281 920.453 750 920 C 773.719 919.547 790.109 899.844 790 850 C 789.891 800.156 782 782 770 770 C 769.744 769.744 712.75 770.25 710 770 Z " id="maps_juken" fill="rgb(139,139,139)" vector-effect="non-scaling-stroke" stroke-width="2" stroke="rgb(0,0,0)" stroke-linejoin="miter" stroke-linecap="square" stroke-miterlimit="3"/><path d=" M 750 540 L 750 606 L 790 606 L 790 540" id="パス" fill="none" vector-effect="non-scaling-stroke" stroke-width="2" stroke="rgb(0,0,0)" stroke-linejoin="miter" stroke-linecap="square" stroke-miterlimit="3"/><path d=" M 750 520 L 750 480 L 790 480 L 790 520" id="パス" fill="none" vector-effect="non-scaling-stroke" stroke-width="2" stroke="rgb(0,0,0)" stroke-linejoin="miter" stroke-linecap="square" stroke-miterlimit="3"/><path d=" M 420 890 L 420 940 L 350 940 L 350 890" id="パス" fill="none" vector-effect="non-scaling-stroke" stroke-width="2" stroke="rgb(0,0,0)" stroke-linejoin="miter" stroke-linecap="square" stroke-miterlimit="3"/></g><g style="isolation:isolate" id="Decorations"><g style="isolation:isolate" id="stairB"><path d=" M 790 490.5 L 750 490.5 M 750 505 L 770 505 M 750 495 L 770 495 M 750 510 L 770 510 M 750 500 L 770 500 M 750 516 L 770 516 M 770 520 Q 770 502.318 770 491" fill-rule="evenodd" id="複合パス" fill="none" vector-effect="non-scaling-stroke" stroke-width="1" stroke="rgb(0,0,0)" stroke-linejoin="miter" stroke-linecap="square" stroke-miterlimit="3"/><path d=" M 750 600 L 790 600 L 790 595 L 750 595 L 750 590 L 790 590 L 790 585 L 750 585 L 750 580 L 790 580 L 790 575 L 750 575 L 750 570 L 790 570 L 790 565 L 750 565 L 750 560 L 790 560 L 790 555 L 750 555 L 750 550 L 790 550" id="パス" fill="none" vector-effect="non-scaling-stroke" stroke-width="1" stroke="rgb(0,0,0)" stroke-linejoin="miter" stroke-linecap="square" stroke-miterlimit="3"/></g><g style="isolation:isolate" id="stairC"><path d=" M 685 925 L 660 925 L 660 920 L 685 920 L 685 915 L 660 915 L 660 910 L 685 910 L 685 905 L 660 905 L 660 900 L 685 900 L 685 895 L 660 895 L 660 890 L 685 890 L 685 885 L 660 885" id="パス" fill="none" vector-effect="non-scaling-stroke" stroke-width="1" stroke="rgb(0,0,0)" stroke-linejoin="miter" stroke-linecap="square" stroke-miterlimit="3"/><path d=" M 685 929 L 685 885 L 685 885 L 710 885 L 710 890 L 685 890 L 685 895 L 710 895 L 710 900 L 685 900 L 685 905 L 710 905 L 710 910 L 685 910 L 685 915 L 710 915 L 710 920 L 685 920 L 685 925 L 710 925" id="パス" fill="none" vector-effect="non-scaling-stroke" stroke-width="1" stroke="rgb(0,0,0)" stroke-linejoin="miter" stroke-linecap="square" stroke-miterlimit="3"/></g><g style="isolation:isolate" id="stairD"><path d=" M 370 888 L 350 888 L 350 892 L 370 892 L 370 896 L 350 896 L 350 900 L 370 900 L 370 904 L 350 904" id="パス" fill="none" vector-effect="non-scaling-stroke" stroke-width="1" stroke="rgb(0,0,0)" stroke-linejoin="miter" stroke-linecap="square" stroke-miterlimit="3"/><path d=" M 380 872 L 420 872 L 420 877 L 380 877 L 380 882 L 420 882 L 420 887 L 380 887 L 380 892 L 420 892 L 420 897 L 380 897 L 380 902 L 420 902" id="パス" fill="none" vector-effect="non-scaling-stroke" stroke-width="1" stroke="rgb(0,0,0)" stroke-linejoin="miter" stroke-linecap="square" stroke-miterlimit="3"/><line x1="390" y1="940" x2="379" y2="910" id="パス" vector-effect="non-scaling-stroke" stroke-width="1" stroke="rgb(0,0,0)" stroke-linejoin="miter" stroke-linecap="square" stroke-miterlimit="3"/><path d=" M 371 910 L 371 940 L 375 940 L 375 910 L 379 910 L 379 940 L 383 940 L 383 921" id="パス" fill="none" vector-effect="non-scaling-stroke" stroke-width="1" stroke="rgb(0,0,0)" stroke-linejoin="miter" stroke-linecap="square" stroke-miterlimit="3"/><path d=" M 370 870 L 380 870 L 380 910 L 370 910 L 370 870 Z " id="パス" fill="none" vector-effect="non-scaling-stroke" stroke-width="2" stroke="rgb(0,0,0)" stroke-linejoin="miter" stroke-linecap="square" stroke-miterlimit="3"/></g><path d=" M 330 892 C 330 889.24 332.24 887 335 887 C 337.76 887 340 889.24 340 892 C 340 894.76 337.76 897 335 897 C 332.24 897 330 894.76 330 892 Z  M 334.641 911.067 L 330.718 900.867 C 330.322 899.836 330.896 899 332 899 L 338 899 C 339.104 899 339.678 899.836 339.282 900.867 L 335.359 911.067 C 335.161 911.582 334.839 911.582 334.641 911.067 Z " fill-rule="evenodd" id="複合パス" fill="rgb(255,255,255)"/><path d=" M 765 435 C 765 432.24 767.24 430 770 430 C 772.76 430 775 432.24 775 435 C 775 437.76 772.76 440 770 440 C 767.24 440 765 437.76 765 435 Z  M 769.641 454.067 L 765.718 443.867 C 765.322 442.836 765.896 442 767 442 L 773 442 C 774.104 442 774.678 442.836 774.282 443.867 L 770.359 454.067 C 770.161 454.582 769.839 454.582 769.641 454.067 Z " fill-rule="evenodd" id="複合パス" fill="rgb(255,255,255)"/><g style="isolation:isolate" id="Text"><g clip-path="url(#_clipPath_jy2qANqrUwsT7NX04aqfoig9y8NpscMu)"><text transform="matrix(1,0,0,1,353,835.345)" id="maps_sp1" style="font-family:'Yu Gothic UI';font-weight:700;font-size:17px;font-style:normal;fill:#ffffff;stroke:none;">ガネー社</text></g><defs><clipPath id="_clipPath_jy2qANqrUwsT7NX04aqfoig9y8NpscMu"><rect x="0" y="0" width="70" height="22.611" transform="matrix(1,0,0,1,347,817)"/></clipPath></defs><g clip-path="url(#_clipPath_oddUjAQqBX9mxL4YnI3RxkPXMg9aa7U1)"><text transform="matrix(1,0,0,1,219.5,793.281)" id="maps_H1D" style="font-family:'Yu Gothic UI';font-weight:700;font-size:20px;font-style:normal;fill:#ffffff;stroke:none;">文芸部</text></g><defs><clipPath id="_clipPath_oddUjAQqBX9mxL4YnI3RxkPXMg9aa7U1"><rect x="0" y="0" width="65" height="90" transform="matrix(1,0,0,1,218,740)"/></clipPath></defs><g clip-path="url(#_clipPath_Cx8AzOqWhzQ4kkgNnqJpY2MMAITB36fs)"><text transform="matrix(1,0,0,1,39.106,779.982)" id="maps_H1A" style="font-family:'Yu Gothic UI';font-weight:700;font-size:18px;font-style:normal;fill:#ffffff;stroke:none;">AH!</text><text transform="matrix(1,0,0,1,26.164,803.924)" id="maps_H1A" style="font-family:'Yu Gothic UI';font-weight:700;font-size:18px;font-style:normal;fill:#ffffff;stroke:none;">A stery</text></g><defs><clipPath id="_clipPath_Cx8AzOqWhzQ4kkgNnqJpY2MMAITB36fs"><rect x="0" y="0" width="71" height="89" transform="matrix(1,0,0,1,20,740)"/></clipPath></defs><g clip-path="url(#_clipPath_MHMe5DdLJn9zRXQSD8ou5QoJuwqYIGBR)"><text transform="matrix(1,0,0,1,64,894.98)" id="maps_AVRoom" style="font-family:'Yu Gothic UI';font-weight:700;font-size:20px;font-style:normal;fill:#ffffff;stroke:none;">視聴覚室</text><text transform="matrix(1,0,0,1,64,921.582)" id="maps_AVRoom" style="font-family:'Yu Gothic UI';font-weight:700;font-size:20px;font-style:normal;fill:#ffffff;stroke:none;">映像企画</text></g><defs><clipPath id="_clipPath_MHMe5DdLJn9zRXQSD8ou5QoJuwqYIGBR"><rect x="0" y="0" width="100" height="80" transform="matrix(1,0,0,1,55,860)"/></clipPath></defs><g clip-path="url(#_clipPath_wQaYIBg1CeAulVYLuudysAr2tYC6R3q7)"><text transform="matrix(1,0,0,1,605.5,796.237)" id="text_info" style="font-family:'Yu Gothic UI';font-weight:700;font-size:13px;font-style:normal;fill:#ffffff;stroke:none;">インフォ</text><text transform="matrix(1,0,0,1,600.5,813.528)" id="text_info" style="font-family:'Yu Gothic UI';font-weight:700;font-size:13px;font-style:normal;fill:#ffffff;stroke:none;">メーション</text></g><defs><clipPath id="_clipPath_wQaYIBg1CeAulVYLuudysAr2tYC6R3q7"><rect x="0" y="0" width="50" height="59" transform="matrix(1,0,0,1,600,770)"/></clipPath></defs><g clip-path="url(#_clipPath_nZCyi5NVEv21bu8FKkQ90kAdqRpTQVYD)"><text transform="matrix(1,0,0,1,729.25,837.633)" id="text_juken" style="font-family:'Yu Gothic UI';font-weight:700;font-size:19px;font-style:normal;fill:#ffffff;stroke:none;">渉外</text><text transform="matrix(1,0,0,1,729.25,862.904)" id="text_juken" style="font-family:'Yu Gothic UI';font-weight:700;font-size:19px;font-style:normal;fill:#ffffff;stroke:none;">広報</text></g><defs><clipPath id="_clipPath_nZCyi5NVEv21bu8FKkQ90kAdqRpTQVYD"><rect x="0" y="0" width="41.5" height="52.87" transform="matrix(1,0,0,1,728.5,817.13)"/></clipPath></defs><g clip-path="url(#_clipPath_TkcjQfL0Tf6ak5ud6ZtcoCUFbziEeH1i)"><text transform="matrix(1,0,0,1,661,703.735)" id="text_Catho" style="font-family:'Yu Gothic UI';font-weight:700;font-size:15px;font-style:normal;fill:#ffffff;stroke:none;">カトリック                   </text><text transform="matrix(1,0,0,1,666.5,723.687)" id="text_Catho" style="font-family:'Yu Gothic UI';font-weight:700;font-size:15px;font-style:normal;fill:#ffffff;stroke:none;">研究会</text></g><defs><clipPath id="_clipPath_TkcjQfL0Tf6ak5ud6ZtcoCUFbziEeH1i"><rect x="0" y="0" width="80" height="65" transform="matrix(1,0,0,1,650,675)"/></clipPath></defs><g clip-path="url(#_clipPath_k0Lq5POMfVMA1VTtR4qxRnNt2y5tqdTE)"><text transform="matrix(1,0,0,1,651,602.731)" id="text_M1D" style="font-family:'Yu Gothic UI';font-weight:700;font-size:19px;font-style:normal;fill:#ffffff;stroke:none;">中学一年</text><text transform="matrix(1,0,0,1,666.5,628.003)" id="text_M1D" style="font-family:'Yu Gothic UI';font-weight:700;font-size:19px;font-style:normal;fill:#ffffff;stroke:none;">バザー</text></g><defs><clipPath id="_clipPath_k0Lq5POMfVMA1VTtR4qxRnNt2y5tqdTE"><rect x="0" y="0" width="80" height="135" transform="matrix(1,0,0,1,650,540)"/></clipPath></defs><g clip-path="url(#_clipPath_uBnlO4dJUiWnyPUFMy3XNhdXlqd4r704)"><text transform="matrix(1,0,0,1,670,468.731)" id="text_M1B" style="font-family:'Yu Gothic UI';font-weight:700;font-size:19px;font-style:normal;fill:#ffffff;stroke:none;">中学</text><text transform="matrix(1,0,0,1,651,494.003)" id="text_M1B" style="font-family:'Yu Gothic UI';font-weight:700;font-size:19px;font-style:normal;fill:#ffffff;stroke:none;">美術展示</text></g><defs><clipPath id="_clipPath_uBnlO4dJUiWnyPUFMy3XNhdXlqd4r704"><rect x="0" y="0" width="80" height="133" transform="matrix(1,0,0,1,650,407)"/></clipPath></defs><g clip-path="url(#_clipPath_wOHjShw9optDzuvdUFTRcpAsZm1CFuue)"><text transform="matrix(1,0,0,1,659,381.781)" id="text_M1A" style="font-family:'Yu Gothic UI';font-weight:700;font-size:20px;font-style:normal;fill:#ffffff;stroke:none;">美術部</text></g><defs><clipPath id="_clipPath_wOHjShw9optDzuvdUFTRcpAsZm1CFuue"><rect x="0" y="0" width="80" height="67" transform="matrix(1,0,0,1,650,340)"/></clipPath></defs><g clip-path="url(#_clipPath_neqv5A3gArXEbfGFwxx5l0y4DAH0fYy9)"><text transform="matrix(1,0,0,1,659,135.781)" id="text_TechRoom" style="font-family:'Yu Gothic UI';font-weight:700;font-size:20px;font-style:normal;fill:#ffffff;stroke:none;">柔道部</text></g><defs><clipPath id="_clipPath_neqv5A3gArXEbfGFwxx5l0y4DAH0fYy9"><rect x="0" y="0" width="80" height="95" transform="matrix(1,0,0,1,650,80)"/></clipPath></defs></g></g><g clip-path="url(#_clipPath_vvXslib6dsMRwX7hfTDrJib8i5qSyEjI)"><text transform="matrix(1,0,0,1,288,793.281)" id="maps_H1E" style="font-family:'Yu Gothic UI';font-weight:700;font-size:20px;font-style:normal;fill:#ffffff;stroke:none;">中三C</text></g><defs><clipPath id="_clipPath_vvXslib6dsMRwX7hfTDrJib8i5qSyEjI"><rect x="0" y="0" width="64" height="90" transform="matrix(1,0,0,1,283,740)"/></clipPath></defs><g clip-path="url(#_clipPath_VeXSzf9k3Fy5ZULgD5kFNQDgm7QeXNkE)"><text transform="matrix(1,0,0,1,165,780.231)" id="maps_H1C" style="font-family:'Yu Gothic UI';font-weight:700;font-size:19px;font-style:normal;fill:#ffffff;stroke:none;">囲碁</text><text transform="matrix(1,0,0,1,155.5,805.503)" id="maps_H1C" style="font-family:'Yu Gothic UI';font-weight:700;font-size:19px;font-style:normal;fill:#ffffff;stroke:none;">将棋部</text></g><defs><clipPath id="_clipPath_VeXSzf9k3Fy5ZULgD5kFNQDgm7QeXNkE"><rect x="0" y="0" width="66" height="90" transform="matrix(1,0,0,1,152,740)"/></clipPath></defs></svg>