<?xml version="1.0" encoding="UTF-8" standalone="no"?><!-- Generator: Gravit.io --><svg xmlns="http://www.w3.org/2000/svg" xmlns:xlink="http://www.w3.org/1999/xlink" style="isolation:isolate" viewBox="0 0 1000 700" width="1000pt" height="700pt"><defs><clipPath id="_clipPath_glbvPLCLuyyaS8K8KlhjWAKPVw5LXXFF"><rect width="1000" height="700"/></clipPath></defs><g clip-path="url(#_clipPath_glbvPLCLuyyaS8K8KlhjWAKPVw5LXXFF)"><g style="isolation:isolate" id="レイヤー 49"><path d=" M 872.844 120 L 902.319 10 L 502.319 10 L 490.529 54 L 310.529 54 L 322.319 10 L 212.319 10 L 207.898 26.5 L 197.898 26.5" id="パス" fill="none" vector-effect="non-scaling-stroke" stroke-width="1.483" stroke="rgb(0,0,0)" stroke-linejoin="miter" stroke-linecap="square" stroke-miterlimit="3"/><path d=" M 197.898 26.5 C 194.15 21.825 179.302 20.794 169.371 21 C 139.085 21.137 124.822 37.337 117.582 65 C 113.179 81.431 114.318 97.083 127.266 103.5 L 122.844 120 L 102.844 120 L 10 466.5 L 40 466.5 L 35.579 483 L 145.579 483 L 242.844 120 C 254.22 120 270.845 120 292.719 120 C 292.767 119.94 306.096 70.371 306.108 70.5 C 306.129 70.423 422.19 70.5 490.108 70.5 C 490.13 70.506 476.833 119.998 476.844 120 Q 620.165 120 872.844 120" id="パス" fill="none" vector-effect="non-scaling-stroke" stroke-width="1.483" stroke="rgb(0,0,0)" stroke-linejoin="miter" stroke-linecap="square" stroke-miterlimit="3"/><path d=" M 127.266 103.5 L 187.266 103.5 L 207.898 26.5" id="パス" fill="none" vector-effect="non-scaling-stroke" stroke-width="1.483" stroke="rgb(0,0,0)" stroke-linejoin="miter" stroke-linecap="square" stroke-miterlimit="3"/><path d=" M 872.844 120 L 804.844 120 L 818.108 70.5 L 886.108 70.5 L 872.844 120 Z " id="maps_H1A" fill="rgb(209,209,209)" vector-effect="non-scaling-stroke" stroke-width="1.187" stroke="rgb(0,0,0)" stroke-linejoin="miter" stroke-linecap="square" stroke-miterlimit="3"/><path d=" M 804.844 120 L 740.844 120 L 754.108 70.5 L 818.108 70.5 L 804.844 120 Z " id="maps_H1B" fill="rgb(209,209,209)" vector-effect="non-scaling-stroke" stroke-width="1.187" stroke="rgb(0,0,0)" stroke-linejoin="miter" stroke-linecap="square" stroke-miterlimit="3"/><path d=" M 740.844 120 L 674.844 120 L 688.108 70.5 L 754.108 70.5 L 740.844 120 Z " id="maps_H1C" fill="rgb(209,209,209)" vector-effect="non-scaling-stroke" stroke-width="1.187" stroke="rgb(0,0,0)" stroke-linejoin="miter" stroke-linecap="square" stroke-miterlimit="3"/><path d=" M 674.844 120 L 609.844 120 L 623.108 70.5 L 688.108 70.5 L 674.844 120 Z " id="maps_H1D" fill="rgb(209,209,209)" vector-effect="non-scaling-stroke" stroke-width="1.187" stroke="rgb(0,0,0)" stroke-linejoin="miter" stroke-linecap="square" stroke-miterlimit="3"/><path d=" M 609.844 120 L 545.844 120 L 559.108 70.5 L 623.108 70.5 L 609.844 120 Z " id="maps_H1E" fill="rgb(209,209,209)" vector-effect="non-scaling-stroke" stroke-width="1.187" stroke="rgb(0,0,0)" stroke-linejoin="miter" stroke-linecap="square" stroke-miterlimit="3"/><path d=" M 153.265 155.75 L 143.097 193.7 L 223.097 193.7 L 233.265 155.75 L 153.265 155.75 Z " id="maps_M1E" fill="rgb(139,139,139)" vector-effect="non-scaling-stroke" stroke-width="1.483" stroke="rgb(0,0,0)" stroke-linejoin="miter" stroke-linecap="square" stroke-miterlimit="3"/><path d=" M 233.265 155.75 L 213.37 230 L 133.37 230 L 153.265 155.75 L 233.265 155.75 Z " id="maps_M1D" fill="rgb(209,209,209)" vector-effect="non-scaling-stroke" stroke-width="1.187" stroke="rgb(0,0,0)" stroke-linejoin="miter" stroke-linecap="square" stroke-miterlimit="3"/><path d=" M 213.37 230 L 193.77 303.15 L 113.77 303.15 L 133.37 230 L 213.37 230 Z " id="maps_M1B" fill="rgb(209,209,209)" vector-effect="non-scaling-stroke" stroke-width="1.187" stroke="rgb(0,0,0)" stroke-linejoin="miter" stroke-linecap="square" stroke-miterlimit="3"/><path d=" M 193.77 303.15 L 183.896 340 L 103.896 340 L 113.77 303.15 L 193.77 303.15 Z " id="maps_M1A" fill="rgb(209,209,209)" vector-effect="non-scaling-stroke" stroke-width="1.187" stroke="rgb(0,0,0)" stroke-linejoin="miter" stroke-linecap="square" stroke-miterlimit="3"/><path d=" M 159.727 430.2 L 145.579 483 L 65.579 483 L 79.727 430.2 L 159.727 430.2 Z " id="maps_TechRoom" fill="rgb(209,209,209)" vector-effect="non-scaling-stroke" stroke-width="1.187" stroke="rgb(0,0,0)" stroke-linejoin="miter" stroke-linecap="square" stroke-miterlimit="3"/><path d=" M 242.844 120 L 175.344 120 L 162.844 120 L 153.265 155.75 L 233.265 155.75 L 242.844 120 Z " id="maps_catho" fill="rgb(209,209,209)" vector-effect="non-scaling-stroke" stroke-width="1.187" stroke="rgb(0,0,0)" stroke-linejoin="miter" stroke-linecap="square" stroke-miterlimit="3"/><path d=" M 855.529 54 L 755.529 54 L 767.319 10 L 867.319 10 L 855.529 54 Z " id="maps_AVRoom" fill="rgb(209,209,209)" vector-effect="non-scaling-stroke" stroke-width="1.187" stroke="rgb(0,0,0)" stroke-linejoin="miter" stroke-linecap="square" stroke-miterlimit="3"/><path d=" M 179.474 356.5 L 164.148 413.7 L 84.148 413.7 L 99.474 356.5 L 179.474 356.5 Z " id="maps_ArtRoom" fill="rgb(93,93,93)" vector-effect="non-scaling-stroke" stroke-width="1.483" stroke="rgb(0,0,0)" stroke-linejoin="miter" stroke-linecap="square" stroke-miterlimit="3"/><path d=" M 521.134 89.063 L 518.371 99.375 L 512.844 120 L 476.844 120 L 487.897 78.75 L 523.897 78.75 L 521.134 89.063 Z " id="Broadcasting_Room" fill="rgb(93,93,93)" vector-effect="non-scaling-stroke" stroke-width="1.483" stroke="rgb(0,0,0)" stroke-linejoin="miter" stroke-linecap="square" stroke-miterlimit="3"/><path d=" M 545.844 120 L 512.844 120 L 523.897 78.75 L 556.897 78.75 L 545.844 120 Z " id="Labo_English" fill="rgb(93,93,93)" vector-effect="non-scaling-stroke" stroke-width="1.483" stroke="rgb(0,0,0)" stroke-linejoin="miter" stroke-linecap="square" stroke-miterlimit="3"/><path d=" M 75.053 373 L 79.474 356.5 L 39.474 356.5 L 35.053 373 L 75.053 373 Z " id="パス" fill="rgb(93,93,93)" vector-effect="non-scaling-stroke" stroke-width="1.483" stroke="rgb(0,0,0)" stroke-linejoin="miter" stroke-linecap="square" stroke-miterlimit="3"/><path d=" M 66.211 406 L 70.632 389.5 L 30.632 389.5 L 26.211 406 L 66.211 406 Z " id="パス" fill="rgb(93,93,93)" vector-effect="non-scaling-stroke" stroke-width="1.483" stroke="rgb(0,0,0)" stroke-linejoin="miter" stroke-linecap="square" stroke-miterlimit="3"/><path d=" M 70.632 389.5 L 75.053 373 L 35.053 373 L 30.632 389.5 L 70.632 389.5 Z " id="パス" fill="rgb(93,93,93)" vector-effect="non-scaling-stroke" stroke-width="1.483" stroke="rgb(0,0,0)" stroke-linejoin="miter" stroke-linecap="square" stroke-miterlimit="3"/><path d=" M 59.727 430.2 L 66.211 406 L 26.211 406 L 19.727 430.2 L 59.727 430.2 Z " id="パス" fill="rgb(93,93,93)" vector-effect="non-scaling-stroke" stroke-width="1.483" stroke="rgb(0,0,0)" stroke-linejoin="miter" stroke-linecap="square" stroke-miterlimit="3"/><path d=" M 50 466.5 L 59.727 430.2 L 19.727 430.2 L 10 466.5 L 50 466.5 Z " id="パス" fill="rgb(93,93,93)" vector-effect="non-scaling-stroke" stroke-width="1.483" stroke="rgb(0,0,0)" stroke-linejoin="miter" stroke-linecap="square" stroke-miterlimit="3"/><path d=" M 79.474 356.5 L 83.896 340 L 43.896 340 L 39.474 356.5 L 79.474 356.5 Z " id="パス" fill="rgb(93,93,93)" vector-effect="non-scaling-stroke" stroke-width="1.483" stroke="rgb(0,0,0)" stroke-linejoin="miter" stroke-linecap="square" stroke-miterlimit="3"/><path d=" M 142.844 120 L 133.265 155.75 L 93.265 155.75 L 102.844 120 L 142.844 120 Z " id="パス" fill="rgb(93,93,93)" vector-effect="non-scaling-stroke" stroke-width="1.483" stroke="rgb(0,0,0)" stroke-linejoin="miter" stroke-linecap="square" stroke-miterlimit="3"/><path d=" M 133.265 155.75 L 123.097 193.7 L 83.097 193.7 L 93.265 155.75 L 133.265 155.75 Z " id="Counseling_Room" fill="rgb(93,93,93)" vector-effect="non-scaling-stroke" stroke-width="1.483" stroke="rgb(0,0,0)" stroke-linejoin="miter" stroke-linecap="square" stroke-miterlimit="3"/><path d=" M 306.108 70.5 L 254.421 70.5 L 245.579 103.5 L 297.266 103.5 L 306.108 70.5 Z " id="maps_info" fill="rgb(209,209,209)" vector-effect="non-scaling-stroke" stroke-width="1.187" stroke="rgb(0,0,0)" stroke-linejoin="miter" stroke-linecap="square" stroke-miterlimit="3"/><path d=" M 890.529 54 L 902.319 10 L 867.319 10 L 855.529 54 L 890.529 54 Z " id="StairE" fill="rgb(93,93,93)" vector-effect="non-scaling-stroke" stroke-width="1.483" stroke="rgb(0,0,0)" stroke-linejoin="miter" stroke-linecap="square" stroke-miterlimit="3"/><path d=" M 725.529 54 L 736.319 10 L 767.319 10 L 755.529 54 L 725.529 54 Z " id="Audiovisual_Preparation_Room" fill="rgb(93,93,93)" vector-effect="non-scaling-stroke" stroke-width="1.483" stroke="rgb(0,0,0)" stroke-linejoin="miter" stroke-linecap="square" stroke-miterlimit="3"/><path d=" M 254.108 70.5 L 246.108 70.5 L 232.844 120 L 292.844 120 L 297.266 103.5 L 245.266 103.5 L 254.108 70.5 Z " id="Student_Guidance_Office" fill="rgb(93,93,93)" vector-effect="non-scaling-stroke" stroke-width="1.483" stroke="rgb(0,0,0)" stroke-linejoin="miter" stroke-linecap="square" stroke-miterlimit="3"/><path d=" M 164.148 413.7 L 159.727 430.2 L 79.727 430.2 L 84.148 413.7 L 164.148 413.7 Z " id="パス" fill="rgb(93,93,93)" vector-effect="non-scaling-stroke" stroke-width="1.483" stroke="rgb(0,0,0)" stroke-linejoin="miter" stroke-linecap="square" stroke-miterlimit="3"/><path d=" M 183.896 340 L 179.474 356.5 L 99.474 356.5 L 103.896 340 L 183.896 340 Z " id="パス" fill="rgb(93,93,93)" vector-effect="non-scaling-stroke" stroke-width="1.483" stroke="rgb(0,0,0)" stroke-linejoin="miter" stroke-linecap="square" stroke-miterlimit="3"/><path d=" M 50 466.5 L 45.579 483 L 35.579 483 L 40 466.5 L 50 466.5 Z " id="パス" fill="rgb(93,93,93)" vector-effect="non-scaling-stroke" stroke-width="1.483" stroke="rgb(0,0,0)" stroke-linejoin="miter" stroke-linecap="square" stroke-miterlimit="3"/><path d=" M 692.529 54 L 592.529 54 L 604.319 10 L 704.319 10 L 692.529 54 Z " id="PC_Room" fill="rgb(93,93,93)" vector-effect="non-scaling-stroke" stroke-width="1.483" stroke="rgb(0,0,0)" stroke-linejoin="miter" stroke-linecap="square" stroke-miterlimit="3"/><path d=" M 725.529 54 L 692.529 54 L 704.319 10 L 736.319 10 L 725.529 54 Z " id="H1_StaffRoom" fill="rgb(93,93,93)" vector-effect="non-scaling-stroke" stroke-width="1.483" stroke="rgb(0,0,0)" stroke-linejoin="miter" stroke-linecap="square" stroke-miterlimit="3"/><path d=" M 310.529 54 L 250.529 54 L 262.319 10 L 322.319 10 L 310.529 54 Z " id="Interview_Room" fill="rgb(93,93,93)" vector-effect="non-scaling-stroke" stroke-width="1.483" stroke="rgb(0,0,0)" stroke-linejoin="miter" stroke-linecap="square" stroke-miterlimit="3"/><path d=" M 212.319 10 L 262.319 10 L 250.529 54 L 262.319 10 L 212.319 10 L 200.529 54 L 212.319 10 Z " fill-rule="evenodd" id="StairC" fill="none" vector-effect="non-scaling-stroke" stroke-width="1.483" stroke="rgb(0,0,0)" stroke-linejoin="miter" stroke-linecap="square" stroke-miterlimit="3"/><path d=" M 556.897 78.75 L 487.897 78.75 L 491.876 63.9 L 560.876 63.9 L 556.897 78.75 Z " id="maps_sp1" fill="rgb(209,209,209)" vector-effect="non-scaling-stroke" stroke-width="1.187" stroke="rgb(0,0,0)" stroke-linejoin="miter" stroke-linecap="square" stroke-miterlimit="3"/><path d=" M 93.77 303.15 L 53.77 303.15 L 64.528 263 L 104.528 263 L 93.77 303.15 Z " id="パス" fill="rgb(37,37,198)" vector-effect="non-scaling-stroke" stroke-width="1.483" stroke="rgb(0,0,0)" stroke-linejoin="miter" stroke-linecap="square" stroke-miterlimit="3"/><path d=" M 560.529 54 L 572.319 10 L 604.319 10 L 592.529 54 L 560.529 54 Z " id="Toilet" fill="rgb(37,37,198)" vector-effect="non-scaling-stroke" stroke-width="1.483" stroke="rgb(0,0,0)" stroke-linejoin="miter" stroke-linecap="square" stroke-miterlimit="3"/><path d=" M 187.266 103.5 L 207.898 26.5 L 197.898 26.5 Q 193.157 20.751 169.371 21 C 145.586 21.249 126.292 32.086 119.055 59.5 C 111.819 86.914 117.034 96.9 127.266 103.5 C 127.484 103.641 184.552 103.362 187.266 103.5 Z " id="maps_juken" fill="rgb(209,209,209)" vector-effect="non-scaling-stroke" stroke-width="1.187" stroke="rgb(0,0,0)" stroke-linejoin="miter" stroke-linecap="square" stroke-miterlimit="3"/><path d=" M 113.37 230 L 123.097 193.7 L 83.097 193.7 L 73.37 230" id="パス" fill="none" vector-effect="non-scaling-stroke" stroke-width="1.483" stroke="rgb(0,0,0)" stroke-linejoin="miter" stroke-linecap="square" stroke-miterlimit="3"/><path d=" M 110.423 241 L 104.528 263 L 64.528 263 L 70.423 241" id="パス" fill="none" vector-effect="non-scaling-stroke" stroke-width="1.483" stroke="rgb(0,0,0)" stroke-linejoin="miter" stroke-linecap="square" stroke-miterlimit="3"/><path d=" M 494.95 37.5 L 502.319 10 L 572.319 10 L 564.95 37.5" id="パス" fill="none" vector-effect="non-scaling-stroke" stroke-width="1.483" stroke="rgb(0,0,0)" stroke-linejoin="miter" stroke-linecap="square" stroke-miterlimit="3"/><path d=" M 66.075 257.225 L 106.075 257.225 M 108.212 249.25 L 88.212 249.25 M 106.738 254.75 L 86.738 254.75 M 108.949 246.5 L 88.949 246.5 M 107.475 252 L 87.475 252 M 109.833 243.2 L 89.833 243.2 M 90.423 241 Q 87.817 250.725 86.149 256.95" fill-rule="evenodd" id="複合パス" fill="none" vector-effect="non-scaling-stroke" stroke-width="0.742" stroke="rgb(0,0,0)" stroke-linejoin="miter" stroke-linecap="square" stroke-miterlimit="3"/><path d=" M 122.212 197 L 82.212 197 L 81.475 199.75 L 121.475 199.75 L 120.739 202.5 L 80.739 202.5 L 80.002 205.25 L 120.002 205.25 L 119.265 208 L 79.265 208 L 78.528 210.75 L 118.528 210.75 L 117.791 213.5 L 77.791 213.5 L 77.054 216.25 L 117.054 216.25 L 116.317 219 L 76.317 219 L 75.581 221.75 L 115.581 221.75 L 114.844 224.5 L 74.844 224.5" id="パス" fill="none" vector-effect="non-scaling-stroke" stroke-width="0.742" stroke="rgb(0,0,0)" stroke-linejoin="miter" stroke-linecap="square" stroke-miterlimit="3"/><path d=" M 235.108 18.25 L 260.108 18.25 L 259.371 21 L 234.371 21 L 233.635 23.75 L 258.635 23.75 L 257.898 26.5 L 232.898 26.5 L 232.161 29.25 L 257.161 29.25 L 256.424 32 L 231.424 32 L 230.687 34.75 L 255.687 34.75 L 254.95 37.5 L 229.95 37.5 L 229.213 40.25 L 254.213 40.25" id="パス" fill="none" vector-effect="non-scaling-stroke" stroke-width="0.742" stroke="rgb(0,0,0)" stroke-linejoin="miter" stroke-linecap="square" stroke-miterlimit="3"/><path d=" M 235.698 16.05 L 229.213 40.25 L 229.213 40.25 L 204.213 40.25 L 204.95 37.5 L 229.95 37.5 L 230.687 34.75 L 205.687 34.75 L 206.424 32 L 231.424 32 L 232.161 29.25 L 207.161 29.25 L 207.898 26.5 L 232.898 26.5 L 233.635 23.75 L 208.635 23.75 L 209.371 21 L 234.371 21 L 235.108 18.25 L 210.108 18.25" id="パス" fill="none" vector-effect="non-scaling-stroke" stroke-width="0.742" stroke="rgb(0,0,0)" stroke-linejoin="miter" stroke-linecap="square" stroke-miterlimit="3"/><path d=" M 544.655 38.6 L 564.655 38.6 L 565.245 36.4 L 545.245 36.4 L 545.834 34.2 L 565.834 34.2 L 566.424 32 L 546.424 32 L 547.013 29.8 L 567.013 29.8" id="パス" fill="none" vector-effect="non-scaling-stroke" stroke-width="0.742" stroke="rgb(0,0,0)" stroke-linejoin="miter" stroke-linecap="square" stroke-miterlimit="3"/><path d=" M 532.298 47.4 L 492.298 47.4 L 493.034 44.65 L 533.034 44.65 L 533.771 41.9 L 493.771 41.9 L 494.508 39.15 L 534.508 39.15 L 535.245 36.4 L 495.245 36.4 L 495.982 33.65 L 535.982 33.65 L 536.719 30.9 L 496.719 30.9" id="パス" fill="none" vector-effect="non-scaling-stroke" stroke-width="0.742" stroke="rgb(0,0,0)" stroke-linejoin="miter" stroke-linecap="square" stroke-miterlimit="3"/><line x1="532.319" y1="10" x2="538.898" y2="26.5" id="パス" vector-effect="non-scaling-stroke" stroke-width="0.742" stroke="rgb(0,0,0)" stroke-linejoin="miter" stroke-linecap="square" stroke-miterlimit="3"/><path d=" M 546.898 26.5 L 551.319 10 L 547.319 10 L 542.898 26.5 L 538.898 26.5 L 543.319 10 L 539.319 10 L 536.519 20.45" id="パス" fill="none" vector-effect="non-scaling-stroke" stroke-width="0.742" stroke="rgb(0,0,0)" stroke-linejoin="miter" stroke-linecap="square" stroke-miterlimit="3"/><path d=" M 542.003 48.5 L 532.003 48.5 L 537.898 26.5 L 547.898 26.5 L 542.003 48.5 Z " id="パス" fill="none" vector-effect="non-scaling-stroke" stroke-width="1.483" stroke="rgb(0,0,0)" stroke-linejoin="miter" stroke-linecap="square" stroke-miterlimit="3"/><path d=" M 575.747 28.499 C 576.154 26.982 578.724 25.749 581.484 25.749 C 584.243 25.749 586.154 26.982 585.747 28.499 C 585.34 30.017 582.77 31.249 580.01 31.249 C 577.25 31.249 575.34 30.017 575.747 28.499 Z  M 577.506 38.818 L 575.303 33.711 C 574.978 32.96 575.38 32.349 576.198 32.349 L 583.232 32.349 C 584.051 32.349 584.253 32.827 583.684 33.415 L 578.315 38.966 C 578.03 39.26 577.668 39.194 577.506 38.818 Z " fill-rule="evenodd" id="複合パス" fill="rgb(255,255,255)"/><path d=" M 73.398 279.849 C 73.805 278.332 76.375 277.099 79.135 277.099 C 81.894 277.099 83.805 278.332 83.398 279.849 C 82.991 281.367 80.421 282.599 77.661 282.599 C 74.901 282.599 72.991 281.367 73.398 279.849 Z  M 75.157 290.168 L 72.954 285.061 C 72.629 284.31 73.031 283.699 73.849 283.699 L 80.883 283.699 C 81.702 283.699 81.904 284.177 81.335 284.765 L 75.966 290.316 C 75.681 290.61 75.319 290.544 75.157 290.168 Z " fill-rule="evenodd" id="複合パス" fill="rgb(255,255,255)"/></g><g style="isolation:isolate" id="レイヤー 47"><g clip-path="url(#_clipPath_eZZ1PwSUDUUiK1w8cQEBNcc3Xho2RdQY)"><text transform="matrix(1,0,0,1,138.943,224.747)" id="text_M1D" style="font-family:'Yu Gothic UI';font-weight:700;font-size:14px;font-style:normal;letter-spacing:-1;fill:#000000;stroke:none;">中一C,D教室</text></g><defs><clipPath id="_clipPath_eZZ1PwSUDUUiK1w8cQEBNcc3Xho2RdQY"><rect x="0" y="0" width="79.985" height="18.621" transform="matrix(1,0,0,1,136.008,209.64)"/></clipPath></defs><g clip-path="url(#_clipPath_f3a1FepEq0524KGLW5i695rD8aDRHO6P)"><text transform="matrix(1,0,0,1,84,477.747)" id="text_TechRoom" style="font-family:'Yu Gothic UI';font-weight:700;font-size:14px;font-style:normal;fill:#000000;stroke:none;">技術室</text></g><defs><clipPath id="_clipPath_f3a1FepEq0524KGLW5i695rD8aDRHO6P"><rect x="0" y="0" width="79.985" height="18.621" transform="matrix(1,0,0,1,66.008,462.64)"/></clipPath></defs><g clip-path="url(#_clipPath_V7TL8uINM3aYSEUC48aDfH3cykSllQaL)"><text transform="matrix(1,0,0,1,808.636,114.668)" id="text_H1A" style="font-family:'Yu Gothic UI';font-weight:700;font-size:13px;font-style:normal;fill:#000000;stroke:none;">高一A教室</text></g><defs><clipPath id="_clipPath_V7TL8uINM3aYSEUC48aDfH3cykSllQaL"><rect x="0" y="0" width="69" height="17.291" transform="matrix(1,0,0,1,805.5,100.64)"/></clipPath></defs><g clip-path="url(#_clipPath_O5QHLnQXBLMQGKW20mFYEoBN2npWatni)"><text transform="matrix(1,0,0,1,744.574,114.668)" id="text_H1B" style="font-family:'Yu Gothic UI';font-weight:700;font-size:13px;font-style:normal;fill:#000000;stroke:none;">高一B教室</text></g><defs><clipPath id="_clipPath_O5QHLnQXBLMQGKW20mFYEoBN2npWatni"><rect x="0" y="0" width="69" height="17.291" transform="matrix(1,0,0,1,741,100.64)"/></clipPath></defs><g clip-path="url(#_clipPath_C63FxzhNnG9cvVcgQJml7DupXQptPdIl)"><text transform="matrix(1,0,0,1,778,48.747)" id="テキスト" style="font-family:'Yu Gothic UI';font-weight:700;font-size:14px;font-style:normal;fill:#000000;stroke:none;">視聴覚室</text></g><defs><clipPath id="_clipPath_C63FxzhNnG9cvVcgQJml7DupXQptPdIl"><rect x="0" y="0" width="101" height="18.621" transform="matrix(1,0,0,1,756.5,33.64)"/></clipPath></defs><g clip-path="url(#_clipPath_E155Svwfpk6XZLPnBij1P7oi1Gk0N6XG)"><text transform="matrix(1,0,0,1,678.963,114.668)" id="text_H1C" style="font-family:'Yu Gothic UI';font-weight:700;font-size:13px;font-style:normal;fill:#000000;stroke:none;">高一C教室</text></g><defs><clipPath id="_clipPath_E155Svwfpk6XZLPnBij1P7oi1Gk0N6XG"><rect x="0" y="0" width="69" height="17.291" transform="matrix(1,0,0,1,675.5,100.64)"/></clipPath></defs><g clip-path="url(#_clipPath_8ZDs0YR97z65O3WBjrPQudhCc3YJynZB)"><text transform="matrix(1,0,0,1,171.471,141.279)" id="text_catho" style="font-family:'Yu Gothic UI';font-weight:700;font-size:14px;font-style:normal;fill:#000000;stroke:none;">カトリック</text><text transform="matrix(1,0,0,1,175.795,154.314)" id="text_catho" style="font-family:'Yu Gothic UI';font-weight:700;font-size:14px;font-style:normal;fill:#000000;stroke:none;">センター</text></g><defs><clipPath id="_clipPath_8ZDs0YR97z65O3WBjrPQudhCc3YJynZB"><rect x="0" y="0" width="79.985" height="31.656" transform="matrix(1,0,0,1,158.008,126.172)"/></clipPath></defs><g clip-path="url(#_clipPath_71pPgrP8tvXxrZNQ8HJUZmSHZCRApjxn)"><text transform="matrix(1,0,0,1,613.338,114.668)" id="text_H1D" style="font-family:'Yu Gothic UI';font-weight:700;font-size:13px;font-style:normal;fill:#000000;stroke:none;">高一D教室</text></g><defs><clipPath id="_clipPath_71pPgrP8tvXxrZNQ8HJUZmSHZCRApjxn"><rect x="0" y="0" width="69" height="17.291" transform="matrix(1,0,0,1,610.5,100.64)"/></clipPath></defs><g clip-path="url(#_clipPath_54ncgyPqazYHOwuWxY6bZAhdyKNkU1I1)"><text transform="matrix(1,0,0,1,567,105.416)" id="text_H1E" style="font-family:'Yu Gothic UI';font-weight:700;font-size:13px;font-style:normal;fill:#000000;stroke:none;">特別</text><text transform="matrix(1,0,0,1,554,117.52)" id="text_H1E" style="font-family:'Yu Gothic UI';font-weight:700;font-size:13px;font-style:normal;fill:#000000;stroke:none;">第六教室</text></g><defs><clipPath id="_clipPath_54ncgyPqazYHOwuWxY6bZAhdyKNkU1I1"><rect x="0" y="0" width="69" height="29.395" transform="matrix(1,0,0,1,546.5,91.388)"/></clipPath></defs><g clip-path="url(#_clipPath_nUeyvX8axiXdoQfa7oIwgOxTVSZP2kaU)"><text transform="matrix(1,0,0,1,496,76.408)" id="text_sp1" style="font-family:'Yu Gothic UI';font-weight:700;font-size:13px;font-style:normal;fill:#000000;stroke:none;">放送室前</text></g><defs><clipPath id="_clipPath_nUeyvX8axiXdoQfa7oIwgOxTVSZP2kaU"><rect x="0" y="0" width="69" height="17.291" transform="matrix(1,0,0,1,488.5,62.38)"/></clipPath></defs><g clip-path="url(#_clipPath_mlbe2k0CckBPWxOysiUgW2AJo7AQiuvR)"><text transform="matrix(1,0,0,1,248.5,100.718)" id="text_info" style="font-family:'Yu Gothic UI';font-weight:700;font-size:13px;font-style:normal;letter-spacing:-1;fill:#000000;stroke:none;">生徒会室</text></g><defs><clipPath id="_clipPath_mlbe2k0CckBPWxOysiUgW2AJo7AQiuvR"><rect x="0" y="0" width="60.998" height="17.291" transform="matrix(1,0,0,1,243.501,86.689)"/></clipPath></defs><g clip-path="url(#_clipPath_BUc9nqHpl7n7zX4Y5vSz8lwbu4ys1ZDt)"><text transform="matrix(1,0,0,1,136,97.747)" id="text_juken" style="font-family:'Yu Gothic UI';font-weight:700;font-size:14px;font-style:normal;fill:#000000;stroke:none;">会議室</text></g><defs><clipPath id="_clipPath_BUc9nqHpl7n7zX4Y5vSz8lwbu4ys1ZDt"><rect x="0" y="0" width="59.992" height="18.621" transform="matrix(1,0,0,1,128.004,82.64)"/></clipPath></defs><g clip-path="url(#_clipPath_PGSzkS8eaSSiGHLddUql3XxZZ8CTB4GD)"><text transform="matrix(1,0,0,1,119.384,297.747)" id="text_M1B" style="font-family:'Yu Gothic UI';font-weight:700;font-size:14px;font-style:normal;letter-spacing:-1;fill:#000000;stroke:none;">中一A,B教室</text></g><defs><clipPath id="_clipPath_PGSzkS8eaSSiGHLddUql3XxZZ8CTB4GD"><rect x="0" y="0" width="79.985" height="18.621" transform="matrix(1,0,0,1,116.008,282.64)"/></clipPath></defs><g clip-path="url(#_clipPath_JQZP7dDKwYk0KBxxnOAnSgIatj89bklj)"><text transform="matrix(1,0,0,1,116,334.747)" id="text_M1A" style="font-family:'Yu Gothic UI';font-weight:700;font-size:14px;font-style:normal;fill:#000000;stroke:none;">書道教室</text></g><defs><clipPath id="_clipPath_JQZP7dDKwYk0KBxxnOAnSgIatj89bklj"><rect x="0" y="0" width="80" height="18.621" transform="matrix(1,0,0,1,105,319.64)"/></clipPath></defs></g></g></svg>