<?xml version="1.0" encoding="UTF-8" standalone="no"?><!-- Generator: Gravit.io --><svg xmlns="http://www.w3.org/2000/svg" xmlns:xlink="http://www.w3.org/1999/xlink" style="isolation:isolate" viewBox="0 0 800 1000" width="800pt" height="1000pt"><defs><clipPath id="_clipPath_wEnvMG07c4v0DweScohdvTzIlufEmLan"><rect width="800" height="1000"/></clipPath></defs><g clip-path="url(#_clipPath_wEnvMG07c4v0DweScohdvTzIlufEmLan)"><g style="isolation:isolate" id="outer"><path d=" M 20 740 L 20 940 L 420 940 L 420 900 L 600 900 L 600 940 L 710 940 L 710 910 L 720 910" id="パス" fill="none" vector-effect="non-scaling-stroke" stroke-width="2" stroke="rgb(0,0,0)" stroke-linejoin="miter" stroke-linecap="square" stroke-miterlimit="3"/><path d=" M 720 910 C 725 918.5 740.125 920.375 750 920 C 780.25 919.75 790.172 890.297 790 840 C 790 810.125 784.667 781.667 770 770 L 770 740 L 790 740 L 790 110 L 760 110 L 760 80 L 650 80 L 650 740 C 638.624 740 621.999 740 600.125 740 C 600.094 740.109 600.047 750.234 600 750 C 600 750.141 484.918 750 417 750 C 416.977 749.988 417.012 740.004 417 740 Q 273.68 740 20 740" id="パス" fill="none" vector-effect="non-scaling-stroke" stroke-width="2" stroke="rgb(0,0,0)" stroke-linejoin="miter" stroke-linecap="square" stroke-miterlimit="3"/><path d=" M 770 770 L 710 770 L 710 910" id="パス" fill="none" vector-effect="non-scaling-stroke" stroke-width="2" stroke="rgb(0,0,0)" stroke-linejoin="miter" stroke-linecap="square" stroke-miterlimit="3"/></g><g style="isolation:isolate" id="booth"><path d=" M 20 740 L 90 740 L 90 830 L 20 830 L 20 740 Z " id="maps_H2A" fill="rgb(139,139,139)" vector-effect="non-scaling-stroke" stroke-width="2" stroke="rgb(0,0,0)" stroke-linejoin="miter" stroke-linecap="square" stroke-miterlimit="3"/><path d=" M 90 740 L 152 740 L 152 830 L 90 830 L 90 740 Z " id="maps_H2B" fill="rgb(139,139,139)" vector-effect="non-scaling-stroke" stroke-width="2" stroke="rgb(0,0,0)" stroke-linejoin="miter" stroke-linecap="square" stroke-miterlimit="3"/><path d=" M 152 740 L 218 740 L 218 830 L 152 830 L 152 740 Z " id="maps_H2C" fill="rgb(139,139,139)" vector-effect="non-scaling-stroke" stroke-width="2" stroke="rgb(0,0,0)" stroke-linejoin="miter" stroke-linecap="square" stroke-miterlimit="3"/><path d=" M 218 740 L 283 740 L 283 830 L 218 830 L 218 740 Z " id="maps_H2D" fill="rgb(139,139,139)" vector-effect="non-scaling-stroke" stroke-width="2" stroke="rgb(0,0,0)" stroke-linejoin="miter" stroke-linecap="square" stroke-miterlimit="3"/><path d=" M 283 740 L 347 740 L 347 830 L 283 830 L 283 740 Z " id="maps_H2E" fill="rgb(139,139,139)" vector-effect="non-scaling-stroke" stroke-width="2" stroke="rgb(0,0,0)" stroke-linejoin="miter" stroke-linecap="square" stroke-miterlimit="3"/><path d=" M 730 675 L 730 606 L 650 606 L 650 675 L 730 675 Z " id="maps_M2D" fill="rgb(139,139,139)" vector-effect="non-scaling-stroke" stroke-width="2" stroke="rgb(0,0,0)" stroke-linejoin="miter" stroke-linecap="square" stroke-miterlimit="3"/><path d=" M 650 544 L 650 472 L 730 472 L 730 544 L 650 544 Z " id="maps_M2B" fill="rgb(139,139,139)" vector-effect="non-scaling-stroke" stroke-width="2" stroke="rgb(0,0,0)" stroke-linejoin="miter" stroke-linecap="square" stroke-miterlimit="3"/><path d=" M 650 606 L 650 544 L 730 544 L 730 606 L 650 606 Z " id="maps_M2C" fill="rgb(139,139,139)" vector-effect="non-scaling-stroke" stroke-width="2" stroke="rgb(0,0,0)" stroke-linejoin="miter" stroke-linecap="square" stroke-miterlimit="3"/><path d=" M 650 472 L 650 407 L 730 407 L 730 472 L 650 472 Z " id="maps_M2A" fill="rgb(139,139,139)" vector-effect="non-scaling-stroke" stroke-width="2" stroke="rgb(0,0,0)" stroke-linejoin="miter" stroke-linecap="square" stroke-miterlimit="3"/><path d=" M 650 377 L 650 273 L 730 273 L 730 377 L 650 377 Z " id="maps_ScienceLab" fill="rgb(139,139,139)" vector-effect="non-scaling-stroke" stroke-width="2" stroke="rgb(0,0,0)" stroke-linejoin="miter" stroke-linecap="square" stroke-miterlimit="3"/><path d=" M 650 176 L 650 80 L 730 80 L 730 176 L 650 176 Z " id="maps_BiologyLab" fill="rgb(139,139,139)" vector-effect="non-scaling-stroke" stroke-width="2" stroke="rgb(0,0,0)" stroke-linejoin="miter" stroke-linecap="square" stroke-miterlimit="3"/><path d=" M 152 860 L 250.5 860 L 250.5 940 L 152 940 L 152 860 Z " id="maps_SRNo3" fill="rgb(139,139,139)" vector-effect="non-scaling-stroke" stroke-width="2" stroke="rgb(0,0,0)" stroke-linejoin="miter" stroke-linecap="square" stroke-miterlimit="3"/><path d=" M 250 860 L 318 860 L 318 940 L 250 940 L 250 860 Z " id="maps_SRNo4" fill="rgb(139,139,139)" vector-effect="non-scaling-stroke" stroke-width="2" stroke="rgb(0,0,0)" stroke-linejoin="miter" stroke-linecap="square" stroke-miterlimit="3"/></g><g style="isolation:isolate" id="blank"><path d=" M 704 740 L 704 752 L 730 752 L 730 740 L 704 740 Z " id="パス" fill="none" vector-effect="non-scaling-stroke" stroke-width="2" stroke="rgb(0,0,0)" stroke-linejoin="miter" stroke-linecap="square" stroke-miterlimit="3"/><path d=" M 380 807.5 L 380 785 L 380 740 L 417 740 L 417 830 L 380 830 L 380 807.5 Z " id="Broadcasting_Room" fill="none" vector-effect="non-scaling-stroke" stroke-width="2" stroke="rgb(0,0,0)" stroke-linejoin="miter" stroke-linecap="square" stroke-miterlimit="3"/><path d=" M 347 740 L 380 740 L 380 830 L 347 830 L 347 740 Z " id="Labo_English" fill="none" vector-effect="non-scaling-stroke" stroke-width="2" stroke="rgb(0,0,0)" stroke-linejoin="miter" stroke-linecap="square" stroke-miterlimit="3"/><path d=" M 750 311 L 750 347 L 790 347 L 790 311 L 750 311 Z " id="パス" fill="none" vector-effect="non-scaling-stroke" stroke-width="2" stroke="rgb(0,0,0)" stroke-linejoin="miter" stroke-linecap="square" stroke-miterlimit="3"/><path d=" M 750 275 L 750 311 L 790 311 L 790 275 L 750 275 Z " id="パス" fill="none" vector-effect="non-scaling-stroke" stroke-width="2" stroke="rgb(0,0,0)" stroke-linejoin="miter" stroke-linecap="square" stroke-miterlimit="3"/><path d=" M 750 177 L 750 275 L 790 275 L 790 177 L 750 177 Z " id="パス" fill="none" vector-effect="non-scaling-stroke" stroke-width="2" stroke="rgb(0,0,0)" stroke-linejoin="miter" stroke-linecap="square" stroke-miterlimit="3"/><path d=" M 750 110 L 750 176 L 790 176 L 790 110 L 750 110 Z " id="パス" fill="none" vector-effect="non-scaling-stroke" stroke-width="2" stroke="rgb(0,0,0)" stroke-linejoin="miter" stroke-linecap="square" stroke-miterlimit="3"/><path d=" M 750 347 L 750 377 L 790 377 L 790 347 L 750 347 Z " id="パス" fill="none" vector-effect="non-scaling-stroke" stroke-width="2" stroke="rgb(0,0,0)" stroke-linejoin="miter" stroke-linecap="square" stroke-miterlimit="3"/><path d=" M 750 740 L 750 675 L 790 675 L 790 740 L 750 740 Z " id="パス" fill="none" vector-effect="non-scaling-stroke" stroke-width="2" stroke="rgb(0,0,0)" stroke-linejoin="miter" stroke-linecap="square" stroke-miterlimit="3"/><path d=" M 750 675 L 750 606 L 790 606 L 790 675 L 750 675 Z " id="Counseling_Room" fill="none" vector-effect="non-scaling-stroke" stroke-width="2" stroke="rgb(0,0,0)" stroke-linejoin="miter" stroke-linecap="square" stroke-miterlimit="3"/><path d=" M 20 860 L 20 940 L 55 940 L 55 860 L 20 860 Z " id="StairE" fill="none" vector-effect="non-scaling-stroke" stroke-width="2" stroke="rgb(0,0,0)" stroke-linejoin="miter" stroke-linecap="square" stroke-miterlimit="3"/><path d=" M 91 860 L 91 940 L 55 940 L 55 860 L 91 860 Z " id="Audiovisual_Preparation_Room" fill="none" vector-effect="non-scaling-stroke" stroke-width="2" stroke="rgb(0,0,0)" stroke-linejoin="miter" stroke-linecap="square" stroke-miterlimit="3"/><path d=" M 650 820 L 660 820 L 660 740 L 600 740 L 600 766.667 L 600 820 L 650 820 Z " id="Student_Guidance_Office" fill="none" vector-effect="non-scaling-stroke" stroke-width="2" stroke="rgb(0,0,0)" stroke-linejoin="miter" stroke-linecap="square" stroke-miterlimit="3"/><path d=" M 650 225 L 650 176 L 730 176 L 730 225 L 650 225 Z " id="パス" fill="none" vector-effect="non-scaling-stroke" stroke-width="2" stroke="rgb(0,0,0)" stroke-linejoin="miter" stroke-linecap="square" stroke-miterlimit="3"/><path d=" M 703.5 407 L 687.375 407 L 650 407 L 650 377 L 730 377 L 730 407 L 703.5 407 Z " id="パス" fill="none" vector-effect="non-scaling-stroke" stroke-width="2" stroke="rgb(0,0,0)" stroke-linejoin="miter" stroke-linecap="square" stroke-miterlimit="3"/><path d=" M 750 110 L 750 80 L 760 80 L 760 110 L 750 110 Z " id="パス" fill="none" vector-effect="non-scaling-stroke" stroke-width="2" stroke="rgb(0,0,0)" stroke-linejoin="miter" stroke-linecap="square" stroke-miterlimit="3"/><path d=" M 91 860 L 121 860 L 121 940 L 91 940 L 91 860 Z " id="H1_StaffRoom" fill="none" vector-effect="non-scaling-stroke" stroke-width="2" stroke="rgb(0,0,0)" stroke-linejoin="miter" stroke-linecap="square" stroke-miterlimit="3"/><path d=" M 121 860 L 152 860 L 152 940 L 121 940 L 121 860 Z " id="H1_StaffRoom" fill="none" vector-effect="non-scaling-stroke" stroke-width="2" stroke="rgb(0,0,0)" stroke-linejoin="miter" stroke-linecap="square" stroke-miterlimit="3"/><path d=" M 600 900 L 660 900 L 660 940 L 600 940 L 600 900 Z " id="Interview_Room" fill="none" vector-effect="non-scaling-stroke" stroke-width="2" stroke="rgb(0,0,0)" stroke-linejoin="miter" stroke-linecap="square" stroke-miterlimit="3"/><path d=" M 710 940 L 660 940 L 660 860 L 660 940 L 710 940 L 710 860 L 710 940 Z " fill-rule="evenodd" id="StairC" fill="none" vector-effect="non-scaling-stroke" stroke-width="2" stroke="rgb(0,0,0)" stroke-linejoin="miter" stroke-linecap="square" stroke-miterlimit="3"/><path d=" M 650 740 L 717.5 740 L 730 740 L 730 675 L 650 675 L 650 740 Z " id="Catholic_Center" fill="none" vector-effect="non-scaling-stroke" stroke-width="2" stroke="rgb(0,0,0)" stroke-linejoin="miter" stroke-linecap="square" stroke-miterlimit="3"/><path d=" M 650 274 L 650 226 L 730 226 L 730 235.273 L 730 274 L 650 274 Z " id="パス" fill="none" vector-effect="non-scaling-stroke" stroke-width="2" stroke="rgb(0,0,0)" stroke-linejoin="miter" stroke-linecap="square" stroke-miterlimit="3"/></g><g style="isolation:isolate" id="special"><path d=" M 750 407 L 790 407 L 790 480 L 750 480 L 750 407 Z " id="パス" fill="rgb(255,0,0)" vector-effect="non-scaling-stroke" stroke-width="2" stroke="rgb(0,0,0)" stroke-linejoin="miter" stroke-linecap="square" stroke-miterlimit="3"/><path d=" M 350 860 L 350 940 L 318 940 L 318 860 L 350 860 Z " id="Toilet" fill="rgb(255,0,0)" vector-effect="non-scaling-stroke" stroke-width="2" stroke="rgb(0,0,0)" stroke-linejoin="miter" stroke-linecap="square" stroke-miterlimit="3"/><path d=" M 710 770 L 710 910 L 720 910 Q 726.281 920.453 750 920 C 773.719 919.547 790.109 899.844 790 850 C 789.891 800.156 782 782 770 770 C 769.744 769.744 712.75 770.25 710 770 Z " id="maps_Seido" fill="none" vector-effect="non-scaling-stroke" stroke-width="2" stroke="rgb(0,0,0)" stroke-linejoin="miter" stroke-linecap="square" stroke-miterlimit="3"/><path d=" M 750 520 L 750 480 L 790 480 L 790 520" id="パス" fill="none" vector-effect="non-scaling-stroke" stroke-width="2" stroke="rgb(0,0,0)" stroke-linejoin="miter" stroke-linecap="square" stroke-miterlimit="3"/><path d=" M 420 890 L 420 940 L 350 940 L 350 890" id="パス" fill="none" vector-effect="non-scaling-stroke" stroke-width="2" stroke="rgb(0,0,0)" stroke-linejoin="miter" stroke-linecap="square" stroke-miterlimit="3"/><path d=" M 417 750 L 417 850 L 600 850 L 600 750 L 417 750 Z " id="パス" fill="none" vector-effect="non-scaling-stroke" stroke-width="2" stroke="rgb(0,0,0)" stroke-linejoin="miter" stroke-linecap="square" stroke-miterlimit="3"/></g><g style="isolation:isolate" id="Decorations"><g style="isolation:isolate" id="stairB"><path d=" M 790 490.5 L 776.109 490.5 L 750 490.5 M 750 505 L 770 505 M 750 495 L 770 495 M 750 510 L 770 510 M 750 500 L 770 500 M 750 516 L 770 516 M 770 520 Q 770 502.318 770 491" fill-rule="evenodd" id="複合パス" fill="none" vector-effect="non-scaling-stroke" stroke-width="1" stroke="rgb(0,0,0)" stroke-linejoin="miter" stroke-linecap="square" stroke-miterlimit="3"/><path d=" M 790 495 L 770 495 L 770 500 L 790 500 L 790 505 L 770 505 L 770 510 L 790 510 L 790 516 L 770 516" id="パス" fill="none" vector-effect="non-scaling-stroke" stroke-width="1" stroke="rgb(0,0,0)" stroke-linejoin="miter" stroke-linecap="square" stroke-miterlimit="3"/></g><g style="isolation:isolate" id="stairC"><path d=" M 685 920 L 660 920 L 660 915 L 685 915 L 685 910 L 660 910 L 660 905 L 685 905 L 685 900 L 660 900 L 660 895 L 685 895 L 685 890 L 660 890 L 660 885 L 685 885 L 685 880 L 660 880" id="パス" fill="none" vector-effect="non-scaling-stroke" stroke-width="1" stroke="rgb(0,0,0)" stroke-linejoin="miter" stroke-linecap="square" stroke-miterlimit="3"/><path d=" M 685 924 L 685 880 L 685 880 L 710 880 L 710 885 L 685 885 L 685 890 L 710 890 L 710 895 L 685 895 L 685 900 L 710 900 L 710 905 L 685 905 L 685 910 L 710 910 L 710 915 L 685 915 L 685 920 L 710 920" id="パス" fill="none" vector-effect="non-scaling-stroke" stroke-width="1" stroke="rgb(0,0,0)" stroke-linejoin="miter" stroke-linecap="square" stroke-miterlimit="3"/></g><g style="isolation:isolate" id="stairD"><line x1="420" y1="890" x2="375" y2="890" id="パス" vector-effect="non-scaling-stroke" stroke-width="2" stroke="rgb(0,0,0)" stroke-linejoin="miter" stroke-linecap="square" stroke-miterlimit="3"/><line x1="400" y1="915" x2="366" y2="915" id="パス" vector-effect="non-scaling-stroke" stroke-width="2" stroke="rgb(0,0,0)" stroke-linejoin="miter" stroke-linecap="square" stroke-miterlimit="3"/><path d=" M 367 916 L 367 940 L 371 940 L 371 915 L 375 915 L 375 940 L 379 940 L 379 915 L 383 915 L 383 940 L 387 940 L 387 915 L 391 915 L 391 940 L 395 940 L 395 915 L 399 915 L 399 940 L 420 940 L 420 892 L 419 890 L 397 890 L 397 915 L 393 915 L 393 890 L 389 890 L 389 915 L 385 915 L 385 890" id="パス" fill="none" vector-effect="non-scaling-stroke" stroke-width="1" stroke="rgb(0,0,0)" stroke-linejoin="miter" stroke-linecap="square" stroke-miterlimit="3"/></g><path d=" M 330 892 C 330 889.24 332.24 887 335 887 C 337.76 887 340 889.24 340 892 C 340 894.76 337.76 897 335 897 C 332.24 897 330 894.76 330 892 Z  M 335 899 L 330 912 L 340 912 L 335 899 Z " fill-rule="evenodd" id="複合パス" fill="rgb(255,255,255)"/><path d=" M 765 435 C 765 432.24 767.24 430 770 430 C 772.76 430 775 432.24 775 435 C 775 437.76 772.76 440 770 440 C 767.24 440 765 437.76 765 435 Z  M 770 442 L 766 455 L 775 455 L 770 442 Z " fill-rule="evenodd" id="複合パス" fill="rgb(255,255,255)"/><g style="isolation:isolate" id="Text"><g clip-path="url(#_clipPath_1HIhf90b4JADkq6sQgFlgisSwjxFVNxf)"><text transform="matrix(1,0,0,1,35,781.712)" id="テキスト" style="font-family:'Yu Gothic UI';font-weight:700;font-size:20px;font-style:normal;fill:#ffffff;stroke:none;">んけ</text><text transform="matrix(1,0,0,1,35,808.314)" id="テキスト" style="font-family:'Yu Gothic UI';font-weight:700;font-size:20px;font-style:normal;fill:#ffffff;stroke:none;">うす</text></g><defs><clipPath id="_clipPath_1HIhf90b4JADkq6sQgFlgisSwjxFVNxf"><rect x="0" y="0" width="70" height="50" transform="matrix(1,0,0,1,35,760.13)"/></clipPath></defs><g clip-path="url(#_clipPath_49zq7tPh651yjFr0dSZah8x7ZQG1gBOE)"><text transform="matrix(1,0,0,1,285,760.252)" id="テキスト" style="font-family:'Yu Gothic UI';font-weight:700;font-size:15px;font-style:normal;fill:#ffffff;stroke:none;">ほしのこ</text><text transform="matrix(1,0,0,1,285,780.203)" id="テキスト" style="font-family:'Yu Gothic UI';font-weight:700;font-size:15px;font-style:normal;fill:#ffffff;stroke:none;">のこのこ</text><text transform="matrix(1,0,0,1,285,800.154)" id="テキスト" style="font-family:'Yu Gothic UI';font-weight:700;font-size:15px;font-style:normal;fill:#ffffff;stroke:none;">まと</text><text transform="matrix(1,0,0,1,285,820.105)" id="テキスト" style="font-family:'Yu Gothic UI';font-weight:700;font-size:15px;font-style:normal;fill:#ffffff;stroke:none;">ばんばん</text></g><defs><clipPath id="_clipPath_49zq7tPh651yjFr0dSZah8x7ZQG1gBOE"><rect x="0" y="0" width="114" height="90" transform="matrix(1,0,0,1,285,744.065)"/></clipPath></defs><g clip-path="url(#_clipPath_IjgftsOnlSBKSOJfXAR1sEqTapBrEHe6)"><text transform="matrix(1,0,0,1,252.5,896.582)" id="テキスト" style="font-family:'Yu Gothic UI';font-weight:700;font-size:20px;font-style:normal;fill:#ffffff;stroke:none;">けん玉</text><text transform="matrix(1,0,0,1,252.5,923.184)" id="テキスト" style="font-family:'Yu Gothic UI';font-weight:700;font-size:20px;font-style:normal;fill:#ffffff;stroke:none;">教室</text></g><defs><clipPath id="_clipPath_IjgftsOnlSBKSOJfXAR1sEqTapBrEHe6"><rect x="0" y="0" width="63" height="49.87" transform="matrix(1,0,0,1,252.5,875)"/></clipPath></defs><g clip-path="url(#_clipPath_wzqY4ulZyf4hlFTdTDkqXPp9o14eDWZi)"><text transform="matrix(1,0,0,1,170,896.582)" id="テキスト" style="font-family:'Yu Gothic UI';font-weight:700;font-size:20px;font-style:normal;fill:#ffffff;stroke:none;">鉄道研</text><text transform="matrix(1,0,0,1,170,923.184)" id="テキスト" style="font-family:'Yu Gothic UI';font-weight:700;font-size:20px;font-style:normal;fill:#ffffff;stroke:none;">究会</text></g><defs><clipPath id="_clipPath_wzqY4ulZyf4hlFTdTDkqXPp9o14eDWZi"><rect x="0" y="0" width="70" height="49.87" transform="matrix(1,0,0,1,170,875)"/></clipPath></defs><g clip-path="url(#_clipPath_9nhNgbNJnHquoWiKvJnFeCPHA6ooVRK2)"><text transform="matrix(1,0,0,1,220,783.712)" id="テキスト" style="font-family:'Yu Gothic UI';font-weight:700;font-size:20px;font-style:normal;fill:#ffffff;stroke:none;">電気</text><text transform="matrix(1,0,0,1,220,810.314)" id="テキスト" style="font-family:'Yu Gothic UI';font-weight:700;font-size:20px;font-style:normal;fill:#ffffff;stroke:none;">工学部</text></g><defs><clipPath id="_clipPath_9nhNgbNJnHquoWiKvJnFeCPHA6ooVRK2"><rect x="0" y="0" width="64" height="49.87" transform="matrix(1,0,0,1,220,762.13)"/></clipPath></defs><g clip-path="url(#_clipPath_FI60qkhHMmR8xWxnSyjhYWChnmHye5R0)"><text transform="matrix(1,0,0,1,156,781.582)" id="テキスト" style="font-family:'Yu Gothic UI';font-weight:700;font-size:20px;font-style:normal;fill:#ffffff;stroke:none;">AOPIΣ</text><text transform="matrix(1,0,0,1,156,808.184)" id="テキスト" style="font-family:'Yu Gothic UI';font-weight:700;font-size:20px;font-style:normal;fill:#ffffff;stroke:none;">TOΣ</text></g><defs><clipPath id="_clipPath_FI60qkhHMmR8xWxnSyjhYWChnmHye5R0"><rect x="0" y="0" width="70" height="69.87" transform="matrix(1,0,0,1,156,760)"/></clipPath></defs><g clip-path="url(#_clipPath_yb9LkZtbddfIe5g6ExRumI3nLgs9vvXw)"><text transform="matrix(1,0,0,1,91,781.712)" id="テキスト" style="font-family:'Yu Gothic UI';font-weight:700;font-size:20px;font-style:normal;fill:#ffffff;stroke:none;">社会科</text><text transform="matrix(1,0,0,1,91,808.314)" id="テキスト" style="font-family:'Yu Gothic UI';font-weight:700;font-size:20px;font-style:normal;fill:#ffffff;stroke:none;">展示</text></g><defs><clipPath id="_clipPath_yb9LkZtbddfIe5g6ExRumI3nLgs9vvXw"><rect x="0" y="0" width="67" height="79.805" transform="matrix(1,0,0,1,91,760.13)"/></clipPath></defs><g clip-path="url(#_clipPath_KPpO5dc2LIG7I5uPgvdfG26tmZ8dkseF)"><text transform="matrix(1,0,0,1,470,805.952)" id="テキスト" style="font-family:'Yu Gothic UI';font-weight:700;font-size:20px;font-style:normal;fill:#000000;stroke:none;">職員室</text></g><defs><clipPath id="_clipPath_KPpO5dc2LIG7I5uPgvdfG26tmZ8dkseF"><rect x="0" y="0" width="70" height="27.63" transform="matrix(1,0,0,1,470,784.37)"/></clipPath></defs><g clip-path="url(#_clipPath_sWx0nPJqETzmV5NNX4y6gmpLwazF2ski)"><text transform="matrix(1,0,0,1,654.5,638.379)" id="テキスト" style="font-family:'Yu Gothic UI';font-weight:700;font-size:20px;font-style:normal;fill:#ffffff;stroke:none;">Round </text><text transform="matrix(1,0,0,1,654.5,664.98)" id="テキスト" style="font-family:'Yu Gothic UI';font-weight:700;font-size:20px;font-style:normal;fill:#ffffff;stroke:none;">2</text></g><defs><clipPath id="_clipPath_sWx0nPJqETzmV5NNX4y6gmpLwazF2ski"><rect x="0" y="0" width="78" height="53.203" transform="matrix(1,0,0,1,654.5,616.797)"/></clipPath></defs><g clip-path="url(#_clipPath_hBw25zDb7w0eyocEBptW14vl9EIWS8r8)"><text transform="matrix(1,0,0,1,652,567.3)" id="テキスト" style="font-family:'Yu Gothic UI';font-weight:700;font-size:19px;font-style:normal;fill:#ffffff;stroke:none;">Hanter x</text><text transform="matrix(1,0,0,1,652,592.571)" id="テキスト" style="font-family:'Yu Gothic UI';font-weight:700;font-size:19px;font-style:normal;fill:#ffffff;stroke:none;">Hanter</text></g><defs><clipPath id="_clipPath_hBw25zDb7w0eyocEBptW14vl9EIWS8r8"><rect x="0" y="0" width="76" height="50.543" transform="matrix(1,0,0,1,652,546.797)"/></clipPath></defs><path d=" M 713.684 530.055 L 713.684 530.055 L 713.684 530.055 Q 713.661 529.258 713.661 527.914 L 713.661 527.914 L 713.661 527.914 Q 713.661 527.258 713.442 527.031 L 713.442 527.031 L 713.442 527.031 Q 713.216 526.781 712.638 526.68 L 712.638 526.68 L 712.708 526.25 L 712.708 526.25 Q 713.661 526.258 714.239 526.516 L 714.239 526.516 L 714.239 526.516 Q 714.755 526.734 714.755 527.078 L 714.755 527.078 L 714.755 527.078 Q 714.755 527.227 714.645 527.945 L 714.645 527.945 L 714.645 527.945 Q 714.552 528.445 714.528 529.914 L 714.528 529.914 L 714.528 529.914 Q 715.653 529.656 716.098 529.352 L 716.098 529.352 L 716.098 529.352 Q 716.38 529.172 716.677 529.172 L 716.677 529.172 L 716.677 529.172 Q 717.098 529.172 717.255 529.273 L 717.255 529.273 L 717.255 529.273 Q 717.411 529.375 717.411 529.617 L 717.411 529.617 L 717.411 529.617 Q 717.411 529.922 717.044 530.07 L 717.044 530.07 L 717.044 530.07 Q 716.184 530.43 714.528 530.711 L 714.528 530.711 L 714.528 530.711 Q 714.552 533.586 714.677 535.273 L 714.677 535.273 L 714.677 535.273 Q 715.778 535.656 717.044 536.313 L 717.044 536.313 L 717.044 536.313 Q 718.052 536.867 718.052 537.336 L 718.052 537.336 L 718.052 537.336 Q 718.052 537.883 717.638 537.883 L 717.638 537.883 L 717.638 537.883 Q 717.45 537.883 717.106 537.609 L 717.106 537.609 L 717.106 537.609 Q 715.817 536.586 714.708 536.117 L 714.708 536.117 L 714.708 536.117 Q 714.755 536.945 714.606 537.383 L 714.606 537.383 L 714.606 537.383 Q 714.466 537.773 714.098 538.07 L 714.098 538.07 L 714.098 538.07 Q 713.497 538.602 712.239 538.602 L 712.239 538.602 L 712.239 538.602 Q 711.231 538.602 710.442 538.125 L 710.442 538.125 L 710.442 538.125 Q 709.614 537.609 709.614 536.781 L 709.614 536.781 L 709.614 536.781 Q 709.614 535.719 710.716 535.227 L 710.716 535.227 L 710.716 535.227 Q 711.427 534.906 712.333 534.906 L 712.333 534.906 L 712.333 534.906 Q 713.036 534.906 713.809 535.078 L 713.809 535.078 L 713.716 530.805 L 713.716 530.805 Q 712.473 530.969 711.716 530.969 L 711.716 530.969 L 711.716 530.969 Q 710.528 530.969 710.036 530.664 L 710.036 530.664 L 710.036 530.664 Q 709.645 530.422 709.278 529.719 L 709.278 529.719 L 709.684 529.477 L 709.684 529.477 Q 710.028 529.969 710.419 530.117 L 710.419 530.117 L 710.419 530.117 Q 710.763 530.25 711.473 530.25 L 711.473 530.25 L 711.473 530.25 Q 712.442 530.25 713.684 530.055 Z  M 713.856 535.867 L 713.856 535.867 L 713.856 535.867 Q 712.841 535.594 712.067 535.594 L 712.067 535.594 L 712.067 535.594 Q 710.223 535.594 710.223 536.766 L 710.223 536.766 L 710.223 536.766 Q 710.223 537.375 711.013 537.656 L 711.013 537.656 L 711.013 537.656 Q 711.505 537.836 712.114 537.836 L 712.114 537.836 L 712.114 537.836 Q 713.145 537.836 713.528 537.336 L 713.528 537.336 L 713.528 537.336 Q 713.88 536.891 713.856 535.867 Z  M 707.63 533.656 L 707.63 533.656 L 708.036 533.836 L 708.036 533.836 Q 707.184 536.133 707.052 536.664 L 707.052 536.664 L 707.052 536.664 Q 706.973 537 706.973 537.484 L 706.973 537.484 L 706.973 537.484 Q 706.973 537.742 706.989 537.961 L 706.989 537.961 L 706.989 537.961 Q 707.028 538.344 707.028 538.461 L 707.028 538.461 L 707.028 538.461 Q 707.028 538.633 706.903 538.75 L 706.903 538.75 L 706.903 538.75 Q 706.802 538.844 706.692 538.844 L 706.692 538.844 L 706.692 538.844 Q 706.458 538.844 706.263 538.539 L 706.263 538.539 L 706.263 538.539 Q 705.505 537.156 705.505 534.492 L 705.505 534.492 L 705.505 534.492 Q 705.505 532.938 706.434 528.742 L 706.434 528.742 L 706.434 528.742 Q 706.544 528.047 706.544 527.805 L 706.544 527.805 L 706.544 527.805 Q 706.544 527.133 706.02 526.648 L 706.02 526.648 L 706.302 526.313 L 706.302 526.313 Q 707.661 527.078 707.661 528.07 L 707.661 528.07 L 707.661 528.07 Q 707.661 528.219 707.309 529.18 L 707.309 529.18 L 707.309 529.18 Q 706.255 532.094 706.255 534.648 L 706.255 534.648 L 706.255 534.648 Q 706.255 535.758 706.388 536.359 L 706.388 536.359 L 706.388 536.359 Q 706.536 536.039 707.028 534.961 L 707.028 534.961 L 707.028 534.961 Q 707.372 534.188 707.63 533.656 Z  M 707.071 513.578 L 707.071 513.578 L 704.227 513.578 L 704.048 513.172 L 710.227 513.172 L 710.227 510.023 L 710.227 510.023 Q 711.876 510.094 711.876 510.438 L 711.876 510.438 L 711.876 510.438 Q 711.876 510.633 711.173 510.898 L 711.173 510.898 L 711.173 513.172 L 715.54 513.172 L 716.454 511.984 L 716.454 511.984 Q 717.134 512.594 717.688 513.273 L 717.688 513.273 L 717.493 513.578 L 714.532 513.578 L 714.532 513.578 Q 713.477 517.289 711.602 519.563 L 711.602 519.563 L 711.602 519.563 Q 713.977 521.719 717.829 522.922 L 717.829 522.922 L 717.829 522.922 Q 717.329 523.375 717.048 523.898 L 717.048 523.898 L 717.048 523.898 Q 713.266 522.398 711.079 520.234 L 711.079 520.234 L 711.079 520.234 Q 708.22 523.094 703.954 524.172 L 703.954 524.172 L 703.735 523.805 L 703.735 523.805 Q 707.571 522.57 710.423 519.531 L 710.423 519.531 L 710.423 519.531 Q 708.415 517.258 707.071 513.578 Z  M 713.43 513.578 L 707.665 513.578 L 707.665 513.578 Q 708.977 516.742 710.962 518.922 L 710.962 518.922 L 710.962 518.922 Q 712.657 516.656 713.43 513.578 L 713.43 513.578 L 713.43 513.578 Z  M 716.438 502.531 L 712.563 502.531 L 712.563 507.078 L 715.782 507.078 L 716.579 505.906 L 716.579 505.906 Q 717.149 506.438 717.696 507.156 L 717.696 507.156 L 717.509 507.477 L 707.235 507.477 L 707.063 507.078 L 711.571 507.078 L 711.571 502.531 L 708.118 502.531 L 707.97 502.133 L 711.571 502.133 L 711.571 498.289 L 707.876 498.289 L 707.696 497.891 L 715.313 497.891 L 716.102 496.789 L 716.102 496.789 Q 716.759 497.422 717.157 497.969 L 717.157 497.969 L 716.977 498.289 L 712.563 498.289 L 712.563 502.133 L 714.868 502.133 L 715.618 501.094 L 715.618 501.094 Q 716.134 501.609 716.61 502.227 L 716.61 502.227 L 716.438 502.531 L 716.438 502.531 Z  M 703.22 497.969 L 703.415 497.703 L 703.415 497.703 Q 705.43 498.398 705.43 499.477 L 705.43 499.477 L 705.43 499.477 Q 705.43 500.086 704.915 500.086 L 704.915 500.086 L 704.915 500.086 Q 704.516 500.086 704.376 499.508 L 704.376 499.508 L 704.376 499.508 Q 704.204 498.719 703.22 497.969 L 703.22 497.969 L 703.22 497.969 Z  M 704.165 494.531 L 704.352 494.227 L 704.352 494.227 Q 706.501 494.898 706.501 495.953 L 706.501 495.953 L 706.501 495.953 Q 706.501 496.563 705.923 496.563 L 705.923 496.563 L 705.923 496.563 Q 705.641 496.563 705.524 496.211 L 705.524 496.211 L 705.524 496.211 Q 705.212 495.25 704.165 494.531 L 704.165 494.531 L 704.165 494.531 Z  M 710.016 494.32 L 710.259 494.023 L 710.259 494.023 Q 712.977 495.297 712.977 496.578 L 712.977 496.578 L 712.977 496.578 Q 712.977 497.203 712.352 497.203 L 712.352 497.203 L 712.352 497.203 Q 712.009 497.203 711.798 496.609 L 711.798 496.609 L 711.798 496.609 Q 711.391 495.461 710.016 494.32 L 710.016 494.32 L 710.016 494.32 Z  M 707.415 496.695 L 707.798 496.898 L 705.602 504 L 705.602 504 Q 705.313 504.867 705.313 505.25 L 705.313 505.25 L 705.313 505.25 Q 705.313 505.43 705.376 505.664 L 705.376 505.664 L 705.376 505.664 Q 705.618 506.656 705.618 507.359 L 705.618 507.359 L 705.618 507.359 Q 705.618 508.289 704.868 508.289 L 704.868 508.289 L 704.868 508.289 Q 704.368 508.289 704.368 507.766 L 704.368 507.766 L 704.368 507.766 Q 704.368 507.609 704.485 506.836 L 704.485 506.836 L 704.485 506.836 Q 704.548 506.344 704.548 505.828 L 704.548 505.828 L 704.548 505.828 Q 704.548 504.867 704.087 504.5 L 704.087 504.5 L 704.087 504.5 Q 703.845 504.328 703.313 504.211 L 703.313 504.211 L 703.313 503.797 L 703.313 503.797 Q 703.626 503.844 703.813 503.844 L 703.813 503.844 L 703.813 503.844 Q 704.516 503.844 704.805 503.25 L 704.805 503.25 L 704.805 503.25 Q 706.032 500.68 707.415 496.695 L 707.415 496.695 L 707.415 496.695 Z  M 708.524 483.695 L 708.22 483.328 L 708.22 483.328 Q 709.743 482.234 710.915 481.477 L 710.915 481.477 L 710.915 481.477 Q 710.196 481.57 709.587 481.57 L 709.587 481.57 L 709.587 481.57 Q 707.727 481.57 706.798 480.484 L 706.798 480.484 L 707.087 480.133 L 707.087 480.133 Q 708.024 480.773 709.243 480.773 L 709.243 480.773 L 709.243 480.773 Q 710.345 480.773 711.884 480.547 L 711.884 480.547 L 711.884 480.547 Q 712.727 480.438 712.97 480.438 L 712.97 480.438 L 712.97 480.438 Q 713.407 480.438 713.626 480.617 L 713.626 480.617 L 713.626 480.617 Q 713.884 480.813 713.884 481.141 L 713.884 481.141 L 713.884 481.141 Q 713.884 481.492 713.337 481.492 L 713.337 481.492 L 713.337 481.492 Q 712.36 481.492 711.774 481.75 L 711.774 481.75 L 711.774 481.75 Q 710.93 482.133 708.524 483.695 L 708.524 483.695 L 708.524 483.695 Z  M 705.391 487.25 L 705.852 487.125 L 705.852 487.125 Q 706.227 488.727 707.391 489.375 L 707.391 489.375 L 707.391 489.375 Q 708.391 489.922 710.415 489.922 L 710.415 489.922 L 710.415 489.922 Q 712.657 489.922 714.126 489.445 L 714.126 489.445 L 714.126 489.445 Q 714.438 489.367 714.626 489.367 L 714.626 489.367 L 714.626 489.367 Q 715.118 489.367 715.329 489.609 L 715.329 489.609 L 715.329 489.609 Q 715.454 489.773 715.454 489.961 L 715.454 489.961 L 715.454 489.961 Q 715.454 490.367 714.977 490.484 L 714.977 490.484 L 714.977 490.484 Q 713.477 490.883 710.798 490.883 L 710.798 490.883 L 710.798 490.883 Q 708.11 490.883 706.813 489.969 L 706.813 489.969 L 706.813 489.969 Q 705.587 489.094 705.391 487.25 L 705.391 487.25 L 705.391 487.25 Z  M 714.016 479.313 L 714.259 478.992 L 714.259 478.992 Q 715.29 479.352 715.876 479.898 L 715.876 479.898 L 715.876 479.898 Q 716.384 480.359 716.384 480.82 L 716.384 480.82 L 716.384 480.82 Q 716.384 481.383 715.907 481.383 L 715.907 481.383 L 715.907 481.383 Q 715.571 481.383 715.376 480.883 L 715.376 480.883 L 715.376 480.883 Q 715.001 479.984 714.016 479.313 L 714.016 479.313 L 714.016 479.313 Z  M 715.485 478.211 L 715.727 477.891 L 715.727 477.891 Q 716.743 478.195 717.376 478.758 L 717.376 478.758 L 717.376 478.758 Q 717.907 479.234 717.907 479.68 L 717.907 479.68 L 717.907 479.68 Q 717.907 480.242 717.446 480.242 L 717.446 480.242 L 717.446 480.242 Q 717.134 480.242 716.899 479.719 L 716.899 479.719 L 716.899 479.719 Q 716.54 478.93 715.485 478.211 L 715.485 478.211 L 715.485 478.211 Z  M 685.91 496.832 L 686.129 496.941 L 686.645 496.941 L 686.676 496.832 L 686.676 496.832 Q 687.051 495.621 687.285 493.934 L 687.285 493.934 L 687.285 493.934 Q 688.809 494.246 688.809 494.574 L 688.809 494.574 L 688.809 494.574 Q 688.809 494.777 688.168 494.895 L 688.168 494.895 L 688.168 494.895 Q 687.738 495.863 687.105 496.941 L 687.105 496.941 L 688.793 496.941 L 689.434 496.09 L 689.434 496.09 Q 690.324 496.918 690.324 497.137 L 690.324 497.137 L 690.324 497.137 Q 690.324 497.199 690.246 497.277 L 690.246 497.277 L 689.848 497.566 L 689.848 506.668 L 688.934 506.668 L 688.934 505.441 L 685.988 505.441 L 685.988 507.09 L 685.074 507.09 L 685.074 496.41 L 685.074 496.41 Q 685.316 496.52 685.91 496.832 L 685.91 496.832 L 685.91 496.832 Z  M 688.934 505.035 L 688.934 501.23 L 685.988 501.23 L 685.988 505.035 L 688.934 505.035 L 688.934 505.035 Z  M 685.988 500.832 L 688.934 500.832 L 688.934 497.34 L 685.988 497.34 L 685.988 500.832 L 685.988 500.832 Z  M 692.895 497.137 L 692.895 497.137 L 697.184 497.137 L 697.809 496.34 L 697.809 496.34 Q 698.801 497.207 698.801 497.441 L 698.801 497.441 L 698.801 497.441 Q 698.801 497.535 698.691 497.598 L 698.691 497.598 L 698.246 497.871 L 698.246 497.871 Q 698.215 504.605 697.488 506.863 L 697.488 506.863 L 697.488 506.863 Q 697.035 508.27 695.488 508.27 L 695.488 508.27 L 695.488 508.27 Q 695.488 507.848 695.059 507.629 L 695.059 507.629 L 695.059 507.629 Q 694.551 507.402 692.98 507.168 L 692.98 507.168 L 692.98 506.73 L 692.98 506.73 Q 694.684 506.926 695.52 506.926 L 695.52 506.926 L 695.52 506.926 Q 696.363 506.926 696.629 506.207 L 696.629 506.207 L 696.629 506.207 Q 697.277 504.355 697.301 497.535 L 697.301 497.535 L 692.754 497.535 L 692.754 497.535 Q 691.863 499.973 690.449 501.746 L 690.449 501.746 L 690.113 501.52 L 690.113 501.52 Q 691.965 498.332 692.559 493.902 L 692.559 493.902 L 692.559 493.902 Q 694.191 494.121 694.191 494.512 L 694.191 494.512 L 694.191 494.512 Q 694.191 494.73 693.504 494.848 L 693.504 494.848 L 693.504 494.848 Q 693.254 496.074 692.895 497.137 Z  M 692.051 500.191 L 692.309 499.902 L 692.309 499.902 Q 694.848 501.605 694.848 502.988 L 694.848 502.988 L 694.848 502.988 Q 694.848 503.645 694.254 503.645 L 694.254 503.645 L 694.254 503.645 Q 693.848 503.645 693.73 503.004 L 693.73 503.004 L 693.73 503.004 Q 693.441 501.652 692.051 500.191 L 692.051 500.191 L 692.051 500.191 Z  M 686.066 480.039 L 686.066 480.039 L 686.754 480.039 L 686.754 480.039 Q 686.949 479.055 686.996 477.961 L 686.996 477.961 L 686.996 477.961 Q 688.582 478.125 688.582 478.422 L 688.582 478.422 L 688.582 478.422 Q 688.582 478.594 688.004 478.758 L 688.004 478.758 L 688.004 478.758 Q 687.66 479.469 687.27 480.039 L 687.27 480.039 L 688.871 480.039 L 689.449 479.273 L 689.449 479.273 Q 690.379 480.008 690.379 480.234 L 690.379 480.234 L 690.379 480.234 Q 690.379 480.336 690.262 480.406 L 690.262 480.406 L 689.863 480.68 L 689.863 485.898 L 689.863 485.898 Q 690.191 485.391 690.535 484.68 L 690.535 484.68 L 690.535 484.68 Q 691.48 485.289 691.48 485.594 L 691.48 485.594 L 691.48 485.594 Q 691.48 485.734 691.223 485.734 L 691.223 485.734 L 691.223 485.734 Q 691.207 485.734 690.949 485.703 L 690.949 485.703 L 690.949 485.703 Q 690.348 486.539 689.863 487.047 L 689.863 487.047 L 689.863 491.258 L 689.863 491.258 Q 689.863 492.453 688.371 492.453 L 688.371 492.453 L 688.371 492.453 Q 688.348 491.984 687.895 491.813 L 687.895 491.813 L 687.895 491.813 Q 687.48 491.664 686.723 491.563 L 686.723 491.563 L 686.723 491.141 L 686.723 491.141 Q 687.551 491.258 688.496 491.258 L 688.496 491.258 L 688.496 491.258 Q 688.996 491.258 688.996 490.82 L 688.996 490.82 L 688.996 487.867 L 688.887 487.977 L 688.887 487.977 Q 686.754 490.055 683.902 491.477 L 683.902 491.477 L 683.684 491.141 L 683.684 491.141 Q 687.066 489.055 688.996 486.695 L 688.996 486.695 L 688.832 486.742 L 688.832 486.742 Q 686.863 487.313 684.738 487.656 L 684.738 487.656 L 684.738 487.656 Q 684.613 488.219 684.434 488.219 L 684.434 488.219 L 684.434 488.219 Q 684.121 488.219 683.902 486.844 L 683.902 486.844 L 683.902 486.844 Q 684.035 486.836 684.402 486.805 L 684.402 486.805 L 684.402 486.805 Q 684.691 486.781 684.863 486.773 L 684.863 486.773 L 685.121 486.742 L 685.121 479.578 L 685.121 479.578 Q 685.324 479.664 686.066 480.039 Z  M 688.996 486.266 L 688.996 484.617 L 685.988 484.617 L 685.988 486.664 L 685.988 486.664 Q 687.684 486.477 688.996 486.266 L 688.996 486.266 L 688.996 486.266 Z  M 685.988 484.219 L 688.996 484.219 L 688.996 482.453 L 685.988 482.453 L 685.988 484.219 L 685.988 484.219 Z  M 685.988 482.055 L 688.996 482.055 L 688.996 480.438 L 685.988 480.438 L 685.988 482.055 L 685.988 482.055 Z  M 698.262 482.773 L 696.051 482.773 L 696.051 491.031 L 696.051 491.031 Q 696.051 492.375 694.434 492.375 L 694.434 492.375 L 694.434 492.375 Q 694.41 491.914 693.926 491.719 L 693.926 491.719 L 693.926 491.719 Q 693.512 491.547 692.324 491.383 L 692.324 491.383 L 692.324 490.953 L 692.324 490.953 Q 693.59 491.094 694.629 491.094 L 694.629 491.094 L 694.629 491.094 Q 695.121 491.094 695.121 490.617 L 695.121 490.617 L 695.121 482.773 L 690.676 482.773 L 690.527 482.375 L 695.074 482.375 L 695.074 478.359 L 695.074 478.359 Q 696.691 478.43 696.691 478.789 L 696.691 478.789 L 696.691 478.789 Q 696.691 479.008 696.004 479.273 L 696.004 479.273 L 696.004 482.375 L 696.816 482.375 L 697.504 481.367 L 697.504 481.367 Q 697.965 481.828 698.418 482.453 L 698.418 482.453 L 698.262 482.773 L 698.262 482.773 Z  M 691.621 484.086 L 691.926 483.844 L 691.926 483.844 Q 693.809 485.664 693.809 487.289 L 693.809 487.289 L 693.809 487.289 Q 693.809 488.039 693.215 488.039 L 693.215 488.039 L 693.215 488.039 Q 692.785 488.039 692.738 487.305 L 692.738 487.305 L 692.738 487.305 Q 692.645 485.727 691.621 484.086 L 691.621 484.086 L 691.621 484.086 Z  M 669.816 514.121 L 669.816 514.121 L 669.816 514.121 Q 670.441 512.34 670.441 511.574 L 670.441 511.574 L 670.441 511.574 Q 670.441 511.168 670.206 510.965 L 670.206 510.965 L 670.206 510.965 Q 670.003 510.785 669.534 510.66 L 669.534 510.66 L 669.613 510.23 L 669.613 510.23 Q 670.495 510.23 671.12 510.566 L 671.12 510.566 L 671.12 510.566 Q 671.628 510.84 671.628 511.145 L 671.628 511.145 L 671.628 511.145 Q 671.628 511.418 671.339 512.16 L 671.339 512.16 L 671.339 512.16 Q 670.878 513.348 670.652 513.988 L 670.652 513.988 L 670.652 513.988 Q 671.394 513.848 672.136 513.848 L 672.136 513.848 L 672.136 513.848 Q 673.05 513.848 673.527 514.598 L 673.527 514.598 L 673.527 514.598 Q 673.98 515.293 673.98 516.551 L 673.98 516.551 L 673.98 516.551 Q 673.98 520.488 672.589 522.176 L 672.589 522.176 L 672.589 522.176 Q 672.019 522.895 671.48 522.895 L 671.48 522.895 L 671.48 522.895 Q 671.214 522.895 671.113 522.496 L 671.113 522.496 L 671.113 522.496 Q 671.003 521.957 669.55 520.652 L 669.55 520.652 L 669.753 520.301 L 669.753 520.301 Q 670.995 521.16 671.417 521.324 L 671.417 521.324 L 671.417 521.324 Q 671.605 521.387 671.769 521.387 L 671.769 521.387 L 671.769 521.387 Q 672.042 521.387 672.3 520.824 L 672.3 520.824 L 672.3 520.824 Q 673.128 518.902 673.128 516.27 L 673.128 516.27 L 673.128 516.27 Q 673.128 515.012 672.706 514.645 L 672.706 514.645 L 672.706 514.645 Q 672.48 514.441 671.948 514.441 L 671.948 514.441 L 671.948 514.441 Q 671.292 514.441 670.425 514.66 L 670.425 514.66 L 670.425 514.66 Q 668.894 518.762 667.886 521.082 L 667.886 521.082 L 667.886 521.082 Q 667.527 521.902 667.284 522.215 L 667.284 522.215 L 667.284 522.215 Q 667.034 522.535 666.761 522.535 L 666.761 522.535 L 666.761 522.535 Q 666.613 522.535 666.488 522.371 L 666.488 522.371 L 666.488 522.371 Q 666.347 522.191 666.347 521.895 L 666.347 521.895 L 666.347 521.895 Q 666.347 521.699 666.55 521.348 L 666.55 521.348 L 666.55 521.348 Q 666.573 521.301 666.745 521.012 L 666.745 521.012 L 666.745 521.012 Q 666.839 520.848 666.909 520.73 L 666.909 520.73 L 666.909 520.73 Q 667.863 519.027 669.581 514.84 L 669.581 514.84 L 669.581 514.84 Q 669.011 515.02 667.323 515.652 L 667.323 515.652 L 667.323 515.652 Q 666.972 515.832 666.73 515.832 L 666.73 515.832 L 666.73 515.832 Q 666.433 515.832 666.214 515.355 L 666.214 515.355 L 666.214 515.355 Q 666.003 514.887 665.995 514.184 L 665.995 514.184 L 666.363 514.059 L 666.363 514.059 Q 666.495 514.746 666.956 514.746 L 666.956 514.746 L 666.956 514.746 Q 667.456 514.746 669.816 514.121 Z  M 675.675 517.691 L 675.659 517.246 L 675.659 517.246 Q 676.909 517.191 677.769 517.098 L 677.769 517.098 L 677.769 517.098 Q 678.011 517.074 678.011 516.809 L 678.011 516.809 L 678.011 516.809 Q 678.011 516.09 677.323 515.082 L 677.323 515.082 L 677.323 515.082 Q 676.722 514.215 675.48 513.449 L 675.48 513.449 L 675.691 513.066 L 675.691 513.066 Q 676.613 513.457 677.152 513.863 L 677.152 513.863 L 677.152 513.863 Q 677.644 514.23 678.089 514.793 L 678.089 514.793 L 678.089 514.793 Q 679.292 516.277 679.292 517.723 L 679.292 517.723 L 679.292 517.723 Q 679.292 518.59 678.816 518.59 L 678.816 518.59 L 678.816 518.59 Q 678.542 518.59 678.347 518.285 L 678.347 518.285 L 678.347 518.285 Q 678.073 517.879 677.214 517.785 L 677.214 517.785 L 677.214 517.785 Q 676.511 517.707 675.675 517.691 L 675.675 517.691 L 675.675 517.691 Z  M 672.999 497.008 L 672.999 497.008 L 672.999 497.008 Q 673.015 496.719 673.015 496 L 673.015 496 L 673.015 496 Q 673.03 495.266 672.96 494.984 L 672.96 494.984 L 672.96 494.984 Q 672.913 494.758 672.757 494.594 L 672.757 494.594 L 672.757 494.594 Q 672.585 494.445 671.976 494.383 L 671.976 494.383 L 671.991 493.938 L 671.991 493.938 Q 672.554 493.891 672.874 493.891 L 672.874 493.891 L 672.874 493.891 Q 674.085 493.891 674.085 494.594 L 674.085 494.594 L 674.085 494.594 Q 674.085 494.68 674.054 494.875 L 674.054 494.875 L 674.054 494.875 Q 674.03 495.078 674.023 495.156 L 674.023 495.156 L 674.023 495.156 Q 673.929 496.07 673.882 496.914 L 673.882 496.914 L 673.882 496.914 Q 677.866 496.563 678.265 496.563 L 678.265 496.563 L 678.265 496.563 Q 679.499 496.563 679.499 497.234 L 679.499 497.234 L 679.499 497.234 Q 679.499 497.68 679.07 497.68 L 679.07 497.68 L 679.07 497.68 Q 679.015 497.68 678.835 497.648 L 678.835 497.648 L 678.835 497.648 Q 678.663 497.625 678.538 497.617 L 678.538 497.617 L 678.538 497.617 Q 676.71 497.477 675.82 497.477 L 675.82 497.477 L 675.82 497.477 Q 674.593 497.477 673.835 497.539 L 673.835 497.539 L 673.835 497.539 Q 673.82 497.867 673.796 498.883 L 673.796 498.883 L 673.796 498.883 Q 673.78 499.688 673.749 500.32 L 673.749 500.32 L 673.749 500.32 Q 674.296 501.344 674.296 502.75 L 674.296 502.75 L 674.296 502.75 Q 674.296 506.391 669.702 507.891 L 669.702 507.891 L 669.484 507.461 L 669.484 507.461 Q 671.757 506.406 672.655 505.156 L 672.655 505.156 L 672.655 505.156 Q 673.32 504.227 673.413 502.898 L 673.413 502.898 L 673.413 502.898 Q 673.054 504.078 671.702 504.078 L 671.702 504.078 L 671.702 504.078 Q 670.882 504.078 670.343 503.375 L 670.343 503.375 L 670.343 503.375 Q 669.851 502.75 669.851 501.844 L 669.851 501.844 L 669.851 501.844 Q 669.851 500.734 670.577 500.063 L 670.577 500.063 L 670.577 500.063 Q 671.179 499.492 672.023 499.492 L 672.023 499.492 L 672.023 499.492 Q 672.491 499.492 672.999 499.727 L 672.999 499.727 L 672.999 497.586 L 672.999 497.586 Q 670.671 497.813 667.734 498.484 L 667.734 498.484 L 667.734 498.484 Q 667.312 498.563 667.148 498.563 L 667.148 498.563 L 667.148 498.563 Q 666.773 498.563 666.429 498.031 L 666.429 498.031 L 666.429 498.031 Q 666.124 497.578 665.96 496.883 L 665.96 496.883 L 666.343 496.688 L 666.343 496.688 Q 666.859 497.523 667.484 497.523 L 667.484 497.523 L 667.484 497.523 Q 667.71 497.523 668.343 497.461 L 668.343 497.461 L 668.343 497.461 Q 669.14 497.383 669.366 497.359 L 669.366 497.359 L 669.366 497.359 Q 669.968 497.313 671.14 497.195 L 671.14 497.195 L 671.14 497.195 Q 672.327 497.07 672.999 497.008 Z  M 673.093 501.664 L 673.093 501.664 L 673.093 501.664 Q 673.093 500.82 672.687 500.375 L 672.687 500.375 L 672.687 500.375 Q 672.39 500.039 671.991 500.039 L 671.991 500.039 L 671.991 500.039 Q 671.32 500.039 670.945 500.594 L 670.945 500.594 L 670.945 500.594 Q 670.632 501.07 670.632 501.828 L 670.632 501.828 L 670.632 501.828 Q 670.632 502.578 671.023 503.023 L 671.023 503.023 L 671.023 503.023 Q 671.366 503.406 671.874 503.406 L 671.874 503.406 L 671.874 503.406 Q 672.452 503.406 672.796 502.859 L 672.796 502.859 L 672.796 502.859 Q 673.093 502.383 673.093 501.664 Z  M 665.593 480.094 L 665.991 479.875 L 665.991 479.875 Q 666.39 480.609 667.015 480.609 L 667.015 480.609 L 667.015 480.609 Q 667.109 480.609 672.405 479.555 L 672.405 479.555 L 672.405 479.555 Q 676.405 478.766 676.663 478.766 L 676.663 478.766 L 676.663 478.766 Q 677.202 478.766 677.64 479.039 L 677.64 479.039 L 677.64 479.039 Q 677.945 479.242 677.945 479.523 L 677.945 479.523 L 677.945 479.523 Q 677.945 479.906 677.398 479.906 L 677.398 479.906 L 676.616 479.883 L 676.616 479.883 Q 676.054 479.883 675.624 479.93 L 675.624 479.93 L 675.624 479.93 Q 674.07 480.102 673.015 480.984 L 673.015 480.984 L 673.015 480.984 Q 670.984 482.781 670.984 485.453 L 670.984 485.453 L 670.984 485.453 Q 670.984 487.125 672.038 488.063 L 672.038 488.063 L 672.038 488.063 Q 672.804 488.781 674.218 488.781 L 674.218 488.781 L 674.218 488.781 Q 674.437 488.781 675.046 488.75 L 675.046 488.75 L 675.046 488.75 Q 675.445 488.719 675.562 488.719 L 675.562 488.719 L 675.562 488.719 Q 676.109 488.719 676.39 488.906 L 676.39 488.906 L 676.39 488.906 Q 676.616 489.063 676.616 489.438 L 676.616 489.438 L 676.616 489.438 Q 676.616 489.883 674.843 489.883 L 674.843 489.883 L 674.843 489.883 Q 672.468 489.883 671.241 488.609 L 671.241 488.609 L 671.241 488.609 Q 670.155 487.484 670.155 485.531 L 670.155 485.531 L 670.155 485.531 Q 670.155 482.016 673.499 480 L 673.499 480 L 673.484 479.953 L 673.484 479.953 Q 669.921 480.781 667.562 481.57 L 667.562 481.57 L 667.562 481.57 Q 667.054 481.742 666.843 481.742 L 666.843 481.742 L 666.843 481.742 Q 666.484 481.742 666.101 481.25 L 666.101 481.25 L 666.101 481.25 Q 665.726 480.773 665.593 480.094 L 665.593 480.094 L 665.593 480.094 Z  M 675.116 482.477 L 675.351 482.156 L 675.351 482.156 Q 676.39 482.516 676.976 483.055 L 676.976 483.055 L 676.976 483.055 Q 677.484 483.523 677.484 483.977 L 677.484 483.977 L 677.484 483.977 Q 677.484 484.539 676.999 484.539 L 676.999 484.539 L 676.999 484.539 Q 676.671 484.539 676.476 484.039 L 676.476 484.039 L 676.476 484.039 Q 676.101 483.141 675.116 482.477 L 675.116 482.477 L 675.116 482.477 Z  M 676.585 481.375 L 676.827 481.055 L 676.827 481.055 Q 677.843 481.359 678.468 481.922 L 678.468 481.922 L 678.468 481.922 Q 678.999 482.398 678.999 482.844 L 678.999 482.844 L 678.999 482.844 Q 678.999 483.406 678.538 483.406 L 678.538 483.406 L 678.538 483.406 Q 678.226 483.406 677.991 482.875 L 677.991 482.875 L 677.991 482.875 Q 677.632 482.086 676.585 481.375 L 676.585 481.375 L 676.585 481.375 Z " id="複合パス" fill="rgb(255,255,255)"/><g clip-path="url(#_clipPath_gvhWrl4p5IkXbGiaQCwx013BRbf5kDgn)"><text transform="matrix(1,0,0,1,652,447.294)" id="テキスト" style="font-family:'Yu Gothic UI';font-weight:700;font-size:18px;font-style:normal;fill:#ffffff;stroke:none;">Round-A</text></g><defs><clipPath id="_clipPath_gvhWrl4p5IkXbGiaQCwx013BRbf5kDgn"><rect x="0" y="0" width="76" height="23.941" transform="matrix(1,0,0,1,652,427.87)"/></clipPath></defs><g clip-path="url(#_clipPath_YCBd8R42hrC8HE7xi78iIY6vgX9dJwD9)"><text transform="matrix(1,0,0,1,652.5,331.424)" id="テキスト" style="font-family:'Yu Gothic UI';font-weight:700;font-size:18px;font-style:normal;fill:#ffffff;stroke:none;">化学の友</text></g><defs><clipPath id="_clipPath_YCBd8R42hrC8HE7xi78iIY6vgX9dJwD9"><rect x="0" y="0" width="71" height="23.941" transform="matrix(1,0,0,1,652.5,312)"/></clipPath></defs><g clip-path="url(#_clipPath_WszQcmHQVwz1qdjPmUnVS9ZUK1FLqDAp)"><text transform="matrix(1,0,0,1,667,120.582)" id="テキスト" style="font-family:'Yu Gothic UI';font-weight:700;font-size:20px;font-style:normal;fill:#ffffff;stroke:none;">解体</text><text transform="matrix(1,0,0,1,667,147.184)" id="テキスト" style="font-family:'Yu Gothic UI';font-weight:700;font-size:20px;font-style:normal;fill:#ffffff;stroke:none;">新書</text></g><defs><clipPath id="_clipPath_WszQcmHQVwz1qdjPmUnVS9ZUK1FLqDAp"><rect x="0" y="0" width="88" height="53.203" transform="matrix(1,0,0,1,667,99)"/></clipPath></defs></g></g><path d=" M 669.925 537.517 C 669.731 537.73 669.456 537.945 669.297 537.995 Q 669.031 538.08 668.873 537.912 L 669.81 536.972 L 669.81 536.972 L 669.81 536.972 C 670.003 536.918 670.144 536.914 670.149 537.141 C 670.151 537.232 670.057 537.374 669.925 537.517 L 669.925 537.517 Z  M 667.942 534.278 L 667.942 534.278 C 668.074 534.145 668.601 534.459 669.119 534.978 L 669.119 534.978 L 669.119 534.978 C 669.636 535.496 669.951 536.023 669.822 536.153 L 669.822 536.153 L 669.822 536.153 C 669.693 536.282 669.168 535.967 668.65 535.448 L 668.65 535.448 L 668.65 535.448 C 668.133 534.929 667.815 534.405 667.942 534.278 L 667.942 534.278 L 667.942 534.278 L 667.942 534.278 Z  M 669.736 536.548 C 669.794 536.542 669.85 536.54 669.902 536.542 C 670.089 536.551 670.227 536.63 670.282 536.891 C 670.317 537.061 670.149 537.309 669.925 537.517 C 669.71 537.722 669.443 537.889 669.262 537.914 Q 668.894 537.965 668.614 537.673 L 669.736 536.548 L 669.736 536.548 Z  M 669.902 536.542 L 670.056 536.388 L 670.056 536.388 C 670.315 536.128 670 535.391 669.353 534.743 L 669.353 534.743 L 669.353 534.743 C 668.706 534.094 667.971 533.778 667.713 534.038 L 667.713 534.038 L 666.658 535.095 C 666.331 535.424 666.169 535.856 666.173 536.287 L 666.072 536.388 L 666.072 536.388 C 665.878 536.582 666.088 537.109 666.541 537.563 L 666.541 537.563 L 666.541 537.563 C 666.994 538.017 667.519 538.227 667.713 538.033 L 667.713 538.033 L 667.814 537.932 L 667.814 537.932 L 667.814 537.932 C 668.243 537.936 668.674 537.774 669.002 537.445 L 669.902 536.542 L 669.902 536.542 Z  M 672.17 531.762 C 673.525 531.235 674.169 531.041 675.495 529.722 C 676.821 528.402 675.588 526.574 675.06 526.683 C 674.512 526.797 675.226 527.831 674.495 528.484 C 674.049 528.883 673.496 529.15 673.056 528.911 C 672.346 528.526 671.539 526.741 673.289 526.2 C 674.726 525.757 676.075 526.048 676.924 527.089 C 677.692 528.029 678.395 529.742 677.742 530.906 C 677.09 532.069 676.334 532.515 674.594 532.567 C 672.792 532.621 672.543 532.329 670.948 533.232 C 670.138 533.691 669.863 534.402 669.623 534.229 C 669.324 534.014 669.828 533.276 670.632 532.588 C 670.948 532.318 671.44 532.047 672.17 531.762 Z " fill-rule="evenodd" id="複合シェイプ" fill="rgb(255,255,255)" vector-effect="non-scaling-stroke" stroke-width="0.125" stroke="rgb(255,255,255)" stroke-linejoin="miter" stroke-linecap="square" stroke-miterlimit="3"/><path d=" M 685.687 476.056 C 685.975 475.399 685.729 474.928 685.971 473.942 C 686.066 473.403 686.185 473 686.444 473 C 686.623 473 686.829 473.016 686.898 473.711 C 686.983 474.559 686.81 475.072 686.671 475.594 C 686.533 476.114 686.927 476.19 687.05 476.056 C 687.31 475.674 687.523 475.368 687.58 475.275 C 687.954 474.666 688.527 474.094 688.943 473.782 C 689.325 473.495 689.709 473.535 689.776 473.782 C 689.848 474.048 689.58 474.542 689.435 474.724 C 688.976 475.299 687.92 476.087 687.92 476.696 C 687.92 477.314 687.696 478.023 687.958 478.189 C 688.33 478.423 688.416 478.12 688.716 478.189 C 689.198 478.3 689.302 478.695 689.851 478.757 C 690.337 478.812 690.335 478.465 690.76 478.757 C 690.902 478.855 691.044 479.184 690.987 479.397 C 690.932 479.603 690.417 479.674 690.381 479.753 C 690.334 479.926 690.845 480.246 690.836 480.677 C 690.833 480.78 690.652 481.124 690.505 481.121 C 690.225 481.134 689.832 480.534 688.64 480.463 C 687.785 480.412 686.96 480.426 686.293 480.606 C 685.878 480.717 684.48 481.463 684.248 481.245 C 683.947 480.963 684.886 479.888 685.062 479.681 C 685.596 479.055 684.717 478.874 684.381 478.242 C 684.037 477.596 684.284 476.822 684.702 476.43 C 684.906 476.239 685.389 475.999 685.687 476.056 Z " id="パス" fill="rgb(255,255,255)" vector-effect="non-scaling-stroke" stroke-width="0.063" stroke="rgb(255,255,255)" stroke-linejoin="miter" stroke-linecap="square" stroke-miterlimit="3"/></g></svg>