<?xml version="1.0" encoding="UTF-8" standalone="no"?><!-- Generator: Gravit.io --><svg xmlns="http://www.w3.org/2000/svg" xmlns:xlink="http://www.w3.org/1999/xlink" style="isolation:isolate" viewBox="0 0 800 1000" width="800pt" height="1000pt"><defs><clipPath id="_clipPath_fG00tW320ntAIxcrBHFrdERVGAAmZtUJ"><rect width="800" height="1000"/></clipPath></defs><g clip-path="url(#_clipPath_fG00tW320ntAIxcrBHFrdERVGAAmZtUJ)"><g style="isolation:isolate" id="outer"><path d=" M 20 740 L 20 940 L 420 940 L 420 900 L 600 900 L 600 940 L 710 940 L 710 910 L 720 910" id="パス" fill="none" vector-effect="non-scaling-stroke" stroke-width="2" stroke="rgb(0,0,0)" stroke-linejoin="miter" stroke-linecap="square" stroke-miterlimit="3"/><path d=" M 720 910 C 725 918.5 740.125 920.375 750 920 C 780.25 919.75 790.172 890.297 790 840 C 790 810.125 784.667 781.667 770 770 L 770 740 L 790 740 L 790 110 L 760 110 L 760 80 L 650 80 L 650 740 C 638.624 740 621.999 740 600.125 740 C 600.094 740.109 600.047 750.234 600 750 C 600 750.141 484.918 750 417 750 C 416.977 749.988 417.012 740.004 417 740 Q 273.68 740 20 740" id="パス" fill="none" vector-effect="non-scaling-stroke" stroke-width="2" stroke="rgb(0,0,0)" stroke-linejoin="miter" stroke-linecap="square" stroke-miterlimit="3"/><path d=" M 770 770 L 710 770 L 710 910" id="パス" fill="none" vector-effect="non-scaling-stroke" stroke-width="2" stroke="rgb(0,0,0)" stroke-linejoin="miter" stroke-linecap="square" stroke-miterlimit="3"/></g><g style="isolation:isolate" id="booth"><path d=" M 20 740 L 90 740 L 90 830 L 20 830 L 20 740 Z " id="maps_H2A" fill="rgb(139,139,139)" vector-effect="non-scaling-stroke" stroke-width="2" stroke="rgb(0,0,0)" stroke-linejoin="miter" stroke-linecap="square" stroke-miterlimit="3"/><path d=" M 90 740 L 152 740 L 152 830 L 90 830 L 90 740 Z " id="maps_H2B" fill="rgb(139,139,139)" vector-effect="non-scaling-stroke" stroke-width="2" stroke="rgb(0,0,0)" stroke-linejoin="miter" stroke-linecap="square" stroke-miterlimit="3"/><path d=" M 152 740 L 218 740 L 218 830 L 152 830 L 152 740 Z " id="maps_H2C" fill="rgb(139,139,139)" vector-effect="non-scaling-stroke" stroke-width="2" stroke="rgb(0,0,0)" stroke-linejoin="miter" stroke-linecap="square" stroke-miterlimit="3"/><path d=" M 218 740 L 283 740 L 283 830 L 218 830 L 218 740 Z " id="maps_H2D" fill="rgb(139,139,139)" vector-effect="non-scaling-stroke" stroke-width="2" stroke="rgb(0,0,0)" stroke-linejoin="miter" stroke-linecap="square" stroke-miterlimit="3"/><path d=" M 283 740 L 347 740 L 347 830 L 283 830 L 283 740 Z " id="maps_H2E" fill="rgb(139,139,139)" vector-effect="non-scaling-stroke" stroke-width="2" stroke="rgb(0,0,0)" stroke-linejoin="miter" stroke-linecap="square" stroke-miterlimit="3"/><path d=" M 730 675 L 730 606 L 650 606 L 650 675 L 730 675 Z " id="maps_M2D" fill="rgb(139,139,139)" vector-effect="non-scaling-stroke" stroke-width="2" stroke="rgb(0,0,0)" stroke-linejoin="miter" stroke-linecap="square" stroke-miterlimit="3"/><path d=" M 650 540 L 650 472 L 730 472 L 730 540 L 650 540 Z " id="maps_M2B" fill="rgb(139,139,139)" vector-effect="non-scaling-stroke" stroke-width="2" stroke="rgb(0,0,0)" stroke-linejoin="miter" stroke-linecap="square" stroke-miterlimit="3"/><path d=" M 650 606 L 650 540 L 730 540 L 730 606 L 650 606 Z " id="maps_M2C" fill="rgb(139,139,139)" vector-effect="non-scaling-stroke" stroke-width="2" stroke="rgb(0,0,0)" stroke-linejoin="miter" stroke-linecap="square" stroke-miterlimit="3"/><path d=" M 650 472 L 650 407 L 730 407 L 730 472 L 650 472 Z " id="maps_M2A" fill="rgb(139,139,139)" vector-effect="non-scaling-stroke" stroke-width="2" stroke="rgb(0,0,0)" stroke-linejoin="miter" stroke-linecap="square" stroke-miterlimit="3"/><path d=" M 650 377 L 650 273 L 730 273 L 730 377 L 650 377 Z " id="maps_ScienceLab" fill="rgb(139,139,139)" vector-effect="non-scaling-stroke" stroke-width="2" stroke="rgb(0,0,0)" stroke-linejoin="miter" stroke-linecap="square" stroke-miterlimit="3"/><path d=" M 650 176 L 650 80 L 730 80 L 730 176 L 650 176 Z " id="maps_BiologyLab" fill="rgb(139,139,139)" vector-effect="non-scaling-stroke" stroke-width="2" stroke="rgb(0,0,0)" stroke-linejoin="miter" stroke-linecap="square" stroke-miterlimit="3"/><path d=" M 152 860 L 250.5 860 L 250.5 940 L 152 940 L 152 860 Z " id="maps_SRNo3" fill="rgb(139,139,139)" vector-effect="non-scaling-stroke" stroke-width="2" stroke="rgb(0,0,0)" stroke-linejoin="miter" stroke-linecap="square" stroke-miterlimit="3"/><path d=" M 250 860 L 318 860 L 318 940 L 250 940 L 250 860 Z " id="maps_SRNo4" fill="rgb(139,139,139)" vector-effect="non-scaling-stroke" stroke-width="2" stroke="rgb(0,0,0)" stroke-linejoin="miter" stroke-linecap="square" stroke-miterlimit="3"/></g><g style="isolation:isolate" id="blank"><path d=" M 704 740 L 704 752 L 730 752 L 730 740 L 704 740 Z " id="パス" fill="none" vector-effect="non-scaling-stroke" stroke-width="2" stroke="rgb(0,0,0)" stroke-linejoin="miter" stroke-linecap="square" stroke-miterlimit="3"/><path d=" M 380 807.5 L 380 785 L 380 740 L 417 740 L 417 830 L 380 830 L 380 807.5 Z " id="Broadcasting_Room" fill="none" vector-effect="non-scaling-stroke" stroke-width="2" stroke="rgb(0,0,0)" stroke-linejoin="miter" stroke-linecap="square" stroke-miterlimit="3"/><path d=" M 347 740 L 380 740 L 380 830 L 347 830 L 347 740 Z " id="Labo_English" fill="none" vector-effect="non-scaling-stroke" stroke-width="2" stroke="rgb(0,0,0)" stroke-linejoin="miter" stroke-linecap="square" stroke-miterlimit="3"/><path d=" M 750 311 L 750 347 L 790 347 L 790 311 L 750 311 Z " id="パス" fill="none" vector-effect="non-scaling-stroke" stroke-width="2" stroke="rgb(0,0,0)" stroke-linejoin="miter" stroke-linecap="square" stroke-miterlimit="3"/><path d=" M 750 275 L 750 311 L 790 311 L 790 275 L 750 275 Z " id="パス" fill="none" vector-effect="non-scaling-stroke" stroke-width="2" stroke="rgb(0,0,0)" stroke-linejoin="miter" stroke-linecap="square" stroke-miterlimit="3"/><path d=" M 750 177 L 750 275 L 790 275 L 790 177 L 750 177 Z " id="パス" fill="none" vector-effect="non-scaling-stroke" stroke-width="2" stroke="rgb(0,0,0)" stroke-linejoin="miter" stroke-linecap="square" stroke-miterlimit="3"/><path d=" M 750 110 L 750 176 L 790 176 L 790 110 L 750 110 Z " id="パス" fill="none" vector-effect="non-scaling-stroke" stroke-width="2" stroke="rgb(0,0,0)" stroke-linejoin="miter" stroke-linecap="square" stroke-miterlimit="3"/><path d=" M 750 347 L 750 377 L 790 377 L 790 347 L 750 347 Z " id="パス" fill="none" vector-effect="non-scaling-stroke" stroke-width="2" stroke="rgb(0,0,0)" stroke-linejoin="miter" stroke-linecap="square" stroke-miterlimit="3"/><path d=" M 750 740 L 750 675 L 790 675 L 790 740 L 750 740 Z " id="パス" fill="none" vector-effect="non-scaling-stroke" stroke-width="2" stroke="rgb(0,0,0)" stroke-linejoin="miter" stroke-linecap="square" stroke-miterlimit="3"/><path d=" M 750 675 L 750 606 L 790 606 L 790 675 L 750 675 Z " id="Counseling_Room" fill="none" vector-effect="non-scaling-stroke" stroke-width="2" stroke="rgb(0,0,0)" stroke-linejoin="miter" stroke-linecap="square" stroke-miterlimit="3"/><path d=" M 20 860 L 20 940 L 55 940 L 55 860 L 20 860 Z " id="StairE" fill="none" vector-effect="non-scaling-stroke" stroke-width="2" stroke="rgb(0,0,0)" stroke-linejoin="miter" stroke-linecap="square" stroke-miterlimit="3"/><path d=" M 91 860 L 91 940 L 55 940 L 55 860 L 91 860 Z " id="Audiovisual_Preparation_Room" fill="none" vector-effect="non-scaling-stroke" stroke-width="2" stroke="rgb(0,0,0)" stroke-linejoin="miter" stroke-linecap="square" stroke-miterlimit="3"/><path d=" M 650 820 L 660 820 L 660 740 L 600 740 L 600 766.667 L 600 820 L 650 820 Z " id="Student_Guidance_Office" fill="none" vector-effect="non-scaling-stroke" stroke-width="2" stroke="rgb(0,0,0)" stroke-linejoin="miter" stroke-linecap="square" stroke-miterlimit="3"/><path d=" M 650 225 L 650 176 L 730 176 L 730 225 L 650 225 Z " id="パス" fill="none" vector-effect="non-scaling-stroke" stroke-width="2" stroke="rgb(0,0,0)" stroke-linejoin="miter" stroke-linecap="square" stroke-miterlimit="3"/><path d=" M 703.5 407 L 687.375 407 L 650 407 L 650 377 L 730 377 L 730 407 L 703.5 407 Z " id="パス" fill="none" vector-effect="non-scaling-stroke" stroke-width="2" stroke="rgb(0,0,0)" stroke-linejoin="miter" stroke-linecap="square" stroke-miterlimit="3"/><path d=" M 750 110 L 750 80 L 760 80 L 760 110 L 750 110 Z " id="パス" fill="none" vector-effect="non-scaling-stroke" stroke-width="2" stroke="rgb(0,0,0)" stroke-linejoin="miter" stroke-linecap="square" stroke-miterlimit="3"/><path d=" M 91 860 L 121 860 L 121 940 L 91 940 L 91 860 Z " id="H1_StaffRoom" fill="none" vector-effect="non-scaling-stroke" stroke-width="2" stroke="rgb(0,0,0)" stroke-linejoin="miter" stroke-linecap="square" stroke-miterlimit="3"/><path d=" M 121 860 L 152 860 L 152 940 L 121 940 L 121 860 Z " id="H1_StaffRoom" fill="none" vector-effect="non-scaling-stroke" stroke-width="2" stroke="rgb(0,0,0)" stroke-linejoin="miter" stroke-linecap="square" stroke-miterlimit="3"/><path d=" M 600 900 L 660 900 L 660 940 L 600 940 L 600 900 Z " id="Interview_Room" fill="none" vector-effect="non-scaling-stroke" stroke-width="2" stroke="rgb(0,0,0)" stroke-linejoin="miter" stroke-linecap="square" stroke-miterlimit="3"/><path d=" M 710 940 L 660 940 L 660 860 L 660 940 L 710 940 L 710 860 L 710 940 Z " fill-rule="evenodd" id="StairC" fill="none" vector-effect="non-scaling-stroke" stroke-width="2" stroke="rgb(0,0,0)" stroke-linejoin="miter" stroke-linecap="square" stroke-miterlimit="3"/><path d=" M 650 740 L 717.5 740 L 730 740 L 730 675 L 650 675 L 650 740 Z " id="Catholic_Center" fill="none" vector-effect="non-scaling-stroke" stroke-width="2" stroke="rgb(0,0,0)" stroke-linejoin="miter" stroke-linecap="square" stroke-miterlimit="3"/><path d=" M 650 274 L 650 226 L 730 226 L 730 235.273 L 730 274 L 650 274 Z " id="パス" fill="none" vector-effect="non-scaling-stroke" stroke-width="2" stroke="rgb(0,0,0)" stroke-linejoin="miter" stroke-linecap="square" stroke-miterlimit="3"/></g><g style="isolation:isolate" id="special"><path d=" M 750 407 L 790 407 L 790 480 L 750 480 L 750 407 Z " id="パス" fill="rgb(255,0,0)" vector-effect="non-scaling-stroke" stroke-width="2" stroke="rgb(0,0,0)" stroke-linejoin="miter" stroke-linecap="square" stroke-miterlimit="3"/><path d=" M 350 860 L 350 940 L 318 940 L 318 860 L 350 860 Z " id="Toilet" fill="rgb(255,0,0)" vector-effect="non-scaling-stroke" stroke-width="2" stroke="rgb(0,0,0)" stroke-linejoin="miter" stroke-linecap="square" stroke-miterlimit="3"/><path d=" M 710 770 L 710 910 L 720 910 Q 726.281 920.453 750 920 C 773.719 919.547 790.109 899.844 790 850 C 789.891 800.156 782 782 770 770 C 769.744 769.744 712.75 770.25 710 770 Z " id="maps_Seido" fill="none" vector-effect="non-scaling-stroke" stroke-width="2" stroke="rgb(0,0,0)" stroke-linejoin="miter" stroke-linecap="square" stroke-miterlimit="3"/><path d=" M 750 520 L 750 480 L 790 480 L 790 520" id="パス" fill="none" vector-effect="non-scaling-stroke" stroke-width="2" stroke="rgb(0,0,0)" stroke-linejoin="miter" stroke-linecap="square" stroke-miterlimit="3"/><path d=" M 420 890 L 420 940 L 350 940 L 350 890" id="パス" fill="none" vector-effect="non-scaling-stroke" stroke-width="2" stroke="rgb(0,0,0)" stroke-linejoin="miter" stroke-linecap="square" stroke-miterlimit="3"/><path d=" M 417 750 L 417 850 L 600 850 L 600 750 L 417 750 Z " id="パス" fill="none" vector-effect="non-scaling-stroke" stroke-width="2" stroke="rgb(0,0,0)" stroke-linejoin="miter" stroke-linecap="square" stroke-miterlimit="3"/></g><g style="isolation:isolate" id="Decorations"><g style="isolation:isolate" id="stairB"><path d=" M 790 490.5 L 776.109 490.5 L 750 490.5 M 750 505 L 770 505 M 750 495 L 770 495 M 750 510 L 770 510 M 750 500 L 770 500 M 750 516 L 770 516 M 770 520 Q 770 502.318 770 491" fill-rule="evenodd" id="複合パス" fill="none" vector-effect="non-scaling-stroke" stroke-width="1" stroke="rgb(0,0,0)" stroke-linejoin="miter" stroke-linecap="square" stroke-miterlimit="3"/><path d=" M 790 495 L 770 495 L 770 500 L 790 500 L 790 505 L 770 505 L 770 510 L 790 510 L 790 516 L 770 516" id="パス" fill="none" vector-effect="non-scaling-stroke" stroke-width="1" stroke="rgb(0,0,0)" stroke-linejoin="miter" stroke-linecap="square" stroke-miterlimit="3"/></g><g style="isolation:isolate" id="stairC"><path d=" M 685 920 L 660 920 L 660 915 L 685 915 L 685 910 L 660 910 L 660 905 L 685 905 L 685 900 L 660 900 L 660 895 L 685 895 L 685 890 L 660 890 L 660 885 L 685 885 L 685 880 L 660 880" id="パス" fill="none" vector-effect="non-scaling-stroke" stroke-width="1" stroke="rgb(0,0,0)" stroke-linejoin="miter" stroke-linecap="square" stroke-miterlimit="3"/><path d=" M 685 924 L 685 880 L 685 880 L 710 880 L 710 885 L 685 885 L 685 890 L 710 890 L 710 895 L 685 895 L 685 900 L 710 900 L 710 905 L 685 905 L 685 910 L 710 910 L 710 915 L 685 915 L 685 920 L 710 920" id="パス" fill="none" vector-effect="non-scaling-stroke" stroke-width="1" stroke="rgb(0,0,0)" stroke-linejoin="miter" stroke-linecap="square" stroke-miterlimit="3"/></g><g style="isolation:isolate" id="stairD"><line x1="420" y1="890" x2="375" y2="890" id="パス" vector-effect="non-scaling-stroke" stroke-width="2" stroke="rgb(0,0,0)" stroke-linejoin="miter" stroke-linecap="square" stroke-miterlimit="3"/><line x1="400" y1="915" x2="366" y2="915" id="パス" vector-effect="non-scaling-stroke" stroke-width="2" stroke="rgb(0,0,0)" stroke-linejoin="miter" stroke-linecap="square" stroke-miterlimit="3"/><path d=" M 367 916 L 367 940 L 371 940 L 371 915 L 375 915 L 375 940 L 379 940 L 379 915 L 383 915 L 383 940 L 387 940 L 387 915 L 391 915 L 391 940 L 395 940 L 395 915 L 399 915 L 399 940 L 420 940 L 420 892 L 419 890 L 397 890 L 397 915 L 393 915 L 393 890 L 389 890 L 389 915 L 385 915 L 385 890" id="パス" fill="none" vector-effect="non-scaling-stroke" stroke-width="1" stroke="rgb(0,0,0)" stroke-linejoin="miter" stroke-linecap="square" stroke-miterlimit="3"/></g><path d=" M 330 892 C 330 889.24 332.24 887 335 887 C 337.76 887 340 889.24 340 892 C 340 894.76 337.76 897 335 897 C 332.24 897 330 894.76 330 892 Z  M 335 899 L 330 912 L 340 912 L 335 899 Z " fill-rule="evenodd" id="複合パス" fill="rgb(255,255,255)"/><path d=" M 765 435 C 765 432.24 767.24 430 770 430 C 772.76 430 775 432.24 775 435 C 775 437.76 772.76 440 770 440 C 767.24 440 765 437.76 765 435 Z  M 770 442 L 766 455 L 775 455 L 770 442 Z " fill-rule="evenodd" id="複合パス" fill="rgb(255,255,255)"/><g style="isolation:isolate" id="Text"><g clip-path="url(#_clipPath_qvvhlehGF3N2p7i6HXXTQiArZtJRI8zr)"><text transform="matrix(1,0,0,1,35,781.712)" id="テキスト" style="font-family:'Yu Gothic UI';font-weight:700;font-size:20px;font-style:normal;fill:#ffffff;stroke:none;">んけ</text><text transform="matrix(1,0,0,1,35,808.314)" id="テキスト" style="font-family:'Yu Gothic UI';font-weight:700;font-size:20px;font-style:normal;fill:#ffffff;stroke:none;">うす</text></g><defs><clipPath id="_clipPath_qvvhlehGF3N2p7i6HXXTQiArZtJRI8zr"><rect x="0" y="0" width="70" height="50" transform="matrix(1,0,0,1,35,760.13)"/></clipPath></defs><g clip-path="url(#_clipPath_92LgDErjCANqgXh0nRSVmZxNplQXMw2D)"><text transform="matrix(1,0,0,1,285,760.252)" id="テキスト" style="font-family:'Yu Gothic UI';font-weight:700;font-size:15px;font-style:normal;fill:#ffffff;stroke:none;">ほしのこ</text><text transform="matrix(1,0,0,1,285,780.203)" id="テキスト" style="font-family:'Yu Gothic UI';font-weight:700;font-size:15px;font-style:normal;fill:#ffffff;stroke:none;">のこのこ</text><text transform="matrix(1,0,0,1,285,800.154)" id="テキスト" style="font-family:'Yu Gothic UI';font-weight:700;font-size:15px;font-style:normal;fill:#ffffff;stroke:none;">まと</text><text transform="matrix(1,0,0,1,285,820.105)" id="テキスト" style="font-family:'Yu Gothic UI';font-weight:700;font-size:15px;font-style:normal;fill:#ffffff;stroke:none;">ばんばん</text></g><defs><clipPath id="_clipPath_92LgDErjCANqgXh0nRSVmZxNplQXMw2D"><rect x="0" y="0" width="114" height="90" transform="matrix(1,0,0,1,285,744.065)"/></clipPath></defs><g clip-path="url(#_clipPath_XPu1sfQVP8bUNIC3PrSm0LThD2vQ8CBv)"><text transform="matrix(1,0,0,1,252.5,896.582)" id="テキスト" style="font-family:'Yu Gothic UI';font-weight:700;font-size:20px;font-style:normal;fill:#ffffff;stroke:none;">けん玉</text><text transform="matrix(1,0,0,1,252.5,923.184)" id="テキスト" style="font-family:'Yu Gothic UI';font-weight:700;font-size:20px;font-style:normal;fill:#ffffff;stroke:none;">教室</text></g><defs><clipPath id="_clipPath_XPu1sfQVP8bUNIC3PrSm0LThD2vQ8CBv"><rect x="0" y="0" width="63" height="49.87" transform="matrix(1,0,0,1,252.5,875)"/></clipPath></defs><g clip-path="url(#_clipPath_TDO1mLYhWhvaNcL299OnJlAPrAetDl3p)"><text transform="matrix(1,0,0,1,170,896.582)" id="テキスト" style="font-family:'Yu Gothic UI';font-weight:700;font-size:20px;font-style:normal;fill:#ffffff;stroke:none;">鉄道研</text><text transform="matrix(1,0,0,1,170,923.184)" id="テキスト" style="font-family:'Yu Gothic UI';font-weight:700;font-size:20px;font-style:normal;fill:#ffffff;stroke:none;">究会</text></g><defs><clipPath id="_clipPath_TDO1mLYhWhvaNcL299OnJlAPrAetDl3p"><rect x="0" y="0" width="70" height="49.87" transform="matrix(1,0,0,1,170,875)"/></clipPath></defs><g clip-path="url(#_clipPath_oMg6WMzBnboJEPbjmJsdtUknyIDV8ci2)"><text transform="matrix(1,0,0,1,220,783.712)" id="テキスト" style="font-family:'Yu Gothic UI';font-weight:700;font-size:20px;font-style:normal;fill:#ffffff;stroke:none;">電気</text><text transform="matrix(1,0,0,1,220,810.314)" id="テキスト" style="font-family:'Yu Gothic UI';font-weight:700;font-size:20px;font-style:normal;fill:#ffffff;stroke:none;">工学部</text></g><defs><clipPath id="_clipPath_oMg6WMzBnboJEPbjmJsdtUknyIDV8ci2"><rect x="0" y="0" width="64" height="49.87" transform="matrix(1,0,0,1,220,762.13)"/></clipPath></defs><g clip-path="url(#_clipPath_fp655NIHWFaKonZBVdI3NwUhC47TNkTq)"><text transform="matrix(1,0,0,1,156,781.582)" id="テキスト" style="font-family:'Yu Gothic UI';font-weight:700;font-size:20px;font-style:normal;fill:#ffffff;stroke:none;">AOPIΣ</text><text transform="matrix(1,0,0,1,156,808.184)" id="テキスト" style="font-family:'Yu Gothic UI';font-weight:700;font-size:20px;font-style:normal;fill:#ffffff;stroke:none;">TOΣ</text></g><defs><clipPath id="_clipPath_fp655NIHWFaKonZBVdI3NwUhC47TNkTq"><rect x="0" y="0" width="70" height="69.87" transform="matrix(1,0,0,1,156,760)"/></clipPath></defs><g clip-path="url(#_clipPath_WUsF2TZRSr1RDMjW4eqmovyBQx8cQsRr)"><text transform="matrix(1,0,0,1,91,781.712)" id="テキスト" style="font-family:'Yu Gothic UI';font-weight:700;font-size:20px;font-style:normal;fill:#ffffff;stroke:none;">社会科</text><text transform="matrix(1,0,0,1,91,808.314)" id="テキスト" style="font-family:'Yu Gothic UI';font-weight:700;font-size:20px;font-style:normal;fill:#ffffff;stroke:none;">展示</text></g><defs><clipPath id="_clipPath_WUsF2TZRSr1RDMjW4eqmovyBQx8cQsRr"><rect x="0" y="0" width="67" height="79.805" transform="matrix(1,0,0,1,91,760.13)"/></clipPath></defs><g clip-path="url(#_clipPath_AhEKkehKC1MDeRbnzKXGoOoGMj0wZNeY)"><text transform="matrix(1,0,0,1,470,805.952)" id="テキスト" style="font-family:'Yu Gothic UI';font-weight:700;font-size:20px;font-style:normal;fill:#000000;stroke:none;">職員室</text></g><defs><clipPath id="_clipPath_AhEKkehKC1MDeRbnzKXGoOoGMj0wZNeY"><rect x="0" y="0" width="70" height="27.63" transform="matrix(1,0,0,1,470,784.37)"/></clipPath></defs><g clip-path="url(#_clipPath_u51p5SMnKao6VtwzCq5zXNXljqeXCXNj)"><text transform="matrix(1,0,0,1,654.5,638.379)" id="テキスト" style="font-family:'Yu Gothic UI';font-weight:700;font-size:20px;font-style:normal;fill:#ffffff;stroke:none;">Round </text><text transform="matrix(1,0,0,1,654.5,664.98)" id="テキスト" style="font-family:'Yu Gothic UI';font-weight:700;font-size:20px;font-style:normal;fill:#ffffff;stroke:none;">2</text></g><defs><clipPath id="_clipPath_u51p5SMnKao6VtwzCq5zXNXljqeXCXNj"><rect x="0" y="0" width="78" height="53.203" transform="matrix(1,0,0,1,654.5,616.797)"/></clipPath></defs><g clip-path="url(#_clipPath_eCjitUAg8xk9Gk14AcQD4Lpllt8idoqq)"><text transform="matrix(1,0,0,1,652,567.3)" id="テキスト" style="font-family:'Yu Gothic UI';font-weight:700;font-size:19px;font-style:normal;fill:#ffffff;stroke:none;">Hanter x</text><text transform="matrix(1,0,0,1,652,592.571)" id="テキスト" style="font-family:'Yu Gothic UI';font-weight:700;font-size:19px;font-style:normal;fill:#ffffff;stroke:none;">Hanter</text></g><defs><clipPath id="_clipPath_eCjitUAg8xk9Gk14AcQD4Lpllt8idoqq"><rect x="0" y="0" width="76" height="50.543" transform="matrix(1,0,0,1,652,546.797)"/></clipPath></defs><path d=" M 713.684 527.055 L 713.684 527.055 L 713.684 527.055 Q 713.661 526.258 713.661 524.914 L 713.661 524.914 L 713.661 524.914 Q 713.661 524.258 713.442 524.031 L 713.442 524.031 L 713.442 524.031 Q 713.216 523.781 712.638 523.68 L 712.638 523.68 L 712.708 523.25 L 712.708 523.25 Q 713.661 523.258 714.239 523.516 L 714.239 523.516 L 714.239 523.516 Q 714.755 523.734 714.755 524.078 L 714.755 524.078 L 714.755 524.078 Q 714.755 524.227 714.645 524.945 L 714.645 524.945 L 714.645 524.945 Q 714.552 525.445 714.528 526.914 L 714.528 526.914 L 714.528 526.914 Q 715.653 526.656 716.098 526.352 L 716.098 526.352 L 716.098 526.352 Q 716.38 526.172 716.677 526.172 L 716.677 526.172 L 716.677 526.172 Q 717.098 526.172 717.255 526.273 L 717.255 526.273 L 717.255 526.273 Q 717.411 526.375 717.411 526.617 L 717.411 526.617 L 717.411 526.617 Q 717.411 526.922 717.044 527.07 L 717.044 527.07 L 717.044 527.07 Q 716.184 527.43 714.528 527.711 L 714.528 527.711 L 714.528 527.711 Q 714.552 530.586 714.677 532.273 L 714.677 532.273 L 714.677 532.273 Q 715.778 532.656 717.044 533.313 L 717.044 533.313 L 717.044 533.313 Q 718.052 533.867 718.052 534.336 L 718.052 534.336 L 718.052 534.336 Q 718.052 534.883 717.638 534.883 L 717.638 534.883 L 717.638 534.883 Q 717.45 534.883 717.106 534.609 L 717.106 534.609 L 717.106 534.609 Q 715.817 533.586 714.708 533.117 L 714.708 533.117 L 714.708 533.117 Q 714.755 533.945 714.606 534.383 L 714.606 534.383 L 714.606 534.383 Q 714.466 534.773 714.098 535.07 L 714.098 535.07 L 714.098 535.07 Q 713.497 535.602 712.239 535.602 L 712.239 535.602 L 712.239 535.602 Q 711.231 535.602 710.442 535.125 L 710.442 535.125 L 710.442 535.125 Q 709.614 534.609 709.614 533.781 L 709.614 533.781 L 709.614 533.781 Q 709.614 532.719 710.716 532.227 L 710.716 532.227 L 710.716 532.227 Q 711.427 531.906 712.333 531.906 L 712.333 531.906 L 712.333 531.906 Q 713.036 531.906 713.809 532.078 L 713.809 532.078 L 713.716 527.805 L 713.716 527.805 Q 712.473 527.969 711.716 527.969 L 711.716 527.969 L 711.716 527.969 Q 710.528 527.969 710.036 527.664 L 710.036 527.664 L 710.036 527.664 Q 709.645 527.422 709.278 526.719 L 709.278 526.719 L 709.684 526.477 L 709.684 526.477 Q 710.028 526.969 710.419 527.117 L 710.419 527.117 L 710.419 527.117 Q 710.763 527.25 711.473 527.25 L 711.473 527.25 L 711.473 527.25 Q 712.442 527.25 713.684 527.055 Z  M 713.856 532.867 L 713.856 532.867 L 713.856 532.867 Q 712.841 532.594 712.067 532.594 L 712.067 532.594 L 712.067 532.594 Q 710.223 532.594 710.223 533.766 L 710.223 533.766 L 710.223 533.766 Q 710.223 534.375 711.013 534.656 L 711.013 534.656 L 711.013 534.656 Q 711.505 534.836 712.114 534.836 L 712.114 534.836 L 712.114 534.836 Q 713.145 534.836 713.528 534.336 L 713.528 534.336 L 713.528 534.336 Q 713.88 533.891 713.856 532.867 Z  M 707.63 530.656 L 707.63 530.656 L 708.036 530.836 L 708.036 530.836 Q 707.184 533.133 707.052 533.664 L 707.052 533.664 L 707.052 533.664 Q 706.973 534 706.973 534.484 L 706.973 534.484 L 706.973 534.484 Q 706.973 534.742 706.989 534.961 L 706.989 534.961 L 706.989 534.961 Q 707.028 535.344 707.028 535.461 L 707.028 535.461 L 707.028 535.461 Q 707.028 535.633 706.903 535.75 L 706.903 535.75 L 706.903 535.75 Q 706.802 535.844 706.692 535.844 L 706.692 535.844 L 706.692 535.844 Q 706.458 535.844 706.263 535.539 L 706.263 535.539 L 706.263 535.539 Q 705.505 534.156 705.505 531.492 L 705.505 531.492 L 705.505 531.492 Q 705.505 529.938 706.434 525.742 L 706.434 525.742 L 706.434 525.742 Q 706.544 525.047 706.544 524.805 L 706.544 524.805 L 706.544 524.805 Q 706.544 524.133 706.02 523.648 L 706.02 523.648 L 706.302 523.313 L 706.302 523.313 Q 707.661 524.078 707.661 525.07 L 707.661 525.07 L 707.661 525.07 Q 707.661 525.219 707.309 526.18 L 707.309 526.18 L 707.309 526.18 Q 706.255 529.094 706.255 531.648 L 706.255 531.648 L 706.255 531.648 Q 706.255 532.758 706.388 533.359 L 706.388 533.359 L 706.388 533.359 Q 706.536 533.039 707.028 531.961 L 707.028 531.961 L 707.028 531.961 Q 707.372 531.188 707.63 530.656 Z  M 707.071 510.578 L 707.071 510.578 L 704.227 510.578 L 704.048 510.172 L 710.227 510.172 L 710.227 507.023 L 710.227 507.023 Q 711.876 507.094 711.876 507.438 L 711.876 507.438 L 711.876 507.438 Q 711.876 507.633 711.173 507.898 L 711.173 507.898 L 711.173 510.172 L 715.54 510.172 L 716.454 508.984 L 716.454 508.984 Q 717.134 509.594 717.688 510.273 L 717.688 510.273 L 717.493 510.578 L 714.532 510.578 L 714.532 510.578 Q 713.477 514.289 711.602 516.563 L 711.602 516.563 L 711.602 516.563 Q 713.977 518.719 717.829 519.922 L 717.829 519.922 L 717.829 519.922 Q 717.329 520.375 717.048 520.898 L 717.048 520.898 L 717.048 520.898 Q 713.266 519.398 711.079 517.234 L 711.079 517.234 L 711.079 517.234 Q 708.22 520.094 703.954 521.172 L 703.954 521.172 L 703.735 520.805 L 703.735 520.805 Q 707.571 519.57 710.423 516.531 L 710.423 516.531 L 710.423 516.531 Q 708.415 514.258 707.071 510.578 Z  M 713.43 510.578 L 707.665 510.578 L 707.665 510.578 Q 708.977 513.742 710.962 515.922 L 710.962 515.922 L 710.962 515.922 Q 712.657 513.656 713.43 510.578 L 713.43 510.578 L 713.43 510.578 Z  M 716.438 499.531 L 712.563 499.531 L 712.563 504.078 L 715.782 504.078 L 716.579 502.906 L 716.579 502.906 Q 717.149 503.438 717.696 504.156 L 717.696 504.156 L 717.509 504.477 L 707.235 504.477 L 707.063 504.078 L 711.571 504.078 L 711.571 499.531 L 708.118 499.531 L 707.97 499.133 L 711.571 499.133 L 711.571 495.289 L 707.876 495.289 L 707.696 494.891 L 715.313 494.891 L 716.102 493.789 L 716.102 493.789 Q 716.759 494.422 717.157 494.969 L 717.157 494.969 L 716.977 495.289 L 712.563 495.289 L 712.563 499.133 L 714.868 499.133 L 715.618 498.094 L 715.618 498.094 Q 716.134 498.609 716.61 499.227 L 716.61 499.227 L 716.438 499.531 L 716.438 499.531 Z  M 703.22 494.969 L 703.415 494.703 L 703.415 494.703 Q 705.43 495.398 705.43 496.477 L 705.43 496.477 L 705.43 496.477 Q 705.43 497.086 704.915 497.086 L 704.915 497.086 L 704.915 497.086 Q 704.516 497.086 704.376 496.508 L 704.376 496.508 L 704.376 496.508 Q 704.204 495.719 703.22 494.969 L 703.22 494.969 L 703.22 494.969 Z  M 704.165 491.531 L 704.352 491.227 L 704.352 491.227 Q 706.501 491.898 706.501 492.953 L 706.501 492.953 L 706.501 492.953 Q 706.501 493.563 705.923 493.563 L 705.923 493.563 L 705.923 493.563 Q 705.641 493.563 705.524 493.211 L 705.524 493.211 L 705.524 493.211 Q 705.212 492.25 704.165 491.531 L 704.165 491.531 L 704.165 491.531 Z  M 710.016 491.32 L 710.259 491.023 L 710.259 491.023 Q 712.977 492.297 712.977 493.578 L 712.977 493.578 L 712.977 493.578 Q 712.977 494.203 712.352 494.203 L 712.352 494.203 L 712.352 494.203 Q 712.009 494.203 711.798 493.609 L 711.798 493.609 L 711.798 493.609 Q 711.391 492.461 710.016 491.32 L 710.016 491.32 L 710.016 491.32 Z  M 707.415 493.695 L 707.798 493.898 L 705.602 501 L 705.602 501 Q 705.313 501.867 705.313 502.25 L 705.313 502.25 L 705.313 502.25 Q 705.313 502.43 705.376 502.664 L 705.376 502.664 L 705.376 502.664 Q 705.618 503.656 705.618 504.359 L 705.618 504.359 L 705.618 504.359 Q 705.618 505.289 704.868 505.289 L 704.868 505.289 L 704.868 505.289 Q 704.368 505.289 704.368 504.766 L 704.368 504.766 L 704.368 504.766 Q 704.368 504.609 704.485 503.836 L 704.485 503.836 L 704.485 503.836 Q 704.548 503.344 704.548 502.828 L 704.548 502.828 L 704.548 502.828 Q 704.548 501.867 704.087 501.5 L 704.087 501.5 L 704.087 501.5 Q 703.845 501.328 703.313 501.211 L 703.313 501.211 L 703.313 500.797 L 703.313 500.797 Q 703.626 500.844 703.813 500.844 L 703.813 500.844 L 703.813 500.844 Q 704.516 500.844 704.805 500.25 L 704.805 500.25 L 704.805 500.25 Q 706.032 497.68 707.415 493.695 L 707.415 493.695 L 707.415 493.695 Z  M 708.524 480.695 L 708.22 480.328 L 708.22 480.328 Q 709.743 479.234 710.915 478.477 L 710.915 478.477 L 710.915 478.477 Q 710.196 478.57 709.587 478.57 L 709.587 478.57 L 709.587 478.57 Q 707.727 478.57 706.798 477.484 L 706.798 477.484 L 707.087 477.133 L 707.087 477.133 Q 708.024 477.773 709.243 477.773 L 709.243 477.773 L 709.243 477.773 Q 710.345 477.773 711.884 477.547 L 711.884 477.547 L 711.884 477.547 Q 712.727 477.438 712.97 477.438 L 712.97 477.438 L 712.97 477.438 Q 713.407 477.438 713.626 477.617 L 713.626 477.617 L 713.626 477.617 Q 713.884 477.813 713.884 478.141 L 713.884 478.141 L 713.884 478.141 Q 713.884 478.492 713.337 478.492 L 713.337 478.492 L 713.337 478.492 Q 712.36 478.492 711.774 478.75 L 711.774 478.75 L 711.774 478.75 Q 710.93 479.133 708.524 480.695 L 708.524 480.695 L 708.524 480.695 Z  M 705.391 484.25 L 705.852 484.125 L 705.852 484.125 Q 706.227 485.727 707.391 486.375 L 707.391 486.375 L 707.391 486.375 Q 708.391 486.922 710.415 486.922 L 710.415 486.922 L 710.415 486.922 Q 712.657 486.922 714.126 486.445 L 714.126 486.445 L 714.126 486.445 Q 714.438 486.367 714.626 486.367 L 714.626 486.367 L 714.626 486.367 Q 715.118 486.367 715.329 486.609 L 715.329 486.609 L 715.329 486.609 Q 715.454 486.773 715.454 486.961 L 715.454 486.961 L 715.454 486.961 Q 715.454 487.367 714.977 487.484 L 714.977 487.484 L 714.977 487.484 Q 713.477 487.883 710.798 487.883 L 710.798 487.883 L 710.798 487.883 Q 708.11 487.883 706.813 486.969 L 706.813 486.969 L 706.813 486.969 Q 705.587 486.094 705.391 484.25 L 705.391 484.25 L 705.391 484.25 Z  M 714.016 476.313 L 714.259 475.992 L 714.259 475.992 Q 715.29 476.352 715.876 476.898 L 715.876 476.898 L 715.876 476.898 Q 716.384 477.359 716.384 477.82 L 716.384 477.82 L 716.384 477.82 Q 716.384 478.383 715.907 478.383 L 715.907 478.383 L 715.907 478.383 Q 715.571 478.383 715.376 477.883 L 715.376 477.883 L 715.376 477.883 Q 715.001 476.984 714.016 476.313 L 714.016 476.313 L 714.016 476.313 Z  M 715.485 475.211 L 715.727 474.891 L 715.727 474.891 Q 716.743 475.195 717.376 475.758 L 717.376 475.758 L 717.376 475.758 Q 717.907 476.234 717.907 476.68 L 717.907 476.68 L 717.907 476.68 Q 717.907 477.242 717.446 477.242 L 717.446 477.242 L 717.446 477.242 Q 717.134 477.242 716.899 476.719 L 716.899 476.719 L 716.899 476.719 Q 716.54 475.93 715.485 475.211 L 715.485 475.211 L 715.485 475.211 Z  M 685.91 493.832 L 686.129 493.941 L 686.645 493.941 L 686.676 493.832 L 686.676 493.832 Q 687.051 492.621 687.285 490.934 L 687.285 490.934 L 687.285 490.934 Q 688.809 491.246 688.809 491.574 L 688.809 491.574 L 688.809 491.574 Q 688.809 491.777 688.168 491.895 L 688.168 491.895 L 688.168 491.895 Q 687.738 492.863 687.105 493.941 L 687.105 493.941 L 688.793 493.941 L 689.434 493.09 L 689.434 493.09 Q 690.324 493.918 690.324 494.137 L 690.324 494.137 L 690.324 494.137 Q 690.324 494.199 690.246 494.277 L 690.246 494.277 L 689.848 494.566 L 689.848 503.668 L 688.934 503.668 L 688.934 502.441 L 685.988 502.441 L 685.988 504.09 L 685.074 504.09 L 685.074 493.41 L 685.074 493.41 Q 685.316 493.52 685.91 493.832 L 685.91 493.832 L 685.91 493.832 Z  M 688.934 502.035 L 688.934 498.23 L 685.988 498.23 L 685.988 502.035 L 688.934 502.035 L 688.934 502.035 Z  M 685.988 497.832 L 688.934 497.832 L 688.934 494.34 L 685.988 494.34 L 685.988 497.832 L 685.988 497.832 Z  M 692.895 494.137 L 692.895 494.137 L 697.184 494.137 L 697.809 493.34 L 697.809 493.34 Q 698.801 494.207 698.801 494.441 L 698.801 494.441 L 698.801 494.441 Q 698.801 494.535 698.691 494.598 L 698.691 494.598 L 698.246 494.871 L 698.246 494.871 Q 698.215 501.605 697.488 503.863 L 697.488 503.863 L 697.488 503.863 Q 697.035 505.27 695.488 505.27 L 695.488 505.27 L 695.488 505.27 Q 695.488 504.848 695.059 504.629 L 695.059 504.629 L 695.059 504.629 Q 694.551 504.402 692.98 504.168 L 692.98 504.168 L 692.98 503.73 L 692.98 503.73 Q 694.684 503.926 695.52 503.926 L 695.52 503.926 L 695.52 503.926 Q 696.363 503.926 696.629 503.207 L 696.629 503.207 L 696.629 503.207 Q 697.277 501.355 697.301 494.535 L 697.301 494.535 L 692.754 494.535 L 692.754 494.535 Q 691.863 496.973 690.449 498.746 L 690.449 498.746 L 690.113 498.52 L 690.113 498.52 Q 691.965 495.332 692.559 490.902 L 692.559 490.902 L 692.559 490.902 Q 694.191 491.121 694.191 491.512 L 694.191 491.512 L 694.191 491.512 Q 694.191 491.73 693.504 491.848 L 693.504 491.848 L 693.504 491.848 Q 693.254 493.074 692.895 494.137 Z  M 692.051 497.191 L 692.309 496.902 L 692.309 496.902 Q 694.848 498.605 694.848 499.988 L 694.848 499.988 L 694.848 499.988 Q 694.848 500.645 694.254 500.645 L 694.254 500.645 L 694.254 500.645 Q 693.848 500.645 693.73 500.004 L 693.73 500.004 L 693.73 500.004 Q 693.441 498.652 692.051 497.191 L 692.051 497.191 L 692.051 497.191 Z  M 686.066 477.039 L 686.066 477.039 L 686.754 477.039 L 686.754 477.039 Q 686.949 476.055 686.996 474.961 L 686.996 474.961 L 686.996 474.961 Q 688.582 475.125 688.582 475.422 L 688.582 475.422 L 688.582 475.422 Q 688.582 475.594 688.004 475.758 L 688.004 475.758 L 688.004 475.758 Q 687.66 476.469 687.27 477.039 L 687.27 477.039 L 688.871 477.039 L 689.449 476.273 L 689.449 476.273 Q 690.379 477.008 690.379 477.234 L 690.379 477.234 L 690.379 477.234 Q 690.379 477.336 690.262 477.406 L 690.262 477.406 L 689.863 477.68 L 689.863 482.898 L 689.863 482.898 Q 690.191 482.391 690.535 481.68 L 690.535 481.68 L 690.535 481.68 Q 691.48 482.289 691.48 482.594 L 691.48 482.594 L 691.48 482.594 Q 691.48 482.734 691.223 482.734 L 691.223 482.734 L 691.223 482.734 Q 691.207 482.734 690.949 482.703 L 690.949 482.703 L 690.949 482.703 Q 690.348 483.539 689.863 484.047 L 689.863 484.047 L 689.863 488.258 L 689.863 488.258 Q 689.863 489.453 688.371 489.453 L 688.371 489.453 L 688.371 489.453 Q 688.348 488.984 687.895 488.813 L 687.895 488.813 L 687.895 488.813 Q 687.48 488.664 686.723 488.563 L 686.723 488.563 L 686.723 488.141 L 686.723 488.141 Q 687.551 488.258 688.496 488.258 L 688.496 488.258 L 688.496 488.258 Q 688.996 488.258 688.996 487.82 L 688.996 487.82 L 688.996 484.867 L 688.887 484.977 L 688.887 484.977 Q 686.754 487.055 683.902 488.477 L 683.902 488.477 L 683.684 488.141 L 683.684 488.141 Q 687.066 486.055 688.996 483.695 L 688.996 483.695 L 688.832 483.742 L 688.832 483.742 Q 686.863 484.313 684.738 484.656 L 684.738 484.656 L 684.738 484.656 Q 684.613 485.219 684.434 485.219 L 684.434 485.219 L 684.434 485.219 Q 684.121 485.219 683.902 483.844 L 683.902 483.844 L 683.902 483.844 Q 684.035 483.836 684.402 483.805 L 684.402 483.805 L 684.402 483.805 Q 684.691 483.781 684.863 483.773 L 684.863 483.773 L 685.121 483.742 L 685.121 476.578 L 685.121 476.578 Q 685.324 476.664 686.066 477.039 Z  M 688.996 483.266 L 688.996 481.617 L 685.988 481.617 L 685.988 483.664 L 685.988 483.664 Q 687.684 483.477 688.996 483.266 L 688.996 483.266 L 688.996 483.266 Z  M 685.988 481.219 L 688.996 481.219 L 688.996 479.453 L 685.988 479.453 L 685.988 481.219 L 685.988 481.219 Z  M 685.988 479.055 L 688.996 479.055 L 688.996 477.438 L 685.988 477.438 L 685.988 479.055 L 685.988 479.055 Z  M 698.262 479.773 L 696.051 479.773 L 696.051 488.031 L 696.051 488.031 Q 696.051 489.375 694.434 489.375 L 694.434 489.375 L 694.434 489.375 Q 694.41 488.914 693.926 488.719 L 693.926 488.719 L 693.926 488.719 Q 693.512 488.547 692.324 488.383 L 692.324 488.383 L 692.324 487.953 L 692.324 487.953 Q 693.59 488.094 694.629 488.094 L 694.629 488.094 L 694.629 488.094 Q 695.121 488.094 695.121 487.617 L 695.121 487.617 L 695.121 479.773 L 690.676 479.773 L 690.527 479.375 L 695.074 479.375 L 695.074 475.359 L 695.074 475.359 Q 696.691 475.43 696.691 475.789 L 696.691 475.789 L 696.691 475.789 Q 696.691 476.008 696.004 476.273 L 696.004 476.273 L 696.004 479.375 L 696.816 479.375 L 697.504 478.367 L 697.504 478.367 Q 697.965 478.828 698.418 479.453 L 698.418 479.453 L 698.262 479.773 L 698.262 479.773 Z  M 691.621 481.086 L 691.926 480.844 L 691.926 480.844 Q 693.809 482.664 693.809 484.289 L 693.809 484.289 L 693.809 484.289 Q 693.809 485.039 693.215 485.039 L 693.215 485.039 L 693.215 485.039 Q 692.785 485.039 692.738 484.305 L 692.738 484.305 L 692.738 484.305 Q 692.645 482.727 691.621 481.086 L 691.621 481.086 L 691.621 481.086 Z  M 669.816 511.121 L 669.816 511.121 L 669.816 511.121 Q 670.441 509.34 670.441 508.574 L 670.441 508.574 L 670.441 508.574 Q 670.441 508.168 670.206 507.965 L 670.206 507.965 L 670.206 507.965 Q 670.003 507.785 669.534 507.66 L 669.534 507.66 L 669.613 507.23 L 669.613 507.23 Q 670.495 507.23 671.12 507.566 L 671.12 507.566 L 671.12 507.566 Q 671.628 507.84 671.628 508.145 L 671.628 508.145 L 671.628 508.145 Q 671.628 508.418 671.339 509.16 L 671.339 509.16 L 671.339 509.16 Q 670.878 510.348 670.652 510.988 L 670.652 510.988 L 670.652 510.988 Q 671.394 510.848 672.136 510.848 L 672.136 510.848 L 672.136 510.848 Q 673.05 510.848 673.527 511.598 L 673.527 511.598 L 673.527 511.598 Q 673.98 512.293 673.98 513.551 L 673.98 513.551 L 673.98 513.551 Q 673.98 517.488 672.589 519.176 L 672.589 519.176 L 672.589 519.176 Q 672.019 519.895 671.48 519.895 L 671.48 519.895 L 671.48 519.895 Q 671.214 519.895 671.113 519.496 L 671.113 519.496 L 671.113 519.496 Q 671.003 518.957 669.55 517.652 L 669.55 517.652 L 669.753 517.301 L 669.753 517.301 Q 670.995 518.16 671.417 518.324 L 671.417 518.324 L 671.417 518.324 Q 671.605 518.387 671.769 518.387 L 671.769 518.387 L 671.769 518.387 Q 672.042 518.387 672.3 517.824 L 672.3 517.824 L 672.3 517.824 Q 673.128 515.902 673.128 513.27 L 673.128 513.27 L 673.128 513.27 Q 673.128 512.012 672.706 511.645 L 672.706 511.645 L 672.706 511.645 Q 672.48 511.441 671.948 511.441 L 671.948 511.441 L 671.948 511.441 Q 671.292 511.441 670.425 511.66 L 670.425 511.66 L 670.425 511.66 Q 668.894 515.762 667.886 518.082 L 667.886 518.082 L 667.886 518.082 Q 667.527 518.902 667.284 519.215 L 667.284 519.215 L 667.284 519.215 Q 667.034 519.535 666.761 519.535 L 666.761 519.535 L 666.761 519.535 Q 666.613 519.535 666.488 519.371 L 666.488 519.371 L 666.488 519.371 Q 666.347 519.191 666.347 518.895 L 666.347 518.895 L 666.347 518.895 Q 666.347 518.699 666.55 518.348 L 666.55 518.348 L 666.55 518.348 Q 666.573 518.301 666.745 518.012 L 666.745 518.012 L 666.745 518.012 Q 666.839 517.848 666.909 517.73 L 666.909 517.73 L 666.909 517.73 Q 667.863 516.027 669.581 511.84 L 669.581 511.84 L 669.581 511.84 Q 669.011 512.02 667.323 512.652 L 667.323 512.652 L 667.323 512.652 Q 666.972 512.832 666.73 512.832 L 666.73 512.832 L 666.73 512.832 Q 666.433 512.832 666.214 512.355 L 666.214 512.355 L 666.214 512.355 Q 666.003 511.887 665.995 511.184 L 665.995 511.184 L 666.363 511.059 L 666.363 511.059 Q 666.495 511.746 666.956 511.746 L 666.956 511.746 L 666.956 511.746 Q 667.456 511.746 669.816 511.121 Z  M 675.675 514.691 L 675.659 514.246 L 675.659 514.246 Q 676.909 514.191 677.769 514.098 L 677.769 514.098 L 677.769 514.098 Q 678.011 514.074 678.011 513.809 L 678.011 513.809 L 678.011 513.809 Q 678.011 513.09 677.323 512.082 L 677.323 512.082 L 677.323 512.082 Q 676.722 511.215 675.48 510.449 L 675.48 510.449 L 675.691 510.066 L 675.691 510.066 Q 676.613 510.457 677.152 510.863 L 677.152 510.863 L 677.152 510.863 Q 677.644 511.23 678.089 511.793 L 678.089 511.793 L 678.089 511.793 Q 679.292 513.277 679.292 514.723 L 679.292 514.723 L 679.292 514.723 Q 679.292 515.59 678.816 515.59 L 678.816 515.59 L 678.816 515.59 Q 678.542 515.59 678.347 515.285 L 678.347 515.285 L 678.347 515.285 Q 678.073 514.879 677.214 514.785 L 677.214 514.785 L 677.214 514.785 Q 676.511 514.707 675.675 514.691 L 675.675 514.691 L 675.675 514.691 Z  M 672.999 494.008 L 672.999 494.008 L 672.999 494.008 Q 673.015 493.719 673.015 493 L 673.015 493 L 673.015 493 Q 673.03 492.266 672.96 491.984 L 672.96 491.984 L 672.96 491.984 Q 672.913 491.758 672.757 491.594 L 672.757 491.594 L 672.757 491.594 Q 672.585 491.445 671.976 491.383 L 671.976 491.383 L 671.991 490.938 L 671.991 490.938 Q 672.554 490.891 672.874 490.891 L 672.874 490.891 L 672.874 490.891 Q 674.085 490.891 674.085 491.594 L 674.085 491.594 L 674.085 491.594 Q 674.085 491.68 674.054 491.875 L 674.054 491.875 L 674.054 491.875 Q 674.03 492.078 674.023 492.156 L 674.023 492.156 L 674.023 492.156 Q 673.929 493.07 673.882 493.914 L 673.882 493.914 L 673.882 493.914 Q 677.866 493.563 678.265 493.563 L 678.265 493.563 L 678.265 493.563 Q 679.499 493.563 679.499 494.234 L 679.499 494.234 L 679.499 494.234 Q 679.499 494.68 679.07 494.68 L 679.07 494.68 L 679.07 494.68 Q 679.015 494.68 678.835 494.648 L 678.835 494.648 L 678.835 494.648 Q 678.663 494.625 678.538 494.617 L 678.538 494.617 L 678.538 494.617 Q 676.71 494.477 675.82 494.477 L 675.82 494.477 L 675.82 494.477 Q 674.593 494.477 673.835 494.539 L 673.835 494.539 L 673.835 494.539 Q 673.82 494.867 673.796 495.883 L 673.796 495.883 L 673.796 495.883 Q 673.78 496.688 673.749 497.32 L 673.749 497.32 L 673.749 497.32 Q 674.296 498.344 674.296 499.75 L 674.296 499.75 L 674.296 499.75 Q 674.296 503.391 669.702 504.891 L 669.702 504.891 L 669.484 504.461 L 669.484 504.461 Q 671.757 503.406 672.655 502.156 L 672.655 502.156 L 672.655 502.156 Q 673.32 501.227 673.413 499.898 L 673.413 499.898 L 673.413 499.898 Q 673.054 501.078 671.702 501.078 L 671.702 501.078 L 671.702 501.078 Q 670.882 501.078 670.343 500.375 L 670.343 500.375 L 670.343 500.375 Q 669.851 499.75 669.851 498.844 L 669.851 498.844 L 669.851 498.844 Q 669.851 497.734 670.577 497.063 L 670.577 497.063 L 670.577 497.063 Q 671.179 496.492 672.023 496.492 L 672.023 496.492 L 672.023 496.492 Q 672.491 496.492 672.999 496.727 L 672.999 496.727 L 672.999 494.586 L 672.999 494.586 Q 670.671 494.813 667.734 495.484 L 667.734 495.484 L 667.734 495.484 Q 667.312 495.563 667.148 495.563 L 667.148 495.563 L 667.148 495.563 Q 666.773 495.563 666.429 495.031 L 666.429 495.031 L 666.429 495.031 Q 666.124 494.578 665.96 493.883 L 665.96 493.883 L 666.343 493.688 L 666.343 493.688 Q 666.859 494.523 667.484 494.523 L 667.484 494.523 L 667.484 494.523 Q 667.71 494.523 668.343 494.461 L 668.343 494.461 L 668.343 494.461 Q 669.14 494.383 669.366 494.359 L 669.366 494.359 L 669.366 494.359 Q 669.968 494.313 671.14 494.195 L 671.14 494.195 L 671.14 494.195 Q 672.327 494.07 672.999 494.008 Z  M 673.093 498.664 L 673.093 498.664 L 673.093 498.664 Q 673.093 497.82 672.687 497.375 L 672.687 497.375 L 672.687 497.375 Q 672.39 497.039 671.991 497.039 L 671.991 497.039 L 671.991 497.039 Q 671.32 497.039 670.945 497.594 L 670.945 497.594 L 670.945 497.594 Q 670.632 498.07 670.632 498.828 L 670.632 498.828 L 670.632 498.828 Q 670.632 499.578 671.023 500.023 L 671.023 500.023 L 671.023 500.023 Q 671.366 500.406 671.874 500.406 L 671.874 500.406 L 671.874 500.406 Q 672.452 500.406 672.796 499.859 L 672.796 499.859 L 672.796 499.859 Q 673.093 499.383 673.093 498.664 Z  M 665.593 477.094 L 665.991 476.875 L 665.991 476.875 Q 666.39 477.609 667.015 477.609 L 667.015 477.609 L 667.015 477.609 Q 667.109 477.609 672.405 476.555 L 672.405 476.555 L 672.405 476.555 Q 676.405 475.766 676.663 475.766 L 676.663 475.766 L 676.663 475.766 Q 677.202 475.766 677.64 476.039 L 677.64 476.039 L 677.64 476.039 Q 677.945 476.242 677.945 476.523 L 677.945 476.523 L 677.945 476.523 Q 677.945 476.906 677.398 476.906 L 677.398 476.906 L 676.616 476.883 L 676.616 476.883 Q 676.054 476.883 675.624 476.93 L 675.624 476.93 L 675.624 476.93 Q 674.07 477.102 673.015 477.984 L 673.015 477.984 L 673.015 477.984 Q 670.984 479.781 670.984 482.453 L 670.984 482.453 L 670.984 482.453 Q 670.984 484.125 672.038 485.063 L 672.038 485.063 L 672.038 485.063 Q 672.804 485.781 674.218 485.781 L 674.218 485.781 L 674.218 485.781 Q 674.437 485.781 675.046 485.75 L 675.046 485.75 L 675.046 485.75 Q 675.445 485.719 675.562 485.719 L 675.562 485.719 L 675.562 485.719 Q 676.109 485.719 676.39 485.906 L 676.39 485.906 L 676.39 485.906 Q 676.616 486.063 676.616 486.438 L 676.616 486.438 L 676.616 486.438 Q 676.616 486.883 674.843 486.883 L 674.843 486.883 L 674.843 486.883 Q 672.468 486.883 671.241 485.609 L 671.241 485.609 L 671.241 485.609 Q 670.155 484.484 670.155 482.531 L 670.155 482.531 L 670.155 482.531 Q 670.155 479.016 673.499 477 L 673.499 477 L 673.484 476.953 L 673.484 476.953 Q 669.921 477.781 667.562 478.57 L 667.562 478.57 L 667.562 478.57 Q 667.054 478.742 666.843 478.742 L 666.843 478.742 L 666.843 478.742 Q 666.484 478.742 666.101 478.25 L 666.101 478.25 L 666.101 478.25 Q 665.726 477.773 665.593 477.094 L 665.593 477.094 L 665.593 477.094 Z  M 675.116 479.477 L 675.351 479.156 L 675.351 479.156 Q 676.39 479.516 676.976 480.055 L 676.976 480.055 L 676.976 480.055 Q 677.484 480.523 677.484 480.977 L 677.484 480.977 L 677.484 480.977 Q 677.484 481.539 676.999 481.539 L 676.999 481.539 L 676.999 481.539 Q 676.671 481.539 676.476 481.039 L 676.476 481.039 L 676.476 481.039 Q 676.101 480.141 675.116 479.477 L 675.116 479.477 L 675.116 479.477 Z  M 676.585 478.375 L 676.827 478.055 L 676.827 478.055 Q 677.843 478.359 678.468 478.922 L 678.468 478.922 L 678.468 478.922 Q 678.999 479.398 678.999 479.844 L 678.999 479.844 L 678.999 479.844 Q 678.999 480.406 678.538 480.406 L 678.538 480.406 L 678.538 480.406 Q 678.226 480.406 677.991 479.875 L 677.991 479.875 L 677.991 479.875 Q 677.632 479.086 676.585 478.375 L 676.585 478.375 L 676.585 478.375 Z " id="複合パス" fill="rgb(255,255,255)"/><g clip-path="url(#_clipPath_ybSQyoZvOvAed388qEQUS3dT3PhpzhKP)"><text transform="matrix(1,0,0,1,652,447.294)" id="テキスト" style="font-family:'Yu Gothic UI';font-weight:700;font-size:18px;font-style:normal;fill:#ffffff;stroke:none;">Round-A</text></g><defs><clipPath id="_clipPath_ybSQyoZvOvAed388qEQUS3dT3PhpzhKP"><rect x="0" y="0" width="76" height="23.941" transform="matrix(1,0,0,1,652,427.87)"/></clipPath></defs><g clip-path="url(#_clipPath_LPdSpbrUktbvsik30ITq4ja4eaIznjd0)"><text transform="matrix(1,0,0,1,652.5,331.424)" id="テキスト" style="font-family:'Yu Gothic UI';font-weight:700;font-size:18px;font-style:normal;fill:#ffffff;stroke:none;">化学の友</text></g><defs><clipPath id="_clipPath_LPdSpbrUktbvsik30ITq4ja4eaIznjd0"><rect x="0" y="0" width="74" height="23.941" transform="matrix(1,0,0,1,652.5,312)"/></clipPath></defs><g clip-path="url(#_clipPath_wJ2sOAAKVwR90FwdOXjDX8jnhAbb8eG0)"><text transform="matrix(1,0,0,1,667,120.582)" id="テキスト" style="font-family:'Yu Gothic UI';font-weight:700;font-size:20px;font-style:normal;fill:#ffffff;stroke:none;">解体</text><text transform="matrix(1,0,0,1,667,147.184)" id="テキスト" style="font-family:'Yu Gothic UI';font-weight:700;font-size:20px;font-style:normal;fill:#ffffff;stroke:none;">新書</text></g><defs><clipPath id="_clipPath_wJ2sOAAKVwR90FwdOXjDX8jnhAbb8eG0"><rect x="0" y="0" width="88" height="53.203" transform="matrix(1,0,0,1,667,99)"/></clipPath></defs></g></g><path d=" M 669.925 534.517 C 669.731 534.73 669.456 534.945 669.297 534.995 Q 669.031 535.08 668.873 534.912 L 669.81 533.972 L 669.81 533.972 L 669.81 533.972 C 670.003 533.918 670.144 533.914 670.149 534.141 C 670.151 534.232 670.057 534.374 669.925 534.517 L 669.925 534.517 Z  M 667.942 531.278 L 667.942 531.278 C 668.074 531.145 668.601 531.459 669.119 531.978 L 669.119 531.978 L 669.119 531.978 C 669.636 532.496 669.951 533.023 669.822 533.153 L 669.822 533.153 L 669.822 533.153 C 669.693 533.282 669.168 532.967 668.65 532.448 L 668.65 532.448 L 668.65 532.448 C 668.133 531.929 667.815 531.405 667.942 531.278 L 667.942 531.278 L 667.942 531.278 L 667.942 531.278 Z  M 669.736 533.548 C 669.794 533.542 669.85 533.54 669.902 533.542 C 670.089 533.551 670.227 533.63 670.282 533.891 C 670.317 534.061 670.149 534.309 669.925 534.517 C 669.71 534.722 669.443 534.889 669.262 534.914 Q 668.894 534.965 668.614 534.673 L 669.736 533.548 L 669.736 533.548 Z  M 669.902 533.542 L 670.056 533.388 L 670.056 533.388 C 670.315 533.128 670 532.391 669.353 531.743 L 669.353 531.743 L 669.353 531.743 C 668.706 531.094 667.971 530.778 667.713 531.038 L 667.713 531.038 L 666.658 532.095 C 666.331 532.424 666.169 532.856 666.173 533.287 L 666.072 533.388 L 666.072 533.388 C 665.878 533.582 666.088 534.109 666.541 534.563 L 666.541 534.563 L 666.541 534.563 C 666.994 535.017 667.519 535.227 667.713 535.033 L 667.713 535.033 L 667.814 534.932 L 667.814 534.932 L 667.814 534.932 C 668.243 534.936 668.674 534.774 669.002 534.445 L 669.902 533.542 L 669.902 533.542 Z  M 672.17 528.762 C 673.525 528.235 674.169 528.041 675.495 526.722 C 676.821 525.402 675.588 523.574 675.06 523.683 C 674.512 523.797 675.226 524.831 674.495 525.484 C 674.049 525.883 673.496 526.15 673.056 525.911 C 672.346 525.526 671.539 523.741 673.289 523.2 C 674.726 522.757 676.075 523.048 676.924 524.089 C 677.692 525.029 678.395 526.742 677.742 527.906 C 677.09 529.069 676.334 529.515 674.594 529.567 C 672.792 529.621 672.543 529.329 670.948 530.232 C 670.138 530.691 669.863 531.402 669.623 531.229 C 669.324 531.014 669.828 530.276 670.632 529.588 C 670.948 529.318 671.44 529.047 672.17 528.762 Z " fill-rule="evenodd" id="複合シェイプ" fill="rgb(255,255,255)" vector-effect="non-scaling-stroke" stroke-width="0.125" stroke="rgb(255,255,255)" stroke-linejoin="miter" stroke-linecap="square" stroke-miterlimit="3"/></g></svg>