<?xml version="1.0" encoding="UTF-8" standalone="no"?><!-- Generator: Gravit.io --><svg xmlns="http://www.w3.org/2000/svg" xmlns:xlink="http://www.w3.org/1999/xlink" style="isolation:isolate" viewBox="0 0 1000 800" width="1000pt" height="800pt"><defs><clipPath id="_clipPath_VqeiOeT12a6hkS6IhmECC6aZbihZgpf9"><rect width="1000" height="800"/></clipPath></defs><g clip-path="url(#_clipPath_VqeiOeT12a6hkS6IhmECC6aZbihZgpf9)"><g style="isolation:isolate" id="outer"><path d=" M 872.844 120 L 902.319 10 L 502.319 10 L 496.424 32 L 316.424 32 L 322.319 10 L 212.319 10 L 207.898 26.5 L 197.898 26.5" id="パス" fill="none" vector-effect="non-scaling-stroke" stroke-width="1.483" stroke="rgb(0,0,0)" stroke-linejoin="miter" stroke-linecap="square" stroke-miterlimit="3"/><path d=" M 197.898 26.5 C 194.15 21.825 179.302 20.794 169.371 21 C 139.085 21.137 124.822 37.337 117.582 65 C 113.179 81.431 114.318 97.083 127.266 103.5 L 122.844 120 L 102.844 120 L 10 466.5 L 40 466.5 L 35.579 483 L 145.579 483 L 242.844 120 C 254.22 120 270.845 120 292.719 120 C 292.767 119.94 294.306 114.371 294.318 114.5 C 294.339 114.423 409.4 114.5 477.318 114.5 C 477.34 114.506 475.833 119.998 475.844 120 Q 619.165 120 872.844 120" id="パス" fill="none" vector-effect="non-scaling-stroke" stroke-width="1.483" stroke="rgb(0,0,0)" stroke-linejoin="miter" stroke-linecap="square" stroke-miterlimit="3"/><path d=" M 127.266 103.5 L 187.266 103.5 L 207.898 26.5" id="パス" fill="none" vector-effect="non-scaling-stroke" stroke-width="1.483" stroke="rgb(0,0,0)" stroke-linejoin="miter" stroke-linecap="square" stroke-miterlimit="3"/></g><g style="isolation:isolate" id="booth"><path d=" M 872.844 120 L 740.844 120 L 754.108 70.5 L 886.108 70.5 L 872.844 120 Z " id="maps_H2A" fill="rgb(209,209,209)" vector-effect="non-scaling-stroke" stroke-width="1.187" stroke="rgb(0,0,0)" stroke-linejoin="miter" stroke-linecap="square" stroke-miterlimit="3"/><path d=" M 740.844 120 L 619.844 120 L 633.108 70.5 L 754.108 70.5 L 740.844 120 Z " id="maps_H2C" fill="rgb(209,209,209)" vector-effect="non-scaling-stroke" stroke-width="1.187" stroke="rgb(0,0,0)" stroke-linejoin="miter" stroke-linecap="square" stroke-miterlimit="3"/><path d=" M 619.844 120 L 545.844 120 L 559.108 70.5 L 633.108 70.5 L 619.844 120 Z " id="maps_H2E" fill="rgb(209,209,209)" vector-effect="non-scaling-stroke" stroke-width="1.187" stroke="rgb(0,0,0)" stroke-linejoin="miter" stroke-linecap="square" stroke-miterlimit="3"/><path d=" M 144.128 189.85 L 138.97 209.1 L 218.97 209.1 L 224.128 189.85 L 144.128 189.85 Z " id="maps_M2C_2" fill="rgb(209,209,209)" vector-effect="non-scaling-stroke" stroke-width="1.187" stroke="rgb(0,0,0)" stroke-linejoin="miter" stroke-linecap="square" stroke-miterlimit="3"/><path d=" M 138.97 209.1 L 133.959 227.8 L 213.959 227.8 L 218.97 209.1 L 138.97 209.1 Z " id="maps_M2C_1" fill="rgb(209,209,209)" vector-effect="non-scaling-stroke" stroke-width="1.187" stroke="rgb(0,0,0)" stroke-linejoin="miter" stroke-linecap="square" stroke-miterlimit="3"/><path d=" M 213.959 227.8 L 203.349 267.4 L 123.349 267.4 L 133.959 227.8 L 213.959 227.8 Z " id="maps_M2B" fill="rgb(209,209,209)" vector-effect="non-scaling-stroke" stroke-width="1.187" stroke="rgb(0,0,0)" stroke-linejoin="miter" stroke-linecap="square" stroke-miterlimit="3"/><path d=" M 233.265 155.75 L 224.128 189.85 L 144.128 189.85 L 153.265 155.75 L 233.265 155.75 Z " id="maps_M2D" fill="rgb(209,209,209)" vector-effect="non-scaling-stroke" stroke-width="1.187" stroke="rgb(0,0,0)" stroke-linejoin="miter" stroke-linecap="square" stroke-miterlimit="3"/><path d=" M 203.349 267.4 L 193.77 303.15 L 113.77 303.15 L 123.349 267.4 L 203.349 267.4 Z " id="maps_M2A" fill="rgb(209,209,209)" vector-effect="non-scaling-stroke" stroke-width="1.187" stroke="rgb(0,0,0)" stroke-linejoin="miter" stroke-linecap="square" stroke-miterlimit="3"/><path d=" M 189.348 319.65 L 174.022 376.85 L 94.022 376.85 L 109.348 319.65 L 189.348 319.65 Z " id="maps_ScienceLab" fill="rgb(209,209,209)" vector-effect="non-scaling-stroke" stroke-width="1.187" stroke="rgb(0,0,0)" stroke-linejoin="miter" stroke-linecap="square" stroke-miterlimit="3"/><path d=" M 159.727 430.2 L 145.579 483 L 65.579 483 L 79.727 430.2 L 159.727 430.2 Z " id="maps_BiologyLab" fill="rgb(209,209,209)" vector-effect="non-scaling-stroke" stroke-width="1.187" stroke="rgb(0,0,0)" stroke-linejoin="miter" stroke-linecap="square" stroke-miterlimit="3"/><path d=" M 758.529 54 L 660.029 54 L 671.819 10 L 770.319 10 L 758.529 54 Z " id="maps_SRNo3" fill="rgb(209,209,209)" vector-effect="non-scaling-stroke" stroke-width="1.187" stroke="rgb(0,0,0)" stroke-linejoin="miter" stroke-linecap="square" stroke-miterlimit="3"/><path d=" M 660.529 54 L 592.529 54 L 604.319 10 L 672.319 10 L 660.529 54 Z " id="maps_SRNo4" fill="rgb(209,209,209)" vector-effect="non-scaling-stroke" stroke-width="1.187" stroke="rgb(0,0,0)" stroke-linejoin="miter" stroke-linecap="square" stroke-miterlimit="3"/></g><g style="isolation:isolate" id="blank"><path d=" M 188.844 120 L 190.613 113.4 L 164.613 113.4 L 162.844 120 L 188.844 120 Z " id="パス" fill="rgb(93,93,93)" vector-effect="non-scaling-stroke" stroke-width="1.187" stroke="rgb(0,0,0)" stroke-linejoin="miter" stroke-linecap="square" stroke-miterlimit="3"/><path d=" M 545.844 120 L 475.844 120 L 489.108 70.5 L 559.108 70.5 L 545.844 120 Z " id="Labo_English" fill="rgb(93,93,93)" vector-effect="non-scaling-stroke" stroke-width="1.187" stroke="rgb(0,0,0)" stroke-linejoin="miter" stroke-linecap="square" stroke-miterlimit="3"/><path d=" M 79.622 355.95 L 84.927 336.15 L 44.927 336.15 L 39.622 355.95 L 79.622 355.95 Z " id="パス" fill="rgb(93,93,93)" vector-effect="non-scaling-stroke" stroke-width="1.187" stroke="rgb(0,0,0)" stroke-linejoin="miter" stroke-linecap="square" stroke-miterlimit="3"/><path d=" M 74.316 375.75 L 79.622 355.95 L 39.622 355.95 L 34.316 375.75 L 74.316 375.75 Z " id="パス" fill="rgb(93,93,93)" vector-effect="non-scaling-stroke" stroke-width="1.187" stroke="rgb(0,0,0)" stroke-linejoin="miter" stroke-linecap="square" stroke-miterlimit="3"/><path d=" M 59.874 429.65 L 74.316 375.75 L 34.316 375.75 L 19.874 429.65 L 59.874 429.65 Z " id="パス" fill="rgb(93,93,93)" vector-effect="non-scaling-stroke" stroke-width="1.187" stroke="rgb(0,0,0)" stroke-linejoin="miter" stroke-linecap="square" stroke-miterlimit="3"/><path d=" M 50 466.5 L 59.727 430.2 L 19.727 430.2 L 10 466.5 L 50 466.5 Z " id="パス" fill="rgb(93,93,93)" vector-effect="non-scaling-stroke" stroke-width="1.187" stroke="rgb(0,0,0)" stroke-linejoin="miter" stroke-linecap="square" stroke-miterlimit="3"/><path d=" M 84.927 336.15 L 89.348 319.65 L 49.348 319.65 L 44.927 336.15 L 84.927 336.15 Z " id="パス" fill="rgb(93,93,93)" vector-effect="non-scaling-stroke" stroke-width="1.187" stroke="rgb(0,0,0)" stroke-linejoin="miter" stroke-linecap="square" stroke-miterlimit="3"/><path d=" M 142.844 120 L 133.265 155.75 L 93.265 155.75 L 102.844 120 L 142.844 120 Z " id="パス" fill="rgb(93,93,93)" vector-effect="non-scaling-stroke" stroke-width="1.187" stroke="rgb(0,0,0)" stroke-linejoin="miter" stroke-linecap="square" stroke-miterlimit="3"/><path d=" M 133.265 155.75 L 123.097 193.7 L 83.097 193.7 L 93.265 155.75 L 133.265 155.75 Z " id="Counseling_Room" fill="rgb(93,93,93)" vector-effect="non-scaling-stroke" stroke-width="1.187" stroke="rgb(0,0,0)" stroke-linejoin="miter" stroke-linecap="square" stroke-miterlimit="3"/><path d=" M 890.529 54 L 902.319 10 L 867.319 10 L 855.529 54 L 890.529 54 Z " id="StairE" fill="rgb(93,93,93)" vector-effect="non-scaling-stroke" stroke-width="1.187" stroke="rgb(0,0,0)" stroke-linejoin="miter" stroke-linecap="square" stroke-miterlimit="3"/><path d=" M 819.529 54 L 831.319 10 L 867.319 10 L 855.529 54 L 819.529 54 Z " id="Audiovisual_Preparation_Room" fill="rgb(93,93,93)" vector-effect="non-scaling-stroke" stroke-width="1.187" stroke="rgb(0,0,0)" stroke-linejoin="miter" stroke-linecap="square" stroke-miterlimit="3"/><path d=" M 254.634 76 L 244.634 76 L 232.844 120 L 292.844 120 L 296.774 105.333 L 304.634 76 L 254.634 76 Z " id="Student_Guidance_Office" fill="rgb(93,93,93)" vector-effect="non-scaling-stroke" stroke-width="1.187" stroke="rgb(0,0,0)" stroke-linejoin="miter" stroke-linecap="square" stroke-miterlimit="3"/><path d=" M 166.948 403.25 L 159.727 430.2 L 79.727 430.2 L 86.948 403.25 L 166.948 403.25 Z " id="パス" fill="rgb(93,93,93)" vector-effect="non-scaling-stroke" stroke-width="1.187" stroke="rgb(0,0,0)" stroke-linejoin="miter" stroke-linecap="square" stroke-miterlimit="3"/><path d=" M 140.27 303.15 L 156.395 303.15 L 193.77 303.15 L 189.348 319.65 L 109.348 319.65 L 113.77 303.15 L 140.27 303.15 Z " id="パス" fill="rgb(93,93,93)" vector-effect="non-scaling-stroke" stroke-width="1.187" stroke="rgb(0,0,0)" stroke-linejoin="miter" stroke-linecap="square" stroke-miterlimit="3"/><path d=" M 50 466.5 L 45.579 483 L 35.579 483 L 40 466.5 L 50 466.5 Z " id="パス" fill="rgb(93,93,93)" vector-effect="non-scaling-stroke" stroke-width="1.187" stroke="rgb(0,0,0)" stroke-linejoin="miter" stroke-linecap="square" stroke-miterlimit="3"/><path d=" M 819.529 54 L 789.529 54 L 801.319 10 L 831.319 10 L 819.529 54 Z " id="H1_StaffRoom" fill="rgb(93,93,93)" vector-effect="non-scaling-stroke" stroke-width="1.187" stroke="rgb(0,0,0)" stroke-linejoin="miter" stroke-linecap="square" stroke-miterlimit="3"/><path d=" M 789.529 54 L 758.529 54 L 770.319 10 L 801.319 10 L 789.529 54 Z " id="H1_StaffRoom" fill="rgb(93,93,93)" vector-effect="non-scaling-stroke" stroke-width="1.187" stroke="rgb(0,0,0)" stroke-linejoin="miter" stroke-linecap="square" stroke-miterlimit="3"/><path d=" M 316.424 32 L 256.424 32 L 262.319 10 L 322.319 10 L 316.424 32 Z " id="Interview_Room" fill="rgb(93,93,93)" vector-effect="non-scaling-stroke" stroke-width="1.187" stroke="rgb(0,0,0)" stroke-linejoin="miter" stroke-linecap="square" stroke-miterlimit="3"/><path d=" M 212.319 10 L 262.319 10 L 250.529 54 L 262.319 10 L 212.319 10 L 200.529 54 L 212.319 10 Z " fill-rule="evenodd" id="StairC" fill="none" vector-effect="non-scaling-stroke" stroke-width="1.483" stroke="rgb(0,0,0)" stroke-linejoin="miter" stroke-linecap="square" stroke-miterlimit="3"/><path d=" M 242.844 120 L 175.344 120 L 162.844 120 L 153.265 155.75 L 233.265 155.75 L 242.844 120 Z " id="Catholic_Center" fill="rgb(93,93,93)" vector-effect="non-scaling-stroke" stroke-width="1.187" stroke="rgb(0,0,0)" stroke-linejoin="miter" stroke-linecap="square" stroke-miterlimit="3"/><path d=" M 174.169 376.3 L 167.095 402.7 L 87.095 402.7 L 88.462 397.6 L 94.169 376.3 L 174.169 376.3 Z " id="パス" fill="rgb(93,93,93)" vector-effect="non-scaling-stroke" stroke-width="1.187" stroke="rgb(0,0,0)" stroke-linejoin="miter" stroke-linecap="square" stroke-miterlimit="3"/></g><g style="isolation:isolate" id="special"><path d=" M 93.77 303.15 L 53.77 303.15 L 64.528 263 L 104.528 263 L 93.77 303.15 Z " id="パス" fill="rgb(255,0,0)" vector-effect="non-scaling-stroke" stroke-width="1.2" stroke="rgb(0,0,0)" stroke-linejoin="miter" stroke-linecap="square" stroke-miterlimit="3"/><path d=" M 560.529 54 L 572.319 10 L 604.319 10 L 592.529 54 L 560.529 54 Z " id="Toilet" fill="rgb(255,0,0)" vector-effect="non-scaling-stroke" stroke-width="1.2" stroke="rgb(0,0,0)" stroke-linejoin="miter" stroke-linecap="square" stroke-miterlimit="3"/><path d=" M 187.266 103.5 L 207.898 26.5 L 197.898 26.5 Q 193.157 20.751 169.371 21 C 145.586 21.249 126.292 32.086 119.055 59.5 C 111.819 86.914 117.034 96.9 127.266 103.5 C 127.484 103.641 184.552 103.362 187.266 103.5 Z " id="maps_Seido" fill="rgb(93,93,93)" vector-effect="non-scaling-stroke" stroke-width="1.187" stroke="rgb(0,0,0)" stroke-linejoin="miter" stroke-linecap="square" stroke-miterlimit="3"/><path d=" M 110.423 241 L 104.528 263 L 64.528 263 L 70.423 241" id="パス" fill="none" vector-effect="non-scaling-stroke" stroke-width="1.483" stroke="rgb(0,0,0)" stroke-linejoin="miter" stroke-linecap="square" stroke-miterlimit="3"/><path d=" M 494.95 37.5 L 502.319 10 L 572.319 10 L 564.95 37.5" id="パス" fill="none" vector-effect="non-scaling-stroke" stroke-width="1.483" stroke="rgb(0,0,0)" stroke-linejoin="miter" stroke-linecap="square" stroke-miterlimit="3"/><path d=" M 477.318 114.5 L 492.055 59.5 L 309.055 59.5 L 294.318 114.5 L 477.318 114.5 Z " id="パス" fill="none" vector-effect="non-scaling-stroke" stroke-width="1.483" stroke="rgb(0,0,0)" stroke-linejoin="miter" stroke-linecap="square" stroke-miterlimit="3"/></g><g style="isolation:isolate" id="Decorations"><g style="isolation:isolate" id="stairB"><path d=" M 66.075 257.225 L 79.966 257.225 L 106.075 257.225 M 108.212 249.25 L 88.212 249.25 M 106.738 254.75 L 86.738 254.75 M 108.949 246.5 L 88.949 246.5 M 107.475 252 L 87.475 252 M 109.833 243.2 L 89.833 243.2 M 90.423 241 Q 87.817 250.725 86.149 256.95" fill-rule="evenodd" id="複合パス" fill="none" vector-effect="non-scaling-stroke" stroke-width="0.742" stroke="rgb(0,0,0)" stroke-linejoin="miter" stroke-linecap="square" stroke-miterlimit="3"/><path d=" M 66.738 254.75 L 86.738 254.75 L 87.475 252 L 67.475 252 L 68.212 249.25 L 88.212 249.25 L 88.949 246.5 L 68.949 246.5 L 69.833 243.2 L 89.833 243.2" id="パス" fill="none" vector-effect="non-scaling-stroke" stroke-width="0.742" stroke="rgb(0,0,0)" stroke-linejoin="miter" stroke-linecap="square" stroke-miterlimit="3"/></g><g style="isolation:isolate" id="stairC"><path d=" M 234.371 21 L 259.371 21 L 258.635 23.75 L 233.635 23.75 L 232.898 26.5 L 257.898 26.5 L 257.161 29.25 L 232.161 29.25 L 231.424 32 L 256.424 32 L 255.687 34.75 L 230.687 34.75 L 229.95 37.5 L 254.95 37.5 L 254.213 40.25 L 229.213 40.25 L 228.476 43 L 253.476 43" id="パス" fill="none" vector-effect="non-scaling-stroke" stroke-width="0.742" stroke="rgb(0,0,0)" stroke-linejoin="miter" stroke-linecap="square" stroke-miterlimit="3"/><path d=" M 234.961 18.8 L 228.476 43 L 228.476 43 L 203.476 43 L 204.213 40.25 L 229.213 40.25 L 229.95 37.5 L 204.95 37.5 L 205.687 34.75 L 230.687 34.75 L 231.424 32 L 206.424 32 L 207.161 29.25 L 232.161 29.25 L 232.898 26.5 L 207.898 26.5 L 208.635 23.75 L 233.635 23.75 L 234.371 21 L 209.371 21" id="パス" fill="none" vector-effect="non-scaling-stroke" stroke-width="0.742" stroke="rgb(0,0,0)" stroke-linejoin="miter" stroke-linecap="square" stroke-miterlimit="3"/></g><g style="isolation:isolate" id="stairD"><line x1="494.95" y1="37.5" x2="539.95" y2="37.5" id="パス" vector-effect="non-scaling-stroke" stroke-width="1.483" stroke="rgb(0,0,0)" stroke-linejoin="miter" stroke-linecap="square" stroke-miterlimit="3"/><line x1="518.635" y1="23.75" x2="552.635" y2="23.75" id="パス" vector-effect="non-scaling-stroke" stroke-width="1.483" stroke="rgb(0,0,0)" stroke-linejoin="miter" stroke-linecap="square" stroke-miterlimit="3"/><path d=" M 551.782 23.2 L 555.319 10 L 551.319 10 L 547.635 23.75 L 543.635 23.75 L 547.319 10 L 543.319 10 L 539.635 23.75 L 535.635 23.75 L 539.319 10 L 535.319 10 L 531.635 23.75 L 527.635 23.75 L 531.319 10 L 527.319 10 L 523.635 23.75 L 519.635 23.75 L 523.319 10 L 502.319 10 L 495.245 36.4 L 495.95 37.5 L 517.95 37.5 L 521.635 23.75 L 525.635 23.75 L 521.95 37.5 L 525.95 37.5 L 529.635 23.75 L 533.635 23.75 L 529.95 37.5" id="パス" fill="none" vector-effect="non-scaling-stroke" stroke-width="0.742" stroke="rgb(0,0,0)" stroke-linejoin="miter" stroke-linecap="square" stroke-miterlimit="3"/></g><path d=" M 578.138 28.15 C 578.544 26.632 581.115 25.4 583.875 25.4 C 586.634 25.4 588.544 26.632 588.138 28.15 C 587.731 29.668 585.161 30.9 582.401 30.9 C 579.641 30.9 577.731 29.668 578.138 28.15 Z  M 582.106 32 L 575.19 39.15 L 585.19 39.15 L 582.106 32 Z " fill-rule="evenodd" id="複合パス" fill="rgb(255,255,255)"/><path d=" M 74.789 279.5 C 75.195 277.982 77.766 276.75 80.526 276.75 C 83.285 276.75 85.195 277.982 84.789 279.5 C 84.382 281.018 81.812 282.25 79.052 282.25 C 76.292 282.25 74.382 281.018 74.789 279.5 Z  M 78.757 283.35 L 72.841 290.5 L 81.841 290.5 L 78.757 283.35 Z " fill-rule="evenodd" id="複合パス" fill="rgb(255,255,255)"/><g style="isolation:isolate" id="Text"/><g id="グループ"><line x1="144.97" y1="209.1" x2="143.97" y2="209.1" id="パス" vector-effect="non-scaling-stroke" stroke-width="1.483" stroke="rgb(139,139,139)" stroke-linejoin="miter" stroke-linecap="square" stroke-miterlimit="3"/><line x1="150.97" y1="209.1" x2="149.97" y2="209.1" id="パス" vector-effect="non-scaling-stroke" stroke-width="1.483" stroke="rgb(139,139,139)" stroke-linejoin="miter" stroke-linecap="square" stroke-miterlimit="3"/><line x1="156.97" y1="209.1" x2="155.97" y2="209.1" id="パス" vector-effect="non-scaling-stroke" stroke-width="1.483" stroke="rgb(139,139,139)" stroke-linejoin="miter" stroke-linecap="square" stroke-miterlimit="3"/><line x1="162.97" y1="209.1" x2="161.97" y2="209.1" id="パス" vector-effect="non-scaling-stroke" stroke-width="1.483" stroke="rgb(139,139,139)" stroke-linejoin="miter" stroke-linecap="square" stroke-miterlimit="3"/><line x1="168.97" y1="209.1" x2="167.97" y2="209.1" id="パス" vector-effect="non-scaling-stroke" stroke-width="1.483" stroke="rgb(139,139,139)" stroke-linejoin="miter" stroke-linecap="square" stroke-miterlimit="3"/><line x1="174.97" y1="209.1" x2="173.97" y2="209.1" id="パス" vector-effect="non-scaling-stroke" stroke-width="1.483" stroke="rgb(139,139,139)" stroke-linejoin="miter" stroke-linecap="square" stroke-miterlimit="3"/><line x1="180.97" y1="209.1" x2="179.97" y2="209.1" id="パス" vector-effect="non-scaling-stroke" stroke-width="1.483" stroke="rgb(139,139,139)" stroke-linejoin="miter" stroke-linecap="square" stroke-miterlimit="3"/><line x1="186.97" y1="209.1" x2="185.97" y2="209.1" id="パス" vector-effect="non-scaling-stroke" stroke-width="1.483" stroke="rgb(139,139,139)" stroke-linejoin="miter" stroke-linecap="square" stroke-miterlimit="3"/><line x1="192.97" y1="209.1" x2="191.97" y2="209.1" id="パス" vector-effect="non-scaling-stroke" stroke-width="1.483" stroke="rgb(139,139,139)" stroke-linejoin="miter" stroke-linecap="square" stroke-miterlimit="3"/><line x1="198.97" y1="209.1" x2="197.97" y2="209.1" id="パス" vector-effect="non-scaling-stroke" stroke-width="1.483" stroke="rgb(139,139,139)" stroke-linejoin="miter" stroke-linecap="square" stroke-miterlimit="3"/><line x1="204.97" y1="209.1" x2="203.97" y2="209.1" id="パス" vector-effect="non-scaling-stroke" stroke-width="1.483" stroke="rgb(139,139,139)" stroke-linejoin="miter" stroke-linecap="square" stroke-miterlimit="3"/><line x1="211.97" y1="209.1" x2="210.97" y2="209.1" id="パス" vector-effect="non-scaling-stroke" stroke-width="1.483" stroke="rgb(139,139,139)" stroke-linejoin="miter" stroke-linecap="square" stroke-miterlimit="3"/></g></g><g clip-path="url(#_clipPath_9MweQeAou1e7SIpHjbfB3MZwOueEGeO3)"><text transform="matrix(1,0,0,1,70,477.747)" id="text_BiologyLab" style="font-family:'Yu Gothic UI';font-weight:700;font-size:14px;font-style:normal;fill:#000000;stroke:none;">生物実験室</text></g><defs><clipPath id="_clipPath_9MweQeAou1e7SIpHjbfB3MZwOueEGeO3"><rect x="0" y="0" width="79.985" height="18.621" transform="matrix(1,0,0,1,66.008,462.64)"/></clipPath></defs><g clip-path="url(#_clipPath_3od1kmz00L1BVWF7945LcPVWUw254f6x)"><text transform="matrix(1,0,0,1,98,371.107)" id="text_ScienceLab" style="font-family:'Yu Gothic UI';font-weight:700;font-size:14px;font-style:normal;fill:#000000;stroke:none;">化学実験室</text></g><defs><clipPath id="_clipPath_3od1kmz00L1BVWF7945LcPVWUw254f6x"><rect x="0" y="0" width="79.985" height="18.621" transform="matrix(1,0,0,1,94.008,356)"/></clipPath></defs><g clip-path="url(#_clipPath_Vj5E9lL4nOdLPzJDmwf37BCVNdfLyIv6)"><text transform="matrix(1,0,0,1,121.3,297.747)" id="text_M2A" style="font-family:'Yu Gothic UI';font-weight:700;font-size:14px;font-style:normal;fill:#000000;stroke:none;">中二A教室</text></g><defs><clipPath id="_clipPath_Vj5E9lL4nOdLPzJDmwf37BCVNdfLyIv6"><rect x="0" y="0" width="79.985" height="18.621" transform="matrix(1,0,0,1,115.008,282.64)"/></clipPath></defs><g clip-path="url(#_clipPath_mQSyKk3u7pdGLxrYzHcAZ9IaHM2lia7I)"><text transform="matrix(1,0,0,1,130.772,261.747)" id="text_M2B" style="font-family:'Yu Gothic UI';font-weight:700;font-size:14px;font-style:normal;fill:#000000;stroke:none;">中二B教室</text></g><defs><clipPath id="_clipPath_mQSyKk3u7pdGLxrYzHcAZ9IaHM2lia7I"><rect x="0" y="0" width="79.985" height="18.621" transform="matrix(1,0,0,1,124.008,246.64)"/></clipPath></defs><g clip-path="url(#_clipPath_CdHMKXJ2jP9ofzBYkRd57wHPH8cX5i7o)"><text transform="matrix(1,0,0,1,142.652,222.747)" id="text_M2C" style="font-family:'Yu Gothic UI';font-weight:700;font-size:14px;font-style:normal;fill:#000000;stroke:none;">中二C教室</text></g><defs><clipPath id="_clipPath_CdHMKXJ2jP9ofzBYkRd57wHPH8cX5i7o"><rect x="0" y="0" width="79.985" height="18.621" transform="matrix(1,0,0,1,136.008,207.64)"/></clipPath></defs><g clip-path="url(#_clipPath_WtIH1aM2Asv2NJEnLJuQbeBXBPB9JtAY)"><text transform="matrix(1,0,0,1,150.979,184.747)" id="text_M2D" style="font-family:'Yu Gothic UI';font-weight:700;font-size:14px;font-style:normal;fill:#000000;stroke:none;">中二D教室</text></g><defs><clipPath id="_clipPath_WtIH1aM2Asv2NJEnLJuQbeBXBPB9JtAY"><rect x="0" y="0" width="79.985" height="18.621" transform="matrix(1,0,0,1,145.008,169.64)"/></clipPath></defs><g clip-path="url(#_clipPath_OKtqxPcGju2yaHEOLfG3b0XoS8OW6Uys)"><text transform="matrix(1,0,0,1,551.377,114.387)" id="text_H2E" style="font-family:'Yu Gothic UI';font-weight:700;font-size:14px;font-style:normal;fill:#000000;stroke:none;">高二E教室</text></g><defs><clipPath id="_clipPath_OKtqxPcGju2yaHEOLfG3b0XoS8OW6Uys"><rect x="0" y="0" width="74.496" height="18.621" transform="matrix(1,0,0,1,546.752,99.28)"/></clipPath></defs><g clip-path="url(#_clipPath_Ui3u3MdU7zxmHtG10xpMaAI9sq2629jp)"><text transform="matrix(1,0,0,1,615,38.495)" id="text_SRNo4" style="font-family:'Yu Gothic UI';font-weight:700;font-size:14px;font-style:normal;fill:#000000;stroke:none;">特別</text><text transform="matrix(1,0,0,1,601,51.53)" id="text_SRNo4" style="font-family:'Yu Gothic UI';font-weight:700;font-size:14px;font-style:normal;fill:#000000;stroke:none;">第四教室</text></g><defs><clipPath id="_clipPath_Ui3u3MdU7zxmHtG10xpMaAI9sq2629jp"><rect x="0" y="0" width="64.992" height="31.656" transform="matrix(1,0,0,1,597.504,23.388)"/></clipPath></defs><g clip-path="url(#_clipPath_UBQq9FNMEOIuJhsulUOCBPzZvtK8QZPX)"><text transform="matrix(1,0,0,1,667,48.747)" id="text_SRNo3" style="font-family:'Yu Gothic UI';font-weight:700;font-size:14px;font-style:normal;fill:#000000;stroke:none;">特別第三教室</text></g><defs><clipPath id="_clipPath_UBQq9FNMEOIuJhsulUOCBPzZvtK8QZPX"><rect x="0" y="0" width="98" height="18.621" transform="matrix(1,0,0,1,661,33.64)"/></clipPath></defs><g clip-path="url(#_clipPath_2FHaMjhBzslhuaueHrICNBcUWGX8X9ak)"><text transform="matrix(1,0,0,1,641.317,114.747)" id="text_H2C" style="font-family:'Yu Gothic UI';font-weight:700;font-size:14px;font-style:normal;fill:#000000;stroke:none;">高二D,C教室</text></g><defs><clipPath id="_clipPath_2FHaMjhBzslhuaueHrICNBcUWGX8X9ak"><rect x="0" y="0" width="120.748" height="18.621" transform="matrix(1,0,0,1,621,99.64)"/></clipPath></defs><g clip-path="url(#_clipPath_DIPA58DZ68KsaIkzQT9RRe7NluXh2FCB)"><text transform="matrix(1,0,0,1,768.384,114.747)" id="text_H2A" style="font-family:'Yu Gothic UI';font-weight:700;font-size:14px;font-style:normal;fill:#000000;stroke:none;">高二B,A教室</text></g><defs><clipPath id="_clipPath_DIPA58DZ68KsaIkzQT9RRe7NluXh2FCB"><rect x="0" y="0" width="132.748" height="18.621" transform="matrix(1,0,0,1,741.626,99.64)"/></clipPath></defs><g style="isolation:isolate" id="レイヤー 40"><path d=" M 113.1 59.7 L 98.4 53.7 L 106.8 44.7 L 94.8 43.2 L 103.5 29.1 L 86.4 32.4 L 88.2 21 L 77.4 25.8 L 77.1 10.2 L 64.8 22.5 L 59.1 12.9 L 53.1 21.9 L 42.9 9.9 L 41.1 26.4 L 30 21 L 32.4 32.7 L 16.5 28.8 L 24.9 42.6 L 12.6 46.5 L 20.7 55.8 L 6.9 61.2 L 21 66.3 L 12.6 75.6 L 24.9 76.8 L 16.5 91.2 L 31.5 87.3 L 30 98.7 L 40.5 93.9 L 41.7 110.1 L 52.5 97.8 L 57.9 107.7 L 64.8 97.5 L 75.9 109.2 L 77.4 94.2 L 87 99.3 L 86.4 87.9 L 103.5 92.4 L 93.9 77.7 L 106.2 75 L 98.1 66.6 L 113.1 59.7 Z " id="パス" fill="none" vector-effect="non-scaling-stroke" stroke-width="2.7" stroke="rgb(0,0,0)" stroke-linejoin="miter" stroke-linecap="square" stroke-miterlimit="3"/><path d=" M 27.78 64.874 L 40.067 64.874 L 40.067 62.57 L 32.054 62.57 L 40.067 57.616 L 40.067 55.126 L 27.78 55.126 L 27.78 57.431 L 35.984 57.431 L 27.78 62.46 L 27.78 64.874 Z  M 44.175 61.453 L 87.147 77.284 C 88.522 77.79 89.757 76.265 88.977 75.025 L 79.504 60 L 88.977 44.977 C 89.759 43.736 88.523 42.21 87.147 42.716 L 44.144 58.56 C 43.471 58.85 43.141 59.348 43.14 60.024 C 43.138 60.7 43.665 61.263 44.175 61.452 L 44.175 61.453 Z  M 53.286 61.536 L 76.841 61.536 L 83.969 72.84 L 53.286 61.536 Z " fill-rule="evenodd" id="north-arrow-n-svgrepo-com" fill="rgb(0,0,0)"/></g></g></svg>