<?xml version="1.0" encoding="UTF-8" standalone="no"?><!-- Generator: Gravit.io --><svg xmlns="http://www.w3.org/2000/svg" xmlns:xlink="http://www.w3.org/1999/xlink" style="isolation:isolate" viewBox="0 0 800 1000" width="800pt" height="1000pt"><defs><clipPath id="_clipPath_ueiN16oDfo7fJnRUztheAPxZsoVu9Q4e"><rect width="800" height="1000"/></clipPath></defs><g clip-path="url(#_clipPath_ueiN16oDfo7fJnRUztheAPxZsoVu9Q4e)"><g style="isolation:isolate" id="outer"><path d=" M 20 740 L 20 940 L 420 940 L 420 900 L 600 900 L 600 940 L 710 940 L 710 910 L 720 910" id="パス" fill="none" vector-effect="non-scaling-stroke" stroke-width="2" stroke="rgb(0,0,0)" stroke-linejoin="miter" stroke-linecap="square" stroke-miterlimit="3"/><path d=" M 720 910 C 725 918.5 740.125 920.375 750 920 C 780.25 919.75 790.172 890.297 790 840 C 790 810.125 784.667 781.667 770 770 L 770 740 L 790 740 L 790 110 L 760 110 L 760 80 L 650 80 L 650 740 C 638.624 740 621.999 740 600.125 740 C 600.094 740.109 600.047 750.234 600 750 C 600 750.141 484.918 750 417 750 C 416.977 749.988 417.012 740.004 417 740 Q 273.68 740 20 740" id="パス" fill="none" vector-effect="non-scaling-stroke" stroke-width="2" stroke="rgb(0,0,0)" stroke-linejoin="miter" stroke-linecap="square" stroke-miterlimit="3"/><path d=" M 770 770 L 710 770 L 710 910" id="パス" fill="none" vector-effect="non-scaling-stroke" stroke-width="2" stroke="rgb(0,0,0)" stroke-linejoin="miter" stroke-linecap="square" stroke-miterlimit="3"/></g><g style="isolation:isolate" id="booth"><path d=" M 20 740 L 152 740 L 152 830 L 20 830 L 20 740 Z " id="maps_H2A" fill="rgb(139,139,139)" vector-effect="non-scaling-stroke" stroke-width="2" stroke="rgb(0,0,0)" stroke-linejoin="miter" stroke-linecap="square" stroke-miterlimit="3"/><path d=" M 152 740 L 283 740 L 283 830 L 152 830 L 152 740 Z " id="maps_H2C" fill="rgb(139,139,139)" vector-effect="non-scaling-stroke" stroke-width="2" stroke="rgb(0,0,0)" stroke-linejoin="miter" stroke-linecap="square" stroke-miterlimit="3"/><path d=" M 283 740 L 347 740 L 347 830 L 283 830 L 283 740 Z " id="maps_H2E" fill="rgb(139,139,139)" vector-effect="non-scaling-stroke" stroke-width="2" stroke="rgb(0,0,0)" stroke-linejoin="miter" stroke-linecap="square" stroke-miterlimit="3"/><path d=" M 730 613 L 730 578 L 650 578 L 650 613 L 730 613 Z " id="maps_M2C_2" fill="rgb(139,139,139)" vector-effect="non-scaling-stroke" stroke-width="2" stroke="rgb(0,0,0)" stroke-linejoin="miter" stroke-linecap="square" stroke-miterlimit="3"/><path d=" M 730 578 L 730 544 L 650 544 L 650 578 L 730 578 Z " id="maps_M2C_1" fill="rgb(139,139,139)" vector-effect="non-scaling-stroke" stroke-width="2" stroke="rgb(0,0,0)" stroke-linejoin="miter" stroke-linecap="square" stroke-miterlimit="3"/><path d=" M 650 544 L 650 472 L 730 472 L 730 544 L 650 544 Z " id="maps_M2B" fill="rgb(139,139,139)" vector-effect="non-scaling-stroke" stroke-width="2" stroke="rgb(0,0,0)" stroke-linejoin="miter" stroke-linecap="square" stroke-miterlimit="3"/><path d=" M 650 675 L 650 613 L 730 613 L 730 675 L 650 675 Z " id="maps_M2D" fill="rgb(139,139,139)" vector-effect="non-scaling-stroke" stroke-width="2" stroke="rgb(0,0,0)" stroke-linejoin="miter" stroke-linecap="square" stroke-miterlimit="3"/><path d=" M 650 472 L 650 407 L 730 407 L 730 472 L 650 472 Z " id="maps_M2A" fill="rgb(139,139,139)" vector-effect="non-scaling-stroke" stroke-width="2" stroke="rgb(0,0,0)" stroke-linejoin="miter" stroke-linecap="square" stroke-miterlimit="3"/><path d=" M 650 377 L 650 273 L 730 273 L 730 377 L 650 377 Z " id="maps_ScienceLab" fill="rgb(139,139,139)" vector-effect="non-scaling-stroke" stroke-width="2" stroke="rgb(0,0,0)" stroke-linejoin="miter" stroke-linecap="square" stroke-miterlimit="3"/><path d=" M 650 176 L 650 80 L 730 80 L 730 176 L 650 176 Z " id="maps_BiologyLab" fill="rgb(139,139,139)" vector-effect="non-scaling-stroke" stroke-width="2" stroke="rgb(0,0,0)" stroke-linejoin="miter" stroke-linecap="square" stroke-miterlimit="3"/><path d=" M 152 860 L 250.5 860 L 250.5 940 L 152 940 L 152 860 Z " id="maps_SRNo3" fill="rgb(139,139,139)" vector-effect="non-scaling-stroke" stroke-width="2" stroke="rgb(0,0,0)" stroke-linejoin="miter" stroke-linecap="square" stroke-miterlimit="3"/><path d=" M 250 860 L 318 860 L 318 940 L 250 940 L 250 860 Z " id="maps_SRNo4" fill="rgb(139,139,139)" vector-effect="non-scaling-stroke" stroke-width="2" stroke="rgb(0,0,0)" stroke-linejoin="miter" stroke-linecap="square" stroke-miterlimit="3"/></g><g style="isolation:isolate" id="blank"><path d=" M 704 740 L 704 752 L 730 752 L 730 740 L 704 740 Z " id="パス" fill="rgb(0,0,0)" vector-effect="non-scaling-stroke" stroke-width="2" stroke="rgb(0,0,0)" stroke-linejoin="miter" stroke-linecap="square" stroke-miterlimit="3"/><path d=" M 347 740 L 417 740 L 417 830 L 347 830 L 347 740 Z " id="Labo_English" fill="rgb(0,0,0)" vector-effect="non-scaling-stroke" stroke-width="2" stroke="rgb(0,0,0)" stroke-linejoin="miter" stroke-linecap="square" stroke-miterlimit="3"/><path d=" M 750 311 L 750 347 L 790 347 L 790 311 L 750 311 Z " id="パス" fill="rgb(0,0,0)" vector-effect="non-scaling-stroke" stroke-width="2" stroke="rgb(0,0,0)" stroke-linejoin="miter" stroke-linecap="square" stroke-miterlimit="3"/><path d=" M 750 275 L 750 311 L 790 311 L 790 275 L 750 275 Z " id="パス" fill="rgb(0,0,0)" vector-effect="non-scaling-stroke" stroke-width="2" stroke="rgb(0,0,0)" stroke-linejoin="miter" stroke-linecap="square" stroke-miterlimit="3"/><path d=" M 750 177 L 750 275 L 790 275 L 790 177 L 750 177 Z " id="パス" fill="rgb(0,0,0)" vector-effect="non-scaling-stroke" stroke-width="2" stroke="rgb(0,0,0)" stroke-linejoin="miter" stroke-linecap="square" stroke-miterlimit="3"/><path d=" M 750 110 L 750 176 L 790 176 L 790 110 L 750 110 Z " id="パス" fill="rgb(0,0,0)" vector-effect="non-scaling-stroke" stroke-width="2" stroke="rgb(0,0,0)" stroke-linejoin="miter" stroke-linecap="square" stroke-miterlimit="3"/><path d=" M 750 347 L 750 377 L 790 377 L 790 347 L 750 347 Z " id="パス" fill="rgb(0,0,0)" vector-effect="non-scaling-stroke" stroke-width="2" stroke="rgb(0,0,0)" stroke-linejoin="miter" stroke-linecap="square" stroke-miterlimit="3"/><path d=" M 750 740 L 750 675 L 790 675 L 790 740 L 750 740 Z " id="パス" fill="rgb(0,0,0)" vector-effect="non-scaling-stroke" stroke-width="2" stroke="rgb(0,0,0)" stroke-linejoin="miter" stroke-linecap="square" stroke-miterlimit="3"/><path d=" M 750 675 L 750 606 L 790 606 L 790 675 L 750 675 Z " id="Counseling_Room" fill="rgb(0,0,0)" vector-effect="non-scaling-stroke" stroke-width="2" stroke="rgb(0,0,0)" stroke-linejoin="miter" stroke-linecap="square" stroke-miterlimit="3"/><path d=" M 20 860 L 20 940 L 55 940 L 55 860 L 20 860 Z " id="StairE" fill="rgb(0,0,0)" vector-effect="non-scaling-stroke" stroke-width="2" stroke="rgb(0,0,0)" stroke-linejoin="miter" stroke-linecap="square" stroke-miterlimit="3"/><path d=" M 91 860 L 91 940 L 55 940 L 55 860 L 91 860 Z " id="Audiovisual_Preparation_Room" fill="rgb(0,0,0)" vector-effect="non-scaling-stroke" stroke-width="2" stroke="rgb(0,0,0)" stroke-linejoin="miter" stroke-linecap="square" stroke-miterlimit="3"/><path d=" M 650 820 L 660 820 L 660 740 L 600 740 L 600 766.667 L 600 820 L 650 820 Z " id="Student_Guidance_Office" fill="rgb(0,0,0)" vector-effect="non-scaling-stroke" stroke-width="2" stroke="rgb(0,0,0)" stroke-linejoin="miter" stroke-linecap="square" stroke-miterlimit="3"/><path d=" M 650 225 L 650 176 L 730 176 L 730 225 L 650 225 Z " id="パス" fill="rgb(0,0,0)" vector-effect="non-scaling-stroke" stroke-width="2" stroke="rgb(0,0,0)" stroke-linejoin="miter" stroke-linecap="square" stroke-miterlimit="3"/><path d=" M 703.5 407 L 687.375 407 L 650 407 L 650 377 L 730 377 L 730 407 L 703.5 407 Z " id="パス" fill="rgb(0,0,0)" vector-effect="non-scaling-stroke" stroke-width="2" stroke="rgb(0,0,0)" stroke-linejoin="miter" stroke-linecap="square" stroke-miterlimit="3"/><path d=" M 750 110 L 750 80 L 760 80 L 760 110 L 750 110 Z " id="パス" fill="rgb(0,0,0)" vector-effect="non-scaling-stroke" stroke-width="2" stroke="rgb(0,0,0)" stroke-linejoin="miter" stroke-linecap="square" stroke-miterlimit="3"/><path d=" M 91 860 L 121 860 L 121 940 L 91 940 L 91 860 Z " id="H1_StaffRoom" fill="rgb(0,0,0)" vector-effect="non-scaling-stroke" stroke-width="2" stroke="rgb(0,0,0)" stroke-linejoin="miter" stroke-linecap="square" stroke-miterlimit="3"/><path d=" M 121 860 L 152 860 L 152 940 L 121 940 L 121 860 Z " id="H1_StaffRoom" fill="rgb(0,0,0)" vector-effect="non-scaling-stroke" stroke-width="2" stroke="rgb(0,0,0)" stroke-linejoin="miter" stroke-linecap="square" stroke-miterlimit="3"/><path d=" M 600 900 L 660 900 L 660 940 L 600 940 L 600 900 Z " id="Interview_Room" fill="rgb(0,0,0)" vector-effect="non-scaling-stroke" stroke-width="2" stroke="rgb(0,0,0)" stroke-linejoin="miter" stroke-linecap="square" stroke-miterlimit="3"/><path d=" M 710 940 L 660 940 L 660 860 L 660 940 L 710 940 L 710 860 L 710 940 Z " fill-rule="evenodd" id="StairC" fill="none" vector-effect="non-scaling-stroke" stroke-width="2" stroke="rgb(0,0,0)" stroke-linejoin="miter" stroke-linecap="square" stroke-miterlimit="3"/><path d=" M 650 740 L 717.5 740 L 730 740 L 730 675 L 650 675 L 650 740 Z " id="Catholic_Center" fill="rgb(0,0,0)" vector-effect="non-scaling-stroke" stroke-width="2" stroke="rgb(0,0,0)" stroke-linejoin="miter" stroke-linecap="square" stroke-miterlimit="3"/><path d=" M 650 274 L 650 226 L 730 226 L 730 235.273 L 730 274 L 650 274 Z " id="パス" fill="rgb(0,0,0)" vector-effect="non-scaling-stroke" stroke-width="2" stroke="rgb(0,0,0)" stroke-linejoin="miter" stroke-linecap="square" stroke-miterlimit="3"/></g><g style="isolation:isolate" id="special"><path d=" M 750 407 L 790 407 L 790 480 L 750 480 L 750 407 Z " id="パス" fill="rgb(255,0,0)" vector-effect="non-scaling-stroke" stroke-width="2" stroke="rgb(0,0,0)" stroke-linejoin="miter" stroke-linecap="square" stroke-miterlimit="3"/><path d=" M 350 860 L 350 940 L 318 940 L 318 860 L 350 860 Z " id="Toilet" fill="rgb(255,0,0)" vector-effect="non-scaling-stroke" stroke-width="2" stroke="rgb(0,0,0)" stroke-linejoin="miter" stroke-linecap="square" stroke-miterlimit="3"/><path d=" M 710 770 L 710 910 L 720 910 Q 726.281 920.453 750 920 C 773.719 919.547 790.109 899.844 790 850 C 789.891 800.156 782 782 770 770 C 769.744 769.744 712.75 770.25 710 770 Z " id="maps_Seido" fill="rgb(0,0,0)" vector-effect="non-scaling-stroke" stroke-width="2" stroke="rgb(0,0,0)" stroke-linejoin="miter" stroke-linecap="square" stroke-miterlimit="3"/><path d=" M 750 520 L 750 480 L 790 480 L 790 520" id="パス" fill="none" vector-effect="non-scaling-stroke" stroke-width="2" stroke="rgb(0,0,0)" stroke-linejoin="miter" stroke-linecap="square" stroke-miterlimit="3"/><path d=" M 420 890 L 420 940 L 350 940 L 350 890" id="パス" fill="none" vector-effect="non-scaling-stroke" stroke-width="2" stroke="rgb(0,0,0)" stroke-linejoin="miter" stroke-linecap="square" stroke-miterlimit="3"/><path d=" M 417 750 L 417 850 L 600 850 L 600 750 L 417 750 Z " id="パス" fill="none" vector-effect="non-scaling-stroke" stroke-width="2" stroke="rgb(0,0,0)" stroke-linejoin="miter" stroke-linecap="square" stroke-miterlimit="3"/></g><g style="isolation:isolate" id="Decorations"><g style="isolation:isolate" id="stairB"><path d=" M 790 490.5 L 776.109 490.5 L 750 490.5 M 750 505 L 770 505 M 750 495 L 770 495 M 750 510 L 770 510 M 750 500 L 770 500 M 750 516 L 770 516 M 770 520 Q 770 502.318 770 491" fill-rule="evenodd" id="複合パス" fill="none" vector-effect="non-scaling-stroke" stroke-width="1" stroke="rgb(0,0,0)" stroke-linejoin="miter" stroke-linecap="square" stroke-miterlimit="3"/><path d=" M 790 495 L 770 495 L 770 500 L 790 500 L 790 505 L 770 505 L 770 510 L 790 510 L 790 516 L 770 516" id="パス" fill="none" vector-effect="non-scaling-stroke" stroke-width="1" stroke="rgb(0,0,0)" stroke-linejoin="miter" stroke-linecap="square" stroke-miterlimit="3"/></g><g style="isolation:isolate" id="stairC"><path d=" M 685 920 L 660 920 L 660 915 L 685 915 L 685 910 L 660 910 L 660 905 L 685 905 L 685 900 L 660 900 L 660 895 L 685 895 L 685 890 L 660 890 L 660 885 L 685 885 L 685 880 L 660 880" id="パス" fill="none" vector-effect="non-scaling-stroke" stroke-width="1" stroke="rgb(0,0,0)" stroke-linejoin="miter" stroke-linecap="square" stroke-miterlimit="3"/><path d=" M 685 924 L 685 880 L 685 880 L 710 880 L 710 885 L 685 885 L 685 890 L 710 890 L 710 895 L 685 895 L 685 900 L 710 900 L 710 905 L 685 905 L 685 910 L 710 910 L 710 915 L 685 915 L 685 920 L 710 920" id="パス" fill="none" vector-effect="non-scaling-stroke" stroke-width="1" stroke="rgb(0,0,0)" stroke-linejoin="miter" stroke-linecap="square" stroke-miterlimit="3"/></g><g style="isolation:isolate" id="stairD"><line x1="420" y1="890" x2="375" y2="890" id="パス" vector-effect="non-scaling-stroke" stroke-width="2" stroke="rgb(0,0,0)" stroke-linejoin="miter" stroke-linecap="square" stroke-miterlimit="3"/><line x1="400" y1="915" x2="366" y2="915" id="パス" vector-effect="non-scaling-stroke" stroke-width="2" stroke="rgb(0,0,0)" stroke-linejoin="miter" stroke-linecap="square" stroke-miterlimit="3"/><path d=" M 367 916 L 367 940 L 371 940 L 371 915 L 375 915 L 375 940 L 379 940 L 379 915 L 383 915 L 383 940 L 387 940 L 387 915 L 391 915 L 391 940 L 395 940 L 395 915 L 399 915 L 399 940 L 420 940 L 420 892 L 419 890 L 397 890 L 397 915 L 393 915 L 393 890 L 389 890 L 389 915 L 385 915 L 385 890" id="パス" fill="none" vector-effect="non-scaling-stroke" stroke-width="1" stroke="rgb(0,0,0)" stroke-linejoin="miter" stroke-linecap="square" stroke-miterlimit="3"/></g><path d=" M 330 892 C 330 889.24 332.24 887 335 887 C 337.76 887 340 889.24 340 892 C 340 894.76 337.76 897 335 897 C 332.24 897 330 894.76 330 892 Z  M 335 899 L 330 912 L 340 912 L 335 899 Z " fill-rule="evenodd" id="複合パス" fill="rgb(255,255,255)"/><path d=" M 765 435 C 765 432.24 767.24 430 770 430 C 772.76 430 775 432.24 775 435 C 775 437.76 772.76 440 770 440 C 767.24 440 765 437.76 765 435 Z  M 770 442 L 766 455 L 775 455 L 770 442 Z " fill-rule="evenodd" id="複合パス" fill="rgb(255,255,255)"/><g style="isolation:isolate" id="Text"><g clip-path="url(#_clipPath_LF70h04qM0bpFEK3yFIkfNqU1la9J5Ji)"><text transform="matrix(1,0,0,1,180,895.48)" id="テキスト" style="font-family:'Yu Gothic UI';font-weight:700;font-size:20px;font-style:normal;fill:#ffffff;stroke:none;">鉄道</text><text transform="matrix(1,0,0,1,170,922.082)" id="テキスト" style="font-family:'Yu Gothic UI';font-weight:700;font-size:20px;font-style:normal;fill:#ffffff;stroke:none;">研究会</text></g><defs><clipPath id="_clipPath_LF70h04qM0bpFEK3yFIkfNqU1la9J5Ji"><rect x="0" y="0" width="98" height="79" transform="matrix(1,0,0,1,152,861)"/></clipPath></defs><g clip-path="url(#_clipPath_CnQeTPbrivafCsv044KQSVFI0t3AYYCf)"><text transform="matrix(1,0,0,1,470,805.952)" id="テキスト" style="font-family:'Yu Gothic UI';font-weight:700;font-size:20px;font-style:normal;fill:#000000;stroke:none;">職員室</text></g><defs><clipPath id="_clipPath_CnQeTPbrivafCsv044KQSVFI0t3AYYCf"><rect x="0" y="0" width="70" height="27.63" transform="matrix(1,0,0,1,470,784.37)"/></clipPath></defs><g clip-path="url(#_clipPath_f2y7oS8YGG8t03mkFcH1kGqujmFk4Fro)"><text transform="matrix(1,0,0,1,663,569.432)" id="text_M2C_1" style="font-family:'Yu Gothic UI';font-weight:700;font-size:20px;font-style:normal;fill:#ffffff;stroke:none;">中二C</text></g><defs><clipPath id="_clipPath_f2y7oS8YGG8t03mkFcH1kGqujmFk4Fro"><rect x="0" y="0" width="80" height="33.699" transform="matrix(1,0,0,1,650,544.301)"/></clipPath></defs><g clip-path="url(#_clipPath_ZZblTpiLNawkmy4ZxRm6TeGaBzeIfAtj)"><text transform="matrix(1,0,0,1,663,516.781)" id="text_M2B" style="font-family:'Yu Gothic UI';font-weight:700;font-size:20px;font-style:normal;fill:#ffffff;stroke:none;">中二B</text></g><defs><clipPath id="_clipPath_ZZblTpiLNawkmy4ZxRm6TeGaBzeIfAtj"><rect x="0" y="0" width="80" height="71" transform="matrix(1,0,0,1,650,473)"/></clipPath></defs><g clip-path="url(#_clipPath_7SreC7Di5rZfjQwXddx9G31V2jnco7ZM)"><text transform="matrix(1,0,0,1,663,651.867)" id="text_M2D" style="font-family:'Yu Gothic UI';font-weight:700;font-size:19px;font-style:normal;fill:#ffffff;stroke:none;">中二D</text></g><defs><clipPath id="_clipPath_7SreC7Di5rZfjQwXddx9G31V2jnco7ZM"><rect x="0" y="0" width="80" height="62" transform="matrix(1,0,0,1,650,613)"/></clipPath></defs><g clip-path="url(#_clipPath_sRRSniYjkBgFOVSrBvthfeRUneu2GdTQ)"><text transform="matrix(1,0,0,1,665,447.453)" id="text_M2A" style="font-family:'Yu Gothic UI';font-weight:700;font-size:18px;font-style:normal;fill:#ffffff;stroke:none;">中二A</text></g><defs><clipPath id="_clipPath_sRRSniYjkBgFOVSrBvthfeRUneu2GdTQ"><rect x="0" y="0" width="80" height="66" transform="matrix(1,0,0,1,650,407)"/></clipPath></defs><g clip-path="url(#_clipPath_74WfCUPAVcmsIM6lO9cdTSd7mhzGuRoJ)"><text transform="matrix(1,0,0,1,662,332.953)" id="text_ScienceLab" style="font-family:'Yu Gothic UI';font-weight:700;font-size:18px;font-style:normal;fill:#ffffff;stroke:none;">化学部</text></g><defs><clipPath id="_clipPath_74WfCUPAVcmsIM6lO9cdTSd7mhzGuRoJ"><rect x="0" y="0" width="80" height="103" transform="matrix(1,0,0,1,650,274)"/></clipPath></defs><g clip-path="url(#_clipPath_0PQRmxecFd0jYUHvEvzZOKjNwwXrqaTc)"><text transform="matrix(1,0,0,1,667.5,122.98)" id="text_BiologyLab" style="font-family:'Yu Gothic UI';font-weight:700;font-size:20px;font-style:normal;fill:#ffffff;stroke:none;">ライフ</text><text transform="matrix(1,0,0,1,650,149.582)" id="text_BiologyLab" style="font-family:'Yu Gothic UI';font-weight:700;font-size:20px;font-style:normal;fill:#ffffff;stroke:none;">サイエンス</text></g><defs><clipPath id="_clipPath_0PQRmxecFd0jYUHvEvzZOKjNwwXrqaTc"><rect x="0" y="0" width="80" height="96" transform="matrix(1,0,0,1,650,80)"/></clipPath></defs><g clip-path="url(#_clipPath_8Dax3TDwtomJg2kvB5RoqysEfWAUqUNW)"><text transform="matrix(1,0,0,1,287.5,779.98)" id="text_H2E" style="font-family:'Yu Gothic UI';font-weight:700;font-size:20px;font-style:normal;fill:#ffffff;stroke:none;">けん玉</text><text transform="matrix(1,0,0,1,294,806.582)" id="text_H2E" style="font-family:'Yu Gothic UI';font-weight:700;font-size:20px;font-style:normal;fill:#ffffff;stroke:none;">教室</text></g><defs><clipPath id="_clipPath_8Dax3TDwtomJg2kvB5RoqysEfWAUqUNW"><rect x="0" y="0" width="64" height="90" transform="matrix(1,0,0,1,283,740)"/></clipPath></defs></g><g id="グループ"><line x1="724" y1="578" x2="725" y2="578" id="パス" vector-effect="non-scaling-stroke" stroke-width="2" stroke="rgb(139,139,139)" stroke-linejoin="miter" stroke-linecap="square" stroke-miterlimit="3"/><line x1="718" y1="578" x2="719" y2="578" id="パス" vector-effect="non-scaling-stroke" stroke-width="2" stroke="rgb(139,139,139)" stroke-linejoin="miter" stroke-linecap="square" stroke-miterlimit="3"/><line x1="712" y1="578" x2="713" y2="578" id="パス" vector-effect="non-scaling-stroke" stroke-width="2" stroke="rgb(139,139,139)" stroke-linejoin="miter" stroke-linecap="square" stroke-miterlimit="3"/><line x1="706" y1="578" x2="707" y2="578" id="パス" vector-effect="non-scaling-stroke" stroke-width="2" stroke="rgb(139,139,139)" stroke-linejoin="miter" stroke-linecap="square" stroke-miterlimit="3"/><line x1="700" y1="578" x2="701" y2="578" id="パス" vector-effect="non-scaling-stroke" stroke-width="2" stroke="rgb(139,139,139)" stroke-linejoin="miter" stroke-linecap="square" stroke-miterlimit="3"/><line x1="694" y1="578" x2="695" y2="578" id="パス" vector-effect="non-scaling-stroke" stroke-width="2" stroke="rgb(139,139,139)" stroke-linejoin="miter" stroke-linecap="square" stroke-miterlimit="3"/><line x1="688" y1="578" x2="689" y2="578" id="パス" vector-effect="non-scaling-stroke" stroke-width="2" stroke="rgb(139,139,139)" stroke-linejoin="miter" stroke-linecap="square" stroke-miterlimit="3"/><line x1="682" y1="578" x2="683" y2="578" id="パス" vector-effect="non-scaling-stroke" stroke-width="2" stroke="rgb(139,139,139)" stroke-linejoin="miter" stroke-linecap="square" stroke-miterlimit="3"/><line x1="676" y1="578" x2="677" y2="578" id="パス" vector-effect="non-scaling-stroke" stroke-width="2" stroke="rgb(139,139,139)" stroke-linejoin="miter" stroke-linecap="square" stroke-miterlimit="3"/><line x1="670" y1="578" x2="671" y2="578" id="パス" vector-effect="non-scaling-stroke" stroke-width="2" stroke="rgb(139,139,139)" stroke-linejoin="miter" stroke-linecap="square" stroke-miterlimit="3"/><line x1="664" y1="578" x2="665" y2="578" id="パス" vector-effect="non-scaling-stroke" stroke-width="2" stroke="rgb(139,139,139)" stroke-linejoin="miter" stroke-linecap="square" stroke-miterlimit="3"/><line x1="657" y1="578" x2="658" y2="578" id="パス" vector-effect="non-scaling-stroke" stroke-width="2" stroke="rgb(139,139,139)" stroke-linejoin="miter" stroke-linecap="square" stroke-miterlimit="3"/></g></g><g clip-path="url(#_clipPath_UlHsiwSXVkM95hLidVkP1VgcTDBJFe3n)"><text transform="matrix(1,0,0,1,260,894.98)" id="テキスト" style="font-family:'Yu Gothic UI';font-weight:700;font-size:20px;font-style:normal;fill:#ffffff;stroke:none;">クイズ</text><text transform="matrix(1,0,0,1,253,921.582)" id="テキスト" style="font-family:'Yu Gothic UI';font-weight:700;font-size:20px;font-style:normal;fill:#ffffff;stroke:none;">研究会</text></g><defs><clipPath id="_clipPath_UlHsiwSXVkM95hLidVkP1VgcTDBJFe3n"><rect x="0" y="0" width="68" height="80" transform="matrix(1,0,0,1,250,860)"/></clipPath></defs><g clip-path="url(#_clipPath_33te6sbIobNhEyPz0k0PvBnVo6h5gzcb)"><text transform="matrix(1,0,0,1,59,793.18)" id="text_H2A" style="font-family:'Yu Gothic UI';font-weight:700;font-size:20px;font-style:normal;fill:#ffffff;stroke:none;">高二C</text></g><defs><clipPath id="_clipPath_33te6sbIobNhEyPz0k0PvBnVo6h5gzcb"><rect x="0" y="0" width="132" height="90.203" transform="matrix(1,0,0,1,20,739.797)"/></clipPath></defs><g clip-path="url(#_clipPath_6NxU0fqJywaOszxJyLL35glLdyBepPCH)"><text transform="matrix(1,0,0,1,190,793.18)" id="text_H2C" style="font-family:'Yu Gothic UI';font-weight:700;font-size:20px;font-style:normal;fill:#ffffff;stroke:none;">中三A</text></g><defs><clipPath id="_clipPath_6NxU0fqJywaOszxJyLL35glLdyBepPCH"><rect x="0" y="0" width="131" height="90.203" transform="matrix(1,0,0,1,152,739.797)"/></clipPath></defs><g clip-path="url(#_clipPath_YLP01XuM6RSvXGjZjkxOGME8ridp3eTW)"><text transform="matrix(1,0,0,1,653,602.953)" id="text_M2C_2" style="font-family:'Yu Gothic UI';font-weight:700;font-size:18px;font-style:normal;fill:#ffffff;stroke:none;">籠手面堂</text></g><defs><clipPath id="_clipPath_YLP01XuM6RSvXGjZjkxOGME8ridp3eTW"><rect x="0" y="0" width="80" height="35" transform="matrix(1,0,0,1,650,578)"/></clipPath></defs></g></svg>