<?xml version="1.0" encoding="UTF-8" standalone="no"?><!-- Generator: Gravit.io --><svg xmlns="http://www.w3.org/2000/svg" xmlns:xlink="http://www.w3.org/1999/xlink" style="isolation:isolate" viewBox="0 0 1000 800" width="1000pt" height="800pt"><defs><clipPath id="_clipPath_aPdEKrSSAlei8Hxrrlorql0KO9wNvhMu"><rect width="1000" height="800"/></clipPath></defs><g clip-path="url(#_clipPath_aPdEKrSSAlei8Hxrrlorql0KO9wNvhMu)"><g style="isolation:isolate" id="outer"><path d=" M 872.844 120 L 902.319 10 L 502.319 10 L 496.424 32 L 316.424 32 L 322.319 10 L 212.319 10 L 207.898 26.5" id="パス" fill="none" vector-effect="non-scaling-stroke" stroke-width="1.483" stroke="rgb(0,0,0)" stroke-linejoin="miter" stroke-linecap="square" stroke-miterlimit="3"/><path d=" M 127.266 103.5 L 122.844 120 L 102.844 120 L 10 466.5 L 40 466.5 L 35.579 483 L 145.579 483 L 242.844 120 C 254.22 120 270.845 120 292.719 120 C 292.767 119.94 294.306 114.371 294.318 114.5 C 294.339 114.423 409.4 114.5 477.318 114.5 C 477.34 114.506 475.833 119.998 475.844 120 Q 619.165 120 872.844 120" id="パス" fill="none" vector-effect="non-scaling-stroke" stroke-width="1.483" stroke="rgb(0,0,0)" stroke-linejoin="miter" stroke-linecap="square" stroke-miterlimit="3"/><path d=" M 127.266 103.5 L 187.266 103.5 L 207.898 26.5" id="パス" fill="none" vector-effect="non-scaling-stroke" stroke-width="1.483" stroke="rgb(0,0,0)" stroke-linejoin="miter" stroke-linecap="square" stroke-miterlimit="3"/></g><g style="isolation:isolate" id="booth"><path d=" M 872.844 120 L 740.844 120 L 754.108 70.5 L 886.108 70.5 L 872.844 120 Z " id="maps_H3A" fill="rgb(209,209,209)" vector-effect="non-scaling-stroke" stroke-width="1.187" stroke="rgb(0,0,0)" stroke-linejoin="miter" stroke-linecap="square" stroke-miterlimit="3"/><path d=" M 740.844 120 L 674.844 120 L 688.108 70.5 L 754.108 70.5 L 740.844 120 Z " id="maps_H3C" fill="rgb(209,209,209)" vector-effect="non-scaling-stroke" stroke-width="1.187" stroke="rgb(0,0,0)" stroke-linejoin="miter" stroke-linecap="square" stroke-miterlimit="3"/><path d=" M 674.844 120 L 609.844 120 L 623.108 70.5 L 688.108 70.5 L 674.844 120 Z " id="maps_H3D" fill="rgb(209,209,209)" vector-effect="non-scaling-stroke" stroke-width="1.187" stroke="rgb(0,0,0)" stroke-linejoin="miter" stroke-linecap="square" stroke-miterlimit="3"/><path d=" M 609.844 120 L 545.844 120 L 559.108 70.5 L 623.108 70.5 L 609.844 120 Z " id="maps_H3E" fill="rgb(209,209,209)" vector-effect="non-scaling-stroke" stroke-width="1.187" stroke="rgb(0,0,0)" stroke-linejoin="miter" stroke-linecap="square" stroke-miterlimit="3"/><path d=" M 153.265 155.75 L 133.37 230 L 213.37 230 L 233.265 155.75 L 153.265 155.75 Z " id="maps_M3D" fill="rgb(209,209,209)" vector-effect="non-scaling-stroke" stroke-width="1.187" stroke="rgb(0,0,0)" stroke-linejoin="miter" stroke-linecap="square" stroke-miterlimit="3"/><path d=" M 213.37 230 L 203.349 267.4 L 123.349 267.4 L 133.37 230 L 213.37 230 Z " id="maps_M3B" fill="rgb(209,209,209)" vector-effect="non-scaling-stroke" stroke-width="1.187" stroke="rgb(0,0,0)" stroke-linejoin="miter" stroke-linecap="square" stroke-miterlimit="3"/><path d=" M 203.349 267.4 L 193.77 303.15 L 113.77 303.15 L 123.349 267.4 L 203.349 267.4 Z " id="maps_M3A" fill="rgb(209,209,209)" vector-effect="non-scaling-stroke" stroke-width="1.187" stroke="rgb(0,0,0)" stroke-linejoin="miter" stroke-linecap="square" stroke-miterlimit="3"/><path d=" M 184.632 337.25 L 169.158 395 L 89.158 395 L 104.632 337.25 L 184.632 337.25 Z " id="maps_Physics" fill="rgb(209,209,209)" vector-effect="non-scaling-stroke" stroke-width="1.187" stroke="rgb(0,0,0)" stroke-linejoin="miter" stroke-linecap="square" stroke-miterlimit="3"/><path d=" M 169.158 395 L 154.421 450 L 74.421 450 L 89.158 395 L 169.158 395 Z " id="maps_Music" fill="rgb(209,209,209)" vector-effect="non-scaling-stroke" stroke-width="1.187" stroke="rgb(0,0,0)" stroke-linejoin="miter" stroke-linecap="square" stroke-miterlimit="3"/><path d=" M 758.529 54 L 660.029 54 L 671.819 10 L 770.319 10 L 758.529 54 Z " id="maps_SNo1" fill="rgb(209,209,209)" vector-effect="non-scaling-stroke" stroke-width="1.187" stroke="rgb(0,0,0)" stroke-linejoin="miter" stroke-linecap="square" stroke-miterlimit="3"/><path d=" M 660.529 54 L 592.529 54 L 604.319 10 L 672.319 10 L 660.529 54 Z " id="maps_SNo2" fill="rgb(209,209,209)" vector-effect="non-scaling-stroke" stroke-width="1.187" stroke="rgb(0,0,0)" stroke-linejoin="miter" stroke-linecap="square" stroke-miterlimit="3"/><path d=" M 477.318 114.5 L 492.055 59.5 L 309.055 59.5 L 294.318 114.5 L 477.318 114.5 Z " id="maps_Lroom" fill="rgb(209,209,209)" vector-effect="non-scaling-stroke" stroke-width="1.187" stroke="rgb(0,0,0)" stroke-linejoin="miter" stroke-linecap="square" stroke-miterlimit="3"/><path d=" M 242.844 120 L 175.344 120 L 162.844 120 L 153.265 155.75 L 233.265 155.75 L 242.844 120 Z " id="maps_SF41" fill="rgb(209,209,209)" vector-effect="non-scaling-stroke" stroke-width="1.187" stroke="rgb(0,0,0)" stroke-linejoin="miter" stroke-linecap="square" stroke-miterlimit="3"/></g><g style="isolation:isolate" id="blank"><path d=" M 188.844 120 L 190.613 113.4 L 164.613 113.4 L 162.844 120 L 188.844 120 Z " id="パス" fill="none" vector-effect="non-scaling-stroke" stroke-width="1.483" stroke="rgb(0,0,0)" stroke-linejoin="miter" stroke-linecap="square" stroke-miterlimit="3"/><path d=" M 79.622 355.95 L 84.927 336.15 L 44.927 336.15 L 39.622 355.95 L 79.622 355.95 Z " id="パス" fill="rgb(93,93,93)" vector-effect="non-scaling-stroke" stroke-width="1.187" stroke="rgb(0,0,0)" stroke-linejoin="miter" stroke-linecap="square" stroke-miterlimit="3"/><path d=" M 74.316 375.75 L 79.622 355.95 L 39.622 355.95 L 34.316 375.75 L 74.316 375.75 Z " id="パス" fill="rgb(93,93,93)" vector-effect="non-scaling-stroke" stroke-width="1.187" stroke="rgb(0,0,0)" stroke-linejoin="miter" stroke-linecap="square" stroke-miterlimit="3"/><path d=" M 59.874 429.65 L 74.316 375.75 L 34.316 375.75 L 19.874 429.65 L 59.874 429.65 Z " id="パス" fill="rgb(93,93,93)" vector-effect="non-scaling-stroke" stroke-width="1.187" stroke="rgb(0,0,0)" stroke-linejoin="miter" stroke-linecap="square" stroke-miterlimit="3"/><path d=" M 50 466.5 L 59.727 430.2 L 19.727 430.2 L 10 466.5 L 50 466.5 Z " id="パス" fill="rgb(93,93,93)" vector-effect="non-scaling-stroke" stroke-width="1.187" stroke="rgb(0,0,0)" stroke-linejoin="miter" stroke-linecap="square" stroke-miterlimit="3"/><path d=" M 84.927 336.15 L 89.348 319.65 L 49.348 319.65 L 44.927 336.15 L 84.927 336.15 Z " id="パス" fill="rgb(93,93,93)" vector-effect="non-scaling-stroke" stroke-width="1.187" stroke="rgb(0,0,0)" stroke-linejoin="miter" stroke-linecap="square" stroke-miterlimit="3"/><path d=" M 142.844 120 L 133.265 155.75 L 93.265 155.75 L 102.844 120 L 142.844 120 Z " id="パス" fill="rgb(93,93,93)" vector-effect="non-scaling-stroke" stroke-width="1.187" stroke="rgb(0,0,0)" stroke-linejoin="miter" stroke-linecap="square" stroke-miterlimit="3"/><path d=" M 133.265 155.75 L 123.097 193.7 L 83.097 193.7 L 93.265 155.75 L 133.265 155.75 Z " id="Counseling_Room" fill="rgb(93,93,93)" vector-effect="non-scaling-stroke" stroke-width="1.187" stroke="rgb(0,0,0)" stroke-linejoin="miter" stroke-linecap="square" stroke-miterlimit="3"/><path d=" M 890.529 54 L 902.319 10 L 867.319 10 L 855.529 54 L 890.529 54 Z " id="StairE" fill="rgb(93,93,93)" vector-effect="non-scaling-stroke" stroke-width="1.187" stroke="rgb(0,0,0)" stroke-linejoin="miter" stroke-linecap="square" stroke-miterlimit="3"/><path d=" M 789.529 54 L 801.319 10 L 867.319 10 L 855.529 54 L 789.529 54 Z " id="Audiovisual_Preparation_Room" fill="rgb(93,93,93)" vector-effect="non-scaling-stroke" stroke-width="1.187" stroke="rgb(0,0,0)" stroke-linejoin="miter" stroke-linecap="square" stroke-miterlimit="3"/><path d=" M 254.634 76 L 244.634 76 L 232.844 120 L 292.844 120 L 296.774 105.333 L 304.634 76 L 254.634 76 Z " id="Student_Guidance_Office" fill="rgb(93,93,93)" vector-effect="non-scaling-stroke" stroke-width="1.187" stroke="rgb(0,0,0)" stroke-linejoin="miter" stroke-linecap="square" stroke-miterlimit="3"/><path d=" M 154.421 450 L 145.579 483 L 110.579 483 L 119.421 450 L 154.421 450 Z " id="パス" fill="rgb(93,93,93)" vector-effect="non-scaling-stroke" stroke-width="1.187" stroke="rgb(0,0,0)" stroke-linejoin="miter" stroke-linecap="square" stroke-miterlimit="3"/><path d=" M 140.27 303.15 L 156.395 303.15 L 193.77 303.15 L 189.348 319.65 L 109.348 319.65 L 113.77 303.15 L 140.27 303.15 Z " id="パス" fill="rgb(93,93,93)" vector-effect="non-scaling-stroke" stroke-width="1.187" stroke="rgb(0,0,0)" stroke-linejoin="miter" stroke-linecap="square" stroke-miterlimit="3"/><path d=" M 50 466.5 L 45.579 483 L 35.579 483 L 40 466.5 L 50 466.5 Z " id="パス" fill="rgb(93,93,93)" vector-effect="non-scaling-stroke" stroke-width="1.187" stroke="rgb(0,0,0)" stroke-linejoin="miter" stroke-linecap="square" stroke-miterlimit="3"/><path d=" M 789.529 54 L 758.529 54 L 770.319 10 L 801.319 10 L 789.529 54 Z " id="H1_StaffRoom" fill="rgb(93,93,93)" vector-effect="non-scaling-stroke" stroke-width="1.187" stroke="rgb(0,0,0)" stroke-linejoin="miter" stroke-linecap="square" stroke-miterlimit="3"/><path d=" M 316.424 32 L 256.424 32 L 262.319 10 L 322.319 10 L 316.424 32 Z " id="Interview_Room" fill="rgb(93,93,93)" vector-effect="non-scaling-stroke" stroke-width="1.187" stroke="rgb(0,0,0)" stroke-linejoin="miter" stroke-linecap="square" stroke-miterlimit="3"/><path d=" M 212.319 10 L 262.319 10 L 250.529 54 L 262.319 10 L 212.319 10 L 200.529 54 L 212.319 10 Z " fill-rule="evenodd" id="StairC" fill="none" vector-effect="non-scaling-stroke" stroke-width="1.483" stroke="rgb(0,0,0)" stroke-linejoin="miter" stroke-linecap="square" stroke-miterlimit="3"/><path d=" M 189.348 319.65 L 184.632 337.25 L 104.632 337.25 L 104.632 337.25 L 109.348 319.65 L 189.348 319.65 Z " id="パス" fill="rgb(93,93,93)" vector-effect="non-scaling-stroke" stroke-width="1.187" stroke="rgb(0,0,0)" stroke-linejoin="miter" stroke-linecap="square" stroke-miterlimit="3"/><path d=" M 74.421 450 L 71.474 461 L 116.474 461 L 119.421 450 L 74.421 450 Z " id="Path" fill="rgb(93,93,93)" vector-effect="non-scaling-stroke" stroke-width="1.187" stroke="rgb(0,0,0)" stroke-linejoin="miter" stroke-linecap="square" stroke-miterlimit="3"/><path d=" M 45.579 483 L 110.579 483 L 116.474 461 L 51.474 461 L 45.579 483 Z " id="パス" fill="rgb(93,93,93)" vector-effect="non-scaling-stroke" stroke-width="1.187" stroke="rgb(0,0,0)" stroke-linejoin="miter" stroke-linecap="square" stroke-miterlimit="3"/></g><g style="isolation:isolate" id="special"><path d=" M 93.77 303.15 L 53.77 303.15 L 64.528 263 L 104.528 263 L 93.77 303.15 Z " id="パス" fill="rgb(0,0,255)" vector-effect="non-scaling-stroke" stroke-width="1.2" stroke="rgb(0,0,0)" stroke-linejoin="miter" stroke-linecap="square" stroke-miterlimit="3"/><path d=" M 560.529 54 L 572.319 10 L 604.319 10 L 592.529 54 L 560.529 54 Z " id="Toilet" fill="rgb(0,0,255)" vector-effect="non-scaling-stroke" stroke-width="1.2" stroke="rgb(0,0,0)" stroke-linejoin="miter" stroke-linecap="square" stroke-miterlimit="3"/><path d=" M 110.423 241 L 104.528 263 L 64.528 263 L 70.423 241" id="パス" fill="none" vector-effect="non-scaling-stroke" stroke-width="1.483" stroke="rgb(0,0,0)" stroke-linejoin="miter" stroke-linecap="square" stroke-miterlimit="3"/><path d=" M 494.95 37.5 L 502.319 10 L 572.319 10 L 564.95 37.5" id="パス" fill="none" vector-effect="non-scaling-stroke" stroke-width="1.483" stroke="rgb(0,0,0)" stroke-linejoin="miter" stroke-linecap="square" stroke-miterlimit="3"/></g><g style="isolation:isolate" id="Decorations"><g style="isolation:isolate" id="stairB"><path d=" M 66.075 257.225 L 79.966 257.225 L 106.075 257.225 M 108.212 249.25 L 88.212 249.25 M 106.738 254.75 L 86.738 254.75 M 108.949 246.5 L 88.949 246.5 M 107.475 252 L 87.475 252 M 109.833 243.2 L 89.833 243.2 M 90.423 241 Q 87.817 250.725 86.149 256.95" fill-rule="evenodd" id="複合パス" fill="none" vector-effect="non-scaling-stroke" stroke-width="0.742" stroke="rgb(0,0,0)" stroke-linejoin="miter" stroke-linecap="square" stroke-miterlimit="3"/><path d=" M 66.738 254.75 L 86.738 254.75 L 87.475 252 L 67.475 252 L 68.212 249.25 L 88.212 249.25 L 88.949 246.5 L 68.949 246.5 L 69.833 243.2 L 89.833 243.2" id="パス" fill="none" vector-effect="non-scaling-stroke" stroke-width="0.742" stroke="rgb(0,0,0)" stroke-linejoin="miter" stroke-linecap="square" stroke-miterlimit="3"/></g><g style="isolation:isolate" id="stairC"><path d=" M 234.371 21 L 259.371 21 L 258.635 23.75 L 233.635 23.75 L 232.898 26.5 L 257.898 26.5 L 257.161 29.25 L 232.161 29.25 L 231.424 32 L 256.424 32 L 255.687 34.75 L 230.687 34.75 L 229.95 37.5 L 254.95 37.5 L 254.213 40.25 L 229.213 40.25 L 228.476 43 L 253.476 43" id="パス" fill="none" vector-effect="non-scaling-stroke" stroke-width="0.742" stroke="rgb(0,0,0)" stroke-linejoin="miter" stroke-linecap="square" stroke-miterlimit="3"/><path d=" M 234.961 18.8 L 228.476 43 L 228.476 43 L 203.476 43 L 204.213 40.25 L 229.213 40.25 L 229.95 37.5 L 204.95 37.5 L 205.687 34.75 L 230.687 34.75 L 231.424 32 L 206.424 32 L 207.161 29.25 L 232.161 29.25 L 232.898 26.5 L 207.898 26.5 L 208.635 23.75 L 233.635 23.75 L 234.371 21 L 209.371 21" id="パス" fill="none" vector-effect="non-scaling-stroke" stroke-width="0.742" stroke="rgb(0,0,0)" stroke-linejoin="miter" stroke-linecap="square" stroke-miterlimit="3"/></g><g style="isolation:isolate" id="stairD"><line x1="494.95" y1="37.5" x2="539.95" y2="37.5" id="パス" vector-effect="non-scaling-stroke" stroke-width="1.483" stroke="rgb(0,0,0)" stroke-linejoin="miter" stroke-linecap="square" stroke-miterlimit="3"/><line x1="518.635" y1="23.75" x2="552.635" y2="23.75" id="パス" vector-effect="non-scaling-stroke" stroke-width="1.483" stroke="rgb(0,0,0)" stroke-linejoin="miter" stroke-linecap="square" stroke-miterlimit="3"/><path d=" M 551.782 23.2 L 555.319 10 L 551.319 10 L 547.635 23.75 L 543.635 23.75 L 547.319 10 L 543.319 10 L 539.635 23.75 L 535.635 23.75 L 539.319 10 L 535.319 10 L 531.635 23.75 L 527.635 23.75 L 531.319 10 L 527.319 10 L 523.635 23.75 L 519.635 23.75 L 523.319 10 L 502.319 10 L 495.245 36.4 L 495.95 37.5 L 517.95 37.5 L 521.635 23.75 L 525.635 23.75 L 521.95 37.5 L 525.95 37.5 L 529.635 23.75 L 533.635 23.75 L 529.95 37.5" id="パス" fill="none" vector-effect="non-scaling-stroke" stroke-width="0.742" stroke="rgb(0,0,0)" stroke-linejoin="miter" stroke-linecap="square" stroke-miterlimit="3"/></g><path d=" M 577.747 28.499 C 578.154 26.982 580.724 25.749 583.484 25.749 C 586.243 25.749 588.154 26.982 587.747 28.499 C 587.34 30.017 584.77 31.249 582.01 31.249 C 579.25 31.249 577.34 30.017 577.747 28.499 Z  M 579.506 38.818 L 577.303 33.711 C 576.978 32.96 577.38 32.349 578.198 32.349 L 585.232 32.349 C 586.051 32.349 586.253 32.827 585.684 33.415 L 580.315 38.966 C 580.03 39.26 579.668 39.194 579.506 38.818 Z " fill-rule="evenodd" id="複合パス" fill="rgb(255,255,255)"/><path d=" M 74.398 279.849 C 74.805 278.332 77.375 277.099 80.135 277.099 C 82.894 277.099 84.805 278.332 84.398 279.849 C 83.991 281.367 81.421 282.599 78.661 282.599 C 75.901 282.599 73.991 281.367 74.398 279.849 Z  M 76.157 290.168 L 73.954 285.061 C 73.629 284.31 74.031 283.699 74.849 283.699 L 81.883 283.699 C 82.702 283.699 82.904 284.177 82.335 284.765 L 76.966 290.316 C 76.681 290.61 76.319 290.544 76.157 290.168 Z " fill-rule="evenodd" id="複合パス" fill="rgb(255,255,255)"/><g style="isolation:isolate" id="Text"/></g><g clip-path="url(#_clipPath_Prgp2JeqEdV8KCLOw1fc5X9TEhR4MViL)"><text transform="matrix(1,0,0,1,93,444.747)" id="text_Music" style="font-family:'Yu Gothic UI';font-weight:700;font-size:14px;font-style:normal;fill:#000000;stroke:none;">音楽室</text></g><defs><clipPath id="_clipPath_Prgp2JeqEdV8KCLOw1fc5X9TEhR4MViL"><rect x="0" y="0" width="79.985" height="18.621" transform="matrix(1,0,0,1,75.008,429.64)"/></clipPath></defs><g clip-path="url(#_clipPath_UjUcwCwz84Jyh1w3dSBtM5WXrbeWAwk3)"><text transform="matrix(1,0,0,1,95,389.747)" id="text_Physics" style="font-family:'Yu Gothic UI';font-weight:700;font-size:14px;font-style:normal;fill:#000000;stroke:none;">物理実験室</text></g><defs><clipPath id="_clipPath_UjUcwCwz84Jyh1w3dSBtM5WXrbeWAwk3"><rect x="0" y="0" width="79.985" height="18.621" transform="matrix(1,0,0,1,91.008,374.64)"/></clipPath></defs><g clip-path="url(#_clipPath_XfjaXbnRk9pcYNTFnRJg47C0xMSoxNq3)"><text transform="matrix(1,0,0,1,120.3,297.747)" id="text_M3A" style="font-family:'Yu Gothic UI';font-weight:700;font-size:14px;font-style:normal;fill:#000000;stroke:none;">中三A教室</text></g><defs><clipPath id="_clipPath_XfjaXbnRk9pcYNTFnRJg47C0xMSoxNq3"><rect x="0" y="0" width="79.985" height="18.621" transform="matrix(1,0,0,1,114.008,282.64)"/></clipPath></defs><g clip-path="url(#_clipPath_khRDocRNizKBArQB7ZLBawKsRmb5tZYf)"><text transform="matrix(1,0,0,1,136.947,224.747)" id="text_M3D" style="font-family:'Yu Gothic UI';font-weight:700;font-size:14px;font-style:normal;fill:#000000;stroke:none;">中三C,D教室</text></g><defs><clipPath id="_clipPath_khRDocRNizKBArQB7ZLBawKsRmb5tZYf"><rect x="0" y="0" width="85.992" height="18.621" transform="matrix(1,0,0,1,134.008,209.64)"/></clipPath></defs><g clip-path="url(#_clipPath_sJOYWwGNOUmEKhiRzMjEljGy4sQ8n37f)"><text transform="matrix(1,0,0,1,158.5,150.788)" id="text_SF41" style="font-family:'Yu Gothic UI';font-weight:700;font-size:13px;font-style:normal;letter-spacing:-1;fill:#000000;stroke:none;">四階特別教室</text></g><defs><clipPath id="_clipPath_sJOYWwGNOUmEKhiRzMjEljGy4sQ8n37f"><rect x="0" y="0" width="96.992" height="17.291" transform="matrix(1,0,0,1,147.504,136.76)"/></clipPath></defs><g clip-path="url(#_clipPath_gfKZaoFB8Rpah0NP6NxZYHw12ZkYX9d3)"><text transform="matrix(1,0,0,1,364,108.747)" id="text_Lroom" style="font-family:'Yu Gothic UI';font-weight:700;font-size:14px;font-style:normal;fill:#000000;stroke:none;">大教室</text></g><defs><clipPath id="_clipPath_gfKZaoFB8Rpah0NP6NxZYHw12ZkYX9d3"><rect x="0" y="0" width="181.992" height="18.621" transform="matrix(1,0,0,1,295.004,93.64)"/></clipPath></defs><g clip-path="url(#_clipPath_4Yt6kAaSPPetPlCsEsfrYS7O56iJS2XC)"><text transform="matrix(1,0,0,1,565,104.23)" id="text_H3E" style="font-family:'Yu Gothic UI';font-weight:700;font-size:14px;font-style:normal;fill:#000000;stroke:none;">特別</text><text transform="matrix(1,0,0,1,551,117.265)" id="text_H3E" style="font-family:'Yu Gothic UI';font-weight:700;font-size:14px;font-style:normal;fill:#000000;stroke:none;">第五教室</text></g><defs><clipPath id="_clipPath_4Yt6kAaSPPetPlCsEsfrYS7O56iJS2XC"><rect x="0" y="0" width="64.498" height="31.656" transform="matrix(1,0,0,1,547.751,89.123)"/></clipPath></defs><g clip-path="url(#_clipPath_GcJNSMPAMqnw4PlGnudiRTm95L8eRfvf)"><text transform="matrix(1,0,0,1,613,38.495)" id="text_SNo2" style="font-family:'Yu Gothic UI';font-weight:700;font-size:14px;font-style:normal;fill:#000000;stroke:none;">特別</text><text transform="matrix(1,0,0,1,599,51.53)" id="text_SNo2" style="font-family:'Yu Gothic UI';font-weight:700;font-size:14px;font-style:normal;fill:#000000;stroke:none;">第二教室</text></g><defs><clipPath id="_clipPath_GcJNSMPAMqnw4PlGnudiRTm95L8eRfvf"><rect x="0" y="0" width="68.625" height="31.656" transform="matrix(1,0,0,1,593.688,23.388)"/></clipPath></defs><g clip-path="url(#_clipPath_E0nD65nPXx5z8JFGzKiqKLXlSvweLJca)"><text transform="matrix(1,0,0,1,674,48.747)" id="text_SNo1" style="font-family:'Yu Gothic UI';font-weight:700;font-size:14px;font-style:normal;fill:#000000;stroke:none;">特別第一室</text></g><defs><clipPath id="_clipPath_E0nD65nPXx5z8JFGzKiqKLXlSvweLJca"><rect x="0" y="0" width="98" height="18.621" transform="matrix(1,0,0,1,661,33.64)"/></clipPath></defs><g clip-path="url(#_clipPath_H6SzeW7LEbr4234tQuwrTnrAHcGXZ7yc)"><text transform="matrix(1,0,0,1,614.587,114.668)" id="text_H3D" style="font-family:'Yu Gothic UI';font-weight:700;font-size:13px;font-style:normal;letter-spacing:-1;fill:#000000;stroke:none;">高三D教室</text></g><defs><clipPath id="_clipPath_H6SzeW7LEbr4234tQuwrTnrAHcGXZ7yc"><rect x="0" y="0" width="64.498" height="17.291" transform="matrix(1,0,0,1,612,100.64)"/></clipPath></defs><g clip-path="url(#_clipPath_Mh5I1uV0MY91hHDhZMDE9F0CfA24rxrr)"><text transform="matrix(1,0,0,1,679.838,114.728)" id="text_H3C" style="font-family:'Yu Gothic UI';font-weight:700;font-size:13px;font-style:normal;letter-spacing:-1;fill:#000000;stroke:none;">高三C教室</text></g><defs><clipPath id="_clipPath_Mh5I1uV0MY91hHDhZMDE9F0CfA24rxrr"><rect x="0" y="0" width="66.249" height="17.291" transform="matrix(1,0,0,1,675.751,100.699)"/></clipPath></defs><g clip-path="url(#_clipPath_pSBABCHvKMqCvrrrJDGYW8Tp8BvO09UP)"><text transform="matrix(1,0,0,1,766.384,114.747)" id="text_H3A" style="font-family:'Yu Gothic UI';font-weight:700;font-size:14px;font-style:normal;fill:#000000;stroke:none;">高三B,A教室</text></g><defs><clipPath id="_clipPath_pSBABCHvKMqCvrrrJDGYW8Tp8BvO09UP"><rect x="0" y="0" width="132.125" height="18.621" transform="matrix(1,0,0,1,739.938,99.64)"/></clipPath></defs><g clip-path="url(#_clipPath_whhPrqoEv6a80HutjcklKZcrBjdEgNhi)"><text transform="matrix(1,0,0,1,130.772,261.747)" id="text_M3B" style="font-family:'Yu Gothic UI';font-weight:700;font-size:14px;font-style:normal;fill:#000000;stroke:none;">中三B教室</text></g><defs><clipPath id="_clipPath_whhPrqoEv6a80HutjcklKZcrBjdEgNhi"><rect x="0" y="0" width="79.985" height="18.621" transform="matrix(1,0,0,1,124.008,246.64)"/></clipPath></defs></g></svg>