<?xml version="1.0" encoding="UTF-8" standalone="no"?><!-- Generator: Gravit.io --><svg xmlns="http://www.w3.org/2000/svg" xmlns:xlink="http://www.w3.org/1999/xlink" style="isolation:isolate" viewBox="0 0 800 1000" width="800pt" height="1000pt"><defs><clipPath id="_clipPath_wxQj12BgsewbZUY1vUASeZtdWxH4VoyO"><rect width="800" height="1000"/></clipPath></defs><g clip-path="url(#_clipPath_wxQj12BgsewbZUY1vUASeZtdWxH4VoyO)"><g style="isolation:isolate" id="outer"><path d=" M 20 740 L 20 940 L 420 940 L 420 900 L 600 900 L 600 940 L 710 940 L 710 910" id="パス" fill="none" vector-effect="non-scaling-stroke" stroke-width="2" stroke="rgb(0,0,0)" stroke-linejoin="miter" stroke-linecap="square" stroke-miterlimit="3"/><path d=" M 770 770 L 770 740 L 790 740 L 790 110 L 760 110 L 760 80 L 650 80 L 650 740 C 638.624 740 621.999 740 600.125 740 C 600.094 740.109 600.047 750.234 600 750 C 600 750.141 484.918 750 417 750 C 416.977 749.988 417.012 740.004 417 740 Q 273.68 740 20 740" id="パス" fill="none" vector-effect="non-scaling-stroke" stroke-width="2" stroke="rgb(0,0,0)" stroke-linejoin="miter" stroke-linecap="square" stroke-miterlimit="3"/><path d=" M 770 770 L 710 770 L 710 910" id="パス" fill="none" vector-effect="non-scaling-stroke" stroke-width="2" stroke="rgb(0,0,0)" stroke-linejoin="miter" stroke-linecap="square" stroke-miterlimit="3"/></g><g style="isolation:isolate" id="booth"><path d=" M 20 740 L 152 740 L 152 830 L 20 830 L 20 740 Z " id="maps_H3A" fill="rgb(139,139,139)" vector-effect="non-scaling-stroke" stroke-width="2" stroke="rgb(0,0,0)" stroke-linejoin="miter" stroke-linecap="square" stroke-miterlimit="3"/><path d=" M 152 740 L 218 740 L 218 830 L 152 830 L 152 740 Z " id="maps_H3C" fill="rgb(139,139,139)" vector-effect="non-scaling-stroke" stroke-width="2" stroke="rgb(0,0,0)" stroke-linejoin="miter" stroke-linecap="square" stroke-miterlimit="3"/><path d=" M 218 740 L 283 740 L 283 830 L 218 830 L 218 740 Z " id="maps_H3D" fill="rgb(139,139,139)" vector-effect="non-scaling-stroke" stroke-width="2" stroke="rgb(0,0,0)" stroke-linejoin="miter" stroke-linecap="square" stroke-miterlimit="3"/><path d=" M 283 740 L 347 740 L 347 830 L 283 830 L 283 740 Z " id="maps_H3E" fill="rgb(139,139,139)" vector-effect="non-scaling-stroke" stroke-width="2" stroke="rgb(0,0,0)" stroke-linejoin="miter" stroke-linecap="square" stroke-miterlimit="3"/><path d=" M 730 675 L 730 540 L 650 540 L 650 675 L 730 675 Z " id="maps_M3D" fill="rgb(139,139,139)" vector-effect="non-scaling-stroke" stroke-width="2" stroke="rgb(0,0,0)" stroke-linejoin="miter" stroke-linecap="square" stroke-miterlimit="3"/><path d=" M 650 540 L 650 472 L 730 472 L 730 540 L 650 540 Z " id="maps_M3B" fill="rgb(139,139,139)" vector-effect="non-scaling-stroke" stroke-width="2" stroke="rgb(0,0,0)" stroke-linejoin="miter" stroke-linecap="square" stroke-miterlimit="3"/><path d=" M 650 472 L 650 407 L 730 407 L 730 472 L 650 472 Z " id="maps_M3A" fill="rgb(139,139,139)" vector-effect="non-scaling-stroke" stroke-width="2" stroke="rgb(0,0,0)" stroke-linejoin="miter" stroke-linecap="square" stroke-miterlimit="3"/><path d=" M 650 345 L 650 240 L 730 240 L 730 345 L 650 345 Z " id="maps_Physics" fill="rgb(139,139,139)" vector-effect="non-scaling-stroke" stroke-width="2" stroke="rgb(0,0,0)" stroke-linejoin="miter" stroke-linecap="square" stroke-miterlimit="3"/><path d=" M 650 240 L 650 140 L 730 140 L 730 240 L 650 240 Z " id="maps_Music" fill="rgb(139,139,139)" vector-effect="non-scaling-stroke" stroke-width="2" stroke="rgb(0,0,0)" stroke-linejoin="miter" stroke-linecap="square" stroke-miterlimit="3"/><path d=" M 152 860 L 250.5 860 L 250.5 940 L 152 940 L 152 860 Z " id="maps_SNo1" fill="rgb(139,139,139)" vector-effect="non-scaling-stroke" stroke-width="2" stroke="rgb(0,0,0)" stroke-linejoin="miter" stroke-linecap="square" stroke-miterlimit="3"/><path d=" M 250 860 L 318 860 L 318 940 L 250 940 L 250 860 Z " id="maps_SNo2" fill="rgb(139,139,139)" vector-effect="non-scaling-stroke" stroke-width="2" stroke="rgb(0,0,0)" stroke-linejoin="miter" stroke-linecap="square" stroke-miterlimit="3"/><path d=" M 417 750 L 417 850 L 600 850 L 600 750 L 417 750 Z " id="maps_Lroom" fill="rgb(139,139,139)" vector-effect="non-scaling-stroke" stroke-width="2" stroke="rgb(0,0,0)" stroke-linejoin="miter" stroke-linecap="square" stroke-miterlimit="3"/><path d=" M 650 740 L 717.5 740 L 730 740 L 730 675 L 650 675 L 650 740 Z " id="maps_SF41" fill="rgb(139,139,139)" vector-effect="non-scaling-stroke" stroke-width="2" stroke="rgb(0,0,0)" stroke-linejoin="miter" stroke-linecap="square" stroke-miterlimit="3"/></g><g style="isolation:isolate" id="blank"><path d=" M 704 740 L 704 752 L 730 752 L 730 740 L 704 740 Z " id="パス" fill="none" vector-effect="non-scaling-stroke" stroke-width="2" stroke="rgb(0,0,0)" stroke-linejoin="miter" stroke-linecap="square" stroke-miterlimit="3"/><path d=" M 750 311 L 750 347 L 790 347 L 790 311 L 750 311 Z " id="パス" fill="none" vector-effect="non-scaling-stroke" stroke-width="2" stroke="rgb(0,0,0)" stroke-linejoin="miter" stroke-linecap="square" stroke-miterlimit="3"/><path d=" M 750 275 L 750 311 L 790 311 L 790 275 L 750 275 Z " id="パス" fill="none" vector-effect="non-scaling-stroke" stroke-width="2" stroke="rgb(0,0,0)" stroke-linejoin="miter" stroke-linecap="square" stroke-miterlimit="3"/><path d=" M 750 177 L 750 275 L 790 275 L 790 177 L 750 177 Z " id="パス" fill="none" vector-effect="non-scaling-stroke" stroke-width="2" stroke="rgb(0,0,0)" stroke-linejoin="miter" stroke-linecap="square" stroke-miterlimit="3"/><path d=" M 750 110 L 750 176 L 790 176 L 790 110 L 750 110 Z " id="パス" fill="none" vector-effect="non-scaling-stroke" stroke-width="2" stroke="rgb(0,0,0)" stroke-linejoin="miter" stroke-linecap="square" stroke-miterlimit="3"/><path d=" M 750 347 L 750 377 L 790 377 L 790 347 L 750 347 Z " id="パス" fill="none" vector-effect="non-scaling-stroke" stroke-width="2" stroke="rgb(0,0,0)" stroke-linejoin="miter" stroke-linecap="square" stroke-miterlimit="3"/><path d=" M 750 740 L 750 675 L 790 675 L 790 740 L 750 740 Z " id="パス" fill="none" vector-effect="non-scaling-stroke" stroke-width="2" stroke="rgb(0,0,0)" stroke-linejoin="miter" stroke-linecap="square" stroke-miterlimit="3"/><path d=" M 750 675 L 750 606 L 790 606 L 790 675 L 750 675 Z " id="Counseling_Room" fill="none" vector-effect="non-scaling-stroke" stroke-width="2" stroke="rgb(0,0,0)" stroke-linejoin="miter" stroke-linecap="square" stroke-miterlimit="3"/><path d=" M 20 860 L 20 940 L 55 940 L 55 860 L 20 860 Z " id="StairE" fill="none" vector-effect="non-scaling-stroke" stroke-width="2" stroke="rgb(0,0,0)" stroke-linejoin="miter" stroke-linecap="square" stroke-miterlimit="3"/><path d=" M 121 860 L 121 940 L 55 940 L 55 860 L 121 860 Z " id="Audiovisual_Preparation_Room" fill="none" vector-effect="non-scaling-stroke" stroke-width="2" stroke="rgb(0,0,0)" stroke-linejoin="miter" stroke-linecap="square" stroke-miterlimit="3"/><path d=" M 650 820 L 660 820 L 660 740 L 600 740 L 600 766.667 L 600 820 L 650 820 Z " id="Student_Guidance_Office" fill="none" vector-effect="non-scaling-stroke" stroke-width="2" stroke="rgb(0,0,0)" stroke-linejoin="miter" stroke-linecap="square" stroke-miterlimit="3"/><path d=" M 650 140 L 650 80 L 685 80 L 685 140 L 650 140 Z " id="パス" fill="none" vector-effect="non-scaling-stroke" stroke-width="2" stroke="rgb(0,0,0)" stroke-linejoin="miter" stroke-linecap="square" stroke-miterlimit="3"/><path d=" M 703.5 407 L 687.375 407 L 650 407 L 650 377 L 730 377 L 730 407 L 703.5 407 Z " id="パス" fill="none" vector-effect="non-scaling-stroke" stroke-width="2" stroke="rgb(0,0,0)" stroke-linejoin="miter" stroke-linecap="square" stroke-miterlimit="3"/><path d=" M 750 110 L 750 80 L 760 80 L 760 110 L 750 110 Z " id="パス" fill="none" vector-effect="non-scaling-stroke" stroke-width="2" stroke="rgb(0,0,0)" stroke-linejoin="miter" stroke-linecap="square" stroke-miterlimit="3"/><path d=" M 121 860 L 152 860 L 152 940 L 121 940 L 121 860 Z " id="H1_StaffRoom" fill="none" vector-effect="non-scaling-stroke" stroke-width="2" stroke="rgb(0,0,0)" stroke-linejoin="miter" stroke-linecap="square" stroke-miterlimit="3"/><path d=" M 600 900 L 660 900 L 660 940 L 600 940 L 600 900 Z " id="Interview_Room" fill="none" vector-effect="non-scaling-stroke" stroke-width="2" stroke="rgb(0,0,0)" stroke-linejoin="miter" stroke-linecap="square" stroke-miterlimit="3"/><path d=" M 710 940 L 660 940 L 660 860 L 660 940 L 710 940 L 710 860 L 710 940 Z " fill-rule="evenodd" id="StairC" fill="none" vector-effect="non-scaling-stroke" stroke-width="2" stroke="rgb(0,0,0)" stroke-linejoin="miter" stroke-linecap="square" stroke-miterlimit="3"/><path d=" M 650 377 L 650 345 L 730 345 L 730 345 L 730 377 L 650 377 Z " id="パス" fill="none" vector-effect="non-scaling-stroke" stroke-width="2" stroke="rgb(0,0,0)" stroke-linejoin="miter" stroke-linecap="square" stroke-miterlimit="3"/><path d=" M 730 140 L 730 120 L 685 120 L 685 140 L 730 140 Z " id="Path" fill="none" vector-effect="non-scaling-stroke" stroke-width="2" stroke="rgb(0,0,0)" stroke-linejoin="miter" stroke-linecap="square" stroke-miterlimit="3"/><path d=" M 750 80 L 685 80 L 685 120 L 750 120 L 750 80 Z " id="パス" fill="none" vector-effect="non-scaling-stroke" stroke-width="2" stroke="rgb(0,0,0)" stroke-linejoin="miter" stroke-linecap="square" stroke-miterlimit="3"/></g><g style="isolation:isolate" id="special"><path d=" M 750 407 L 790 407 L 790 480 L 750 480 L 750 407 Z " id="パス" fill="rgb(0,0,255)" vector-effect="non-scaling-stroke" stroke-width="2" stroke="rgb(0,0,0)" stroke-linejoin="miter" stroke-linecap="square" stroke-miterlimit="3"/><path d=" M 350 860 L 350 940 L 318 940 L 318 860 L 350 860 Z " id="Toilet" fill="rgb(0,0,255)" vector-effect="non-scaling-stroke" stroke-width="2" stroke="rgb(0,0,0)" stroke-linejoin="miter" stroke-linecap="square" stroke-miterlimit="3"/><path d=" M 750 520 L 750 480 L 790 480 L 790 520" id="パス" fill="none" vector-effect="non-scaling-stroke" stroke-width="2" stroke="rgb(0,0,0)" stroke-linejoin="miter" stroke-linecap="square" stroke-miterlimit="3"/><path d=" M 420 890 L 420 940 L 350 940 L 350 890" id="パス" fill="none" vector-effect="non-scaling-stroke" stroke-width="2" stroke="rgb(0,0,0)" stroke-linejoin="miter" stroke-linecap="square" stroke-miterlimit="3"/></g><g style="isolation:isolate" id="Decorations"><g style="isolation:isolate" id="stairB"><path d=" M 790 490.5 L 776.109 490.5 L 750 490.5 M 750 505 L 770 505 M 750 495 L 770 495 M 750 510 L 770 510 M 750 500 L 770 500 M 750 516 L 770 516 M 770 520 Q 770 502.318 770 491" fill-rule="evenodd" id="複合パス" fill="none" vector-effect="non-scaling-stroke" stroke-width="1" stroke="rgb(0,0,0)" stroke-linejoin="miter" stroke-linecap="square" stroke-miterlimit="3"/><path d=" M 790 495 L 770 495 L 770 500 L 790 500 L 790 505 L 770 505 L 770 510 L 790 510 L 790 516 L 770 516" id="パス" fill="none" vector-effect="non-scaling-stroke" stroke-width="1" stroke="rgb(0,0,0)" stroke-linejoin="miter" stroke-linecap="square" stroke-miterlimit="3"/></g><g style="isolation:isolate" id="stairC"><path d=" M 685 920 L 660 920 L 660 915 L 685 915 L 685 910 L 660 910 L 660 905 L 685 905 L 685 900 L 660 900 L 660 895 L 685 895 L 685 890 L 660 890 L 660 885 L 685 885 L 685 880 L 660 880" id="パス" fill="none" vector-effect="non-scaling-stroke" stroke-width="1" stroke="rgb(0,0,0)" stroke-linejoin="miter" stroke-linecap="square" stroke-miterlimit="3"/><path d=" M 685 924 L 685 880 L 685 880 L 710 880 L 710 885 L 685 885 L 685 890 L 710 890 L 710 895 L 685 895 L 685 900 L 710 900 L 710 905 L 685 905 L 685 910 L 710 910 L 710 915 L 685 915 L 685 920 L 710 920" id="パス" fill="none" vector-effect="non-scaling-stroke" stroke-width="1" stroke="rgb(0,0,0)" stroke-linejoin="miter" stroke-linecap="square" stroke-miterlimit="3"/></g><g style="isolation:isolate" id="stairD"><line x1="420" y1="890" x2="375" y2="890" id="パス" vector-effect="non-scaling-stroke" stroke-width="2" stroke="rgb(0,0,0)" stroke-linejoin="miter" stroke-linecap="square" stroke-miterlimit="3"/><line x1="400" y1="915" x2="366" y2="915" id="パス" vector-effect="non-scaling-stroke" stroke-width="2" stroke="rgb(0,0,0)" stroke-linejoin="miter" stroke-linecap="square" stroke-miterlimit="3"/><path d=" M 367 916 L 367 940 L 371 940 L 371 915 L 375 915 L 375 940 L 379 940 L 379 915 L 383 915 L 383 940 L 387 940 L 387 915 L 391 915 L 391 940 L 395 940 L 395 915 L 399 915 L 399 940 L 420 940 L 420 892 L 419 890 L 397 890 L 397 915 L 393 915 L 393 890 L 389 890 L 389 915 L 385 915 L 385 890" id="パス" fill="none" vector-effect="non-scaling-stroke" stroke-width="1" stroke="rgb(0,0,0)" stroke-linejoin="miter" stroke-linecap="square" stroke-miterlimit="3"/></g><path d=" M 330 892 C 330 889.24 332.24 887 335 887 C 337.76 887 340 889.24 340 892 C 340 894.76 337.76 897 335 897 C 332.24 897 330 894.76 330 892 Z  M 334.641 911.067 L 330.718 900.867 C 330.322 899.836 330.896 899 332 899 L 338 899 C 339.104 899 339.678 899.836 339.282 900.867 L 335.359 911.067 C 335.161 911.582 334.839 911.582 334.641 911.067 Z " fill-rule="evenodd" id="複合パス" fill="rgb(255,255,255)"/><path d=" M 765 435 C 765 432.24 767.24 430 770 430 C 772.76 430 775 432.24 775 435 C 775 437.76 772.76 440 770 440 C 767.24 440 765 437.76 765 435 Z  M 769.641 454.067 L 765.718 443.867 C 765.322 442.836 765.896 442 767 442 L 773 442 C 774.104 442 774.678 442.836 774.282 443.867 L 770.359 454.067 C 770.161 454.582 769.839 454.582 769.641 454.067 Z " fill-rule="evenodd" id="複合パス" fill="rgb(255,255,255)"/><g style="isolation:isolate" id="Text"><g clip-path="url(#_clipPath_y8UX8aJsSWxNUQ63NoeqnnsVgJnS3q8f)"><text transform="matrix(1,0,0,1,154,793.281)" id="テキスト" style="font-family:'Yu Gothic UI';font-weight:700;font-size:20px;font-style:normal;fill:#ffffff;stroke:none;">地歴部</text></g><defs><clipPath id="_clipPath_y8UX8aJsSWxNUQ63NoeqnnsVgJnS3q8f"><rect x="0" y="0" width="66" height="90" transform="matrix(1,0,0,1,152,740)"/></clipPath></defs><g clip-path="url(#_clipPath_5KC6ifjdQGlg1jLEUhInqfzXyjPMyCze)"><text transform="matrix(1,0,0,1,287,779.98)" id="テキスト" style="font-family:'Yu Gothic UI';font-weight:700;font-size:20px;font-style:normal;fill:#ffffff;stroke:none;">コーヒー</text><text transform="matrix(1,0,0,1,291.5,806.582)" id="テキスト" style="font-family:'Yu Gothic UI';font-weight:700;font-size:20px;font-style:normal;fill:#ffffff;stroke:none;">カップ</text></g><defs><clipPath id="_clipPath_5KC6ifjdQGlg1jLEUhInqfzXyjPMyCze"><rect x="0" y="0" width="62" height="90" transform="matrix(1,0,0,1,284,740)"/></clipPath></defs><g clip-path="url(#_clipPath_L3aivtg5032HOyOboNVJVUYhmUnOeIcM)"><text transform="matrix(1,0,0,1,181,895.482)" id="テキスト" style="font-family:'Yu Gothic UI';font-weight:700;font-size:18px;font-style:normal;fill:#ffffff;stroke:none;">メリー</text><text transform="matrix(1,0,0,1,167,919.424)" id="テキスト" style="font-family:'Yu Gothic UI';font-weight:700;font-size:18px;font-style:normal;fill:#ffffff;stroke:none;">ゴーランド</text></g><defs><clipPath id="_clipPath_L3aivtg5032HOyOboNVJVUYhmUnOeIcM"><rect x="0" y="0" width="98" height="80" transform="matrix(1,0,0,1,152,860)"/></clipPath></defs><g clip-path="url(#_clipPath_JBjHDtTjJmpFlfv8A94fE3fAQnCjKe6t)"><text transform="matrix(1,0,0,1,423.5,811.266)" id="テキスト" style="font-family:'Yu Gothic UI';font-weight:700;font-size:26px;font-style:normal;fill:#ffffff;stroke:none;">ジェットコースター</text></g><defs><clipPath id="_clipPath_JBjHDtTjJmpFlfv8A94fE3fAQnCjKe6t"><rect x="0" y="0" width="183" height="99" transform="matrix(1,0,0,1,417,751)"/></clipPath></defs><g clip-path="url(#_clipPath_17xYxqMPZ8SNgXa29x5I7AHX4cQcF8Nz)"><text transform="matrix(1,0,0,1,658.224,604.237)" id="テキスト" style="font-family:'Yu Gothic UI';font-weight:700;font-size:13px;font-style:normal;font-variant-ligatures:none;letter-spacing:1;fill:#ffffff;stroke:none;">スターライト</text><text transform="matrix(1,0,0,1,651.012,621.528)" id="テキスト" style="font-family:'Yu Gothic UI';font-weight:700;font-size:13px;font-style:normal;font-variant-ligatures:none;letter-spacing:1;fill:#ffffff;stroke:none;">プラネタリウム</text></g><defs><clipPath id="_clipPath_17xYxqMPZ8SNgXa29x5I7AHX4cQcF8Nz"><rect x="0" y="0" width="80" height="135" transform="matrix(1,0,0,1,650,540)"/></clipPath></defs><g clip-path="url(#_clipPath_RMwbXNnlewdF1nnUpfYWwd76N237IfAP)"><text transform="matrix(1,0,0,1,659,447.98)" id="テキスト" style="font-family:'Yu Gothic UI';font-weight:700;font-size:20px;font-style:normal;fill:#ffffff;stroke:none;">写真部</text></g><defs><clipPath id="_clipPath_RMwbXNnlewdF1nnUpfYWwd76N237IfAP"><rect x="0" y="0" width="80" height="64.602" transform="matrix(1,0,0,1,650,407.398)"/></clipPath></defs><g clip-path="url(#_clipPath_t0UUoeGohib0DT7k1F8SLra2u4oPFABa)"><text transform="matrix(1,0,0,1,659,198.281)" id="テキスト" style="font-family:'Yu Gothic UI';font-weight:700;font-size:20px;font-style:normal;fill:#ffffff;stroke:none;">音楽室</text></g><defs><clipPath id="_clipPath_t0UUoeGohib0DT7k1F8SLra2u4oPFABa"><rect x="0" y="0" width="80" height="100" transform="matrix(1,0,0,1,650,140)"/></clipPath></defs></g></g><g clip-path="url(#_clipPath_x0Sx2tpdWaNFUNbRvz1Q2jZdiyQ81azZ)"><text transform="matrix(1,0,0,1,50.5,793.281)" id="テキスト" style="font-family:'Yu Gothic UI';font-weight:700;font-size:20px;font-style:normal;fill:#ffffff;stroke:none;">愛有ーる</text></g><defs><clipPath id="_clipPath_x0Sx2tpdWaNFUNbRvz1Q2jZdiyQ81azZ"><rect x="0" y="0" width="132" height="90" transform="matrix(1,0,0,1,20,740)"/></clipPath></defs><g clip-path="url(#_clipPath_UOVORcQeqN2Met9L4lGyeeagCZEoy3k6)"><text transform="matrix(1,0,0,1,219.5,780.078)" id="テキスト" style="font-family:'Yu Gothic UI';font-weight:700;font-size:20px;font-style:normal;fill:#ffffff;stroke:none;">社会科</text><text transform="matrix(1,0,0,1,229.5,806.68)" id="テキスト" style="font-family:'Yu Gothic UI';font-weight:700;font-size:20px;font-style:normal;fill:#ffffff;stroke:none;">展示</text></g><defs><clipPath id="_clipPath_UOVORcQeqN2Met9L4lGyeeagCZEoy3k6"><rect x="0" y="0" width="65" height="89.805" transform="matrix(1,0,0,1,218,740.195)"/></clipPath></defs><g clip-path="url(#_clipPath_g8qtApiXNDoNLkTcjS8HtRuV8TLySAb0)"><text transform="matrix(1,0,0,1,660,702.48)" id="テキスト" style="font-family:'Yu Gothic UI';font-weight:700;font-size:20px;font-style:normal;fill:#ffffff;stroke:none;">AOPIΣ</text><text transform="matrix(1,0,0,1,660,729.082)" id="テキスト" style="font-family:'Yu Gothic UI';font-weight:700;font-size:20px;font-style:normal;fill:#ffffff;stroke:none;">TOΣ</text></g><defs><clipPath id="_clipPath_g8qtApiXNDoNLkTcjS8HtRuV8TLySAb0"><rect x="0" y="0" width="70" height="65" transform="matrix(1,0,0,1,660,675)"/></clipPath></defs><g clip-path="url(#_clipPath_fabArMqn0W48f8CYMasD1hgf73P3d0Wt)"><text transform="matrix(1,0,0,1,672.5,500.98)" id="テキスト" style="font-family:'Yu Gothic UI';font-weight:700;font-size:20px;font-style:normal;fill:#ffffff;stroke:none;">んけ</text><text transform="matrix(1,0,0,1,673.5,527.582)" id="テキスト" style="font-family:'Yu Gothic UI';font-weight:700;font-size:20px;font-style:normal;fill:#ffffff;stroke:none;">うす</text></g><defs><clipPath id="_clipPath_fabArMqn0W48f8CYMasD1hgf73P3d0Wt"><rect x="0" y="0" width="80" height="68" transform="matrix(1,0,0,1,650,472)"/></clipPath></defs><g clip-path="url(#_clipPath_4ndE8BGpJGve13W2g3hZiCJtYpZTxBm2)"><text transform="matrix(1,0,0,1,660,281.712)" id="テキスト" style="font-family:'Yu Gothic UI';font-weight:700;font-size:20px;font-style:normal;fill:#ffffff;stroke:none;">電気</text><text transform="matrix(1,0,0,1,660,308.314)" id="テキスト" style="font-family:'Yu Gothic UI';font-weight:700;font-size:20px;font-style:normal;fill:#ffffff;stroke:none;">工学部</text></g><defs><clipPath id="_clipPath_4ndE8BGpJGve13W2g3hZiCJtYpZTxBm2"><rect x="0" y="0" width="64" height="49.87" transform="matrix(1,0,0,1,660,260.13)"/></clipPath></defs><g clip-path="url(#_clipPath_Dzbmwu26orlzNAj5Ux9gjgPcNqUMJSb3)"><text transform="matrix(1,0,0,1,253,877.865)" id="テキスト" style="font-family:'Yu Gothic UI';font-weight:700;font-size:14px;font-style:normal;fill:#ffffff;stroke:none;">ほしのこ</text><text transform="matrix(1,0,0,1,253,896.486)" id="テキスト" style="font-family:'Yu Gothic UI';font-weight:700;font-size:14px;font-style:normal;fill:#ffffff;stroke:none;">のこのこ</text><text transform="matrix(1,0,0,1,253,915.107)" id="テキスト" style="font-family:'Yu Gothic UI';font-weight:700;font-size:14px;font-style:normal;fill:#ffffff;stroke:none;">まと</text><text transform="matrix(1,0,0,1,253,933.729)" id="テキスト" style="font-family:'Yu Gothic UI';font-weight:700;font-size:14px;font-style:normal;fill:#ffffff;stroke:none;">ばんばん</text></g><defs><clipPath id="_clipPath_Dzbmwu26orlzNAj5Ux9gjgPcNqUMJSb3"><rect x="0" y="0" width="65" height="80" transform="matrix(1,0,0,1,253,860)"/></clipPath></defs></g></svg>