<?xml version="1.0" encoding="UTF-8" standalone="no"?><!-- Generator: Gravit.io --><svg xmlns="http://www.w3.org/2000/svg" xmlns:xlink="http://www.w3.org/1999/xlink" style="isolation:isolate" viewBox="0 0 800 1000" width="800pt" height="1000pt"><g style="isolation:isolate" id="outer"><path d=" M 20 740 L 20 940 L 420 940 L 600 940 L 710 940 L 710 910" id="Path" fill="none" vector-effect="non-scaling-stroke" stroke-width="2" stroke="rgb(0,0,0)" stroke-linejoin="miter" stroke-linecap="square" stroke-miterlimit="3"/><path d=" M 710 770 L 710 740 L 660 740 L 660 750 Q 600.047 750.234 600 750 C 600 750.141 484.918 750 417 750 C 416.977 749.988 417.012 740.004 417 740 Q 273.68 740 20 740" id="Path" fill="none" vector-effect="non-scaling-stroke" stroke-width="2" stroke="rgb(0,0,0)" stroke-linejoin="miter" stroke-linecap="square" stroke-miterlimit="3"/><line x1="710" y1="770" x2="710" y2="910" id="Path" vector-effect="non-scaling-stroke" stroke-width="2" stroke="rgb(0,0,0)" stroke-linejoin="miter" stroke-linecap="square" stroke-miterlimit="3"/></g><g style="isolation:isolate" id="booth"><path d=" M 80 740 L 360 740 L 360 760 L 370 760 L 370 920 L 360 920 L 360 940 L 80 940 L 80 740 Z " id="maps_gym1" fill="rgb(139,139,139)" vector-effect="non-scaling-stroke" stroke-width="2" stroke="rgb(0,0,0)" stroke-linejoin="miter" stroke-linecap="square" stroke-miterlimit="3"/><path d=" M 590 940 L 416 940 L 416 829 L 480 829 L 480 809 Q 516.111 809 520 809 L 520 829 L 590 829 L 590 940 Z " id="gym2" fill="rgb(139,139,139)" vector-effect="non-scaling-stroke" stroke-width="2" stroke="rgb(0,0,0)" stroke-linejoin="miter" stroke-linecap="square" stroke-miterlimit="3"/></g><g style="isolation:isolate" id="blank"><path d=" M 20 740 L 20 940 L 80 940 L 80 740 L 20 740 Z " id="StairE" fill="none" vector-effect="non-scaling-stroke" stroke-width="2" stroke="rgb(0,0,0)" stroke-linejoin="miter" stroke-linecap="square" stroke-miterlimit="3"/><path d=" M 701.667 830 L 710 830 L 710 800 L 660 800 L 660 810 L 660 830 L 701.667 830 Z " id="Student_Guidance_Office" fill="rgb(255,0,0)" vector-effect="non-scaling-stroke" stroke-width="2" stroke="rgb(0,0,0)" stroke-linejoin="miter" stroke-linecap="square" stroke-miterlimit="3"/><path d=" M 590 860 L 660 860 L 660 940 L 590 940 L 590 860 Z " id="Interview_Room" fill="none" vector-effect="non-scaling-stroke" stroke-width="2" stroke="rgb(0,0,0)" stroke-linejoin="miter" stroke-linecap="square" stroke-miterlimit="3"/><path d=" M 710 940 L 660 940 L 660 860 L 660 940 L 710 940 L 710 860 L 710 940 Z " fill-rule="evenodd" id="StairC" fill="none" vector-effect="non-scaling-stroke" stroke-width="2" stroke="rgb(0,0,0)" stroke-linejoin="miter" stroke-linecap="square" stroke-miterlimit="3"/><path d=" M 660 740 L 660 800 L 710 800 L 710 740 L 660 740 Z " id="Path" fill="rgb(0,0,255)" vector-effect="non-scaling-stroke" stroke-width="2" stroke="rgb(0,0,0)" stroke-linejoin="miter" stroke-linecap="square" stroke-miterlimit="3"/><path d=" M 400 870 L 400 805 L 416 805 L 416 940 L 400 940 L 400 890" id="Path" fill="none" vector-effect="non-scaling-stroke" stroke-width="2" stroke="rgb(0,0,0)" stroke-linejoin="miter" stroke-linecap="square" stroke-miterlimit="3"/><path d=" M 520 791 L 536 791 L 536 829 L 520 829 L 520 791 Z " id="Path" fill="none" vector-effect="non-scaling-stroke" stroke-width="2" stroke="rgb(0,0,0)" stroke-linejoin="miter" stroke-linecap="square" stroke-miterlimit="3"/><path d=" M 536 791 L 552 791 L 552 829 L 536 829 L 536 791 Z " id="Path" fill="none" vector-effect="non-scaling-stroke" stroke-width="2" stroke="rgb(0,0,0)" stroke-linejoin="miter" stroke-linecap="square" stroke-miterlimit="3"/><path d=" M 464 791 L 480 791 L 480 829 L 464 829 L 464 791 Z " id="Path" fill="none" vector-effect="non-scaling-stroke" stroke-width="2" stroke="rgb(0,0,0)" stroke-linejoin="miter" stroke-linecap="square" stroke-miterlimit="3"/><path d=" M 448 791 L 464 791 L 464 829 L 448 829 L 448 791 Z " id="Path" fill="none" vector-effect="non-scaling-stroke" stroke-width="2" stroke="rgb(0,0,0)" stroke-linejoin="miter" stroke-linecap="square" stroke-miterlimit="3"/><path d=" M 416 791 L 448 791 L 448 829 L 416 829 L 416 791 Z " id="Path" fill="none" vector-effect="non-scaling-stroke" stroke-width="2" stroke="rgb(0,0,0)" stroke-linejoin="miter" stroke-linecap="square" stroke-miterlimit="3"/><path d=" M 400 929 L 416 929 L 416 926 L 400 926 L 400 923 L 416 923 L 416 920 L 400 920 L 400 917 L 416 917 L 416 914 L 400 914 L 400 911 L 416 911 L 416 908 L 400 908 L 400 905 L 416 905 L 416 902 L 400 902 L 400 899 L 416 899 Q 416 884.402 416 868 L 400 868 L 400 865 Q 416 865.067 416 865 L 416 862 L 400 862 L 400 859 L 416 859 L 416 856 L 400 856 L 400 853 L 416 853 L 416 850 L 400 850 L 400 840 L 416 840 L 416 837 L 400 837 L 400 834 L 416 834 Q 415.813 830.563 416 831 Q 416.188 831.438 400 831 L 400 828 L 416 828 L 416 825 L 407 825 L 400 827 L 416 822" id="Path" fill="none" vector-effect="non-scaling-stroke" stroke-width="1" stroke="rgb(0,0,0)" stroke-linejoin="miter" stroke-linecap="square" stroke-miterlimit="3"/></g><path d=" M 590 791 L 590 829 L 552 829 L 552 791 L 590 791 Z " id="Path" fill="none" vector-effect="non-scaling-stroke" stroke-width="2" stroke="rgb(0,0,0)" stroke-linejoin="miter" stroke-linecap="square" stroke-miterlimit="3"/><g style="isolation:isolate" id="special"/><g style="isolation:isolate" id="Decorations"><g style="isolation:isolate" id="stairB"/><g style="isolation:isolate" id="stairC"><path d=" M 685 920 L 660 920 L 660 915 L 685 915 L 685 910 L 660 910 L 660 905 L 685 905 L 685 900 L 660 900 L 660 895 L 685 895 L 685 890 L 660 890 L 660 885 L 685 885 L 685 880 L 660 880" id="Path" fill="none" vector-effect="non-scaling-stroke" stroke-width="1" stroke="rgb(0,0,0)" stroke-linejoin="miter" stroke-linecap="square" stroke-miterlimit="3"/><path d=" M 685 924 L 685 880 L 685 880 L 710 880 L 710 885 L 685 885 L 685 890 L 710 890 L 710 895 L 685 895 L 685 900 L 710 900 L 710 905 L 685 905 L 685 910 L 710 910 L 710 915 L 685 915 L 685 920 L 710 920" id="Path" fill="none" vector-effect="non-scaling-stroke" stroke-width="1" stroke="rgb(0,0,0)" stroke-linejoin="miter" stroke-linecap="square" stroke-miterlimit="3"/></g><g style="isolation:isolate" id="Text"><g clip-path="url(#_clipPath_Di4Oyt0QLxx5AyojWv3lARNksUc7msEZ)"><text transform="matrix(1,0,0,1,140,855.68)" id="Text" style="font-family:'Noto Sans CJK JP';font-weight:400;font-size:48px;font-style:normal;fill:#ffffff;stroke:none;">体育館</text></g><defs><clipPath id="_clipPath_Di4Oyt0QLxx5AyojWv3lARNksUc7msEZ"><rect x="0" y="0" width="150" height="70" transform="matrix(1,0,0,1,140,800)"/></clipPath></defs><g clip-path="url(#_clipPath_GcTbuNoeJAEQwQ63s3aTmNQ26ezq4NFe)"><text transform="matrix(1,0,0,1,440,887.84)" id="Text" style="font-family:'Noto Sans CJK JP';font-weight:400;font-size:24px;font-style:normal;fill:#ffffff;stroke:none;">第二体育館</text></g><defs><clipPath id="_clipPath_GcTbuNoeJAEQwQ63s3aTmNQ26ezq4NFe"><rect x="0" y="0" width="150" height="70" transform="matrix(1,0,0,1,440,860)"/></clipPath></defs></g></g><path d=" M 680 762 C 680 759.24 682.24 757 685 757 C 687.76 757 690 759.24 690 762 C 690 764.76 687.76 767 685 767 C 682.24 767 680 764.76 680 762 Z  M 684.641 781.067 L 680.718 770.867 C 680.322 769.836 680.896 769 682 769 L 688 769 C 689.104 769 689.678 769.836 689.282 770.867 L 685.359 781.067 C 685.161 781.582 684.839 781.582 684.641 781.067 Z " fill-rule="evenodd" id="Compound Path" fill="rgb(255,255,255)"/><path d=" M 680 807 C 680 804.24 682.24 802 685 802 C 687.76 802 690 804.24 690 807 C 690 809.76 687.76 812 685 812 C 682.24 812 680 809.76 680 807 Z  M 684.664 813.942 L 680.673 825.117 C 680.301 826.156 680.896 827 682 827 L 688 827 C 689.104 827 689.699 826.156 689.327 825.117 L 685.336 813.942 C 685.151 813.422 684.849 813.422 684.664 813.942 Z " fill-rule="evenodd" id="Compound Path" fill="rgb(255,255,255)"/></svg>