<?xml version="1.0" encoding="UTF-8" standalone="no"?><!-- Generator: Gravit.io --><svg xmlns="http://www.w3.org/2000/svg" xmlns:xlink="http://www.w3.org/1999/xlink" style="isolation:isolate" viewBox="0 0 1000 800" width="1000pt" height="800pt"><defs><clipPath id="_clipPath_o74iBCX8e8aHhYpeZAMSeCij6Ngu7KDb"><rect width="1000" height="800"/></clipPath></defs><g clip-path="url(#_clipPath_o74iBCX8e8aHhYpeZAMSeCij6Ngu7KDb)"><g style="isolation:isolate" id="outer"><path d=" M 808 135 L 837.474 25 L 437.474 25 L 257.474 25 L 147.474 25 L 143.053 41.5" id="パス" fill="none" vector-effect="non-scaling-stroke" stroke-width="1.483" stroke="rgb(0,0,0)" stroke-linejoin="miter" stroke-linecap="square" stroke-miterlimit="3"/><path d=" M 122.421 118.5 L 118 135 L 168 135 L 169.474 129.5 Q 229.461 129.371 229.474 129.5 C 229.494 129.423 344.555 129.5 412.474 129.5 C 412.495 129.506 410.989 134.998 411 135 Q 554.32 135 808 135" id="パス" fill="none" vector-effect="non-scaling-stroke" stroke-width="1.483" stroke="rgb(0,0,0)" stroke-linejoin="miter" stroke-linecap="square" stroke-miterlimit="3"/><line x1="122.421" y1="118.5" x2="143.053" y2="41.5" id="パス" vector-effect="non-scaling-stroke" stroke-width="1.483" stroke="rgb(0,0,0)" stroke-linejoin="miter" stroke-linecap="square" stroke-miterlimit="3"/></g><g style="isolation:isolate" id="booth"><path d=" M 748 135 L 468 135 L 470.947 124 L 460.947 124 L 484.527 36 L 494.527 36 L 497.474 25 L 777.474 25 L 748 135 Z " id="maps_P1" fill="rgb(209,209,209)" vector-effect="non-scaling-stroke" stroke-width="0.88" stroke="rgb(0,0,0)" stroke-linejoin="miter" stroke-linecap="square" stroke-miterlimit="3"/><path d=" M 267.474 25 L 441.474 25 L 425.116 86.05 L 361.116 86.05 L 358.169 97.05 Q 322.058 97.05 318.169 97.05 L 321.116 86.05 L 251.116 86.05 L 267.474 25 Z " id="maps_P2" fill="rgb(209,209,209)" vector-effect="non-scaling-stroke" stroke-width="0.88" stroke="rgb(0,0,0)" stroke-linejoin="miter" stroke-linecap="square" stroke-miterlimit="3"/></g><g style="isolation:isolate" id="blank"><path d=" M 808 135 L 837.474 25 L 777.474 25 L 748 135 L 808 135 Z " id="StairE" fill="rgb(93,93,93)" vector-effect="non-scaling-stroke" stroke-width="1.187" stroke="rgb(0,0,0)" stroke-linejoin="miter" stroke-linecap="square" stroke-miterlimit="3"/><path d=" M 139.597 85.5 L 131.263 85.5 L 126.842 102 L 176.842 102 L 178.316 96.5 L 181.263 85.5 L 139.597 85.5 Z " id="Student_Guidance_Office" fill="rgb(255,0,0)" vector-effect="non-scaling-stroke" stroke-width="0.89" stroke="rgb(0,0,0)" stroke-linejoin="miter" stroke-linecap="square" stroke-miterlimit="3"/><path d=" M 255.685 69 L 185.685 69 L 197.474 25 L 267.474 25 L 255.685 69 Z " id="Interview_Room" fill="rgb(93,93,93)" vector-effect="non-scaling-stroke" stroke-width="1.187" stroke="rgb(0,0,0)" stroke-linejoin="miter" stroke-linecap="square" stroke-miterlimit="3"/><path d=" M 147.474 25 L 197.474 25 L 185.685 69 L 197.474 25 L 147.474 25 L 135.685 69 L 147.474 25 Z " fill-rule="evenodd" id="StairC" fill="none" vector-effect="non-scaling-stroke" stroke-width="1.483" stroke="rgb(0,0,0)" stroke-linejoin="miter" stroke-linecap="square" stroke-miterlimit="3"/><path d=" M 168 135 L 176.842 102 L 126.842 102 L 118 135 L 168 135 Z " id="パス" fill="rgb(0,0,255)" vector-effect="non-scaling-stroke" stroke-width="0.89" stroke="rgb(0,0,0)" stroke-linejoin="miter" stroke-linecap="square" stroke-miterlimit="3"/><path d=" M 447.158 63.5 L 437.579 99.25 L 421.579 99.25 L 441.474 25 L 457.474 25 L 450.106 52.5" id="パス" fill="none" vector-effect="non-scaling-stroke" stroke-width="1.483" stroke="rgb(0,0,0)" stroke-linejoin="miter" stroke-linecap="square" stroke-miterlimit="3"/><path d=" M 315.516 106.95 L 299.516 106.95 L 305.116 86.05 L 321.116 86.05 L 315.516 106.95 Z " id="パス" fill="rgb(93,93,93)" vector-effect="non-scaling-stroke" stroke-width="1.187" stroke="rgb(0,0,0)" stroke-linejoin="miter" stroke-linecap="square" stroke-miterlimit="3"/><path d=" M 299.516 106.95 L 283.516 106.95 L 289.116 86.05 L 305.116 86.05 L 299.516 106.95 Z " id="パス" fill="rgb(93,93,93)" vector-effect="non-scaling-stroke" stroke-width="1.187" stroke="rgb(0,0,0)" stroke-linejoin="miter" stroke-linecap="square" stroke-miterlimit="3"/><path d=" M 371.516 106.95 L 355.516 106.95 L 361.116 86.05 L 377.116 86.05 L 371.516 106.95 Z " id="パス" fill="rgb(93,93,93)" vector-effect="non-scaling-stroke" stroke-width="1.187" stroke="rgb(0,0,0)" stroke-linejoin="miter" stroke-linecap="square" stroke-miterlimit="3"/><path d=" M 387.516 106.95 L 371.516 106.95 L 377.116 86.05 L 393.116 86.05 L 387.516 106.95 Z " id="パス" fill="rgb(93,93,93)" vector-effect="non-scaling-stroke" stroke-width="1.187" stroke="rgb(0,0,0)" stroke-linejoin="miter" stroke-linecap="square" stroke-miterlimit="3"/><path d=" M 419.516 106.95 L 387.516 106.95 L 393.116 86.05 L 425.116 86.05 L 419.516 106.95 Z " id="パス" fill="rgb(93,93,93)" vector-effect="non-scaling-stroke" stroke-width="1.187" stroke="rgb(0,0,0)" stroke-linejoin="miter" stroke-linecap="square" stroke-miterlimit="3"/><path d=" M 455.853 31.05 L 439.853 31.05 L 439.411 32.7 L 455.411 32.7 L 454.969 34.35 L 438.969 34.35 L 438.527 36 L 454.527 36 L 454.085 37.65 L 438.085 37.65 L 437.643 39.3 L 453.643 39.3 L 453.201 40.95 L 437.201 40.95 L 436.759 42.6 L 452.759 42.6 L 452.316 44.25 L 436.316 44.25 L 435.874 45.9 L 451.874 45.9 L 451.432 47.55 L 435.432 47.55 Q 433.281 55.579 430.864 64.6 L 446.864 64.6 L 446.422 66.25 Q 430.431 66.213 430.422 66.25 L 429.979 67.9 L 445.979 67.9 L 445.537 69.55 L 429.537 69.55 L 429.095 71.2 L 445.095 71.2 L 444.653 72.85 L 428.653 72.85 L 428.211 74.5 L 444.211 74.5 L 442.737 80 L 426.737 80 L 426.295 81.65 L 442.295 81.65 L 441.853 83.3 L 425.853 83.3 Q 425.534 85.191 425.411 84.95 Q 425.288 84.709 441.411 84.95 L 440.969 86.6 L 424.969 86.6 L 424.527 88.25 L 433.527 88.25 L 440.821 87.15 L 424.085 89.9" id="パス" fill="none" vector-effect="non-scaling-stroke" stroke-width="0.742" stroke="rgb(0,0,0)" stroke-linejoin="miter" stroke-linecap="square" stroke-miterlimit="3"/><g clip-path="url(#_clipPath_EFP9tIoRyFi40RDR5bxBYmj3tni0XxrJ)"><text transform="matrix(1,0,0,1,302.329,81.107)" id="text_P2" style="font-family:'Yu Gothic UI';font-weight:700;font-size:14px;font-style:normal;fill:#000000;stroke:none;">第二体育館</text></g><defs><clipPath id="_clipPath_EFP9tIoRyFi40RDR5bxBYmj3tni0XxrJ"><rect x="0" y="0" width="173.342" height="18.621" transform="matrix(1,0,0,1,251.658,66)"/></clipPath></defs><g clip-path="url(#_clipPath_umKX3YzNrABN38eA0Ex8ZOvqRZmVwhKJ)"><text transform="matrix(1,0,0,1,567.769,130.707)" id="text_P1" style="font-family:'Yu Gothic UI';font-weight:700;font-size:14px;font-style:normal;fill:#000000;stroke:none;">体育館/講堂</text></g><defs><clipPath id="_clipPath_umKX3YzNrABN38eA0Ex8ZOvqRZmVwhKJ"><rect x="0" y="0" width="276.671" height="18.621" transform="matrix(1,0,0,1,468.329,115.6)"/></clipPath></defs></g><path d=" M 245.516 106.95 L 251.116 86.05 L 289.116 86.05 L 283.516 106.95 L 245.516 106.95 Z " id="パス" fill="rgb(93,93,93)" vector-effect="non-scaling-stroke" stroke-width="1.187" stroke="rgb(0,0,0)" stroke-linejoin="miter" stroke-linecap="square" stroke-miterlimit="3"/><g style="isolation:isolate" id="special"/><g style="isolation:isolate" id="Decorations"><g style="isolation:isolate" id="stairB"/><g style="isolation:isolate" id="stairC"><path d=" M 685 920 L 660 920 L 660 915 L 685 915 L 685 910 L 660 910 L 660 905 L 685 905 L 685 900 L 660 900 L 660 895 L 685 895 L 685 890 L 660 890 L 660 885 L 685 885 L 685 880 L 660 880" id="パス" fill="none" vector-effect="non-scaling-stroke" stroke-width="1" stroke="rgb(0,0,0)" stroke-linejoin="miter" stroke-linecap="square" stroke-miterlimit="3"/><path d=" M 685 924 L 685 880 L 685 880 L 710 880 L 710 885 L 685 885 L 685 890 L 710 890 L 710 895 L 685 895 L 685 900 L 710 900 L 710 905 L 685 905 L 685 910 L 710 910 L 710 915 L 685 915 L 685 920 L 710 920" id="パス" fill="none" vector-effect="non-scaling-stroke" stroke-width="1" stroke="rgb(0,0,0)" stroke-linejoin="miter" stroke-linecap="square" stroke-miterlimit="3"/></g></g><g style="isolation:isolate" id="Text"/><path d=" M 141.744 114.999 C 142.151 113.482 144.721 112.249 147.481 112.249 C 150.241 112.249 152.151 113.482 151.744 114.999 C 151.337 116.517 148.767 117.749 146.007 117.749 C 143.248 117.749 141.337 116.517 141.744 114.999 Z  M 143.503 125.318 L 141.3 120.211 C 140.976 119.46 141.377 118.849 142.196 118.849 L 149.229 118.849 C 150.048 118.849 150.25 119.327 149.681 119.915 L 144.312 125.466 C 144.028 125.76 143.665 125.694 143.503 125.318 Z " fill-rule="evenodd" id="複合パス" fill="rgb(255,255,255)"/><path d=" M 150.071 89.9 C 150.478 88.382 153.048 87.15 155.808 87.15 C 158.568 87.15 160.478 88.382 160.071 89.9 C 159.664 91.418 157.094 92.65 154.334 92.65 C 151.575 92.65 149.664 91.418 150.071 89.9 Z  M 153.686 93.747 L 148.126 99.807 C 147.573 100.41 147.788 100.9 148.607 100.9 L 155.64 100.9 C 156.459 100.9 156.887 100.279 156.595 99.514 L 154.451 93.893 C 154.305 93.51 153.962 93.445 153.686 93.747 Z " fill-rule="evenodd" id="複合パス" fill="rgb(255,255,255)"/></g></svg>