<?xml version="1.0" encoding="UTF-8" standalone="no"?><!-- Generator: Gravit.io --><svg xmlns="http://www.w3.org/2000/svg" xmlns:xlink="http://www.w3.org/1999/xlink" style="isolation:isolate" viewBox="0 0 1000 800" width="1000pt" height="800pt"><defs><clipPath id="_clipPath_fCyZNVYiD9a4YdUb9ftERiX5SeFkxG3p"><rect width="1000" height="800"/></clipPath></defs><g clip-path="url(#_clipPath_fCyZNVYiD9a4YdUb9ftERiX5SeFkxG3p)"><g style="isolation:isolate" id="outer"><path d=" M 700 135 L 729.474 25 L 329.474 25 L 149.474 25 L 39.474 25 L 35.053 41.5" id="パス" fill="none" vector-effect="non-scaling-stroke" stroke-width="1.483" stroke="rgb(0,0,0)" stroke-linejoin="miter" stroke-linecap="square" stroke-miterlimit="3"/><path d=" M 14.421 118.5 L 10 135 L 60 135 L 61.474 129.5 Q 121.461 129.371 121.474 129.5 C 121.494 129.423 236.555 129.5 304.474 129.5 C 304.495 129.506 302.989 134.998 303 135 Q 446.32 135 700 135" id="パス" fill="none" vector-effect="non-scaling-stroke" stroke-width="1.483" stroke="rgb(0,0,0)" stroke-linejoin="miter" stroke-linecap="square" stroke-miterlimit="3"/><line x1="14.421" y1="118.5" x2="35.053" y2="41.5" id="パス" vector-effect="non-scaling-stroke" stroke-width="1.483" stroke="rgb(0,0,0)" stroke-linejoin="miter" stroke-linecap="square" stroke-miterlimit="3"/></g><g style="isolation:isolate" id="booth"><path d=" M 640 135 L 360 135 L 362.947 124 L 352.947 124 L 376.527 36 L 386.527 36 L 389.474 25 L 669.474 25 L 640 135 Z " id="maps_P1" fill="rgb(209,209,209)" vector-effect="non-scaling-stroke" stroke-width="0.88" stroke="rgb(0,0,0)" stroke-linejoin="miter" stroke-linecap="square" stroke-miterlimit="3"/><path d=" M 159.474 25 L 333.474 25 L 317.116 86.05 L 253.116 86.05 L 250.169 97.05 Q 214.058 97.05 210.169 97.05 L 213.116 86.05 L 143.116 86.05 L 159.474 25 Z " id="maps_P2" fill="rgb(209,209,209)" vector-effect="non-scaling-stroke" stroke-width="0.88" stroke="rgb(0,0,0)" stroke-linejoin="miter" stroke-linecap="square" stroke-miterlimit="3"/></g><g style="isolation:isolate" id="blank"><path d=" M 700 135 L 729.474 25 L 669.474 25 L 640 135 L 700 135 Z " id="StairE" fill="rgb(93,93,93)" vector-effect="non-scaling-stroke" stroke-width="1.187" stroke="rgb(0,0,0)" stroke-linejoin="miter" stroke-linecap="square" stroke-miterlimit="3"/><path d=" M 31.597 85.5 L 23.263 85.5 L 18.842 102 L 68.842 102 L 70.316 96.5 L 73.263 85.5 L 31.597 85.5 Z " id="Student_Guidance_Office" fill="rgb(255,0,0)" vector-effect="non-scaling-stroke" stroke-width="0.89" stroke="rgb(0,0,0)" stroke-linejoin="miter" stroke-linecap="square" stroke-miterlimit="3"/><path d=" M 147.685 69 L 77.685 69 L 89.474 25 L 159.474 25 L 147.685 69 Z " id="Interview_Room" fill="rgb(93,93,93)" vector-effect="non-scaling-stroke" stroke-width="1.187" stroke="rgb(0,0,0)" stroke-linejoin="miter" stroke-linecap="square" stroke-miterlimit="3"/><path d=" M 39.474 25 L 89.474 25 L 77.685 69 L 89.474 25 L 39.474 25 L 27.685 69 L 39.474 25 Z " fill-rule="evenodd" id="StairC" fill="none" vector-effect="non-scaling-stroke" stroke-width="1.483" stroke="rgb(0,0,0)" stroke-linejoin="miter" stroke-linecap="square" stroke-miterlimit="3"/><path d=" M 60 135 L 68.842 102 L 18.842 102 L 10 135 L 60 135 Z " id="パス" fill="rgb(0,0,255)" vector-effect="non-scaling-stroke" stroke-width="0.89" stroke="rgb(0,0,0)" stroke-linejoin="miter" stroke-linecap="square" stroke-miterlimit="3"/><path d=" M 339.158 63.5 L 329.579 99.25 L 313.579 99.25 L 333.474 25 L 349.474 25 L 342.106 52.5" id="パス" fill="none" vector-effect="non-scaling-stroke" stroke-width="1.483" stroke="rgb(0,0,0)" stroke-linejoin="miter" stroke-linecap="square" stroke-miterlimit="3"/><path d=" M 207.516 106.95 L 191.516 106.95 L 197.116 86.05 L 213.116 86.05 L 207.516 106.95 Z " id="パス" fill="rgb(93,93,93)" vector-effect="non-scaling-stroke" stroke-width="1.187" stroke="rgb(0,0,0)" stroke-linejoin="miter" stroke-linecap="square" stroke-miterlimit="3"/><path d=" M 191.516 106.95 L 175.516 106.95 L 181.116 86.05 L 197.116 86.05 L 191.516 106.95 Z " id="パス" fill="rgb(93,93,93)" vector-effect="non-scaling-stroke" stroke-width="1.187" stroke="rgb(0,0,0)" stroke-linejoin="miter" stroke-linecap="square" stroke-miterlimit="3"/><path d=" M 263.516 106.95 L 247.516 106.95 L 253.116 86.05 L 269.116 86.05 L 263.516 106.95 Z " id="パス" fill="rgb(93,93,93)" vector-effect="non-scaling-stroke" stroke-width="1.187" stroke="rgb(0,0,0)" stroke-linejoin="miter" stroke-linecap="square" stroke-miterlimit="3"/><path d=" M 279.516 106.95 L 263.516 106.95 L 269.116 86.05 L 285.116 86.05 L 279.516 106.95 Z " id="パス" fill="rgb(93,93,93)" vector-effect="non-scaling-stroke" stroke-width="1.187" stroke="rgb(0,0,0)" stroke-linejoin="miter" stroke-linecap="square" stroke-miterlimit="3"/><path d=" M 311.516 106.95 L 279.516 106.95 L 285.116 86.05 L 317.116 86.05 L 311.516 106.95 Z " id="パス" fill="rgb(93,93,93)" vector-effect="non-scaling-stroke" stroke-width="1.187" stroke="rgb(0,0,0)" stroke-linejoin="miter" stroke-linecap="square" stroke-miterlimit="3"/><path d=" M 347.853 31.05 L 331.853 31.05 L 331.411 32.7 L 347.411 32.7 L 346.969 34.35 L 330.969 34.35 L 330.527 36 L 346.527 36 L 346.085 37.65 L 330.085 37.65 L 329.643 39.3 L 345.643 39.3 L 345.201 40.95 L 329.201 40.95 L 328.759 42.6 L 344.759 42.6 L 344.316 44.25 L 328.316 44.25 L 327.874 45.9 L 343.874 45.9 L 343.432 47.55 L 327.432 47.55 Q 325.281 55.579 322.864 64.6 L 338.864 64.6 L 338.422 66.25 Q 322.431 66.213 322.422 66.25 L 321.979 67.9 L 337.979 67.9 L 337.537 69.55 L 321.537 69.55 L 321.095 71.2 L 337.095 71.2 L 336.653 72.85 L 320.653 72.85 L 320.211 74.5 L 336.211 74.5 L 334.737 80 L 318.737 80 L 318.295 81.65 L 334.295 81.65 L 333.853 83.3 L 317.853 83.3 Q 317.534 85.191 317.411 84.95 Q 317.288 84.709 333.411 84.95 L 332.969 86.6 L 316.969 86.6 L 316.527 88.25 L 325.527 88.25 L 332.821 87.15 L 316.085 89.9" id="パス" fill="none" vector-effect="non-scaling-stroke" stroke-width="0.742" stroke="rgb(0,0,0)" stroke-linejoin="miter" stroke-linecap="square" stroke-miterlimit="3"/><g clip-path="url(#_clipPath_9dIHHPKRR3k8kDLpi70HDujZItgZzpFF)"><text transform="matrix(1,0,0,1,194.329,82.24)" id="text_P2" style="font-family:'Noto Sans CJK SC';font-weight:700;font-size:14px;font-style:normal;fill:#000000;stroke:none;">第二体育館</text></g><defs><clipPath id="_clipPath_9dIHHPKRR3k8kDLpi70HDujZItgZzpFF"><rect x="0" y="0" width="173.342" height="20.72" transform="matrix(1,0,0,1,143.658,66)"/></clipPath></defs><g clip-path="url(#_clipPath_kGCiwCBDGuBxA1JSlgBiOpQkWRXKLlKG)"><text transform="matrix(1,0,0,1,459.949,131.84)" id="text_P1" style="font-family:'Noto Sans CJK SC';font-weight:700;font-size:14px;font-style:normal;fill:#000000;stroke:none;">体育館/講堂</text></g><defs><clipPath id="_clipPath_kGCiwCBDGuBxA1JSlgBiOpQkWRXKLlKG"><rect x="0" y="0" width="276.671" height="20.72" transform="matrix(1,0,0,1,360.329,115.6)"/></clipPath></defs></g><path d=" M 137.516 106.95 L 143.116 86.05 L 181.116 86.05 L 175.516 106.95 L 137.516 106.95 Z " id="パス" fill="rgb(93,93,93)" vector-effect="non-scaling-stroke" stroke-width="1.187" stroke="rgb(0,0,0)" stroke-linejoin="miter" stroke-linecap="square" stroke-miterlimit="3"/><g style="isolation:isolate" id="special"/><g style="isolation:isolate" id="Decorations"><g style="isolation:isolate" id="stairB"/><g style="isolation:isolate" id="stairC"><path d=" M 685 920 L 660 920 L 660 915 L 685 915 L 685 910 L 660 910 L 660 905 L 685 905 L 685 900 L 660 900 L 660 895 L 685 895 L 685 890 L 660 890 L 660 885 L 685 885 L 685 880 L 660 880" id="パス" fill="none" vector-effect="non-scaling-stroke" stroke-width="1" stroke="rgb(0,0,0)" stroke-linejoin="miter" stroke-linecap="square" stroke-miterlimit="3"/><path d=" M 685 924 L 685 880 L 685 880 L 710 880 L 710 885 L 685 885 L 685 890 L 710 890 L 710 895 L 685 895 L 685 900 L 710 900 L 710 905 L 685 905 L 685 910 L 710 910 L 710 915 L 685 915 L 685 920 L 710 920" id="パス" fill="none" vector-effect="non-scaling-stroke" stroke-width="1" stroke="rgb(0,0,0)" stroke-linejoin="miter" stroke-linecap="square" stroke-miterlimit="3"/></g></g><g style="isolation:isolate" id="Text"/><path d=" M 33.744 114.999 C 34.151 113.482 36.721 112.249 39.481 112.249 C 42.241 112.249 44.151 113.482 43.744 114.999 C 43.337 116.517 40.767 117.749 38.007 117.749 C 35.248 117.749 33.337 116.517 33.744 114.999 Z  M 35.503 125.318 L 33.3 120.211 C 32.976 119.46 33.377 118.849 34.196 118.849 L 41.229 118.849 C 42.048 118.849 42.25 119.327 41.681 119.915 L 36.312 125.466 C 36.028 125.76 35.665 125.694 35.503 125.318 Z " fill-rule="evenodd" id="複合パス" fill="rgb(255,255,255)"/><path d=" M 42.071 89.9 C 42.478 88.382 45.048 87.15 47.808 87.15 C 50.568 87.15 52.478 88.382 52.071 89.9 C 51.664 91.418 49.094 92.65 46.334 92.65 C 43.575 92.65 41.664 91.418 42.071 89.9 Z  M 45.686 93.747 L 40.126 99.807 C 39.573 100.41 39.788 100.9 40.607 100.9 L 47.64 100.9 C 48.459 100.9 48.887 100.279 48.595 99.514 L 46.451 93.893 C 46.305 93.51 45.962 93.445 45.686 93.747 Z " fill-rule="evenodd" id="複合パス" fill="rgb(255,255,255)"/></g></svg>