<?xml version="1.0" encoding="UTF-8"?>
<!DOCTYPE svg PUBLIC "-//W3C//DTD SVG 1.1//EN" "http://www.w3.org/Graphics/SVG/1.1/DTD/svg11.dtd">
<svg xmlns="http://www.w3.org/2000/svg" version="1.1" width="1024px" height="1024px" style="shape-rendering:geometricPrecision; text-rendering:geometricPrecision; image-rendering:optimizeQuality; fill-rule:evenodd; clip-rule:evenodd" xmlns:xlink="http://www.w3.org/1999/xlink">
<g><path style="opacity:1" fill="#001e59" d="M 338.5,159.5 C 339.684,160.688 339.684,161.855 338.5,163C 334.973,163.951 331.64,165.284 328.5,167C 336.555,198.72 344.222,230.554 351.5,262.5C 339.779,266.852 327.779,270.185 315.5,272.5C 285.537,266.085 255.537,265.918 225.5,272C 204.855,276.403 187.022,285.903 172,300.5C 162.086,312.739 156.586,326.739 155.5,342.5C 155.5,344.167 155.5,345.833 155.5,347.5C 154.5,347.5 153.5,347.5 152.5,347.5C 141.149,300.918 129.982,254.251 119,207.5C 117.513,202.569 116.846,197.569 117,192.5C 147.473,173.58 180.639,162.08 216.5,158C 246.737,154.601 277.07,153.601 307.5,155C 317.947,155.844 328.281,157.344 338.5,159.5 Z"/></g>
<g><path style="opacity:1" fill="#0056b8" d="M 338.5,159.5 C 377.184,166.521 412.518,181.188 444.5,203.5C 443.167,203.5 441.833,203.5 440.5,203.5C 442.676,213.869 445.009,224.202 447.5,234.5C 448.833,234.5 450.167,234.5 451.5,234.5C 452.826,245.165 455.16,255.832 458.5,266.5C 457.528,267.399 456.862,268.566 456.5,270C 464.075,301.465 471.408,332.965 478.5,364.5C 452.167,364.5 425.833,364.5 399.5,364.5C 391.167,328.5 382.833,292.5 374.5,256.5C 366.839,258.498 359.173,260.498 351.5,262.5C 344.222,230.554 336.555,198.72 328.5,167C 331.64,165.284 334.973,163.951 338.5,163C 339.684,161.855 339.684,160.688 338.5,159.5 Z"/></g>
<g><path style="opacity:1" fill="#0055b8" d="M 531.5,183.5 C 531.5,247.833 531.5,312.167 531.5,376.5C 532.833,376.5 534.167,376.5 535.5,376.5C 534.081,377.451 532.415,377.784 530.5,377.5C 530.168,312.665 530.501,247.998 531.5,183.5 Z"/></g>
<g><path style="opacity:1" fill="#001f59" d="M 665.5,320.5 C 664.5,320.5 663.5,320.5 662.5,320.5C 656.5,295.5 650.5,270.5 644.5,245.5C 628.295,249.125 612.629,254.125 597.5,260.5C 607.573,300.625 617.573,340.792 627.5,381C 627.245,382.326 626.578,383.326 625.5,384C 613.553,387.093 601.719,390.593 590,394.5C 589.098,394.257 588.265,393.923 587.5,393.5C 585.813,383.751 583.647,374.085 581,364.5C 580.612,363.572 579.945,362.905 579,362.5C 564.356,367.105 549.856,371.772 535.5,376.5C 534.167,376.5 532.833,376.5 531.5,376.5C 531.5,312.167 531.5,247.833 531.5,183.5C 560.664,182.336 589.997,182.17 619.5,183C 621.727,189.067 623.727,195.233 625.5,201.5C 631.692,199.603 637.859,197.603 644,195.5C 644.772,195.645 645.439,195.978 646,196.5C 650.308,211.731 654.308,227.064 658,242.5C 658.414,242.957 658.914,243.291 659.5,243.5C 665.113,241.513 670.78,239.68 676.5,238C 677.059,237.275 677.392,236.442 677.5,235.5C 673.667,220.167 669.833,204.833 666,189.5C 665.242,187.231 665.409,185.064 666.5,183C 704.5,182.333 742.5,182.333 780.5,183C 782.76,189.881 785.093,196.714 787.5,203.5C 802.774,198.631 818.107,193.964 833.5,189.5C 834.994,189.709 836.161,190.376 837,191.5C 838.706,199.327 840.873,206.994 843.5,214.5C 845.333,213.948 847,213.115 848.5,212C 845.456,202.661 843.289,193.161 842,183.5C 846.748,182.365 851.581,182.198 856.5,183C 859.674,190.854 862.008,199.021 863.5,207.5C 874.249,204.813 884.916,201.813 895.5,198.5C 895.156,194.456 894.49,190.456 893.5,186.5C 893.57,185.228 893.903,184.062 894.5,183C 925.072,182.171 955.572,182.338 986,183.5C 986.5,221.499 986.667,259.499 986.5,297.5C 879.833,297.333 773.166,297.5 666.5,298C 665.519,305.413 665.186,312.913 665.5,320.5 Z"/></g>
<g><path style="opacity:1" fill="#00225e" d="M 444.5,203.5 C 454.577,210.076 463.577,217.91 471.5,227C 471.355,227.772 471.022,228.439 470.5,229C 464.178,230.942 457.844,232.775 451.5,234.5C 450.167,234.5 448.833,234.5 447.5,234.5C 445.009,224.202 442.676,213.869 440.5,203.5C 441.833,203.5 443.167,203.5 444.5,203.5 Z"/></g>
<g><path style="opacity:1" fill="#015bbe" d="M 484.5,240.5 C 483.5,240.5 482.5,240.5 481.5,240.5C 481.5,242.167 481.5,243.833 481.5,245.5C 480.539,243.735 480.205,241.735 480.5,239.5C 482.099,239.232 483.432,239.566 484.5,240.5 Z"/></g>
<g><path style="opacity:1" fill="#001f5a" d="M 484.5,240.5 C 509.919,274.082 523.252,312.082 524.5,354.5C 524.5,357.833 524.5,361.167 524.5,364.5C 509.167,364.5 493.833,364.5 478.5,364.5C 471.408,332.965 464.075,301.465 456.5,270C 456.862,268.566 457.528,267.399 458.5,266.5C 463.422,264.684 468.422,263.017 473.5,261.5C 473.92,259.674 473.92,257.674 473.5,255.5C 473.259,253.114 473.925,251.114 475.5,249.5C 477.918,248.707 479.918,247.374 481.5,245.5C 481.5,243.833 481.5,242.167 481.5,240.5C 482.5,240.5 483.5,240.5 484.5,240.5 Z"/></g>
<g><path style="opacity:1" fill="#0056b8" d="M 665.5,320.5 C 665.333,360.835 665.5,401.168 666,441.5C 692.426,442.495 718.926,442.828 745.5,442.5C 746.903,445.3 745.903,446.8 742.5,447C 698.626,461.014 654.626,474.514 610.5,487.5C 603.147,456.089 595.48,424.755 587.5,393.5C 588.265,393.923 589.098,394.257 590,394.5C 601.719,390.593 613.553,387.093 625.5,384C 626.578,383.326 627.245,382.326 627.5,381C 617.573,340.792 607.573,300.625 597.5,260.5C 612.629,254.125 628.295,249.125 644.5,245.5C 650.5,270.5 656.5,295.5 662.5,320.5C 663.5,320.5 664.5,320.5 665.5,320.5 Z"/></g>
<g><path style="opacity:1" fill="#0161c4" d="M 475.5,249.5 C 473.925,251.114 473.259,253.114 473.5,255.5C 472.539,253.735 472.205,251.735 472.5,249.5C 473.5,249.5 474.5,249.5 475.5,249.5 Z"/></g>
<g><path style="opacity:1" fill="#001f5a" d="M 130.5,400.5 C 133.152,400.59 135.485,399.924 137.5,398.5C 145.665,395.532 153.998,392.699 162.5,390C 161.111,385.608 160.111,381.108 159.5,376.5C 159.5,375.167 159.5,373.833 159.5,372.5C 160.5,372.5 161.5,372.5 162.5,372.5C 170.555,385.043 181.555,394.209 195.5,400C 208.344,404.794 221.344,409.128 234.5,413C 258.2,418.773 281.867,424.606 305.5,430.5C 305.5,431.833 305.5,433.167 305.5,434.5C 287.593,439.524 269.76,444.857 252,450.5C 250.893,450.415 249.893,450.081 249,449.5C 248.83,447.285 248.163,445.285 247,443.5C 227.98,450.048 208.814,456.215 189.5,462C 188.978,462.561 188.645,463.228 188.5,464C 194.55,487.696 199.883,511.529 204.5,535.5C 203.5,535.5 202.5,535.5 201.5,535.5C 166.466,527.769 133.133,515.602 101.5,499C 58.738,471.681 35.238,432.514 31,381.5C 25.5002,336.334 33.8335,294 56,254.5C 57.3561,253.62 58.8561,253.286 60.5,253.5C 68.8333,290.167 77.1667,326.833 85.5,363.5C 88.2075,362.551 90.8742,362.551 93.5,363.5C 95.6464,372.405 97.9797,381.239 100.5,390C 108.167,388.333 115.833,386.667 123.5,385C 124.916,389.402 126.082,393.902 127,398.5C 127.71,399.973 128.876,400.64 130.5,400.5 Z"/></g>
<g><path style="opacity:1" fill="#0192fc" d="M 478.5,364.5 C 478.5,364.833 478.5,365.167 478.5,365.5C 450.831,365.667 423.165,365.5 395.5,365C 393.744,335.153 381.411,310.819 358.5,292C 345.084,283.289 330.751,276.789 315.5,272.5C 327.779,270.185 339.779,266.852 351.5,262.5C 359.173,260.498 366.839,258.498 374.5,256.5C 382.833,292.5 391.167,328.5 399.5,364.5C 425.833,364.5 452.167,364.5 478.5,364.5 Z"/></g>
<g><path style="opacity:1" fill="#0266cb" d="M 155.5,342.5 C 156.622,344.288 156.789,346.288 156,348.5C 155.29,349.973 154.124,350.64 152.5,350.5C 152.5,349.5 152.5,348.5 152.5,347.5C 153.5,347.5 154.5,347.5 155.5,347.5C 155.5,345.833 155.5,344.167 155.5,342.5 Z"/></g>
<g><path style="opacity:1" fill="#0192fe" d="M 153.5,351.5 C 154.5,351.5 155.5,351.5 156.5,351.5C 156.5,352.5 156.5,353.5 156.5,354.5C 155.5,354.5 154.5,354.5 153.5,354.5C 153.5,353.5 153.5,352.5 153.5,351.5 Z"/></g>
<g><path style="opacity:1" fill="#0192fd" d="M 587.5,393.5 C 595.48,424.755 603.147,456.089 610.5,487.5C 654.626,474.514 698.626,461.014 742.5,447C 745.903,446.8 746.903,445.3 745.5,442.5C 791.167,442.5 836.833,442.5 882.5,442.5C 881.982,443.577 881.648,444.744 881.5,446C 883.588,454.852 885.755,463.685 888,472.5C 888.388,473.428 889.055,474.095 890,474.5C 891.15,473.576 892.15,473.576 893,474.5C 895.094,482.379 897.261,490.212 899.5,498C 914.634,494.463 929.634,490.13 944.5,485C 945.152,477.068 945.819,469.235 946.5,461.5C 946.5,492.833 946.5,524.167 946.5,555.5C 853.166,555.333 759.833,555.5 666.5,556C 665.503,600.428 665.17,644.928 665.5,689.5C 620.147,698.422 575.147,708.756 530.5,720.5C 530.666,715.821 530.499,711.155 530,706.5C 518.185,732.138 501.352,753.805 479.5,771.5C 479.38,770.414 478.713,769.747 477.5,769.5C 465.136,773.232 452.803,777.066 440.5,781C 401.238,795.975 362.071,811.142 323,826.5C 322.517,827.448 322.351,828.448 322.5,829.5C 280.177,832.797 238.177,830.297 196.5,822C 158.798,813.978 124.465,798.644 93.5,776C 84.0318,768.699 75.3651,760.532 67.5,751.5C 68.5,751.5 69.5,751.5 70.5,751.5C 64.2928,720.336 57.2928,689.336 49.5,658.5C 51.4161,656.683 53.7494,655.516 56.5,655C 80.4792,647.882 104.313,640.382 128,632.5C 142.704,692.339 157.037,752.339 171,812.5C 171.561,813.022 172.228,813.355 173,813.5C 181.895,810.868 190.728,808.035 199.5,805C 200.059,804.275 200.392,803.442 200.5,802.5C 190.828,761.148 181.162,719.815 171.5,678.5C 188.814,698.328 210.481,710.661 236.5,715.5C 234.833,715.5 233.167,715.5 231.5,715.5C 236.675,739.868 242.009,764.202 247.5,788.5C 249.857,788.663 252.19,788.497 254.5,788C 260.428,785.857 266.428,784.023 272.5,782.5C 268.439,760.925 263.439,739.592 257.5,718.5C 288.85,721.038 319.85,718.872 350.5,712C 371.721,706.484 389.221,695.317 403,678.5C 416.107,656.766 418.107,634.099 409,610.5C 405.298,603.792 400.465,597.959 394.5,593C 380.485,584.391 365.819,577.224 350.5,571.5C 351.5,571.5 352.5,571.5 353.5,571.5C 343.618,525.638 332.951,479.971 321.5,434.5C 343.845,439.558 366.178,444.725 388.5,450C 401.516,453.506 414.183,457.673 426.5,462.5C 425.307,462.97 424.64,463.97 424.5,465.5C 432.854,501.583 441.521,537.583 450.5,573.5C 451.723,574.614 453.056,574.781 454.5,574C 479.761,565.857 505.094,558.024 530.5,550.5C 530.634,548.708 530.301,547.042 529.5,545.5C 530.499,489.669 530.832,433.669 530.5,377.5C 532.415,377.784 534.081,377.451 535.5,376.5C 549.856,371.772 564.356,367.105 579,362.5C 579.945,362.905 580.612,363.572 581,364.5C 583.647,374.085 585.813,383.751 587.5,393.5 Z"/></g>
<g><path style="opacity:1" fill="#0056b8" d="M 524.5,354.5 C 525.482,357.962 525.815,361.629 525.5,365.5C 509.833,365.5 494.167,365.5 478.5,365.5C 478.5,365.167 478.5,364.833 478.5,364.5C 493.833,364.5 509.167,364.5 524.5,364.5C 524.5,361.167 524.5,357.833 524.5,354.5 Z"/></g>
<g><path style="opacity:1" fill="#015dc0" d="M 162.5,372.5 C 161.5,372.5 160.5,372.5 159.5,372.5C 159.5,373.833 159.5,375.167 159.5,376.5C 158.087,373.781 157.42,370.781 157.5,367.5C 160.659,367.57 162.326,369.237 162.5,372.5 Z"/></g>
<g><path style="opacity:1" fill="#0161c5" d="M 137.5,398.5 C 135.485,399.924 133.152,400.59 130.5,400.5C 132.515,399.076 134.848,398.41 137.5,398.5 Z"/></g>
<g><path style="opacity:1" fill="#0056b8" d="M 305.5,430.5 C 310.955,431.456 316.288,432.79 321.5,434.5C 332.951,479.971 343.618,525.638 353.5,571.5C 352.5,571.5 351.5,571.5 350.5,571.5C 337.454,568.155 324.454,564.655 311.5,561C 274.496,553.375 237.83,544.875 201.5,535.5C 202.5,535.5 203.5,535.5 204.5,535.5C 199.883,511.529 194.55,487.696 188.5,464C 188.645,463.228 188.978,462.561 189.5,462C 208.814,456.215 227.98,450.048 247,443.5C 248.163,445.285 248.83,447.285 249,449.5C 249.893,450.081 250.893,450.415 252,450.5C 269.76,444.857 287.593,439.524 305.5,434.5C 305.5,433.167 305.5,431.833 305.5,430.5 Z"/></g>
<g><path style="opacity:1" fill="#0055b8" d="M 882.5,442.5 C 885.833,442.5 889.167,442.5 892.5,442.5C 892.018,443.416 891.685,444.416 891.5,445.5C 893.861,454.869 896.195,464.203 898.5,473.5C 914.062,470.108 929.395,465.775 944.5,460.5C 945.495,454.872 945.829,449.206 945.5,443.5C 944.209,443.737 943.209,443.404 942.5,442.5C 943.833,442.5 945.167,442.5 946.5,442.5C 946.5,448.833 946.5,455.167 946.5,461.5C 945.819,469.235 945.152,477.068 944.5,485C 929.634,490.13 914.634,494.463 899.5,498C 897.261,490.212 895.094,482.379 893,474.5C 892.15,473.576 891.15,473.576 890,474.5C 889.055,474.095 888.388,473.428 888,472.5C 885.755,463.685 883.588,454.852 881.5,446C 881.648,444.744 881.982,443.577 882.5,442.5 Z"/></g>
<g><path style="opacity:1" fill="#001d58" d="M 892.5,442.5 C 909.167,442.5 925.833,442.5 942.5,442.5C 943.209,443.404 944.209,443.737 945.5,443.5C 945.829,449.206 945.495,454.872 944.5,460.5C 929.395,465.775 914.062,470.108 898.5,473.5C 896.195,464.203 893.861,454.869 891.5,445.5C 891.685,444.416 892.018,443.416 892.5,442.5 Z"/></g>
<g><path style="opacity:1" fill="#0056b8" d="M 426.5,462.5 C 466.575,473.771 498.408,496.437 522,530.5C 525.038,535.243 527.538,540.243 529.5,545.5C 530.301,547.042 530.634,548.708 530.5,550.5C 505.094,558.024 479.761,565.857 454.5,574C 453.056,574.781 451.723,574.614 450.5,573.5C 441.521,537.583 432.854,501.583 424.5,465.5C 424.64,463.97 425.307,462.97 426.5,462.5 Z"/></g>
<g><path style="opacity:1" fill="#0056b8" d="M 171.5,678.5 C 181.162,719.815 190.828,761.148 200.5,802.5C 200.392,803.442 200.059,804.275 199.5,805C 190.728,808.035 181.895,810.868 173,813.5C 172.228,813.355 171.561,813.022 171,812.5C 157.037,752.339 142.704,692.339 128,632.5C 104.313,640.382 80.4792,647.882 56.5,655C 53.7494,655.516 51.4161,656.683 49.5,658.5C 57.2928,689.336 64.2928,720.336 70.5,751.5C 69.5,751.5 68.5,751.5 67.5,751.5C 42.4204,723.662 27.2537,690.995 22,653.5C 20.0185,640.574 19.1852,627.574 19.5,614.5C 62.8333,614.5 106.167,614.5 149.5,614.5C 151.87,637.612 159.203,658.945 171.5,678.5 Z"/></g>
<g><path style="opacity:1" fill="#0056b8" d="M 665.5,689.5 C 665.5,734.5 665.5,779.5 665.5,824.5C 620.832,824.667 576.165,824.5 531.5,824C 530.504,789.573 530.171,755.073 530.5,720.5C 575.147,708.756 620.147,698.422 665.5,689.5 Z"/></g>
<g><path style="opacity:1" fill="#0056b8" d="M 236.5,715.5 C 243.539,716.255 250.539,717.255 257.5,718.5C 263.439,739.592 268.439,760.925 272.5,782.5C 266.428,784.023 260.428,785.857 254.5,788C 252.19,788.497 249.857,788.663 247.5,788.5C 242.009,764.202 236.675,739.868 231.5,715.5C 233.167,715.5 234.833,715.5 236.5,715.5 Z"/></g>
<g><path style="opacity:1" fill="#0057b9" d="M 479.5,771.5 C 473.274,778.222 466.274,784.056 458.5,789C 416.736,814.277 371.403,827.777 322.5,829.5C 322.351,828.448 322.517,827.448 323,826.5C 362.071,811.142 401.238,795.975 440.5,781C 452.803,777.066 465.136,773.232 477.5,769.5C 478.713,769.747 479.38,770.414 479.5,771.5 Z"/></g>
</svg>
